<svg width="65" height="65" viewBox="0 0 65 65" fill="none" xmlns="http://www.w3.org/2000/svg">
<path d="M63.9907 24.762H50.8023C50.2447 24.762 49.793 25.2139 49.793 25.7713C49.793 26.3286 50.2449 26.7805 50.8023 26.7805H52.4845V34.1822H33.5093V26.7805H45.4193C45.9768 26.7805 46.4285 26.3286 46.4285 25.7713C46.4285 25.2139 45.9767 24.762 45.4193 24.762H32.5C31.9425 24.762 31.4907 25.2139 31.4907 25.7713V34.1823H22.0031C21.4457 34.1823 20.9939 34.6342 20.9939 35.1916V43.6026H11.5063C10.9488 43.6026 10.497 44.0545 10.497 44.6119V53.292H1.00928C0.451826 53.292 0 53.744 0 54.3013V63.7216C0 64.2791 0.451953 64.7309 1.00928 64.7309H10.9679C11.5253 64.7309 11.9771 64.2789 11.9771 63.7216C11.9771 63.1643 11.5252 62.7123 10.9679 62.7123H2.01868V55.3107H20.9939V62.7123H16.3511C15.7936 62.7123 15.3418 63.1643 15.3418 63.7216C15.3418 64.2789 15.7937 64.7309 16.3511 64.7309H63.9907C64.5483 64.7309 65 64.2789 65 63.7216V25.7713C65 25.2138 64.5482 24.762 63.9907 24.762ZM23.0124 36.2008H41.9876V43.6025H23.0124V36.2008ZM52.4845 45.6211V53.0228H33.5093V45.6211H52.4845ZM12.5155 53.0228V45.6211H31.4907V53.0228H12.5155ZM41.9876 62.7122H23.0124V55.3106H41.9876V62.7122ZM62.9813 62.7122H44.0063V55.3106H62.9814V62.7122H62.9813ZM62.9813 53.0228H54.503V45.6211H62.9813V53.0228ZM62.9813 43.6025H44.0063V36.2008H62.9814V43.6025H62.9813ZM62.9813 34.1823H54.503V26.7807H62.9813V34.1823Z" fill="#23529A"/>
<path d="M59.9533 0.26915H45.6884C45.5919 0.26915 45.496 0.282988 45.4036 0.310156L31.6769 4.34752C31.3563 4.44184 31.111 4.6856 31.007 4.98914C30.9779 5.029 27.0213 12.5487 27.0213 12.5487C25.3567 11.4236 23.3516 10.7661 21.1957 10.7661C15.7601 10.7661 1.34531 19.9545 0.73428 20.3458C0.125032 20.7358 0.125032 21.6557 0.73428 22.0457C1.34531 22.4369 15.7601 31.6253 21.1957 31.6253C26.9465 31.6253 31.6253 26.9466 31.6253 21.1957C31.6253 18.3418 30.4722 15.7529 28.6085 13.8679L32.4705 6.51766L45.4036 10.3216C45.496 10.3486 45.5919 10.3624 45.6884 10.3624H59.9533C62.7361 10.3624 65 8.0986 65 5.31579C65 2.53298 62.7361 0.26915 59.9533 0.26915ZM29.6066 21.1957C29.6066 25.8334 25.8334 29.6067 21.1956 29.6067C17.5595 29.6067 7.96274 24.1487 3.17711 21.1957C7.96274 18.2429 17.5595 12.7847 21.1956 12.7847C23.0135 12.7847 24.6972 13.3664 26.0744 14.3508L23.0081 20.1864H15.0051C14.4476 20.1864 13.9958 20.6384 13.9958 21.1957C13.9958 21.753 14.4478 22.205 15.0051 22.205H23.618C23.993 22.205 24.337 21.9971 24.5115 21.6651L27.6114 15.7653C28.8546 17.2317 29.6066 19.1271 29.6066 21.1957ZM44.6791 8.00402L35.5387 5.31579L44.6791 2.62743V8.00402ZM59.9533 8.34375H46.6944C46.6959 8.32141 46.6977 8.29919 46.6977 8.27646V2.28783H59.9533C61.6229 2.28783 62.9813 3.6461 62.9813 5.31579C62.9813 6.98548 61.6229 8.34375 59.9533 8.34375Z" fill="#23529A"/>
<path d="M10.968 20.1863H9.08399C8.52653 20.1863 8.07471 20.6383 8.07471 21.1956C8.07471 21.7529 8.52666 22.2049 9.08399 22.2049H10.9681C11.5255 22.2049 11.9774 21.7529 11.9774 21.1956C11.9774 20.6383 11.5254 20.1863 10.968 20.1863Z" fill="#23529A"/>
</svg>
