<svg width="65" height="65" viewBox="0 0 65 65" fill="none" xmlns="http://www.w3.org/2000/svg">
<path d="M58.1787 49.9745C56.6496 49.1426 54.7153 49.2764 53.3174 50.3143C53.1389 50.4469 52.9702 50.5926 52.8131 50.7498C51.3932 52.1696 51.079 54.4308 52.0717 56.1801C53.083 57.9624 55.2281 58.8532 57.2048 58.3176C59.0253 57.8244 60.3715 56.1975 60.524 54.3206C60.6675 52.553 59.7382 50.823 58.1787 49.9745ZM57.7819 55.7186C57.0976 56.4029 56.0499 56.6299 55.1425 56.2938C54.1432 55.9239 53.4794 54.928 53.5155 53.864C53.5536 52.7423 54.367 51.7589 55.4628 51.513C56.5338 51.2726 57.6675 51.7768 58.2003 52.7378C58.7345 53.7015 58.5609 54.9398 57.7819 55.7186Z" fill="#23529A"/>
<path d="M62.7508 49.3164L49.421 35.9866L54.2464 31.1612V31.1611C56.2221 29.1853 56.2221 25.9703 54.2464 23.9944L42.9811 12.729C42.5853 12.3333 41.9436 12.3333 41.548 12.729C41.1521 13.1249 41.1521 13.7666 41.548 14.1624L45.5988 18.2132L39.3877 24.4242L34.7533 19.7899C34.3575 19.3942 33.7157 19.3942 33.32 19.7899C32.9242 20.1858 32.9242 20.8275 33.32 21.2233L37.9543 25.8576L33.6543 30.1575L31.3131 27.8164C30.9173 27.4208 30.2755 27.4205 29.8798 27.8164C29.484 28.2123 29.484 28.854 29.8798 29.2498L32.2207 31.5908L26.9652 36.8462L23.6686 33.5496C23.2728 33.1539 22.631 33.1539 22.2353 33.5496C21.8395 33.9456 21.8395 34.5872 22.2353 34.983L25.5319 38.2795L20.2763 43.5351L4.50995 27.7689L6.32551 25.9533L12.2022 31.8299C13.1584 32.7861 14.682 32.9954 15.8578 32.3231C16.9246 31.7132 17.5271 30.4899 17.3644 29.273C17.2764 28.6161 16.9709 27.9986 16.5023 27.53L14.9736 26.0012C14.5785 25.6059 14.5785 24.9628 14.9736 24.5678C15.3689 24.1724 16.0118 24.1727 16.407 24.5678L22.3313 30.492C23.2286 31.3893 24.6321 31.6363 25.7806 31.0928C26.9331 30.5475 27.6313 29.3074 27.5071 28.0402C27.4387 27.3439 27.1257 26.6867 26.6312 26.1923L19.7512 19.3123C19.3389 18.9001 19.3667 18.2044 19.8094 17.8254C20.2057 17.4862 20.816 17.5106 21.1846 17.8792L22.7134 19.408C23.2878 19.9823 24.0513 20.2987 24.8635 20.2987C25.6756 20.2987 26.4391 19.9823 27.0135 19.4081C28.1989 18.2226 28.1989 16.2937 27.0135 15.1081L25.2932 13.388C24.8982 12.9927 24.8982 12.3496 25.2932 11.9546C25.6886 11.5592 26.3313 11.5592 26.7265 11.9544L30.7399 15.9679C31.9254 17.1532 33.8543 17.1533 35.04 15.9678C36.2252 14.7824 36.2252 12.8534 35.04 11.6678L27.8254 4.4534L29.8321 2.44677L37.2234 9.83812C37.6193 10.2338 38.261 10.2338 38.6567 9.83812C39.0526 9.44216 39.0526 8.80053 38.6567 8.40469L30.5486 0.296816C30.1528 -0.0988979 29.511 -0.0988979 29.1153 0.296816L2.35987 27.0522C1.96403 27.4482 1.96403 28.0898 2.35987 28.4857L26.0575 52.1833C27.0146 53.1403 28.2872 53.6675 29.6409 53.6675C30.9946 53.6675 32.267 53.1404 33.2243 52.1833L37.9543 47.4533L51.2842 60.7832C52.6673 62.1663 54.484 62.8578 56.3008 62.8578C58.1175 62.8578 59.9344 62.1663 61.3175 60.7832L62.7507 59.3498C64.0907 58.0098 64.8287 56.2282 64.8287 54.3331C64.8287 52.4381 64.0908 50.6564 62.7508 49.3164ZM26.3921 5.88657L33.6067 13.101C34.0017 13.4963 34.0017 14.1393 33.6067 14.5344C33.2116 14.93 32.5686 14.9297 32.1732 14.5344L28.1598 10.521C26.9745 9.33577 25.0456 9.33564 23.8598 10.5211C22.6744 11.7065 22.6744 13.6356 23.8598 14.8212L25.5798 16.5411C25.9704 16.9315 25.9702 17.5839 25.5798 17.9744C25.1891 18.3649 24.5371 18.3648 24.1465 17.9743L22.6176 16.4455C21.4322 15.2602 19.5034 15.2602 18.3177 16.4455C17.7433 17.0199 17.4271 17.7834 17.4271 18.5955C17.4271 19.4076 17.7434 20.1711 18.3177 20.7455L25.1976 27.6254C25.5883 28.0159 25.5882 28.6682 25.1976 29.0587C24.807 29.4492 24.155 29.4491 23.7643 29.0586L17.8401 23.1341C16.6546 21.9488 14.7256 21.9487 13.54 23.1342C12.3547 24.3196 12.3547 26.2486 13.54 27.4342L15.0689 28.963C15.4596 29.3535 15.4593 30.0058 15.0689 30.3963C14.6783 30.7868 14.0262 30.7867 13.6356 30.3962L7.75894 24.5196L26.3921 5.88657ZM21.71 44.9688L47.0321 19.6467L47.8921 20.5067L22.57 45.8286L21.71 44.9688ZM31.791 50.7497C30.6053 51.9352 28.6765 51.9352 27.4909 50.7499L24.0033 47.262L49.3254 21.9398L52.8132 25.4275C53.9985 26.613 53.9985 28.542 52.8132 29.7277V29.7275L31.791 50.7497ZM61.3175 57.9165L59.8844 59.3497C57.9085 61.3255 54.6934 61.3255 52.7177 59.3497L39.3877 46.0198L47.9877 37.42L61.3175 50.75C62.2746 51.707 62.8017 52.9795 62.8017 54.3333C62.8017 55.687 62.2748 56.9593 61.3175 57.9165Z" fill="#23529A"/>
<path d="M9.8432 40.4185C9.65265 40.1555 9.34758 39.9999 9.02283 39.9999C8.69808 39.9999 8.39301 40.1554 8.20246 40.4185C8.15485 40.484 7.02039 42.051 5.60321 44.2479C5.29967 44.7181 5.43513 45.3454 5.90536 45.6489C6.37573 45.9522 7.00313 45.8171 7.30642 45.3467C7.96709 44.3227 8.57189 43.4289 9.02524 42.772C11.4876 46.3297 15.8472 53.2322 15.8472 56.1486C15.8472 59.9116 12.7859 62.973 9.02283 62.973C5.25981 62.973 2.19845 59.9116 2.19845 56.1486C2.19845 55.331 2.60648 53.2567 5.3389 48.5493C5.61997 48.0652 5.45531 47.4449 4.97124 47.164C4.48717 46.8829 3.86687 47.0478 3.58592 47.5318C1.28832 51.4898 0.171387 54.3084 0.171387 56.1486C0.171387 61.0293 4.14211 64.9999 9.0227 64.9999C13.9033 64.9999 17.874 61.0292 17.874 56.1486C17.8741 51.6218 10.6652 41.5518 9.8432 40.4185Z" fill="#23529A"/>
<path d="M11.0334 48.1109C10.7439 47.6319 10.1209 47.4779 9.64177 47.7676C9.16278 48.0572 9.00891 48.6801 9.29849 49.1592C12.4935 54.4467 12.6011 56.0925 12.6038 56.1485C12.6038 58.1232 10.9975 59.7296 9.02275 59.7296C8.46301 59.7296 8.00928 60.1832 8.00928 60.7431C8.00928 61.303 8.46301 61.7566 9.02275 61.7566C12.1151 61.7566 14.6309 59.2407 14.6309 56.1484C14.6309 55.6596 14.3715 53.6351 11.0334 48.1109Z" fill="#23529A"/>
</svg>
