<svg width="65" height="65" viewBox="0 0 65 65" fill="none" xmlns="http://www.w3.org/2000/svg">
<g clip-path="url(#clip0)">
<path d="M53.0053 62.9897H14.6308C16.5804 61.3783 17.8248 58.9426 17.8248 56.2217C17.8248 56.2216 17.8248 56.2214 17.8248 56.2214C17.8248 56.2213 17.8248 56.2212 17.8248 56.2212L17.8132 29.1491C17.813 28.594 17.3631 28.1444 16.808 28.1444C16.8079 28.1444 16.8078 28.1444 16.8076 28.1444C16.2524 28.1446 15.8027 28.5948 15.8029 29.15L15.8121 50.6345C14.2007 48.6868 11.7661 47.4435 9.0465 47.4435C6.32564 47.4435 3.88991 48.6879 2.2785 50.6375V8.44441C2.28738 8.40087 2.29348 8.35618 2.29665 8.31061C2.53773 4.77775 5.5026 2.0103 9.04662 2.0103C12.5795 2.0103 15.5372 4.76062 15.7943 8.27773L15.8014 24.8611C15.8017 25.4161 16.2516 25.8658 16.8066 25.8658C16.8068 25.8658 16.8069 25.8658 16.807 25.8658C17.3623 25.8656 17.8121 25.4154 17.8117 24.8602L17.8054 10.3194H25.129C25.6843 10.3194 26.1341 9.86934 26.1341 9.31417C26.1341 8.759 25.6842 8.30896 25.129 8.30896H17.8045V8.24154C17.8045 8.21895 17.8037 8.19622 17.8021 8.17362C17.4894 3.59036 13.6435 0 9.0465 0C4.52062 0 0.722939 3.47953 0.308057 7.9611C0.282031 8.05022 0.268066 8.14455 0.268066 8.2423V56.2217C0.268066 61.062 4.20603 65 9.0465 65C9.10629 65 53.0053 65 53.0053 65C53.5606 65 54.0105 64.5499 54.0105 63.9949C54.0104 63.4397 53.5605 62.9897 53.0053 62.9897ZM9.0465 62.9897C5.31458 62.9897 2.2785 59.9536 2.2785 56.2217C2.2785 52.4898 5.31458 49.4537 9.0465 49.4537C12.7784 49.4537 15.8145 52.4898 15.8145 56.2217C15.8145 59.9536 12.7784 62.9897 9.0465 62.9897Z" fill="#23529A"/>
<path d="M63.7267 8.30931H30.4896C29.9343 8.30931 29.4844 8.75936 29.4844 9.31453C29.4844 9.86969 29.9343 10.3197 30.4896 10.3197H62.7216V62.9898H58.3659C57.8107 62.9898 57.3609 63.4399 57.3609 63.995C57.3609 64.5502 57.8108 65.0001 58.3659 65.0001H63.7268C64.2821 65.0001 64.732 64.5501 64.732 63.995V9.3144C64.7319 8.75936 64.282 8.30931 63.7267 8.30931Z" fill="#23529A"/>
<path d="M9.04627 51.4639C6.42278 51.4639 4.28857 53.5983 4.28857 56.2216C4.28857 58.8451 6.42291 60.9793 9.04627 60.9793C11.6696 60.9793 13.804 58.845 13.804 56.2216C13.804 53.5983 11.6696 51.4639 9.04627 51.4639ZM9.04627 58.9691C7.53134 58.9691 6.29888 57.7367 6.29888 56.2217C6.29888 54.7068 7.53134 53.4744 9.04627 53.4744C10.5612 53.4744 11.7937 54.7068 11.7937 56.2217C11.7937 57.7367 10.5612 58.9691 9.04627 58.9691Z" fill="#23529A"/>
<path d="M57.83 52.8043H29.1497V52.8041C29.0292 52.8041 28.9096 52.8258 28.7966 52.8683L22.3636 55.2806C21.9448 55.4377 21.6801 55.8528 21.7144 56.2988C21.7486 56.7448 22.0736 57.1146 22.5115 57.2059L28.9445 58.5461C29.0119 58.5602 29.0807 58.5673 29.1494 58.5673H57.8298C58.3851 58.5673 58.835 58.1173 58.835 57.5621V53.8095C58.8351 53.2543 58.3852 52.8043 57.83 52.8043ZM28.1446 56.3257L26.3171 55.945L28.1446 55.2597V56.3257ZM52.8043 56.5567H30.1549V54.8144H52.8043V56.5567ZM56.8249 56.5567H54.8146V54.8144H56.8249V56.5567Z" fill="#23529A"/>
<path d="M55.3145 28.4287L40.9741 14.4905C40.5841 14.1112 39.9629 14.1112 39.5729 14.4905L25.2327 28.4287C25.0379 28.618 24.9282 28.878 24.9282 29.1494V48.7165C24.9282 49.2716 25.3781 49.7217 25.9334 49.7217H54.6138C55.1691 49.7217 55.619 49.2716 55.619 48.7165V29.1494C55.6189 28.8779 55.5092 28.6179 55.3145 28.4287ZM40.2734 16.6131L52.1373 28.1443H28.4095L40.2734 16.6131ZM43.4229 47.7114H37.124V38.1959H43.4229V47.7114ZM53.6085 47.7114H45.4332V37.1908C45.4332 36.6356 44.9833 36.1856 44.428 36.1856H36.1186C35.5633 36.1856 35.1134 36.6356 35.1134 37.1908V47.7114H26.9384V30.1547H53.6085V47.7114Z" fill="#23529A"/>
<path d="M40.273 20.3711C38.3886 20.3711 36.8555 21.9042 36.8555 23.7887C36.8555 25.6732 38.3886 27.2063 40.273 27.2063C42.1575 27.2063 43.6906 25.6732 43.6906 23.7887C43.6905 21.9042 42.1575 20.3711 40.273 20.3711ZM40.273 25.1959C39.4971 25.1959 38.8658 24.5646 38.8658 23.7886C38.8658 23.0126 39.497 22.3813 40.273 22.3813C41.049 22.3813 41.6803 23.0125 41.6803 23.7886C41.6802 24.5646 41.049 25.1959 40.273 25.1959Z" fill="#23529A"/>
</g>
<defs>
<clipPath id="clip0">
<rect width="65" height="65" fill="white"/>
</clipPath>
</defs>
</svg>
