<svg width="70" height="70" viewBox="0 0 70 70" fill="none" xmlns="http://www.w3.org/2000/svg">
<path d="M25.1563 6.5625C21.4788 6.5625 17.8839 7.653 14.8261 9.69611C11.7684 11.7392 9.38519 14.6432 7.97787 18.0407C6.57056 21.4383 6.20234 25.1769 6.91978 28.7837C7.63723 32.3905 9.40811 35.7036 12.0085 38.304C14.6089 40.9044 17.922 42.6753 21.5288 43.3927C25.1356 44.1102 28.8742 43.742 32.2718 42.3346C35.6693 40.9273 38.5733 38.5441 40.6164 35.4864C42.6595 32.4287 43.75 28.8337 43.75 25.1562C43.7445 20.2266 41.7838 15.5004 38.298 12.0146C34.8121 8.52875 30.0859 6.568 25.1563 6.5625ZM25.1563 41.5625C21.9114 41.5625 18.7394 40.6003 16.0414 38.7976C13.3434 36.9948 11.2406 34.4325 9.99886 31.4347C8.75711 28.4368 8.43221 25.1381 9.06525 21.9555C9.69829 18.773 11.2608 15.8497 13.5553 13.5553C15.8497 11.2608 18.7731 9.69828 21.9556 9.06524C25.1381 8.4322 28.4368 8.7571 31.4347 9.99885C34.4325 11.2406 36.9948 13.3434 38.7976 16.0414C40.6003 18.7394 41.5625 21.9114 41.5625 25.1562C41.5576 29.5059 39.8275 33.6761 36.7518 36.7518C33.6761 39.8275 29.506 41.5576 25.1563 41.5625Z" fill="#23529A"/>
<path d="M36.7774 21.0208L25.8399 12.2708C25.6459 12.1155 25.4048 12.0309 25.1563 12.0309C24.9078 12.0309 24.6667 12.1155 24.4727 12.2708L13.5352 21.0208C13.3581 21.1624 13.2294 21.3555 13.1669 21.5734C13.1044 21.7913 13.1111 22.0233 13.1862 22.2372C13.2613 22.4511 13.401 22.6364 13.586 22.7675C13.7709 22.8986 13.9921 22.9689 14.2188 22.9688H15.3125V35C15.3125 35.2901 15.4278 35.5683 15.6329 35.7734C15.838 35.9786 16.1162 36.0938 16.4063 36.0938H33.9063C34.1964 36.0938 34.4746 35.9786 34.6797 35.7734C34.8848 35.5683 35 35.2901 35 35V22.9688H36.0938C36.3205 22.9689 36.5416 22.8986 36.7266 22.7675C36.9116 22.6364 37.0513 22.4511 37.1263 22.2372C37.2014 22.0233 37.2081 21.7913 37.1456 21.5734C37.0831 21.3555 36.9544 21.1624 36.7774 21.0208ZM27.3438 33.9063H22.9688V27.3438H27.3438V33.9063ZM32.8125 21.875V33.9063H29.5313V26.25C29.5313 25.96 29.416 25.6818 29.2109 25.4766C29.0058 25.2715 28.7276 25.1563 28.4375 25.1563H21.875C21.5849 25.1563 21.3067 25.2715 21.1016 25.4766C20.8965 25.6818 20.7813 25.96 20.7813 26.25V33.9063H17.5V21.875C17.5 21.7052 17.4605 21.5378 17.3846 21.3859C17.3086 21.234 17.1984 21.1019 17.0625 21L25.1563 14.5261L33.25 21C33.1142 21.1019 33.0039 21.234 32.928 21.3859C32.8521 21.5378 32.8125 21.7052 32.8125 21.875Z" fill="#23529A"/>
<path d="M21.2702 54.8023L12.5202 50.4273C12.3684 50.3514 12.201 50.3119 12.0313 50.3119C11.8616 50.3119 11.6942 50.3514 11.5424 50.4273L2.79239 54.8023C2.57169 54.9123 2.39463 55.0936 2.28995 55.3169C2.18528 55.5402 2.15913 55.7923 2.21574 56.0323C2.27235 56.2723 2.40841 56.4861 2.60184 56.6391C2.79526 56.7921 3.0347 56.8752 3.2813 56.8749H4.37505V66.7187C4.37505 67.0088 4.49028 67.287 4.6954 67.4921C4.90052 67.6972 5.17872 67.8124 5.4688 67.8124H18.5938C18.8839 67.8124 19.1621 67.6972 19.3672 67.4921C19.5723 67.287 19.6875 67.0088 19.6875 66.7187V56.8749H20.7813C21.0299 56.8777 21.2721 56.7957 21.4678 56.6425C21.6636 56.4892 21.8013 56.2738 21.8583 56.0317C21.9152 55.7897 21.888 55.5355 21.7811 55.311C21.6742 55.0865 21.494 54.9052 21.2702 54.7968V54.8023ZM13.125 65.6249H10.9375V61.2499H13.125V65.6249ZM17.5 55.7812V65.6249H15.3125V60.1562C15.3125 59.8661 15.1973 59.5879 14.9922 59.3828C14.7871 59.1777 14.5089 59.0624 14.2188 59.0624H9.8438C9.55372 59.0624 9.27552 59.1777 9.0704 59.3828C8.86528 59.5879 8.75005 59.8661 8.75005 60.1562V65.6249H6.56255V55.7812C6.56276 55.6501 6.53942 55.5201 6.49364 55.3973L12.0313 52.629L17.569 55.3973C17.5232 55.5201 17.4998 55.6501 17.5 55.7812Z" fill="#23529A"/>
<path d="M67.2077 6.6774L58.4577 2.3024C58.3059 2.22653 58.1385 2.18704 57.9688 2.18704C57.7991 2.18704 57.6317 2.22653 57.4799 2.3024L48.7299 6.6774C48.5092 6.78739 48.3321 6.96875 48.2275 7.19202C48.1228 7.4153 48.0966 7.6674 48.1532 7.90741C48.2099 8.14742 48.3459 8.36125 48.5393 8.51421C48.7328 8.66718 48.9722 8.75028 49.2188 8.75005H50.3125V18.5938C50.3125 18.8839 50.4278 19.1621 50.6329 19.3672C50.838 19.5723 51.1162 19.6876 51.4063 19.6876H64.5313C64.8214 19.6876 65.0996 19.5723 65.3047 19.3672C65.5098 19.1621 65.625 18.8839 65.625 18.5938V8.75005H66.7188C66.9654 8.75028 67.2048 8.66718 67.3983 8.51421C67.5917 8.36125 67.7277 8.14742 67.7844 7.90741C67.841 7.6674 67.8148 7.4153 67.7101 7.19202C67.6055 6.96875 67.4284 6.78739 67.2077 6.6774ZM59.0625 17.5001H56.875V13.1251H59.0625V17.5001ZM63.4375 7.6563V17.5001H61.25V12.0313C61.25 11.7412 61.1348 11.463 60.9297 11.2579C60.7246 11.0528 60.4464 10.9376 60.1563 10.9376H55.7813C55.4912 10.9376 55.213 11.0528 55.0079 11.2579C54.8028 11.463 54.6875 11.7412 54.6875 12.0313V17.5001H52.5V7.6563C52.5003 7.52524 52.4769 7.3952 52.4311 7.2724L57.9688 4.50411L63.5065 7.2724C63.4607 7.3952 63.4373 7.52524 63.4375 7.6563Z" fill="#23529A"/>
<path d="M47.5399 39.806C47.3348 39.6009 47.0566 39.4858 46.7666 39.4858C46.4766 39.4858 46.1984 39.6009 45.9933 39.806L45.2201 40.5782L43.5313 38.885C47.0243 34.2172 48.6194 28.3994 47.9954 22.6028C47.3715 16.8062 44.5748 11.4611 40.1684 7.64363C35.7619 3.82611 30.0729 1.81956 24.2466 2.02791C18.4202 2.23625 12.889 4.64402 8.76654 8.76652C4.64403 12.889 2.23627 18.4202 2.02792 24.2465C1.81958 30.0729 3.82612 35.7619 7.64364 40.1684C11.4612 44.5748 16.8062 47.3715 22.6028 47.9954C28.3994 48.6194 34.2172 47.0243 38.8851 43.5313L40.5782 45.22L39.806 45.9922C39.601 46.1973 39.4858 46.4755 39.4858 46.7655C39.4858 47.0555 39.601 47.3337 39.806 47.5388L58.3669 66.1008C59.3941 67.119 60.7827 67.6888 62.2289 67.6857C63.6752 67.6825 65.0613 67.1066 66.0839 66.0839C67.1066 65.0613 67.6825 63.6752 67.6857 62.2289C67.6889 60.7827 67.119 59.394 66.1008 58.3669L47.5399 39.806ZM4.37506 25.1563C4.37506 21.0462 5.59386 17.0283 7.87733 13.6109C10.1608 10.1934 13.4064 7.52981 17.2037 5.95693C21.0009 4.38404 25.1794 3.9725 29.2105 4.77435C33.2417 5.5762 36.9446 7.55542 39.8509 10.4617C42.7572 13.368 44.7364 17.0709 45.5383 21.1021C46.3401 25.1332 45.9286 29.3117 44.3557 33.1089C42.7828 36.9062 40.1192 40.1518 36.7018 42.4353C33.2843 44.7188 29.2665 45.9375 25.1563 45.9375C19.6466 45.9315 14.3644 43.7401 10.4685 39.8441C6.57254 35.9482 4.38114 30.666 4.37506 25.1563ZM42.128 40.5782L43.6691 42.1204L42.1204 43.6691L40.5782 42.1269C41.1192 41.6362 41.6358 41.1199 42.128 40.5782ZM64.5499 64.5543C63.9247 65.1509 63.0937 65.4837 62.2295 65.4837C61.3653 65.4837 60.5343 65.1509 59.9091 64.5543L42.1258 46.7655L46.7666 42.1258L64.5543 59.9135C64.859 60.2182 65.1008 60.5799 65.2657 60.9781C65.4306 61.3762 65.5155 61.8029 65.5155 62.2339C65.5155 62.6648 65.4306 63.0915 65.2657 63.4897C65.1008 63.8878 64.859 64.2496 64.5543 64.5543H64.5499Z" fill="#23529A"/>
<path d="M60.2759 61.8359L61.8227 60.2892L63.3695 61.8359L61.8227 63.3827L60.2759 61.8359Z" fill="#23529A"/>
<path d="M52.5444 54.1024L54.091 52.5558L60.2765 58.7413L58.7299 60.2879L52.5444 54.1024Z" fill="#23529A"/>
<path d="M21.875 60.1562H26.25V62.3438H21.875V60.1562Z" fill="#23529A"/>
<path d="M28.4375 60.1562H32.8125V62.3438H28.4375V60.1562Z" fill="#23529A"/>
<path d="M35 60.1562H39.375V62.3438H35V60.1562Z" fill="#23529A"/>
<path d="M41.5625 60.1562H45.9375V62.3438H41.5625V60.1562Z" fill="#23529A"/>
<path d="M56.875 21.875H59.0625V26.25H56.875V21.875Z" fill="#23529A"/>
<path d="M56.875 28.4375H59.0625V32.8125H56.875V28.4375Z" fill="#23529A"/>
<path d="M56.875 35H59.0625V39.375H56.875V35Z" fill="#23529A"/>
<path d="M56.875 41.5625H59.0625V45.9375H56.875V41.5625Z" fill="#23529A"/>
</svg>
