<svg width="172" height="55" fill="none" xmlns="http://www.w3.org/2000/svg"><g clip-path="url(#clip0)"><path d="M25.848 31.345l1.599-5.965h2.456c1.013 0 1.754.156 2.26.429.508.273.742.662.664 1.17-.078.584-.624 1.013-1.638 1.325.39.078.663.234.897.468.195.234.312.507.273.818-.078.546-.39.975-1.014 1.287-.624.312-1.442.468-2.456.468h-3.04zm1.91-2.69l-.506 1.871h1.637c.507 0 .936-.078 1.287-.273.35-.156.545-.39.623-.702.078-.272 0-.506-.194-.662-.195-.156-.507-.234-.936-.273l-1.91.039zm.195-.78h1.443c.507 0 .936-.078 1.286-.234.312-.156.507-.39.585-.624.117-.506-.312-.78-1.208-.78H28.42l-.468 1.638zm16.959-1.676h-2.807l-1.403 5.146h-1.56l1.404-5.146h-2.807l.234-.82h7.173l-.234.82zm6.511 5.224c-.624 0-1.13-.117-1.598-.273-.468-.195-.82-.43-1.053-.78-.273-.35-.39-.702-.429-1.13-.039-.351 0-.741.156-1.21.117-.467.351-.857.663-1.247.312-.39.702-.663 1.17-.935.74-.39 1.598-.585 2.573-.546.935 0 1.637.234 2.183.624.546.39.858.935.896 1.598.04.35-.038.74-.155 1.17-.117.428-.312.857-.624 1.208s-.663.663-1.092.936c-.78.39-1.676.585-2.69.585zm2.924-3.236l.04-.43c.038-.311 0-.584-.118-.818a1.304 1.304 0 00-.546-.585 2.407 2.407 0 00-.974-.194c-.546 0-1.014.077-1.443.272-.429.195-.74.507-1.014.936-.272.429-.39.936-.467 1.56-.04.506.078.896.35 1.17.273.272.702.428 1.248.428.74 0 1.365-.156 1.832-.546.468-.35.78-.896.936-1.56l.156-.233zm12.71-2.807h1.637l-1.637 5.965h-1.56l1.131-4.172-5.03 4.172h-1.637l1.599-5.965h1.56l-1.131 4.171 5.068-4.171zm12.358 5.965h-1.56l.703-2.651h-4.016l-.702 2.65h-1.56l1.6-5.964h1.559l-.663 2.495h4.016l.662-2.495h1.56l-1.599 5.965zm12.905-5.146h-2.807l-1.404 5.146H86.55l1.404-5.146h-2.807l.233-.82h7.174l-.234.82zm9.123 2.456h-3.704l-.507 1.832h4.328l-.234.819H95.4l1.598-5.965h5.926l-.234.819h-4.288l-.429 1.637h3.704l-.234.858zm6.705.468l-.585 2.222h-1.559l1.598-5.965h3.236c.975 0 1.716.156 2.3.507.546.35.78.78.741 1.364-.078.585-.429 1.053-1.091 1.365-.663.35-1.521.507-2.613.507h-2.027zm.195-.82h1.793c.585 0 1.053-.077 1.404-.272s.585-.429.663-.78c.078-.312-.039-.546-.273-.74-.234-.195-.585-.273-1.053-.312h-1.949l-.585 2.105zm16.453 1.092c-.156.624-.585 1.131-1.326 1.482-.702.35-1.598.546-2.612.546a4.825 4.825 0 01-1.559-.273 2.583 2.583 0 01-1.053-.741c-.273-.312-.39-.702-.429-1.13-.039-.313.039-.741.195-1.287a3.56 3.56 0 01.819-1.443c.429-.428.896-.74 1.52-.974.585-.234 1.248-.312 1.988-.312.936 0 1.638.195 2.184.546.546.35.818.857.857 1.481h-1.559c-.039-.429-.156-.74-.429-.936-.273-.194-.624-.273-1.13-.311-.702 0-1.287.155-1.755.467-.468.351-.78.82-.936 1.443l-.117.546-.039.428c-.038.273.001.546.078.78.078.234.273.43.507.546.234.117.546.195.936.195 1.17.039 1.949-.35 2.3-1.17l1.56.117zm11.968-3.196h-2.807l-1.403 5.146h-1.56l1.404-5.146h-2.807l.234-.82h7.173l-.234.82zm5.264 2.924l-.585 2.222h-1.56l1.599-5.965h3.236c.974 0 1.715.156 2.3.507.546.35.78.78.741 1.364-.078.585-.429 1.053-1.092 1.365-.663.35-1.521.507-2.612.507h-2.027zm.233-.82h1.794c.585 0 1.052-.077 1.403-.272s.585-.429.663-.78c.078-.312-.039-.546-.273-.74-.234-.195-.585-.273-1.052-.312h-1.95l-.585 2.105zm12.632 3.12a4.89 4.89 0 01-1.599-.273c-.467-.195-.818-.43-1.052-.78-.273-.35-.39-.702-.429-1.13-.039-.351 0-.741.156-1.21.117-.467.351-.857.663-1.247.311-.39.701-.663 1.169-.935.741-.39 1.599-.585 2.573-.546.936 0 1.638.234 2.184.624.545.39.857.935.896 1.598.039.35-.039.74-.156 1.17-.117.428-.312.857-.623 1.208a5.117 5.117 0 01-1.092.936c-.819.39-1.677.585-2.69.585zm2.885-3.236l.039-.43c.039-.311 0-.584-.117-.818a1.304 1.304 0 00-.546-.585 2.408 2.408 0 00-.975-.194c-.545 0-1.013.077-1.442.272-.429.195-.741.507-1.014.936-.273.429-.39.936-.468 1.56-.039.506.078.896.351 1.17.273.272.702.428 1.248.428.741 0 1.325-.156 1.832-.546.468-.35.78-.896.936-1.56l.156-.233zm12.71-2.807h1.637l-1.598 5.965h-1.56l1.131-4.172-5.029 4.172h-1.638l1.599-5.965h1.559l-1.131 4.171 5.03-4.171zm.468-1.52c-.039.35-.273.662-.663.857-.39.195-.897.312-1.443.312s-1.013-.117-1.364-.312c-.351-.195-.507-.507-.507-.819h1.131c-.039.39.233.585.74.585.273 0 .507-.039.663-.156.156-.117.273-.234.312-.429l1.131-.039zM19.532 29.98h-2.885l-.857 1.404h-1.287l3.743-5.965h1.403l1.793 5.965h-1.559l-.35-1.404zm-2.339-.857h2.144l-.623-2.457-1.521 2.457z" fill="#F23F3F"/><path d="M45.965.078H35.088L21.52 21.52h12.125l2.73-4.756.857 4.561 12.593.195L45.965.078zm6.277 35.165l-39.415.312L.78 54.66h13.645l6.9-11.306h18.52L41.52 54.66h14.23l-3.508-19.416zM82.846 21.52h-13.84L73.684.117h13.84L82.846 21.52zm51.696-.078h-14.074S124.756 0 148.031 0c22.612 0 22.768 21.404 22.768 21.404l-13.918.038s-1.949-9.512-9.006-9.746c-11.033-.351-13.333 9.746-13.333 9.746zm20.741 13.801h13.723s-4.523 19.494-27.797 19.494c-22.612 0-21.482-19.494-21.482-19.494h14.152s1.248 7.993 9.747 7.993c9.707 0 11.657-7.992 11.657-7.992zM114.152 21.52H88.967L104.912.117h13.918l-4.678 21.403zM97.27 35.243h13.841l-4.679 19.455h-13.84l4.679-19.455zm-30.486 0H91.15L74.386 54.698h-12.28l4.678-19.455z" fill="#23529A"/></g><defs><clipPath id="clip0"><path fill="#fff" d="M0 0h171.754v55H0z"/></clipPath></defs></svg>