<svg width="65" height="625" fill="none" xmlns="http://www.w3.org/2000/svg"><path opacity=".5" d="M21.31 27.5l.61.793.39-.3V27.5h-1zm0-17.6h1v-1h-1v1zM-14 9.9h-1v1h1v-1zm0-7.92v-1h-1v1h1zm77 0h1v-1h-1v1zm0 7.92v1h1v-1h-1zm-34.54 0v-1h-1v1h1zm0 17.6h-1v.498l.398.3.602-.798zM63 53.57h1v-.498l-.398-.3-.602.798zm0 8.8l-.607.794L64 64.394V62.37h-1zm-37.4-28.6l.607-.794-.607-.465-.607.464.607.795zM-14 64.02h-1v2.022l1.607-1.227-.607-.795zm0-9.35l-.61-.793-.39.3v.493h1zM22.31 27.5V9.9h-2v17.6h2zm-1-18.6H-14v2h35.31v-2zM-13 9.9V1.98h-2V9.9h2zm-1-6.92h77v-2h-77v2zm76-1V9.9h2V1.98h-2zm1 6.92H28.46v2H63v-2zm-35.54 1v17.6h2V9.9h-2zm.398 18.398l34.54 26.07 1.204-1.596-34.54-26.07-1.204 1.596zM62 53.57v8.8h2v-8.8h-2zm1.608 8.006l-37.4-28.6-1.215 1.588 37.4 28.6 1.215-1.588zm-38.615-28.6l-39.6 30.25 1.214 1.589 39.6-30.25-1.214-1.59zM-13 64.02v-9.35h-2v9.35h2zm-.39-8.557l35.31-27.17-1.22-1.585-35.31 27.17 1.22 1.584zm3.79 33.94l-.873-.488-.006.012.879.476zm14.08-14.52l-.502-.865-.008.005.51.86zm40.04 0l.51-.86-.008-.005-.502.865zm13.97 14.52l-.877.48.002.004.875-.484zm.11 41.36l-.875-.484-.002.004.877.48zm-14.08 14.52l-.505-.863-.005.003.51.86zm-40.15 0l-.51.861.005.002.505-.863zm-13.97-14.52l.877-.48-.002-.004-.875.484zm6.27-4.07l-.875.484.005.01.87-.494zm11.44 11.55l-.499.867.006.003.493-.87zm32.67 0l-.493-.869-.006.003.499.866zm11.44-11.55l-.87-.493-.005.01.875.483zm0-33.11l-.875.484.002.004.873-.488zm-11.44-11.66l.503-.864-.004-.002-.499.866zm-32.67 0l-.493-.87-.008.005-.008.004.509.861zm-11.44 11.66l-.87-.493-.004.008-.004.007.878.478zm-10.33 16.61c0-7.473 1.651-14.237 4.94-20.314l-1.76-.952c-3.458 6.39-5.18 13.486-5.18 21.266h2zm4.933-20.301c3.362-6.01 7.932-10.72 13.717-14.148l-1.02-1.72c-6.095 3.611-10.912 8.58-14.443 14.891l1.746.977zM4.982 75.748c5.776-3.351 12.273-5.035 19.518-5.035v-2c-7.569 0-14.418 1.763-20.522 5.305l1.004 1.73zM24.5 70.713c7.245 0 13.742 1.684 19.518 5.035l1.004-1.73c-6.105-3.542-12.953-5.305-20.522-5.305v2zm19.51 5.03c5.783 3.428 10.314 8.135 13.603 14.14l1.754-.96c-3.458-6.314-8.24-11.287-14.337-14.9l-1.02 1.72zm13.605 14.144c3.359 6.075 5.045 12.837 5.045 20.306h2c0-7.783-1.76-14.882-5.295-21.273l-1.75.967zm5.045 20.306c0 7.474-1.651 14.161-4.935 20.086l1.75.969c3.463-6.249 5.185-13.275 5.185-21.055h-2zm-4.937 20.09c-3.287 6.002-7.852 10.71-13.708 14.137l1.01 1.726c6.171-3.612 10.992-8.585 14.452-14.902l-1.754-.961zm-13.713 14.14c-5.774 3.422-12.27 5.14-19.51 5.14v2c7.572 0 14.424-1.801 20.53-5.419l-1.02-1.721zm-19.51 5.14c-7.24 0-13.774-1.718-19.625-5.143l-1.01 1.726c6.176 3.616 13.062 5.417 20.635 5.417v-2zm-19.62-5.14c-5.783-3.427-10.314-8.134-13.603-14.14l-1.754.961c3.458 6.314 8.24 11.287 14.337 14.9l1.02-1.721zm-13.605-14.144c-3.284-5.925-4.935-12.612-4.935-20.086h-2c0 7.78 1.722 14.806 5.185 21.055l1.75-.969zm.325-20.086c0 6.241 1.393 11.91 4.195 16.984l1.75-.967c-2.624-4.753-3.945-10.084-3.945-16.017h-2zm4.2 16.994c2.874 5.066 6.814 9.046 11.811 11.923l.998-1.733C3.926 134.68.239 130.96-2.461 126.2l-1.739.987zm11.817 11.926c5.073 2.878 10.708 4.31 16.883 4.31v-2c-5.852 0-11.143-1.354-15.897-4.049l-.986 1.739zm16.883 4.31c6.175 0 11.776-1.432 16.779-4.313l-.998-1.733c-4.677 2.692-9.929 4.046-15.781 4.046v2zm16.773-4.31c5.073-2.877 9.02-6.86 11.822-11.936l-1.75-.967c-2.624 4.751-6.304 8.467-11.058 11.164l.986 1.739zm11.817-11.926c2.878-5.076 4.31-10.748 4.31-16.994h-2c0 5.928-1.355 11.256-4.05 16.007l1.74.987zm4.31-16.994c0-6.246-1.432-11.952-4.307-17.097l-1.746.975c2.698 4.828 4.053 10.195 4.053 16.122h2zM53.095 93.1c-2.801-5.074-6.745-9.091-11.812-12.04l-1.006 1.728c4.76 2.77 8.443 6.526 11.068 11.279l1.75-.967zM41.28 81.057c-5.003-2.881-10.604-4.314-16.779-4.314v2c5.852 0 11.104 1.354 15.781 4.047l.998-1.733zM24.5 76.743c-6.175 0-11.81 1.433-16.883 4.31l.986 1.74c4.754-2.696 10.045-4.05 15.897-4.05v-2zm-16.899 4.32c-4.99 2.949-8.928 6.962-11.8 12.027l1.739.987c2.7-4.762 6.39-8.522 11.079-11.293L7.6 81.062zm-11.81 12.042C-7.006 98.25-8.4 103.952-8.4 110.193h2c0-5.932 1.32-11.302 3.948-16.132l-1.756-.956zM63 234.338v1h1v-1h-1zm-77 0h-1v1h1v-1zm0-8.03v-1h-1v1h1zm35.53 0v1h1v-1h-1zm0-48.18h1v-1h-1v1zm-35.53 0h-1v1h1v-1zm0-8.14v-1h-1v1h1zm77 0h1v-1h-1v1zm0 8.14v1h1v-1h-1zm-34.32 0v-1h-1v1h1zm0 48.18h-1v1h1v-1zm34.32 0h1v-1h-1v1zm0 7.03h-77v2h77v-2zm-76 1v-8.03h-2v8.03h2zm-1-7.03h35.53v-2H-14v2zm36.53-1v-48.18h-2v48.18h2zm-1-49.18H-14v2h35.53v-2zm-34.53 1v-8.14h-2v8.14h2zm-1-7.14h77v-2h-77v2zm76-1v8.14h2v-8.14h-2zm1 7.14H28.68v2H63v-2zm-35.32 1v48.18h2v-48.18h-2zm1 49.18H63v-2H28.68v2zm33.32-1v8.03h2v-8.03h-2zm-6.04 84.402h-1v1h1v-1zm0-27.06h1v-1h-1v1zm-69.96 0h-1v1h1v-1zm0-8.03v-1h-1v1h1zm69.96 0v1h1v-1h-1zm0-27.06v-1h-1v1h1zm7.04 0h1v-1h-1v1zm0 62.15v1h1v-1h-1zm-6.04 0v-27.06h-2v27.06h2zm-1-28.06H-14v2h69.96v-2zm-68.96 1v-8.03h-2v8.03h2zm-1-7.03h69.96v-2H-14v2zm70.96-1v-27.06h-2v27.06h2zm-1-26.06H63v-2h-7.04v2zm6.04-1v62.15h2v-62.15h-2zm1 61.15h-7.04v2H63v-2zm-56.43 60.7l.41.913.59-.266v-.647h-1zm0-42.9h1v-.647l-.59-.265-.41.912zM-14 318.27h-1v.647l.59.266.41-.913zm0-8.47l.416-.909-1.416-.647v1.556h1zM63 345h1v-.642l-.584-.267L63 345zm0 8.03l.416.91.584-.267v-.643h-1zm-77 35.2h-1v1.557l1.416-.647-.416-.91zm0-8.58l-.41-.912-.59.265v.647h1zm27.17-12.21h-1v1.542l1.408-.629-.408-.913zm41.36-18.48l.408.913 2.043-.913-2.043-.913-.408.913zm-41.36-18.48l.408-.913-1.408-.629v1.542h1zm-5.6 39.93v-42.9h-2v42.9h2zm-.59-43.812l-20.57-9.24-.82 1.825 20.57 9.24.82-1.825zM-13 318.27v-8.47h-2v8.47h2zm-1.416-7.56l77 35.2.832-1.819-77-35.2-.832 1.819zM62 345v8.03h2V345h-2zm.584 7.121l-77 35.2.832 1.819 77-35.2-.832-1.819zM-13 388.23v-8.58h-2v8.58h2zm-.59-7.667l20.57-9.24-.82-1.825-20.57 9.24.82 1.825zm27.168-12.21l41.36-18.48-.816-1.826-41.36 18.48.816 1.826zm41.36-20.306l-41.36-18.48-.816 1.826 41.36 18.48.816-1.826zM12.17 330.48v36.96h2v-36.96h-2zm9.14 98.026l.61.792.39-.3v-.492h-1zm0-17.6h1v-1h-1v1zm-35.31 0h-1v1h1v-1zm0-7.92v-1h-1v1h1zm77 0h1v-1h-1v1zm0 7.92v1h1v-1h-1zm-34.54 0v-1h-1v1h1zm0 17.6h-1v.498l.398.3.602-.798zM63 454.576h1v-.498l-.398-.3-.602.798zm0 8.8l-.608.794L64 465.399v-2.023h-1zm-37.4-28.6l.607-.794-.607-.465-.607.464.607.795zm-39.6 30.25h-1v2.022l1.607-1.227-.607-.795zm0-9.35l-.61-.793-.39.301v.492h1zm36.31-27.17v-17.6h-2v17.6h2zm-1-18.6H-14v2h35.31v-2zm-34.31 1v-7.92h-2v7.92h2zm-1-6.92h77v-2h-77v2zm76-1v7.92h2v-7.92h-2zm1 6.92H28.46v2H63v-2zm-35.54 1v17.6h2v-17.6h-2zm.398 18.398l34.54 26.07 1.204-1.596-34.54-26.07-1.204 1.596zM62 454.576v8.8h2v-8.8h-2zm1.607 8.006l-37.4-28.6-1.215 1.588 37.4 28.6 1.215-1.588zm-38.614-28.601l-39.6 30.25 1.214 1.59 39.6-30.25-1.214-1.59zM-13 465.026v-9.35h-2v9.35h2zm-.39-8.558l35.31-27.17-1.22-1.585-35.31 27.17 1.22 1.585zm69.35 70.804h-1v1h1v-1zm0-27.06h1v-1h-1v1zm-69.96 0h-1v1h1v-1zm0-8.03v-1h-1v1h1zm69.96 0v1h1v-1h-1zm0-27.06v-1h-1v1h1zm7.04 0h1v-1h-1v1zm0 62.15v1h1v-1h-1zm-6.04 0v-27.06h-2v27.06h2zm-1-28.06H-14v2h69.96v-2zm-68.96 1v-8.03h-2v8.03h2zm-1-7.03h69.96v-2H-14v2zm70.96-1v-27.06h-2v27.06h2zm-1-26.06H63v-2h-7.04v2zm6.04-1v62.15h2v-62.15h-2zm1 61.15h-7.04v2H63v-2zM29.34 594.58l-.758-.653-.005.006.763.647zm-36.96-.44l-.766.644.001.001.765-.645zM-14 541.56v-1h-1v1h1zm77 0h1v-1h-1v1zm0 8.03v1h1v-1h-1zm-27.5 0v-1h-1v1h1zm-38.28 38.5l.765-.645-.007-.007-.758.652zm31.68-38.5h1v-1h-1v1zm-36.41 0v-1h-1v1h1zM63 615.15h1v-1h-1v1zm0 8.03v1h1v-1h-1zm-77 0h-1v1h1v-1zm0-8.03v-1h-1v1h1zm48.5-41.36c0 8.959-2.024 15.618-5.918 20.137l1.516 1.306c4.32-5.014 6.402-12.215 6.402-21.443h-2zm-5.922 20.143c-3.871 4.562-9.573 6.907-17.278 6.907v2c8.135 0 14.46-2.495 18.802-7.613l-1.524-1.294zM11.3 600.84c-8.067 0-14.062-2.488-18.155-7.344l-1.53 1.289c4.56 5.41 11.179 8.055 19.685 8.055v-2zm-18.155-7.343C-10.9 588.683-13 581.615-13 572.14h-2c0 9.738 2.154 17.337 6.614 22.644l1.531-1.287zM-13 572.14v-30.58h-2v30.58h2zm-1-29.58h77v-2h-77v2zm76-1v8.03h2v-8.03h-2zm1 7.03H35.5v2H63v-2zm-28.5 1v24.2h2v-24.2h-2zm-43.01 22.33c0 7.243 1.603 12.905 4.972 16.822l1.516-1.304c-2.938-3.416-4.488-8.534-4.488-15.518h-2zm4.965 16.815c3.391 4.021 8.363 5.965 14.735 5.965v-2c-5.948 0-10.29-1.796-13.206-5.255l-1.529 1.29zM11.19 594.7c6.118 0 10.868-1.891 14.058-5.814 3.158-3.883 4.652-9.596 4.652-16.966h-2c0 7.15-1.458 12.327-4.203 15.704-2.714 3.337-6.819 5.076-12.507 5.076v2zm18.71-22.78v-22.33h-2v22.33h2zm-1-23.33H-7.51v2H28.9v-2zm-37.41 1v22.33h2v-22.33h-2zM62 615.15v8.03h2v-8.03h-2zm1 7.03h-77v2h77v-2zm-76 1v-8.03h-2v8.03h2zm-1-7.03h77v-2h-77v2z" fill="#fff" fill-opacity=".45"/></svg>