<svg width="30" height="30" fill="none" xmlns="http://www.w3.org/2000/svg"><path d="M21.45 0H8.55C3.85 0 0 3.85 0 8.55v12.9C0 26.15 3.85 30 8.55 30h12.9c4.7 0 8.55-3.85 8.55-8.55V8.55C30 3.85 26.15 0 21.45 0zM29 21.45C29 25.6 25.6 29 21.45 29H8.55C4.4 29 1 25.6 1 21.45V8.55C1 4.4 4.4 1 8.55 1h12.9C25.6 1 29 4.4 29 8.55v12.9z" fill="#fff"/><path d="M21.45 3H8.55C5.5 3 3 5.5 3 8.55v12.9C3 24.5 5.5 27 8.55 27h12.9C24.5 27 27 24.5 27 21.45V8.55C27 5.5 24.5 3 21.45 3zM26 21.45c0 2.5-2.05 4.55-4.55 4.55H8.55C6.05 26 4 23.95 4 21.45V8.55C4 6.05 6.05 4 8.55 4h12.9C23.95 4 26 6.05 26 8.55v12.9z" fill="#fff"/><path d="M15 7c-4.4 0-8 3.6-8 8s3.6 8 8 8 8-3.6 8-8-3.6-8-8-8zm0 15c-3.85 0-7-3.15-7-7s3.15-7 7-7 7 3.15 7 7-3.15 7-7 7z" fill="#fff"/><path d="M15 9.5c-3.05 0-5.5 2.45-5.5 5.5s2.45 5.5 5.5 5.5 5.5-2.45 5.5-5.5-2.45-5.5-5.5-5.5zm0 10c-2.5 0-4.5-2-4.5-4.5s2-4.5 4.5-4.5 4.5 2 4.5 4.5-2 4.5-4.5 4.5zm8-14c-.85 0-1.5.65-1.5 1.5s.65 1.5 1.5 1.5 1.5-.65 1.5-1.5-.65-1.5-1.5-1.5z" fill="#fff"/></svg>