<svg width="65" height="65" fill="none" xmlns="http://www.w3.org/2000/svg"><g clip-path="url(#clip0)" fill="#23529A"><path d="M53.005 62.99H14.631a8.764 8.764 0 003.194-6.768l-.012-27.073a1.005 1.005 0 10-2.01 0l.01 21.486a8.765 8.765 0 00-13.535.003V8.444a.968.968 0 00.019-.133c.24-3.533 3.206-6.3 6.75-6.3 3.532 0 6.49 2.75 6.747 6.267l.007 16.583a1.005 1.005 0 102.01 0l-.006-14.542h7.324a1.005 1.005 0 100-2.01h-7.325v-.067c0-.023 0-.046-.002-.068C17.49 3.59 13.643 0 9.047 0 4.52 0 .723 3.48.307 7.961a1.01 1.01 0 00-.04.281v47.98C.268 61.062 4.206 65 9.047 65h43.958a1.005 1.005 0 100-2.01zm-43.959 0a6.776 6.776 0 01-6.767-6.768 6.776 6.776 0 016.768-6.768 6.776 6.776 0 016.768 6.768 6.776 6.776 0 01-6.768 6.768zM63.727 8.31H30.49a1.005 1.005 0 100 2.01h32.232v52.67h-4.356a1.005 1.005 0 000 2.01h5.36c.556 0 1.006-.45 1.006-1.005V9.315c0-.556-.45-1.006-1.005-1.006z"/><path d="M9.046 51.464a4.763 4.763 0 00-4.757 4.758 4.763 4.763 0 004.757 4.757 4.763 4.763 0 004.758-4.757 4.763 4.763 0 00-4.758-4.758zm0 7.505A2.75 2.75 0 016.3 56.222a2.75 2.75 0 012.747-2.748 2.75 2.75 0 012.748 2.748 2.75 2.75 0 01-2.748 2.747zm48.784-6.165H29.15c-.12 0-.24.022-.353.064l-6.433 2.413a1.005 1.005 0 00.148 1.925l6.433 1.34c.067.014.136.021.204.021h28.68c.556 0 1.006-.45 1.006-1.005V53.81c0-.556-.45-1.006-1.005-1.006zm-29.685 3.522l-1.828-.381 1.828-.685v1.066zm24.66.23h-22.65v-1.742h22.65v1.743zm4.02 0h-2.01v-1.742h2.01v1.743zm-1.51-28.127L40.975 14.49a1.005 1.005 0 00-1.402 0l-14.34 13.938a1.003 1.003 0 00-.305.72v19.568c0 .555.45 1.005 1.005 1.005h28.68c.556 0 1.006-.45 1.006-1.005V29.149c0-.271-.11-.531-.304-.72zM40.273 16.613l11.864 11.531H28.41l11.863-11.53zm3.15 31.098h-6.299v-9.515h6.299v9.515zm10.185 0h-8.175v-10.52c0-.555-.45-1.005-1.005-1.005h-8.31c-.555 0-1.005.45-1.005 1.005v10.52h-8.175V30.155h26.67V47.71z"/><path d="M40.273 20.371a3.421 3.421 0 00-3.418 3.418 3.421 3.421 0 003.418 3.417 3.421 3.421 0 003.418-3.417 3.421 3.421 0 00-3.418-3.418zm0 4.825a1.409 1.409 0 01-1.407-1.407 1.41 1.41 0 011.407-1.408 1.409 1.409 0 010 2.815z"/></g><defs><clipPath id="clip0"><path fill="#fff" d="M0 0h65v65H0z"/></clipPath></defs></svg>