<svg width="65" height="65" fill="none" xmlns="http://www.w3.org/2000/svg"><g clip-path="url(#clip0)" fill="#23529A"><path d="M60.667 12.476L48.487.296a1.01 1.01 0 00-1.428 0L44.585 2.77a1.01 1.01 0 000 1.427l1.509 1.509-1.555 6.816-13.474 13.474-2.427-2.427a5.053 5.053 0 00-7.137 0l-8.763 8.763a3.027 3.027 0 00-.834 2.7l1.833 9.776a3.01 3.01 0 002.418 2.418l9.776 1.833a3.051 3.051 0 002.7-.835l8.762-8.763a5.052 5.052 0 000-7.137l-2.426-2.426 7.398-7.399a1.01 1.01 0 00-1.428-1.427l-15.63 15.63a.74.74 0 01-1.046-1.047l21.133-21.133 1.047 1.047-2.491 2.49a1.01 1.01 0 101.427 1.428l3.064-3.064 6.815-1.554 1.51 1.509a1.02 1.02 0 001.427 0l2.474-2.475a1.01 1.01 0 000-1.427zM22.833 34.227a2.762 2.762 0 000 3.902 2.75 2.75 0 001.951.807 2.75 2.75 0 001.951-.807l6.804-6.804 2.426 2.427a3.031 3.031 0 010 4.281l-8.763 8.764c-.235.236-.572.34-.9.278l-9.776-1.833a1.003 1.003 0 01-.806-.806l-1.833-9.776a1.01 1.01 0 01.279-.9l8.763-8.763a3.031 3.031 0 014.282 0l2.426 2.426-6.803 6.804zM48.148 14.42l-1.604-1.604 1.237-5.424 5.79 5.79-5.423 1.238zm9.332-.184L46.726 3.483l1.047-1.046L58.526 13.19l-1.047 1.046z"/><path d="M58.997 51.508a1.01 1.01 0 00-1.56 1.28 18.012 18.012 0 014.024 10.193h-35.85c.616-9.34 8.453-16.777 17.925-16.777 3.776 0 7.388 1.158 10.447 3.348a1.01 1.01 0 101.175-1.64 19.844 19.844 0 00-11.622-3.726 19.86 19.86 0 00-14.068 5.791 20.32 20.32 0 00-1.599 1.785 13.268 13.268 0 00-5.461-1.161c-4.497 0-8.483 2.228-10.912 5.638a8.02 8.02 0 00-2.007-.255c-4.416 0-8.008 3.592-8.008 8.007 0 .557.452 1.01 1.01 1.01h60.018a1.02 1.02 0 001.01-1.02 20.032 20.032 0 00-4.522-12.473zM9.055 62.981h-5.47a5.998 5.998 0 016.814-4.91 13.291 13.291 0 00-1.344 4.91zm2.029 0c.512-5.799 5.394-10.362 11.324-10.362 1.48 0 2.91.278 4.26.825a19.82 19.82 0 00-3.08 9.537H11.083z"/></g><defs><clipPath id="clip0"><path fill="#fff" d="M0 0h65v65H0z"/></clipPath></defs></svg>