<svg width="70" height="70" fill="none" xmlns="http://www.w3.org/2000/svg"><path d="M67.667 61.308V27.474c0-.644-.523-1.166-1.167-1.166h-1.167v-11.27l-9.333-4-9.333 4v11.27H45.5c-.644 0-1.167.522-1.167 1.166v10.5h-1.166V26.706l-9.334-4-9.333 4v11.268c-.644 0-1.167.523-1.167 1.167v10.5h-1.166V37.974H3.5v11.667c-.644 0-1.167.522-1.167 1.167v10.5H0v2.333h70v-2.333h-2.333zm-61.834-21h14v9.333h-3.5v-5.833h-7v5.833h-3.5v-9.333zM14 46.14v3.5h-2.333v-3.5H14zm9.333 15.167H4.667v-3.5h18.666v3.5zm0-5.834H4.667v-3.5h18.666v3.5zm3.5-27.23l7-3 7 3v9.73h-3.5V32.14h-7v5.833h-3.5v-9.73zM35 34.473v3.5h-2.333v-3.5H35zm9.333 26.834H25.667v-3.5h18.666v3.5zm0-5.834H25.667v-3.5h18.666v3.5zm0-5.833H25.667v-3.5h18.666v3.5zm0-5.833H25.667v-3.5h18.666v3.5zM49 16.577l7-3 7 3v9.73h-3.5v-5.833h-7v5.834H49v-9.731zm8.167 6.23v3.5h-2.334v-3.5h2.334zm8.166 38.5H46.667v-3.5h18.666v3.5zm0-5.833H46.667v-3.5h18.666v3.5zm0-5.833H46.667v-3.5h18.666v3.5zm0-5.833H46.667v-3.5h18.666v3.5zm0-5.834H46.667v-3.5h18.666v3.5zm0-5.833H46.667v-3.5h18.666v3.5z" fill="#23529A"/><path d="M56 6.359l-13.316 6.054.966 2.123L56 8.923l12.35 5.613.966-2.123L56 6.359z" fill="#23529A"/></svg>