<svg width="70" height="70" fill="none" xmlns="http://www.w3.org/2000/svg"><path d="M25.156 6.563A18.594 18.594 0 1043.75 25.155 18.614 18.614 0 0025.156 6.563zm0 35a16.407 16.407 0 1116.407-16.407 16.425 16.425 0 01-16.407 16.407z" fill="#23529A"/><path d="M36.777 21.02L25.84 12.27a1.094 1.094 0 00-1.367 0l-10.938 8.75a1.094 1.094 0 00.684 1.949h1.094V35a1.094 1.094 0 001.093 1.094h17.5A1.093 1.093 0 0035 35V22.969h1.094a1.094 1.094 0 00.683-1.948zm-9.433 12.886h-4.375v-6.562h4.375v6.562zm5.468-12.031v12.031h-3.28V26.25a1.094 1.094 0 00-1.095-1.094h-6.562a1.094 1.094 0 00-1.094 1.094v7.656H17.5V21.875a1.094 1.094 0 00-.438-.875l8.094-6.474L33.25 21a1.094 1.094 0 00-.438.875zM21.27 54.802l-8.75-4.375a1.093 1.093 0 00-.978 0l-8.75 4.375a1.094 1.094 0 00.49 2.073h1.093v9.844a1.094 1.094 0 001.094 1.093h13.125a1.094 1.094 0 001.093-1.093v-9.844h1.094a1.094 1.094 0 00.49-2.078v.005zm-8.145 10.823h-2.188V61.25h2.188v4.375zM17.5 55.78v9.844h-2.188v-5.469a1.094 1.094 0 00-1.093-1.094H9.844a1.094 1.094 0 00-1.094 1.094v5.469H6.563V55.78c0-.13-.024-.26-.07-.384l5.538-2.768 5.538 2.768c-.046.123-.07.253-.069.384zM67.208 6.677l-8.75-4.375a1.094 1.094 0 00-.978 0l-8.75 4.375a1.093 1.093 0 00.489 2.073h1.093v9.844a1.094 1.094 0 001.094 1.094h13.125a1.094 1.094 0 001.094-1.094V8.75h1.094a1.094 1.094 0 00.489-2.073zM59.063 17.5h-2.188v-4.375h2.188V17.5zm4.374-9.844V17.5H61.25v-5.469a1.094 1.094 0 00-1.094-1.093h-4.375a1.094 1.094 0 00-1.093 1.093v5.47H52.5V7.655c0-.13-.023-.26-.069-.384l5.538-2.768 5.538 2.768c-.046.123-.07.253-.07.384z" fill="#23529A"/><path d="M47.54 39.806a1.094 1.094 0 00-1.547 0l-.773.772-1.689-1.693a23.057 23.057 0 10-4.646 4.646l1.693 1.689-.772.772a1.094 1.094 0 000 1.547L58.366 66.1a5.47 5.47 0 007.735-7.734L47.54 39.806zM4.375 25.156a20.781 20.781 0 1120.781 20.782 20.803 20.803 0 01-20.78-20.782zm37.753 15.422l1.541 1.542-1.549 1.55-1.542-1.543a22.687 22.687 0 001.55-1.549zM64.55 64.554a3.361 3.361 0 01-4.64 0L42.125 46.766l4.64-4.64 17.788 17.788a3.28 3.28 0 010 4.64h-.004z" fill="#23529A"/><path d="M60.276 61.836l1.547-1.547 1.547 1.547-1.547 1.547-1.547-1.547zm-7.732-7.734l1.547-1.546 6.185 6.185-1.546 1.547-6.186-6.186zm-30.669 6.054h4.375v2.188h-4.375v-2.188zm6.563 0h4.375v2.188h-4.376v-2.188zm6.562 0h4.375v2.188H35v-2.188zm6.563 0h4.374v2.188h-4.374v-2.188zm15.312-38.281h2.188v4.375h-2.188v-4.375zm0 6.563h2.188v4.375h-2.188v-4.376zm0 6.562h2.188v4.375h-2.188V35zm0 6.563h2.188v4.374h-2.188v-4.374z" fill="#23529A"/></svg>