<svg width="70" height="70" fill="none" xmlns="http://www.w3.org/2000/svg"><path d="M53.594 62.344a4.38 4.38 0 004.375-4.375 4.38 4.38 0 00-4.375-4.375 4.38 4.38 0 00-4.375 4.375 4.38 4.38 0 004.375 4.375zm0-6.563a2.19 2.19 0 012.187 2.188 2.19 2.19 0 01-2.187 2.187 2.19 2.19 0 01-2.188-2.187 2.19 2.19 0 012.188-2.188z" fill="#23529A"/><path d="M64.475 59.063h2.244a2.19 2.19 0 002.187-2.188c0-2.773-.81-5.354-2.187-7.542v-4.49c0-4.22-3.435-7.656-7.656-7.656v-6.562h4.374v-6.563h-4.374a6.57 6.57 0 00-6.563 6.563v6.563h-.27l-3.879-13.58c.524-.4.868-1.024.868-1.733v-2.188A2.19 2.19 0 0047.03 17.5H27.344a2.19 2.19 0 00-2.188 2.188v2.187c0 .709.344 1.332.868 1.733l-2.8 9.798-5.017-3.512c1.474-.467 2.754-1.395 3.617-2.69a6.794 6.794 0 001.145-3.78v-8.111a2.19 2.19 0 00-2.188-2.188H7.238l-1.093-2.188H3.28a2.19 2.19 0 00-2.187 2.188v10.299c0 1.348.396 2.657 1.144 3.78a6.798 6.798 0 004.016 2.83l1.402.35v2.11c0 .416.118.82.343 1.175l7.314 11.494v2.374c-4.434 1.396-7.657 5.544-7.657 10.432 0 3.58 1.737 6.754 4.404 8.75H1.094v2.187h32.812V66.72h-8.778c2.39-1.79 4.035-4.527 4.348-7.656H42.71c.312 3.129 1.956 5.865 4.348 7.656h-4.403v2.187h26.25V66.72h-8.778c2.392-1.79 4.036-4.527 4.347-7.656zm-9.787-28.438a4.38 4.38 0 014.374-4.375h2.188v2.188h-2.188a2.19 2.19 0 00-2.187 2.187v6.563h-2.188v-6.563zm-2.188 8.75h6.563a5.475 5.475 0 015.468 5.469v1.795c-2.557-2.46-6.023-3.983-9.844-3.983H52.5v-3.281zM38.977 52.5h-1.79v-2.188H39.9a14.08 14.08 0 00-.922 2.188zm-4.75-14.54l1.546-1.546-3.281-3.281-1.546 1.546.867.868-1.64 1.64h-1.379l3.75-13.124h9.289l4.375 15.312H33.265l-1.093-1.094 1.187-1.188.868.868zm-3.959-13.898l-3.75 13.125h-2.1l3.75-13.124h2.1zm15.939 0l4.105 14.371v.942h-1.831l-4.376-15.313h2.102zm-4.892 24.063h-4.127v-2.188h4.374v1.865c-.086.104-.162.217-.247.323zm.248-6.563v2.188h-4.376v-2.188h4.376zm2.187 0h6.563v1.28a14.142 14.142 0 00-6.563 2.848v-4.127zM27.344 19.689H47.03l.001 2.187H27.344v-2.188zM4.793 13.125l1.094 2.188H20.78V17.5H5.887l-1.094 2.188H3.28v-6.563h1.512zM8.297 26.25a2.2 2.2 0 00-.64 1.547v.333l-.871-.217a4.618 4.618 0 01-2.728-1.923 4.616 4.616 0 01-.777-2.566v-1.549h2.864l1.093-2.188h13.543v3.737a4.622 4.622 0 01-3.504 4.49l-1.4.35-.735-.514-.54-1.62A3.018 3.018 0 009.6 24.948L8.297 26.25zm1.547 1.547l1.302-1.302c.412-.412 1.197-.225 1.38.326l.77 2.306 9.293 6.505-.52 1.82a5.423 5.423 0 00-2.027 1.174l-3.135-4.373a3.46 3.46 0 00-2.805-1.44c-.922 0-1.789.358-2.44 1.011l-.594.593-1.224-1.923v-4.697zM16.48 42.92l-1.232-1.935 2.21-2.21 1.256 1.752c-.014.034-.034.064-.048.098l-.813 2.03H17.5c-.37 0-.714.102-1.02.265zm-2.435-3.825l-1.774-2.788.937-.936c.523-.523 1.49-.443 1.922.157l1.037 1.447-2.122 2.12zm11.452 24.23l-1.49-1.49-1.546 1.546 1.49 1.49a8.699 8.699 0 01-4.264 1.77v-2.11H17.5v2.111a8.699 8.699 0 01-4.263-1.77l1.49-1.49-1.547-1.547-1.49 1.491a8.699 8.699 0 01-1.77-4.263h2.111v-2.188H9.92c.2-1.595.83-3.054 1.771-4.263l1.49 1.49 1.546-1.546-1.49-1.49a8.699 8.699 0 014.264-1.77v2.11h2.188v-2.113c1.594.2 3.053.83 4.263 1.771l-1.49 1.49 1.547 1.546 1.49-1.49a8.7 8.7 0 011.77 4.263h-2.112v2.187h2.112a8.699 8.699 0 01-1.77 4.265zm3.979-6.451c-.55-5.52-5.221-9.844-10.882-9.844-.37 0-.734.02-1.094.056v-2.243h2.188c6.633 0 12.03 5.397 12.032 12.031h-2.244zm-9.277-14.193l.498-1.244a3.264 3.264 0 013.046-2.063h6.43l2.187 2.188H35v15.312h-1.094c0-7.667-6.104-13.92-13.707-14.193zm16.988 14.193v-2.188h1.28c-.11.716-.186 1.442-.186 2.188h-1.093zM52.5 44.844h2.188c6.633 0 12.03 5.397 12.03 12.031h-2.243c-.55-5.52-5.22-9.844-10.881-9.844-5.662 0-10.332 4.325-10.882 9.844h-2.243c0-6.634 5.397-12.031 12.031-12.031zm-7.58 12.031a8.7 8.7 0 011.77-4.263l1.49 1.49 1.546-1.546-1.49-1.49a8.7 8.7 0 014.264-1.77v2.11h2.188v-2.112a8.7 8.7 0 014.263 1.771l-1.49 1.49 1.547 1.546 1.49-1.49a8.7 8.7 0 011.77 4.263h-2.112v2.187h2.112a8.699 8.699 0 01-1.77 4.264l-1.49-1.49-1.547 1.546 1.49 1.49a8.7 8.7 0 01-4.264 1.77v-2.11H52.5v2.112a8.7 8.7 0 01-4.263-1.77l1.49-1.49-1.547-1.547-1.49 1.491a8.7 8.7 0 01-1.77-4.263h2.111v-2.188H44.92v-.001z" fill="#23529A"/><path d="M18.594 53.594a4.38 4.38 0 00-4.375 4.375 4.38 4.38 0 004.375 4.375 4.38 4.38 0 004.375-4.375 4.38 4.38 0 00-4.375-4.375zm0 6.562a2.19 2.19 0 01-2.188-2.187 2.19 2.19 0 012.188-2.188 2.19 2.19 0 012.187 2.188 2.19 2.19 0 01-2.187 2.187zm17.5 6.563h4.375v2.187h-4.375V66.72z" fill="#23529A"/></svg>