<svg width="65" height="65" fill="none" xmlns="http://www.w3.org/2000/svg"><path d="M58.179 49.974a4.575 4.575 0 00-4.862.34 4.545 4.545 0 00-.504.436c-1.42 1.42-1.734 3.68-.741 5.43 1.011 1.782 3.156 2.673 5.133 2.138a4.558 4.558 0 003.319-3.997 4.564 4.564 0 00-2.345-4.346zm-.397 5.745a2.525 2.525 0 01-2.64.575 2.52 2.52 0 01-1.627-2.43 2.52 2.52 0 011.948-2.351 2.524 2.524 0 012.737 1.225c.534.964.36 2.202-.418 2.98z" fill="#23529A"/><path d="M62.75 49.316l-13.329-13.33 4.825-4.825a5.074 5.074 0 000-7.167L42.981 12.73a1.013 1.013 0 10-1.433 1.433l4.05 4.051-6.21 6.211-4.635-4.634a1.014 1.014 0 00-1.433 1.433l4.634 4.635-4.3 4.3-2.34-2.342a1.014 1.014 0 00-1.434 1.434l2.34 2.34-5.255 5.256-3.296-3.296a1.014 1.014 0 00-1.434 1.433l3.297 3.297-5.256 5.255L4.51 27.77l1.816-1.816 5.876 5.877a3.068 3.068 0 003.656.493 3.07 3.07 0 001.506-3.05 3.048 3.048 0 00-.862-1.743l-1.528-1.529a1.015 1.015 0 011.433-1.433l5.924 5.924a3.068 3.068 0 003.45.6 3.07 3.07 0 001.726-3.052 3.045 3.045 0 00-.876-1.848l-6.88-6.88a1.023 1.023 0 01.058-1.487 1.024 1.024 0 011.376.054l1.528 1.529c.575.574 1.338.89 2.15.89a3.02 3.02 0 002.15-.89 3.044 3.044 0 000-4.3l-1.72-1.72a1.014 1.014 0 011.433-1.434l4.014 4.014a3.044 3.044 0 004.3 0 3.045 3.045 0 000-4.3l-7.215-7.215 2.007-2.006 7.391 7.391a1.014 1.014 0 001.434-1.433L30.549.297a1.014 1.014 0 00-1.434 0L2.36 27.052a1.014 1.014 0 000 1.434l23.698 23.697a5.035 5.035 0 003.583 1.484 5.035 5.035 0 003.583-1.484l4.73-4.73 13.33 13.33a7.072 7.072 0 005.017 2.075 7.073 7.073 0 005.017-2.075l1.433-1.433a7.048 7.048 0 002.078-5.017 7.048 7.048 0 00-2.078-5.017zM26.393 5.886l7.215 7.215a1.014 1.014 0 01-1.433 1.433l-4.014-4.013a3.044 3.044 0 00-4.3 0 3.044 3.044 0 000 4.3l1.72 1.72c.39.39.39 1.043 0 1.433-.39.39-1.043.39-1.433 0l-1.53-1.529a3.044 3.044 0 00-4.3 0 3.02 3.02 0 00-.89 2.15c0 .813.316 1.576.89 2.15l6.88 6.88c.391.39.391 1.043 0 1.434-.39.39-1.042.39-1.433 0l-5.924-5.925a3.044 3.044 0 00-4.3 0 3.044 3.044 0 000 4.3l1.529 1.529c.39.39.39 1.043 0 1.433-.39.39-1.043.39-1.433 0L7.759 24.52 26.392 5.887zM21.71 44.97l25.322-25.322.86.86L22.57 45.829l-.86-.86zm10.081 5.78a3.044 3.044 0 01-4.3 0l-3.488-3.487L49.325 21.94l3.488 3.487a3.045 3.045 0 010 4.3L31.791 50.75zm29.527 7.167l-1.434 1.434a5.073 5.073 0 01-7.166 0l-13.33-13.33 8.6-8.6 13.33 13.33a5.034 5.034 0 011.484 3.583 5.033 5.033 0 01-1.484 3.584zM9.843 40.419a1.013 1.013 0 00-1.64 0 93.039 93.039 0 00-2.6 3.829 1.013 1.013 0 101.703 1.099 100.7 100.7 0 011.72-2.575c2.462 3.558 6.821 10.46 6.821 13.377a6.832 6.832 0 01-6.824 6.824 6.832 6.832 0 01-6.825-6.824c0-.818.408-2.892 3.14-7.6a1.013 1.013 0 10-1.752-1.017C1.288 51.49.17 54.308.17 56.149c0 4.88 3.971 8.85 8.852 8.85 4.88 0 8.851-3.97 8.851-8.85 0-4.527-7.209-14.597-8.03-15.73z" fill="#23529A"/><path d="M11.033 48.11a1.013 1.013 0 10-1.735 1.05c3.195 5.287 3.303 6.933 3.306 6.989a3.585 3.585 0 01-3.581 3.58 1.013 1.013 0 100 2.028 5.615 5.615 0 005.608-5.609c0-.488-.26-2.513-3.598-8.037z" fill="#23529A"/></svg>