<svg width="1140" height="737" fill="none" xmlns="http://www.w3.org/2000/svg"><path d="M818.892 117.879h-3.931c-.698 0-1.266.569-1.266 1.267v4.717c0 .699.568 1.267 1.266 1.267h3.931c.699 0 1.267-.568 1.267-1.267v-4.717c0-.698-.568-1.267-1.267-1.267zm-.733 5.251h-2.464v-3.25h2.464v3.25zm8.55-5.251h-3.931c-.698 0-1.266.569-1.266 1.267v4.717c0 .699.568 1.267 1.266 1.267h3.931c.699 0 1.267-.568 1.267-1.267v-4.717c0-.698-.568-1.267-1.267-1.267zm-.734 5.251h-2.463v-3.25h2.463v3.25zm8.551-5.251h-3.932c-.698 0-1.266.569-1.266 1.267v4.717c0 .699.568 1.267 1.266 1.267h3.932c.698 0 1.266-.568 1.266-1.267v-4.717c0-.698-.568-1.267-1.266-1.267zm-.734 5.251h-2.464v-3.25h2.464v3.25zm-14.9 6.464h-3.931c-.698 0-1.266.568-1.266 1.267v4.717c0 .699.568 1.267 1.266 1.267h3.931c.699 0 1.267-.568 1.267-1.267v-4.717c0-.698-.568-1.267-1.267-1.267zm-.733 5.251h-2.464v-3.25h2.464v3.25zm8.55-5.251h-3.931c-.698 0-1.266.568-1.266 1.267v4.717c0 .699.568 1.267 1.266 1.267h3.931c.699 0 1.267-.568 1.267-1.267v-4.717c0-.698-.568-1.267-1.267-1.267zm-.734 5.251h-2.463v-3.25h2.463v3.25zm8.551-5.251h-3.932c-.698 0-1.266.568-1.266 1.267v4.717c0 .699.568 1.267 1.266 1.267h3.932c.698 0 1.266-.568 1.266-1.267v-4.717c0-.698-.568-1.267-1.266-1.267zm-.734 5.251h-2.464v-3.25h2.464v3.25zm-14.9 6.464h-3.931c-.698 0-1.266.568-1.266 1.267v4.717c0 .698.568 1.267 1.266 1.267h3.931c.699 0 1.267-.568 1.267-1.267v-4.717c0-.699-.568-1.267-1.267-1.267zm-.733 5.251h-2.464v-3.251h2.464v3.251zm8.55-5.251h-3.931c-.698 0-1.266.568-1.266 1.267v4.717c0 .698.568 1.267 1.266 1.267h3.931c.699 0 1.267-.568 1.267-1.267v-4.717c0-.699-.568-1.267-1.267-1.267zm-.734 5.251h-2.463v-3.251h2.463v3.251zm8.551-5.251h-3.932c-.698 0-1.266.568-1.266 1.267v4.717c0 .698.568 1.267 1.266 1.267h3.932c.698 0 1.266-.568 1.266-1.267v-4.717c0-.699-.568-1.267-1.266-1.267zm-.734 5.251h-2.464v-3.251h2.464v3.251zm.734 6.464h-3.932c-.698 0-1.266.568-1.266 1.267v4.717c0 .698.568 1.266 1.266 1.266h3.932c.698 0 1.266-.568 1.266-1.266v-4.717c0-.699-.568-1.267-1.266-1.267zm-.734 5.25h-2.464v-3.25h2.464v3.25z" fill="#23529A"/><path d="M847.617 157.481a4.165 4.165 0 00-5.752-1.113l-2.749 1.841V115.19h.199c.724 0 1.313-.589 1.313-1.313v-2.564c0-.724-.589-1.313-1.313-1.313h-6.386a1 1 0 000 2h5.699v1.19H810.55V112h16.117a1 1 0 000-2h-16.804c-.724 0-1.313.589-1.313 1.313v2.564c0 .724.589 1.313 1.313 1.313h.508v12.845h-2.053v-2.468c0-.86-.7-1.559-1.559-1.559h-7.551a1.56 1.56 0 00-1.558 1.559v2.468h-1.437c-.893 0-1.62.727-1.62 1.62v22.933a20.736 20.736 0 00-1.273-.041h-1.576v-.52a3.522 3.522 0 00-3.519-3.518h-3.04a3.523 3.523 0 00-3.519 3.518v14.28a1 1 0 102 0v-14.28a1.52 1.52 0 011.519-1.518h3.04a1.52 1.52 0 011.519 1.518v22.501c0 .837-.682 1.519-1.519 1.519h-3.04a1.52 1.52 0 01-1.519-1.519v-1.962a1 1 0 00-2 0v1.962a3.523 3.523 0 003.519 3.519h3.04a3.523 3.523 0 003.519-3.519v-.057l13.847 5.244c.027.01.055.019.083.027a6.665 6.665 0 001.819.258c.328 0 .654-.026.977-.077h.002l20.439-2.946.016-.002a10.062 10.062 0 004.766-2.136l.037-.032 13.211-11.881a4.167 4.167 0 00.676-5.445zm-35.246-42.291h24.745v44.357l-8.321 5.569-2.789-.157-.071-.714a6.116 6.116 0 00-.897-2.632 6.089 6.089 0 00-1.139-1.339h2.81c.698 0 1.267-.568 1.267-1.266v-4.717c0-.699-.569-1.267-1.267-1.267h-3.931c-.698 0-1.266.568-1.266 1.267v4.695a6.028 6.028 0 00-.778-.162l-.025-.004-.55-.063v-4.467c0-.698-.568-1.266-1.267-1.266h-3.931c-.698 0-1.266.568-1.266 1.266v3.723l-1.324-.152V115.19zm11.14 43.084v-3.25h2.464v3.25h-2.464zm-5.352-3.25v3.25h-2.196l-.268-.03v-3.22h2.464zm-18.509-29.016h6.667v2.027h-6.667v-2.027zm-3.057 4.027h13.778v3.127h-11.294c-.646 0-1.172.526-1.172 1.173v3.019c0 .647.526 1.173 1.172 1.173h11.294v2.813h-11.294c-.646 0-1.172.526-1.172 1.173v3.019c0 .647.526 1.172 1.172 1.172h11.294v2.814h-11.294c-.646 0-1.172.526-1.172 1.172v2.388a17.96 17.96 0 00-1.039-.213l-.273-.049v-22.781zm13.778 5.127v1.365h-10.466v-1.365h10.466zm0 8.178v1.364h-10.466v-1.364h10.466zm-10.466 9.542v-1.364h10.466v1.364h-10.466zm10.466 2v2.748l-.308-.035a17.976 17.976 0 01-6.592-2.297c-.175-.102-.351-.2-.527-.297l-.115-.062-.106-.057h7.648zm35.237 6.552l-13.197 11.87a8.068 8.068 0 01-3.793 1.694l-20.439 2.947a4.491 4.491 0 01-1.922-.117l-14.513-5.496v-17.785h1.576a17.959 17.959 0 012.599.19l.063.01c.365.054.727.12 1.086.195l.335.073.167.04c.145.035.29.071.434.11l.078.021c1.13.308 2.23.726 3.283 1.248l.094.047c.134.068.267.137.399.208l.121.064c.16.087.318.176.475.268l.007.004a20.008 20.008 0 007.334 2.552l.026.004 1.436.165 1.169.134 2.696.311.669.077h.001l4.674.538a4.073 4.073 0 013.478 3.637l.035.348-18.744-1.826a.999.999 0 10-.194 1.99l19.871 1.937a.882.882 0 00.127.016l3.978.224.056.001c.02 0 .04-.003.059-.004.023-.002.046-.002.068-.005.029-.004.057-.01.085-.016.022-.005.045-.009.066-.015.03-.009.06-.021.089-.032.018-.008.037-.013.055-.022a1 1 0 00.135-.075l9.042-6.052 4.307-2.882a2.16 2.16 0 012.984.576 2.161 2.161 0 01-.355 2.828z" fill="#23529A"/></svg>