<svg width="68" height="70" fill="none" xmlns="http://www.w3.org/2000/svg"><path d="M66.617 47.48a4.164 4.164 0 00-5.752-1.112l-2.75 1.84V5.19h.2c.724 0 1.313-.589 1.313-1.313V1.313C59.628.59 59.04 0 58.315 0H51.93a1 1 0 100 2h5.7v1.19H29.55V2h16.117a1 1 0 100-2H28.863c-.724 0-1.313.589-1.313 1.313v2.564c0 .724.59 1.313 1.313 1.313h.508v12.845h-2.053v-2.468c0-.86-.7-1.559-1.559-1.559h-7.55c-.86 0-1.56.7-1.56 1.559v2.468h-1.436c-.893 0-1.62.727-1.62 1.62v22.933a20.073 20.073 0 00-1.273-.041h-1.576v-.52a3.523 3.523 0 00-3.519-3.518h-3.04a3.523 3.523 0 00-3.519 3.518v14.28a1 1 0 002 0v-14.28a1.52 1.52 0 011.519-1.518h3.04a1.52 1.52 0 011.519 1.518v22.501a1.52 1.52 0 01-1.519 1.518h-3.04a1.52 1.52 0 01-1.519-1.518v-1.962a1 1 0 00-2 0v1.962a3.523 3.523 0 003.519 3.519h3.04a3.523 3.523 0 003.52-3.519v-.057l13.846 5.244c.027.01.055.019.083.027a6.678 6.678 0 001.819.258c.328 0 .654-.026.977-.077h.002l20.44-2.946a10.061 10.061 0 004.818-2.17l13.21-11.881a4.166 4.166 0 00.677-5.445zM31.37 5.19h24.745v44.357l-8.32 5.569-2.79-.157-.071-.714a6.111 6.111 0 00-.897-2.632c-.313-.5-.698-.95-1.14-1.338h2.811c.698 0 1.266-.569 1.266-1.267v-4.717c0-.699-.568-1.267-1.266-1.267h-3.931c-.698 0-1.266.568-1.266 1.267v4.695a6.185 6.185 0 00-.803-.165l-.55-.064v-4.466c0-.699-.568-1.267-1.267-1.267h-3.93c-.7 0-1.267.568-1.267 1.267v3.722l-1.324-.152V5.19zm11.14 43.084v-3.25h2.464v3.25H42.51zm-5.352-3.25v3.25h-2.196l-.268-.03v-3.22h2.464zm-18.51-29.016h6.668v2.027H18.65v-2.027zm-3.056 4.027H29.37v3.127H18.077c-.646 0-1.172.526-1.172 1.173v3.02c0 .646.526 1.172 1.172 1.172h11.294v2.813H18.077c-.646 0-1.172.526-1.172 1.173v3.019c0 .647.526 1.173 1.172 1.173h11.294v2.813H18.077c-.646 0-1.172.526-1.172 1.172v2.388a20.75 20.75 0 00-1.039-.213c-.09-.016-.182-.034-.273-.049V20.035zm13.778 5.127v1.365H18.905v-1.365H29.37zm0 8.178v1.364H18.905V33.34H29.37zm-10.466 9.542v-1.364H29.37v1.364H18.905zm10.466 2v2.748l-.308-.035a18.203 18.203 0 01-5.427-1.67 18.337 18.337 0 01-1.165-.626 20.186 20.186 0 00-.642-.36l-.106-.057h7.648zm35.237 6.552L51.41 63.304a8.057 8.057 0 01-3.793 1.694l-20.44 2.947-.027.004a4.483 4.483 0 01-1.894-.12l-14.513-5.497V44.547h1.576a18.065 18.065 0 012.599.19l.063.01a18.41 18.41 0 011.421.268l.167.04c.145.035.29.071.434.11l.078.02c1.13.309 2.23.726 3.283 1.249l.094.047c.134.068.267.137.4.208l.12.064c.16.087.318.176.475.268l.007.004a19.992 19.992 0 007.36 2.556l1.436.165 1.169.134 2.696.311.67.077 4.674.538a4.073 4.073 0 013.478 3.637l.035.348-18.744-1.826a.999.999 0 10-.194 1.99l19.87 1.937a.99.99 0 00.128.016l3.978.224a.957.957 0 00.056.001c.02 0 .04-.003.06-.004.022-.002.045-.002.067-.005.029-.004.057-.01.085-.016l.066-.015a.95.95 0 00.089-.033l.055-.02c.046-.022.092-.047.135-.076l9.042-6.052 4.307-2.882a2.16 2.16 0 012.984.576 2.162 2.162 0 01-.355 2.828z" fill="#23529A"/><path d="M37.892 7.88h-3.93c-.7 0-1.267.568-1.267 1.266v4.717c0 .699.568 1.267 1.266 1.267h3.931c.699 0 1.267-.568 1.267-1.267V9.146c0-.698-.568-1.267-1.267-1.267zm-.733 5.25h-2.464V9.88h2.464v3.25zm8.551-5.25h-3.932c-.698 0-1.266.568-1.266 1.266v4.717c0 .699.568 1.267 1.266 1.267h3.931c.699 0 1.267-.568 1.267-1.267V9.146c0-.698-.568-1.267-1.267-1.267zm-.735 5.25h-2.463V9.88h2.463v3.25zm8.551-5.25h-3.932c-.698 0-1.266.568-1.266 1.266v4.717c0 .699.568 1.267 1.266 1.267h3.932c.698 0 1.266-.568 1.266-1.267V9.146c0-.698-.568-1.267-1.266-1.267zm-.734 5.25h-2.464V9.88h2.464v3.25zm-14.9 6.464h-3.93c-.7 0-1.267.568-1.267 1.267v4.717c0 .699.568 1.267 1.266 1.267h3.931c.699 0 1.267-.568 1.267-1.267v-4.717c0-.698-.568-1.267-1.267-1.267zm-.733 5.25h-2.464v-3.25h2.464v3.25zm8.551-5.25h-3.932c-.698 0-1.266.568-1.266 1.267v4.717c0 .699.568 1.267 1.266 1.267h3.931c.699 0 1.267-.568 1.267-1.267v-4.717c0-.698-.568-1.267-1.267-1.267zm-.735 5.25h-2.463v-3.25h2.463v3.25zm8.551-5.25h-3.932c-.698 0-1.266.568-1.266 1.267v4.717c0 .699.568 1.267 1.266 1.267h3.932c.698 0 1.266-.568 1.266-1.267v-4.717c0-.698-.568-1.267-1.266-1.267zm-.734 5.25h-2.464v-3.25h2.464v3.25zm-14.9 6.466h-3.93c-.7 0-1.267.567-1.267 1.266v4.717c0 .698.568 1.267 1.266 1.267h3.931c.699 0 1.267-.569 1.267-1.267v-4.717c0-.698-.568-1.267-1.267-1.267zm-.733 5.25h-2.464v-3.25h2.464v3.25zm8.551-5.25h-3.932c-.698 0-1.266.567-1.266 1.266v4.717c0 .698.568 1.267 1.266 1.267h3.931c.699 0 1.267-.569 1.267-1.267v-4.717c0-.698-.568-1.267-1.267-1.267zm-.735 5.25h-2.463v-3.25h2.463v3.25zm8.551-5.25h-3.932c-.698 0-1.266.567-1.266 1.266v4.717c0 .698.568 1.267 1.266 1.267h3.932c.698 0 1.266-.569 1.266-1.267v-4.717c0-.698-.568-1.267-1.266-1.267zm-.734 5.25h-2.464v-3.25h2.464v3.25zm.734 6.464h-3.932c-.698 0-1.266.568-1.266 1.267v4.717c0 .698.568 1.267 1.266 1.267h3.932c.698 0 1.266-.569 1.266-1.267v-4.717c0-.699-.568-1.267-1.266-1.267zm-.734 5.25h-2.464v-3.25h2.464v3.25z" fill="#23529A"/></svg>