<svg width="65" height="65" fill="none" xmlns="http://www.w3.org/2000/svg"><path d="M63.99 24.762H50.803a1.01 1.01 0 100 2.018h1.682v7.402H33.51V26.78h11.91a1.01 1.01 0 100-2.018H32.5a1.01 1.01 0 00-1.01 1.01v8.41h-9.487a1.01 1.01 0 00-1.01 1.01v8.41h-9.487a1.01 1.01 0 00-1.009 1.01v8.68H1.009A1.01 1.01 0 000 54.302v9.42a1.01 1.01 0 001.01 1.009h9.958a1.01 1.01 0 000-2.019h-8.95v-7.401h18.976v7.401H16.35a1.01 1.01 0 000 2.019h47.64A1.01 1.01 0 0065 63.72V25.77a1.01 1.01 0 00-1.01-1.009zM23.013 36.201h18.976v7.401H23.012v-7.401zm29.472 9.42v7.402H33.51V45.62h18.975zm-39.968 7.402V45.62H31.49v7.402H12.515zm29.472 9.69H23.012V55.31h18.976v7.401zm20.993 0H44.006V55.31h18.975v7.401zm0-9.69h-8.478V45.62h8.478v7.402zm0-9.42H44.006V36.2h18.975v7.401zm0-9.42h-8.478V26.78h8.478v7.401z" fill="#23529A"/><path d="M59.953.27H45.688a1.01 1.01 0 00-.284.04L31.677 4.348a1.01 1.01 0 00-.67.641c-.03.04-3.986 7.56-3.986 7.56a10.37 10.37 0 00-5.825-1.783c-5.436 0-19.85 9.188-20.462 9.58-.609.39-.609 1.31 0 1.7.611.39 15.026 9.58 20.462 9.58 5.75 0 10.43-4.68 10.43-10.43 0-2.854-1.154-5.443-3.018-7.328l3.863-7.35 12.933 3.804c.092.027.188.04.284.04h14.265A5.052 5.052 0 0065 5.316 5.052 5.052 0 0059.953.269zM29.607 21.195c0 4.637-3.774 8.41-8.411 8.41-3.637 0-13.233-5.457-18.019-8.41 4.786-2.953 14.383-8.411 18.019-8.411 1.817 0 3.501.581 4.878 1.566l-3.066 5.835h-8.003a1.01 1.01 0 000 2.019h8.613c.375 0 .719-.208.894-.54l3.1-5.9a8.372 8.372 0 011.995 5.43zM44.679 8.004l-9.14-2.688 9.14-2.689v5.377zm15.274.34H46.694c.002-.023.004-.045.004-.068V2.288h13.255a3.031 3.031 0 013.028 3.028 3.031 3.031 0 01-3.028 3.028z" fill="#23529A"/><path d="M10.968 20.186H9.084a1.01 1.01 0 000 2.019h1.884a1.01 1.01 0 000-2.019z" fill="#23529A"/></svg>