<svg width="60" height="60" viewBox="0 0 60 60" fill="none" xmlns="http://www.w3.org/2000/svg">
<path d="M39.2525 16.1489H10.5194C10.0319 16.1489 9.63672 16.5441 9.63672 17.0316C9.63672 17.5191 10.0319 17.9142 10.5194 17.9142H39.2526C39.7401 17.9142 40.1352 17.5191 40.1352 17.0316C40.1352 16.5441 39.74 16.1489 39.2525 16.1489Z" fill="#2C5491"/>
<path d="M10.5194 11.7915H24.8859C25.3734 11.7915 25.7685 11.3963 25.7685 10.9088C25.7685 10.4213 25.3734 10.0262 24.8859 10.0262H10.5194C10.0319 10.0262 9.63672 10.4213 9.63672 10.9088C9.63672 11.3965 10.0319 11.7915 10.5194 11.7915Z" fill="#2C5491"/>
<path d="M39.2525 21.5738H10.5194C10.0319 21.5738 9.63672 21.9689 9.63672 22.4564C9.63672 22.9439 10.0319 23.3391 10.5194 23.3391H39.2526C39.7401 23.3391 40.1352 22.9439 40.1352 22.4564C40.1351 21.9689 39.74 21.5738 39.2525 21.5738Z" fill="#2C5491"/>
<path d="M17.0645 53.8673H7.86916C6.3599 53.8673 5.13189 52.6395 5.13189 51.1302V4.50246C5.13189 2.9932 6.3599 1.7652 7.86916 1.7652H34.3601C34.4456 1.7652 34.5299 1.77305 34.6132 1.7843V7.28906C34.6132 9.7718 36.6331 11.7915 39.1157 11.7915H44.6203C44.6317 11.875 44.6394 11.9592 44.6394 12.0448V27.0754C44.6394 27.5629 45.0346 27.958 45.5221 27.958C46.0096 27.958 46.4047 27.5629 46.4047 27.0754V12.0449C46.4047 11.0767 46.0276 10.1664 45.343 9.48164L36.9231 1.06172C36.2385 0.377109 35.3283 0 34.3601 0H7.86916C5.38643 0 3.3667 2.01984 3.3667 4.50246V51.1302C3.3667 53.6128 5.38654 55.6325 7.86916 55.6325H17.0645C17.552 55.6325 17.9472 55.2374 17.9472 54.7499C17.9472 54.2624 17.552 53.8673 17.0645 53.8673ZM43.3913 10.0263H39.1158C37.6065 10.0263 36.3785 8.79832 36.3785 7.28906V3.01359L43.3913 10.0263Z" fill="#2C5491"/>
<path d="M56.362 43.2104L48.8834 30.587C48.3383 29.6666 47.1521 29.3624 46.2313 29.9079L44.4122 30.9857C43.0002 31.8222 42.4034 33.5149 42.8882 35.0151C42.2753 35.2371 41.6033 35.2336 40.9846 34.9944C39.5483 34.5425 38.4564 33.6335 36.653 34.0896C33.5909 34.8693 33.6839 34.8302 33.4069 34.9252C31.6139 33.9043 30.5361 33.6006 28.6328 34.3369L26.9361 34.9928C26.1506 35.2963 25.2851 35.2243 24.5592 34.7943L24.0962 34.5213C24.3221 33.1676 23.7218 31.739 22.4505 30.9859C22.4505 30.9859 22.4505 30.9859 22.4504 30.9858L20.6314 29.9081C19.7132 29.3643 18.5235 29.6687 17.9795 30.587L10.5006 43.2106C9.95554 44.1307 10.2588 45.3172 11.1794 45.8625L12.9984 46.9402C13.5489 47.2663 14.1538 47.4213 14.7514 47.4213C15.4179 47.4213 16.075 47.2282 16.6368 46.8645L17.0159 47.0882L16.2155 48.203C15.2617 49.5317 15.5647 51.3792 16.8936 52.3331C17.5082 52.7742 18.2802 52.9757 19.0786 52.8503C19.2053 53.5908 19.611 54.2838 20.2679 54.7556C20.8849 55.1986 21.6534 55.4003 22.4532 55.2743C22.5803 56.0142 22.9857 56.7067 23.6423 57.1781C24.5248 57.8115 25.6219 57.8848 26.5361 57.4943C26.7361 58.0139 27.0838 58.4831 27.5688 58.8314C28.8354 59.7404 30.5801 59.5034 31.5642 58.3256L33.6912 59.5856C35.0978 60.4192 36.9127 59.9559 37.7467 58.5477C37.96 58.1877 38.0923 57.7954 38.1407 57.3921L38.1455 57.3951C39.55 58.2268 41.3689 57.7611 42.201 56.357C42.4419 55.9502 42.574 55.509 42.6061 55.0669C43.8441 55.3781 45.1932 54.8582 45.8764 53.705C46.1006 53.3268 46.2306 52.9181 46.2734 52.5069C47.6002 53.0276 49.1509 52.5244 49.9002 51.2597C50.3032 50.5794 50.4172 49.783 50.2212 49.017C50.109 48.5787 49.9028 48.1808 49.6196 47.8449L50.792 47.1599C51.7837 47.567 52.9155 47.5018 53.8641 46.9401L55.6828 45.8624C56.6034 45.3175 56.9075 44.1312 56.362 43.2104ZM13.8982 45.4215L12.0792 44.3438C11.9984 44.2958 11.9715 44.1911 12.0193 44.1102L19.4982 31.4864C19.5464 31.4052 19.6515 31.3788 19.7319 31.4267L21.5508 32.5042C22.359 32.9831 22.6119 34.0198 22.1418 34.8133L16.2073 44.8304C15.7336 45.6301 14.6979 45.8951 13.8982 45.4215ZM17.923 50.8991C17.387 50.5143 17.2644 49.7687 17.6495 49.2325L18.8259 47.5937C19.2007 47.0717 19.9475 46.9288 20.4926 47.3201C21.0275 47.7041 21.1502 48.4517 20.7663 48.9866L19.5898 50.6254C19.2057 51.1606 18.4577 51.2829 17.923 50.8991ZM21.2974 53.3217C20.7625 52.9376 20.6398 52.1898 21.0238 51.655L22.2002 50.0163C22.2002 50.0163 22.2002 50.0163 22.2002 50.0162C22.2002 50.0162 22.2002 50.0161 22.2003 50.0161L23.4987 48.2077C23.6848 47.9486 23.9605 47.7772 24.2753 47.7257C24.3407 47.7149 24.4062 47.7096 24.4712 47.7096C24.7189 47.7096 24.96 47.7867 25.1653 47.934C25.4243 48.1201 25.5956 48.3958 25.6472 48.7105C25.6989 49.0254 25.6249 49.3415 25.4388 49.6006L22.9639 53.048C22.5793 53.5841 21.8337 53.7068 21.2974 53.3217ZM24.6718 55.7441C24.1371 55.3602 24.0143 54.613 24.3976 54.0782C24.3977 54.0779 24.398 54.0777 24.3981 54.0775L26.873 50.6302C27.2568 50.0953 28.0049 49.9725 28.5396 50.3564C29.0746 50.7404 29.1973 51.4881 28.8132 52.0231L27.7137 53.5548C27.7137 53.5548 27.7137 53.5548 27.7136 53.5549L26.3384 55.4705C25.9543 56.0054 25.2069 56.1284 24.6718 55.7441ZM28.5983 57.3974C28.0637 57.0135 27.9408 56.2667 28.3239 55.7317L29.1476 54.5844C29.5315 54.0493 30.2795 53.927 30.8142 54.3108C31.3491 54.6947 31.4719 55.4425 31.0878 55.9774L30.2648 57.1236C29.8809 57.6587 29.133 57.7815 28.5983 57.3974ZM48.3818 50.3601C48.0459 50.9269 47.3119 51.1149 46.7449 50.7791C45.7849 50.2104 39.5923 46.5416 38.932 46.1504C38.5125 45.902 37.9712 46.0404 37.7228 46.4598C37.4743 46.8792 37.6127 47.4206 38.0321 47.6691L43.9387 51.1684L43.9389 51.1685C44.5059 51.5044 44.6951 52.2362 44.3579 52.8055C44.0219 53.3726 43.2875 53.5602 42.7208 53.2247C40.5362 51.9305 38.7623 50.8795 36.8111 49.7235C36.3914 49.4751 35.8502 49.6134 35.6018 50.0329C35.3534 50.4523 35.4918 50.9937 35.9112 51.2421L40.2633 53.8205L40.2642 53.8211C40.8316 54.158 41.0189 54.8895 40.6825 55.4576C40.3465 56.0247 39.6123 56.2125 39.0452 55.8767L36.7096 54.493C36.7093 54.4929 36.709 54.4928 36.7087 54.4925C36.7085 54.4924 36.7083 54.4923 36.708 54.4922L35.0036 53.4823C34.584 53.2337 34.0427 53.3721 33.7943 53.7917C33.5459 54.2111 33.6843 54.7525 34.1037 55.0009L35.8085 56.0109C35.8087 56.0111 35.809 56.0113 35.8092 56.0114C36.3763 56.3473 36.5654 57.079 36.2283 57.6483C35.8923 58.2154 35.1581 58.4032 34.591 58.0674L32.6023 56.8893C33.4548 55.5737 33.1305 53.8009 31.8437 52.8772C31.4658 52.6061 31.045 52.4372 30.6145 52.3647C31.0711 51.1439 30.6775 49.7187 29.569 48.923C28.9127 48.4517 28.127 48.2889 27.3854 48.4051C27.2535 47.6334 26.8315 46.9575 26.1948 46.5006C24.9974 45.6413 23.3701 45.8064 22.365 46.8232C22.1607 46.4645 21.8788 46.1427 21.5221 45.8867C20.527 45.1725 19.2352 45.1658 18.2501 45.7674L17.8457 45.5286L23.3968 36.1584L23.6611 36.3143C24.8283 37.0057 26.2526 37.1499 27.5726 36.6394L29.2692 35.9835C30.2401 35.6083 30.7755 35.5838 31.7359 36.0369C31.1075 36.7429 30.7345 37.6697 30.7345 38.6686V42.5821C30.7345 43.6215 31.5796 44.4677 32.6182 44.4684H32.6208C33.6626 44.4684 34.6423 44.0629 35.3793 43.3263C35.8089 42.897 36.126 42.3851 36.316 41.8263C37.4557 42.5012 46.8714 48.0769 47.963 48.7236C48.2375 48.8863 48.4323 49.1461 48.5114 49.4552C48.5905 49.764 48.5444 50.0855 48.3818 50.3601ZM54.7835 44.3438L52.9644 45.4215C52.1647 45.895 51.129 45.6298 50.6556 44.8306L47.874 40.1354C47.6255 39.716 47.0838 39.5776 46.6648 39.8258C46.2453 40.0743 46.1068 40.6157 46.3552 41.0351L49.1367 45.7303C49.1891 45.8187 49.2459 45.9027 49.3048 45.9846L48.5314 46.4364C48.3751 46.529 48.2248 46.6309 48.081 46.7417L36.09 39.6407C35.5025 39.293 34.7577 39.7168 34.7577 40.4001C34.7484 40.4528 34.8489 41.36 34.1313 42.0774C33.7277 42.4806 33.1912 42.7028 32.6207 42.7028C32.6202 42.7028 32.6197 42.7028 32.6193 42.7028C32.5533 42.7028 32.4996 42.6484 32.4996 42.5816V38.6681C32.4996 37.6458 33.203 36.7833 34.1542 36.5425L37.0857 35.8006C38.1495 35.5317 38.7507 36.0997 40.3434 36.6388C41.4491 37.0665 42.6513 37.0402 43.7184 36.5844L44.2512 37.4837C44.4997 37.9034 45.0411 38.0417 45.4604 37.7933C45.8798 37.5449 46.0184 37.0035 45.77 36.5841L44.7207 34.813C44.246 34.0117 44.5105 32.979 45.3117 32.5041L47.1307 31.4265C47.2102 31.3793 47.3153 31.4034 47.3645 31.4864L54.8432 44.11C54.8914 44.1914 54.8648 44.2956 54.7835 44.3438Z" fill="#2C5491"/>
</svg>
