<svg width="60" height="60" viewBox="0 0 60 60" fill="none" xmlns="http://www.w3.org/2000/svg">
<g clip-path="url(#clip0)">
<path d="M17 45C15.3431 45 14 46.3431 14 48C14 49.6568 15.3431 51 17 51C18.6568 51 20 49.6568 20 48C20 46.3431 18.6568 45 17 45ZM17 49C16.4477 49 16 48.5522 16 48C16 47.4477 16.4477 47 17 47C17.5523 47 18 47.4477 18 48C18 48.5522 17.5523 49 17 49Z" fill="#2C5491"/>
<path d="M59 58H54.756C54.764 57.5386 54.6081 57.0893 54.316 56.732C52.331 54.334 49 49.622 49 45V36.648C49.7145 36.5175 50.3001 36.0062 50.526 35.316L51.136 33.411C51.297 32.9053 51.2505 32.3564 51.0067 31.8851C50.7629 31.4138 50.3417 31.0587 49.836 30.898L58.031 5.21597C58.7026 3.11121 57.5408 0.860547 55.436 0.188969C53.3312 -0.48261 51.0806 0.679211 50.409 2.78397L42.216 28.466C41.1634 28.1348 40.0408 28.7155 39.703 29.766L39.096 31.666C38.9645 32.0824 38.9744 32.5307 39.124 32.941C37.0328 34.1564 35.0489 35.5477 33.194 37.1L33.921 29.835C35.1545 29.4394 35.9935 28.2953 36 27V25C36 23.3431 34.6569 22 33 22H32C32.0175 20.4934 31.3469 19.0611 30.1786 18.1097C29.0103 17.1583 27.4718 16.7917 26 17.114V9.99997C26 6.68626 23.3137 3.99997 20 3.99997C16.6863 3.99997 14 6.68626 14 9.99997V13.592C12.7709 14.0861 11.6852 14.8803 10.842 15.902C10.0098 15.3165 9.01749 15.0016 8 15C6.31238 14.9969 4.73749 15.8468 3.81378 17.2592C2.89008 18.6716 2.74269 20.4551 3.422 22H3C1.34315 22 0 23.3431 0 25V27C0.00434799 28.2971 0.843791 29.4438 2.079 29.84L4.645 55.5C4.89148 58.0601 7.04804 60.0108 9.62 60H26.38C27.6033 59.9996 28.7833 59.5477 29.694 58.731C31.779 59.739 34.582 60 38 60H59C59.5523 60 60 59.5523 60 59C60 58.4477 59.5523 58 59 58ZM52.314 3.39197C52.5588 2.61927 53.2458 2.07075 54.0535 2.00303C54.8612 1.93532 55.63 2.36182 56 3.08297C56.245 3.5537 56.2911 4.10299 56.128 4.60797L47.932 30.29L44.122 29.074L52.314 3.39197ZM41.608 30.371L49.229 32.8L48.621 34.705L41 32.276L41.608 30.371ZM33 24C33.5523 24 34 24.4477 34 25V27C34 27.5523 33.5523 28 33 28H26V24H33ZM20 24H24V28H20V24ZM27 19C28.6569 19 30 20.3431 30 22H26V19.2C26.3189 19.0748 26.6575 19.007 27 19ZM16 9.99997C16 7.79083 17.7909 5.99997 20 5.99997C22.2091 5.99997 24 7.79083 24 9.99997V17.172C22.4455 14.2741 19.2606 12.6398 16 13.067V9.99997ZM5 20C4.99342 18.7469 5.77013 17.6232 6.94462 17.1865C8.11911 16.7497 9.44132 17.093 10.255 18.046C10.4646 18.2871 10.7768 18.4135 11.0951 18.3862C11.4134 18.3589 11.6995 18.1812 11.865 17.908C13.1345 15.7941 15.569 14.6734 18.0004 15.0834C20.4318 15.4935 22.364 17.3507 22.87 19.764C22.9497 20.1457 23.244 20.4463 23.624 20.534C23.7477 20.5604 23.8755 20.5625 24 20.54V22H20V21C20 20.4477 19.5523 20 19 20C18.4477 20 18 20.4477 18 21V40C18.0004 40.2693 17.8897 40.5269 17.694 40.712C17.5116 40.8986 17.2609 41.0026 17 41C16.4477 41 16 40.5523 16 40V33C15.9918 31.3465 14.6534 30.0082 13 30C11.3431 30 10 31.3431 10 33V36C10.0004 36.2693 9.88969 36.5269 9.694 36.712C9.5116 36.8986 9.26092 37.0026 9 37C8.44771 37 8 36.5523 8 36V21C8 20.4477 7.55228 20 7 20C6.44772 20 6 20.4477 6 21V22H5.792C5.28837 21.4551 5.00598 20.742 5 20ZM2 25C2 24.4477 2.44772 24 3 24H6V28H3C2.44772 28 2 27.5523 2 27V25ZM26.38 58H9.62C8.07661 58.007 6.78234 56.8363 6.635 55.3L4.105 30H6V36C6 37.6568 7.34315 39 9 39C10.653 38.9907 11.9907 37.653 12 36V33C12 32.4477 12.4477 32 13 32C13.2697 31.9993 13.5277 32.11 13.713 32.306C13.8985 32.4891 14.002 32.7394 14 33V40C14 41.6568 15.3431 43 17 43C18.653 42.9907 19.9907 41.653 20 40V30H24V32.184C22.6225 32.671 21.7961 34.0796 22.0432 35.5197C22.2903 36.9598 23.5389 38.0124 25 38.0124C26.4611 38.0124 27.7097 36.9598 27.9568 35.5197C28.2039 34.0796 27.3775 32.671 26 32.184V30H31.9L30.975 39.245C28.2271 42.1671 26.4881 45.893 26.013 49.876C25.606 53.133 26.113 55.519 27.573 57.169C27.691 57.303 27.831 57.409 27.959 57.531C27.4874 57.833 26.94 57.9956 26.38 58ZM26 35C26 35.5523 25.5523 36 25 36C24.4477 36 24 35.5523 24 35C24 34.4477 24.4477 34 25 34C25.5523 34 26 34.4477 26 35ZM51 58H46.328C46.0504 57.8082 45.7627 57.6316 45.466 57.471C43.688 56.487 41 55 41 50C41 43.565 43.685 40.73 43.707 40.707C44.086 40.3146 44.0806 39.6909 43.6948 39.3051C43.3091 38.9194 42.6854 38.914 42.293 39.293C42.158 39.427 39 42.67 39 50C39 54.372 40.859 56.675 42.578 58H38.278C36.3117 57.0104 34.849 55.2434 34.244 53.127C33.332 49.395 35.809 45.591 35.834 45.553C36.1364 45.0933 36.0107 44.4757 35.5526 44.1708C35.0945 43.866 34.4762 43.9885 34.169 44.445C34.047 44.629 31.185 48.994 32.298 53.587C32.7027 55.23 33.5704 56.7224 34.798 57.887C32.375 57.687 30.244 57.174 29.072 55.847C28.017 54.647 27.665 52.78 27.997 50.125C28.98 42.279 34.672 37.863 40.765 34.3L47 36.29V45C47 50.249 50.618 55.4 52.771 58H51Z" fill="#2C5491"/>
<path d="M9 9C9 7.34315 7.65685 6 6 6C4.34315 6 3 7.34315 3 9C3 10.6569 4.34315 12 6 12C6.79565 12 7.55871 11.6839 8.12132 11.1213C8.68393 10.5587 9 9.79565 9 9ZM5 9C5 8.44772 5.44772 8 6 8C6.55229 8 7 8.44772 7 9C7 9.55229 6.55229 10 6 10C5.44772 10 5 9.55229 5 9Z" fill="#2C5491"/>
<path d="M33 14C34.6568 14 36 12.6569 36 11C36 9.34315 34.6568 8 33 8C31.3431 8 30 9.34315 30 11C30 12.6569 31.3431 14 33 14ZM33 10C33.5523 10 34 10.4477 34 11C34 11.5523 33.5523 12 33 12C32.4477 12 32 11.5523 32 11C32 10.4477 32.4477 10 33 10Z" fill="#2C5491"/>
<path d="M29 5C29.5523 5 30 4.55229 30 4C30 3.44772 29.5523 3 29 3C28.4477 3 28 3.44772 28 4C28 4.55229 28.4477 5 29 5Z" fill="#2C5491"/>
<path d="M12 5C12.5523 5 13 4.55229 13 4C13 3.44772 12.5523 3 12 3C11.4477 3 11 3.44772 11 4C11 4.55229 11.4477 5 12 5Z" fill="#2C5491"/>
</g>
<defs>
<clipPath id="clip0">
<rect width="60" height="60" fill="white"/>
</clipPath>
</defs>
</svg>
