<svg width="73" height="86" viewBox="0 0 73 86" fill="none" xmlns="http://www.w3.org/2000/svg">
<path d="M37.8 29.64C49.56 29.64 58.2 32.12 63.72 37.08C69.32 41.96 72.12 48.4 72.12 56.4C72.12 61.68 70.72 66.56 67.92 71.04C65.2 75.44 60.96 79.04 55.2 81.84C49.44 84.56 42.28 85.92 33.72 85.92C27.8 85.92 21.88 85.28 15.96 84C10.12 82.72 5 80.84 0.6 78.36L10.2 57.48C13.72 59.48 17.4 61 21.24 62.04C25.16 63.08 28.96 63.6 32.64 63.6C35.92 63.6 38.56 63.04 40.56 61.92C42.64 60.72 43.68 59.08 43.68 57C43.68 55 42.76 53.52 40.92 52.56C39.08 51.52 35.76 51 30.96 51H6.6L10.8 -5.72205e-06H66.6V21.36H34.08L33.48 29.64H37.8Z" fill="#F1F5FD"/>
</svg>
