<svg width="75" height="88" viewBox="0 0 75 88" fill="none" xmlns="http://www.w3.org/2000/svg">
<path d="M46.08 31.64C51.2 31.64 55.96 32.76 60.36 35C64.76 37.24 68.28 40.4 70.92 44.48C73.56 48.56 74.88 53.24 74.88 58.52C74.88 64.36 73.36 69.52 70.32 74C67.36 78.48 63.28 81.92 58.08 84.32C52.88 86.72 47.12 87.92 40.8 87.92C32.72 87.92 25.64 86.36 19.56 83.24C13.56 80.12 8.88 75.48 5.52 69.32C2.16 63.16 0.48 55.6 0.48 46.64C0.48 37.04 2.4 28.72 6.24 21.68C10.16 14.64 15.6 9.28 22.56 5.6C29.6 1.92 37.76 0.0799975 47.04 0.0799975C52.08 0.0799975 56.88 0.679997 61.44 1.88C66 3 69.88 4.6 73.08 6.68L62.88 26.48C58.72 23.52 53.64 22.04 47.64 22.04C42.76 22.04 38.72 23.28 35.52 25.76C32.4 28.16 30.36 31.68 29.4 36.32C33.8 33.2 39.36 31.64 46.08 31.64ZM38.88 68.36C41.44 68.36 43.52 67.6 45.12 66.08C46.72 64.56 47.52 62.48 47.52 59.84C47.52 57.2 46.72 55.12 45.12 53.6C43.52 52 41.44 51.2 38.88 51.2C36.32 51.2 34.24 52 32.64 53.6C31.04 55.12 30.24 57.2 30.24 59.84C30.24 62.48 31.04 64.56 32.64 66.08C34.24 67.6 36.32 68.36 38.88 68.36Z" fill="#F1F5FD"/>
</svg>
