<svg width="73" height="86" viewBox="0 0 73 86" fill="none" xmlns="http://www.w3.org/2000/svg">
<path d="M72.68 64.04V86H5.36V68.6L35.72 40.52C38.36 38.04 40.12 35.92 41 34.16C41.88 32.4 42.32 30.68 42.32 29C42.32 26.92 41.6 25.32 40.16 24.2C38.8 23 36.8 22.4 34.16 22.4C31.6 22.4 29.2 23.08 26.96 24.44C24.72 25.8 23 27.72 21.8 30.2L0.44 19.52C3.64 13.52 8.32 8.8 14.48 5.35999C20.64 1.84 28.08 0.0799975 36.8 0.0799975C43.44 0.0799975 49.32 1.16 54.44 3.32C59.56 5.47999 63.56 8.55999 66.44 12.56C69.32 16.56 70.76 21.16 70.76 26.36C70.76 31 69.76 35.36 67.76 39.44C65.84 43.44 62.04 48 56.36 53.12L44.36 64.04H72.68Z" fill="#F1F5FD"/>
</svg>
