<svg width="65" height="508" fill="none" xmlns="http://www.w3.org/2000/svg"><path opacity=".5" d="M-10.6 21.19l-.873-.489-.006.012.879.476zM3.48 6.67l-.502-.865-.008.004.51.86zm40.04 0l.51-.86-.008-.005-.502.864zm13.97 14.52l-.877.48.002.003.875-.483zm.11 41.36l-.875-.485-.002.004.877.48zM43.52 77.07l-.505-.863-.005.002.51.86zm-40.15 0l-.51.86.005.002.505-.862zM-10.6 62.55l.877-.48-.002-.005-.875.485zm6.27-4.07l-.875.483.005.01.87-.493zM7.11 70.03l-.499.866.006.003.493-.87zm32.67 0l-.493-.87-.006.003.499.867zm11.44-11.55l-.87-.494-.005.01.875.483zm0-33.11l-.875.483.002.004.873-.488zM39.78 13.71l.503-.865-.004-.002-.499.867zm-32.67 0l-.493-.87-.008.004-.008.005.509.86zM-4.33 25.37l-.87-.494-.004.008-.004.008.878.477zm-10.33 16.61c0-7.474 1.651-14.238 4.94-20.315l-1.76-.951c-3.458 6.39-5.18 13.486-5.18 21.266h2zm4.933-20.302c3.362-6.01 7.932-10.72 13.717-14.148L2.97 5.81C-3.125 9.42-7.942 14.39-11.473 20.7l1.746.977zM3.982 7.534C9.758 4.184 16.255 2.5 23.5 2.5v-2C15.931.5 9.082 2.263 2.978 5.805l1.004 1.73zM23.5 2.5c7.245 0 13.742 1.684 19.518 5.035l1.004-1.73C37.917 2.264 31.069.5 23.5.5v2zm19.51 5.03c5.783 3.428 10.314 8.135 13.603 14.14l1.754-.96c-3.458-6.314-8.24-11.287-14.337-14.9l-1.02 1.72zm13.605 14.144c3.359 6.075 5.045 12.837 5.045 20.307h2c0-7.784-1.76-14.882-5.295-21.274l-1.75.967zM61.66 41.98c0 7.473-1.651 14.16-4.935 20.085l1.75.97c3.463-6.25 5.185-13.276 5.185-21.055h-2zm-4.937 20.09c-3.287 6.002-7.852 10.709-13.708 14.137l1.01 1.726c6.171-3.613 10.992-8.586 14.452-14.903l-1.754-.96zM43.01 76.21c-5.774 3.421-12.27 5.14-19.51 5.14v2c7.573 0 14.424-1.802 20.53-5.42l-1.02-1.72zM23.5 81.35c-7.24 0-13.774-1.719-19.625-5.143l-1.01 1.726c6.176 3.615 13.062 5.416 20.635 5.416v-2zM3.88 76.21c-5.783-3.428-10.314-8.135-13.603-14.14l-1.754.96c3.458 6.314 8.24 11.287 14.337 14.9l1.02-1.72zM-9.725 62.064C-13.01 56.14-14.66 49.453-14.66 41.98h-2c0 7.78 1.722 14.805 5.185 21.054l1.75-.97zM-9.4 41.98c0 6.24 1.393 11.91 4.195 16.983l1.75-.967C-6.079 53.243-7.4 47.912-7.4 41.98h-2zm4.2 16.993c2.874 5.067 6.814 9.046 11.811 11.923l.998-1.733c-4.683-2.697-8.37-6.417-11.07-11.177l-1.739.987zM6.617 70.899c5.073 2.878 10.708 4.31 16.883 4.31v-2c-5.852 0-11.143-1.353-15.897-4.05l-.986 1.74zM23.5 75.21c6.175 0 11.776-1.432 16.779-4.313l-.998-1.733c-4.677 2.693-9.929 4.047-15.781 4.047v2zm16.773-4.31c5.073-2.877 9.02-6.86 11.822-11.936l-1.75-.967c-2.624 4.75-6.304 8.467-11.058 11.164l.986 1.74zM52.09 58.973c2.878-5.075 4.31-10.748 4.31-16.993h-2c0 5.927-1.355 11.255-4.05 16.006l1.74.987zM56.4 41.98c0-6.246-1.432-11.953-4.307-17.098l-1.746.975C53.045 30.685 54.4 36.052 54.4 41.98h2zm-4.305-17.094c-2.801-5.074-6.745-9.091-11.812-12.04l-1.006 1.728c4.76 2.77 8.443 6.526 11.068 11.279l1.75-.967zM40.28 12.843c-5.004-2.88-10.605-4.314-16.78-4.314v2c5.852 0 11.104 1.354 15.781 4.047l.998-1.733zM23.5 8.529c-6.175 0-11.81 1.433-16.883 4.31l.986 1.74c4.754-2.696 10.045-4.05 15.897-4.05v-2zM6.601 12.85c-4.99 2.949-8.928 6.963-11.8 12.027l1.739.987C-.76 21.1 2.93 17.34 7.619 14.57L6.6 12.85zm-11.81 12.043C-8.006 30.035-9.4 35.737-9.4 41.98h2c0-5.933 1.32-11.303 3.948-16.133l-1.756-.956zM54.96 151.08h-1v1h1v-1zm0-27.06h1v-1h-1v1zm-69.96 0h-1v1h1v-1zm0-8.03v-1h-1v1h1zm69.96 0v1h1v-1h-1zm0-27.06v-1h-1v1h1zm7.04 0h1v-1h-1v1zm0 62.15v1h1v-1h-1zm-6.04 0v-27.06h-2v27.06h2zm-1-28.06H-15v2h69.96v-2zm-68.96 1v-8.03h-2v8.03h2zm-1-7.03h69.96v-2H-15v2zm70.96-1V88.93h-2v27.06h2zm-1-26.06H62v-2h-7.04v2zm6.04-1v62.15h2V88.93h-2zm1 61.15h-7.04v2H62v-2zm-36.74 48.728l.957-.291-1.057-3.482-.871 3.533.971.24zm-6.82 11.88l-.655-.756-.01.008.665.748zm-23.65.22l.637-.771-.637.771zm-7.81-11.11l-.935.356.005.013.93-.369zm-.22-30.25l-.946-.325-.003.008-.002.009.951.308zm7.48-13.31l.454-.891-.711-.363-.511.613.768.641zm5.83 2.97l.763.646.817-.964-1.126-.573-.454.891zm-6.6 11.55l-.942-.336-.003.008-.002.007.947.321zm-.22 24.64l-.936.351.936-.351zm5.61 8.36l.649-.761-.002-.002-.647.763zm22.77-33.44v-1h-1v1h1zm6.6 0h1v-1h-1v1zm3.41 28.71l-.798.603.003.003.795-.606zm20.35-1.21l-.827-.562-.007.011.834.551zm2.31-25.74l-.964.264.002.009.003.009.959-.282zm-4.73-10.67l-.38-.926-1.1.452.634 1.007.846-.533zm6.71-2.75l.859-.512-.441-.74-.797.326.379.926zm4.29 39.05l.932.363-.932-.363zm-7.26 10.23l-.62-.785-.006.005-.005.004.631.776zm-21.78.44l-.613.79.01.007.603-.797zm-7.241-9.81c-1.207 4.899-3.388 8.664-6.504 11.364l1.31 1.511c3.484-3.019 5.85-7.175 7.136-12.396l-1.942-.479zm-6.513 11.372c-3.108 2.763-6.829 4.148-11.216 4.148v2c4.853 0 9.052-1.549 12.544-4.653l-1.328-1.495zM6.56 214.088c-4.247 0-7.943-1.316-11.133-3.951l-1.274 1.542c3.557 2.938 7.707 4.409 12.407 4.409v-2zm-11.133-3.951c-3.227-2.666-5.738-6.223-7.518-10.708l-1.859.738c1.887 4.755 4.583 8.604 8.103 11.512l1.274-1.542zm-7.512-10.695c-1.713-4.496-2.575-9.397-2.575-14.714h-2c0 5.536.898 10.681 2.706 15.426l1.869-.712zm-2.575-14.714c0-5.027.79-9.983 2.371-14.872l-1.902-.616c-1.645 5.084-2.469 10.248-2.469 15.488h2zm2.366-14.856a40.828 40.828 0 017.302-12.994l-1.536-1.281a42.83 42.83 0 00-7.658 13.626l1.892.649zm6.08-12.743l5.83 2.97.908-1.782-5.83-2.97-.908 1.782zm5.521 1.432c-2.94 3.469-5.2 7.425-6.78 11.861l1.885.671c1.501-4.217 3.642-7.961 6.42-11.239l-1.525-1.293zm-6.784 11.876c-1.5 4.426-2.253 8.897-2.253 13.411h2c0-4.287.714-8.542 2.147-12.769l-1.894-.642zm-2.253 13.411c0 4.286.677 8.257 2.044 11.901l1.872-.702c-1.273-3.396-1.916-7.126-1.916-11.199h-2zm2.044 11.901c1.368 3.65 3.327 6.589 5.899 8.771l1.294-1.525c-2.268-1.924-4.05-4.558-5.32-7.948l-1.873.702zm5.897 8.77c2.68 2.285 5.845 3.429 9.449 3.429v-2c-3.143 0-5.844-.984-8.151-2.951l-1.298 1.522zm9.449 3.429c4.784 0 8.547-1.908 11.164-5.714l-1.648-1.133c-2.223 3.234-5.353 4.847-9.516 4.847v2zm11.164-5.714c2.578-3.75 3.806-8.928 3.806-15.416h-2c0 6.272-1.192 10.993-3.454 14.283l1.648 1.133zm3.806-15.416v-16.5h-2v16.5h2zm-1-15.5h6.6v-2h-6.6v2zm5.6-1v16.06h2v-16.06h-2zm0 16.06c0 5.552 1.161 10.011 3.612 13.253l1.596-1.206c-2.096-2.772-3.208-6.746-3.208-12.047h-2zm3.615 13.256c2.548 3.345 6.078 5.014 10.475 5.014v-2c-3.817 0-6.74-1.412-8.885-4.226l-1.59 1.212zm10.475 5.014c4.892 0 8.758-2.121 11.505-6.279l-1.67-1.102c-2.386 3.614-5.634 5.381-9.835 5.381v2zm11.497-6.268c2.778-4.09 4.133-9.175 4.133-15.192h-2c0 5.716-1.285 10.384-3.787 14.068l1.654 1.124zm4.133-15.192c0-3.768-.565-7.567-1.69-11.392l-1.92.564c1.075 3.654 1.61 7.262 1.61 10.828h2zm-1.686-11.375c-1.053-3.838-2.67-7.484-4.848-10.939l-1.692 1.067c2.076 3.292 3.612 6.759 4.612 10.401l1.928-.529zm-5.315-9.48l6.71-2.75-.758-1.851-6.71 2.75.758 1.851zm5.472-3.163c4.455 7.472 6.679 15.545 6.679 24.238h2c0-9.054-2.322-17.481-6.961-25.262l-1.718 1.024zm6.679 24.238c0 5.097-.825 9.739-2.462 13.936l1.864.727c1.737-4.456 2.598-9.347 2.598-14.663h-2zm-2.462 13.936c-1.632 4.188-3.955 7.442-6.948 9.809l1.24 1.569c3.313-2.62 5.83-6.185 7.572-10.651l-1.864-.727zm-6.96 9.818c-2.966 2.415-6.443 3.626-10.478 3.626v2c4.472 0 8.4-1.356 11.741-4.075l-1.262-1.551zM42.2 210.788c-3.91 0-7.25-1.078-10.067-3.208l-1.206 1.595c3.196 2.417 6.97 3.613 11.273 3.613v-2zm-10.057-3.201c-2.745-2.127-4.73-5.129-5.926-9.07l-1.914.581c1.297 4.273 3.493 7.651 6.614 10.07l1.226-1.581zm-3.803 80.732l-.758-.652-.005.005.763.647zm-36.96-.44l-.766.644.001.001.765-.645zm-6.38-52.58v-1h-1v1h1zm77 0h1v-1h-1v1zm0 8.03v1h1v-1h-1zm-27.5 0v-1h-1v1h1zm-38.28 38.5l.765-.644-.007-.008-.758.652zm31.68-38.5h1v-1h-1v1zm-36.41 0v-1h-1v1h1zM62 308.889h1v-1h-1v1zm0 8.03v1h1v-1h-1zm-77 0h-1v1h1v-1zm0-8.03v-1h-1v1h1zm48.5-41.36c0 8.959-2.024 15.619-5.918 20.138l1.516 1.305c4.32-5.014 6.402-12.214 6.402-21.443h-2zm-5.922 20.143c-3.871 4.562-9.573 6.907-17.278 6.907v2c8.135 0 14.46-2.495 18.802-7.613l-1.524-1.294zM10.3 294.579c-8.067 0-14.062-2.488-18.155-7.344l-1.53 1.289c4.56 5.41 11.179 8.055 19.685 8.055v-2zm-18.155-7.343C-11.9 282.422-14 275.355-14 265.879h-2c0 9.738 2.154 17.337 6.614 22.644l1.531-1.287zM-14 265.879v-30.58h-2v30.58h2zm-1-29.58h77v-2h-77v2zm76-1v8.03h2v-8.03h-2zm1 7.03H34.5v2H62v-2zm-28.5 1v24.2h2v-24.2h-2zm-43.01 22.33c0 7.243 1.603 12.906 4.972 16.822l1.516-1.304c-2.938-3.416-4.488-8.534-4.488-15.518h-2zm4.965 16.815c3.391 4.022 8.363 5.965 14.735 5.965v-2c-5.948 0-10.29-1.796-13.205-5.254l-1.53 1.289zm14.735 5.965c6.118 0 10.868-1.891 14.058-5.814 3.158-3.883 4.652-9.596 4.652-16.966h-2c0 7.151-1.458 12.328-4.203 15.704-2.714 3.338-6.819 5.076-12.507 5.076v2zm18.71-22.78v-22.33h-2v22.33h2zm-1-23.33H-8.51v2H27.9v-2zm-37.41 1v22.33h2v-22.33h-2zM61 308.889v8.03h2v-8.03h-2zm1 7.03h-77v2h77v-2zm-76 1v-8.03h-2v8.03h2zm-1-7.03h77v-2h-77v2zm39.71 78.59l.938-.348-1.214-3.277-.704 3.423.98.202zm-6.49 12.21l-.654-.757-.008.007.662.75zm-27.83-2.97l.799-.602-.005-.006-.794.608zm-5.39-54.89v-1h-1v1h1zm77 0h1v-1h-1v1zm-5.06 51.26l.808.589-.808-.589zm-25.63 3.63l-.6.8.01.007.59-.807zm-4.18-46.86v-1h-1v1h1zm3.63 37.18l.8-.6-.007-.009-.793.609zm21.12 0l-.793-.609-.007.009.8.6zm3.63-37.18h1v-1h-1v1zm-34.65 0h1v-1h-1v1zm-29.37 0v-1h-1v1h1zm32.24 37.418c-1.068 5.199-3.146 9.049-6.164 11.655l1.308 1.513c3.435-2.967 5.684-7.257 6.816-12.765l-1.96-.403zm-6.172 11.662c-2.933 2.592-6.823 3.93-11.768 3.93v2c5.321 0 9.718-1.449 13.092-4.431l-1.324-1.499zm-11.768 3.93c-6.402 0-11.221-2.268-14.602-6.752l-1.597 1.204c3.807 5.049 9.254 7.548 16.199 7.548v-2zm-14.606-6.758C-12.22 392.665-14 385.989-14 376.929h-2c0 9.272 1.813 16.457 5.596 21.398l1.588-1.216zM-14 376.929v-34.1h-2v34.1h2zm-1-33.1h77v-2h-77v2zm76-1v32.01h2v-32.01h-2zm0 32.01c0 8.09-1.663 14.271-4.868 18.66l1.616 1.179C61.29 389.827 63 383.175 63 374.839h-2zm-4.868 18.66c-3.161 4.33-7.719 6.52-13.822 6.52v2c6.657 0 11.852-2.43 15.438-7.341l-1.616-1.179zm-13.822 6.52c-4.15 0-7.6-1.052-10.41-3.107l-1.18 1.614c3.204 2.344 7.087 3.493 11.59 3.493v-2zm-10.4-3.1c-2.757-2.068-4.852-4.98-6.262-8.788l-1.876.695c1.523 4.112 3.829 7.361 6.938 9.693l1.2-1.6zm-5.78-46.06v23.54h2v-23.54h-2zm0 23.54c0 6.056 1.23 10.853 3.837 14.248l1.586-1.217c-2.234-2.911-3.423-7.208-3.423-13.031h-2zm3.83 14.24c2.638 3.517 6.477 5.24 11.36 5.24v-2c-4.358 0-7.558-1.505-9.76-4.44l-1.6 1.2zm11.36 5.24c4.883 0 8.722-1.723 11.36-5.24l-1.6-1.2c-2.202 2.935-5.403 4.44-9.76 4.44v2zm11.353-5.232c2.606-3.395 3.837-8.192 3.837-14.248h-2c0 5.823-1.19 10.12-3.423 13.031l1.586 1.217zm3.837-14.248v-23.54h-2v23.54h2zm-1-24.54H27.13v2h28.38v-2zm-65.02 27.07c0 6.732 1.25 11.963 3.91 15.53 2.703 3.622 6.744 5.38 11.94 5.38v-2c-4.704 0-8.088-1.561-10.336-4.576-2.29-3.069-3.514-7.793-3.514-14.334h-2zm15.85 20.91c5.095 0 9.055-1.764 11.698-5.389 2.6-3.566 3.822-8.793 3.822-15.521h-2c0 6.544-1.199 11.272-3.438 14.343-2.197 3.012-5.497 4.567-10.082 4.567v2zm15.52-20.91v-26.07h-2v26.07h2zm-1-27.07H-8.51v2h29.37v-2zm-30.37 1v26.07h2v-26.07h-2zm37.85 127.382l-.758-.653-.005.006.763.647zm-36.96-.44l-.766.644.001.001.765-.645zm-6.38-52.58v-1h-1v1h1zm77 0h1v-1h-1v1zm0 8.03v1h1v-1h-1zm-27.5 0v-1h-1v1h1zm-38.28 38.5l.765-.644-.007-.008-.758.652zm31.68-38.5h1v-1h-1v1zm-36.41 0v-1h-1v1h1zM62 498.811h1v-1h-1v1zm0 8.03v1h1v-1h-1zm-77 0h-1v1h1v-1zm0-8.03v-1h-1v1h1zm48.5-41.36c0 8.959-2.024 15.618-5.918 20.137l1.516 1.306c4.32-5.014 6.402-12.215 6.402-21.443h-2zm-5.922 20.143c-3.871 4.562-9.573 6.907-17.278 6.907v2c8.135 0 14.46-2.495 18.802-7.613l-1.524-1.294zM10.3 484.501c-8.067 0-14.062-2.488-18.155-7.344l-1.53 1.289c4.56 5.41 11.179 8.055 19.685 8.055v-2zm-18.155-7.343C-11.9 472.344-14 465.277-14 455.801h-2c0 9.738 2.154 17.337 6.614 22.644l1.531-1.287zM-14 455.801v-30.58h-2v30.58h2zm-1-29.58h77v-2h-77v2zm76-1v8.03h2v-8.03h-2zm1 7.03H34.5v2H62v-2zm-28.5 1v24.2h2v-24.2h-2zm-43.01 22.33c0 7.243 1.603 12.905 4.972 16.822l1.516-1.304c-2.938-3.416-4.488-8.534-4.488-15.518h-2zm4.965 16.815c3.391 4.022 8.363 5.965 14.735 5.965v-2c-5.948 0-10.29-1.796-13.206-5.254l-1.529 1.289zm14.735 5.965c6.118 0 10.868-1.891 14.058-5.814 3.158-3.883 4.652-9.596 4.652-16.966h-2c0 7.151-1.458 12.328-4.203 15.704-2.714 3.337-6.819 5.076-12.507 5.076v2zm18.71-22.78v-22.33h-2v22.33h2zm-1-23.33H-8.51v2H27.9v-2zm-37.41 1v22.33h2v-22.33h-2zM61 498.811v8.03h2v-8.03h-2zm1 7.03h-77v2h77v-2zm-76 1v-8.03h-2v8.03h2zm-1-7.03h77v-2h-77v2z" fill="#fff" fill-opacity=".45"/></svg>