<svg width="65" height="508" viewBox="0 0 65 508" fill="none" xmlns="http://www.w3.org/2000/svg">
<path opacity="0.5" d="M-10.6 21.1895L-11.4728 20.7012L-11.4795 20.7135L-10.6 21.1895ZM3.48 6.66949L2.9781 5.80452L2.97019 5.8092L3.48 6.66949ZM43.52 6.66949L44.0298 5.80916L44.0219 5.80455L43.52 6.66949ZM57.49 21.1895L56.6129 21.6698L56.6149 21.6734L57.49 21.1895ZM57.6 62.5495L56.7253 62.0647L56.7229 62.0692L57.6 62.5495ZM43.52 77.0695L43.0148 76.2065L43.0102 76.2092L43.52 77.0695ZM3.36999 77.0695L2.86018 77.9298L2.86481 77.9325L3.36999 77.0695ZM-10.6 62.5495L-9.7229 62.0692L-9.72536 62.0647L-10.6 62.5495ZM-4.33001 58.4795L-5.20545 58.9629L-5.19985 58.9728L-4.33001 58.4795ZM7.10999 70.0295L6.61101 70.8961L6.61665 70.8993L7.10999 70.0295ZM39.78 70.0295L39.2866 69.1596L39.281 69.1629L39.78 70.0295ZM51.22 58.4795L50.3501 57.9861L50.3446 57.9961L51.22 58.4795ZM51.22 25.3695L50.3446 25.8529L50.3471 25.8573L51.22 25.3695ZM39.78 13.7095L40.2831 12.8452L40.279 12.8429L39.78 13.7095ZM7.10999 13.7095L6.61665 12.8397L6.60892 12.844L6.60127 12.8486L7.10999 13.7095ZM-4.33001 25.3695L-5.19984 24.8762L-5.20418 24.8838L-5.2084 24.8915L-4.33001 25.3695ZM-14.66 41.9795C-14.66 34.506 -13.0088 27.7416 -9.72053 21.6654L-11.4795 20.7135C-14.9379 27.1041 -16.66 34.1996 -16.66 41.9795L-14.66 41.9795ZM-9.72732 21.6778C-6.36471 15.668 -1.79507 10.9579 3.9898 7.52978L2.97019 5.8092C-3.12495 9.42112 -7.94197 14.391 -11.4727 20.7012L-9.72732 21.6778ZM3.98187 7.53442C9.7575 4.18313 16.2553 2.49949 23.5 2.49949L23.5 0.499494C15.9314 0.499493 9.08249 2.26251 2.97812 5.80455L3.98187 7.53442ZM23.5 2.49949C30.7447 2.49949 37.2425 4.18313 43.0181 7.53442L44.0219 5.80455C37.9175 2.26251 31.0686 0.499494 23.5 0.499494L23.5 2.49949ZM43.0102 7.52978C48.7931 10.9567 53.3242 15.6643 56.6129 21.6698L58.3671 20.7092C54.9092 14.3947 50.1269 9.42227 44.0298 5.8092L43.0102 7.52978ZM56.6149 21.6734C59.9739 27.7482 61.66 34.5097 61.66 41.9795L63.66 41.9795C63.66 34.1959 61.8995 27.0975 58.3651 20.7056L56.6149 21.6734ZM61.66 41.9795C61.66 49.4532 60.0087 56.1403 56.7253 62.0647L58.4746 63.0342C61.9379 56.7853 63.66 49.7591 63.66 41.9795L61.66 41.9795ZM56.7229 62.0692C53.4359 68.0716 48.8705 72.7788 43.0148 76.2065L44.0252 77.9325C50.1962 74.3202 55.0175 69.3474 58.4771 63.0298L56.7229 62.0692ZM43.0102 76.2092C37.2358 79.6311 30.7408 81.3495 23.5 81.3495L23.5 83.3495C31.0725 83.3495 37.9242 81.5479 44.0298 77.9298L43.0102 76.2092ZM23.5 81.3495C16.2593 81.3495 9.72554 79.6311 3.87517 76.2065L2.86481 77.9325C9.04111 81.5479 15.9274 83.3495 23.5 83.3495L23.5 81.3495ZM3.8798 76.2092C-1.90315 72.7823 -6.43417 68.0747 -9.72291 62.0692L-11.4771 63.0298C-8.01918 69.3443 -3.23686 74.3167 2.86019 77.9298L3.8798 76.2092ZM-9.72536 62.0647C-13.0088 56.1403 -14.66 49.4532 -14.66 41.9795L-16.66 41.9795C-16.66 49.7591 -14.9379 56.7853 -11.4747 63.0342L-9.72536 62.0647ZM-9.40001 41.9795C-9.40001 48.2206 -8.00728 53.8892 -5.20539 58.9629L-3.45462 57.9961C-6.07941 53.2431 -7.40001 47.9117 -7.40001 41.9795L-9.40001 41.9795ZM-5.19985 58.9728C-2.32615 64.0396 1.61445 68.0193 6.61103 70.8961L7.60895 69.1629C2.92554 66.4664 -0.76053 62.746 -3.46018 57.9862L-5.19985 58.9728ZM6.61665 70.8993C11.6902 73.7768 17.3253 75.2095 23.5 75.2095L23.5 73.2095C17.648 73.2095 12.3565 71.8555 7.60333 69.1596L6.61665 70.8993ZM23.5 75.2095C29.6746 75.2095 35.2756 73.7768 40.279 70.8961L39.281 69.1629C34.6044 71.8555 29.3521 73.2095 23.5 73.2095L23.5 75.2095ZM40.2733 70.8993C45.3462 68.0222 49.2922 64.0389 52.0954 58.9629L50.3446 57.9961C47.7211 62.7467 44.0405 66.4635 39.2867 69.1597L40.2733 70.8993ZM52.0898 58.9728C54.9684 53.8975 56.4 48.2253 56.4 41.9795L54.4 41.9795C54.4 47.9071 53.0449 53.2348 50.3502 57.9862L52.0898 58.9728ZM56.4 41.9795C56.4 35.7336 54.9684 30.0272 52.0929 24.8817L50.3471 25.8573C53.0449 30.6851 54.4 36.052 54.4 41.9795L56.4 41.9795ZM52.0954 24.8861C49.2935 19.8123 45.3505 15.795 40.2831 12.8452L39.2769 14.5737C44.0361 17.344 47.7199 21.1 50.3446 25.8529L52.0954 24.8861ZM40.279 12.8429C35.2756 9.96214 29.6746 8.52949 23.5 8.52949L23.5 10.5295C29.3521 10.5295 34.6044 11.8835 39.281 14.5761L40.279 12.8429ZM23.5 8.52949C17.3253 8.52949 11.6902 9.96214 6.61665 12.8397L7.60333 14.5793C12.3565 11.8835 17.648 10.5295 23.5 10.5295L23.5 8.52949ZM6.60127 12.8486C1.6101 15.7979 -2.32741 19.8116 -5.19984 24.8762L-3.46017 25.8628C-0.759261 21.1007 2.92989 17.3411 7.61872 14.5704L6.60127 12.8486ZM-5.2084 24.8915C-8.00726 30.0354 -9.40001 35.7382 -9.40001 41.9795L-7.40001 41.9795C-7.40001 36.0474 -6.07942 30.6769 -3.45162 25.8474L-5.2084 24.8915ZM54.96 151.08L53.96 151.08L53.96 152.08L54.96 152.08L54.96 151.08ZM54.96 124.02L55.96 124.02L55.96 123.02L54.96 123.02L54.96 124.02ZM-15 124.02L-16 124.02L-16 125.02L-15 125.02L-15 124.02ZM-15 115.99L-15 114.99L-16 114.99L-16 115.99L-15 115.99ZM54.96 115.99L54.96 116.99L55.96 116.99L55.96 115.99L54.96 115.99ZM54.96 88.9297L54.96 87.9297L53.96 87.9297L53.96 88.9297L54.96 88.9297ZM62 88.9297L63 88.9297L63 87.9297L62 87.9297L62 88.9297ZM62 151.08L62 152.08L63 152.08L63 151.08L62 151.08ZM55.96 151.08L55.96 124.02L53.96 124.02L53.96 151.08L55.96 151.08ZM54.96 123.02L-15 123.02L-15 125.02L54.96 125.02L54.96 123.02ZM-14 124.02L-14 115.99L-16 115.99L-16 124.02L-14 124.02ZM-15 116.99L54.96 116.99L54.96 114.99L-15 114.99L-15 116.99ZM55.96 115.99L55.96 88.9297L53.96 88.9297L53.96 115.99L55.96 115.99ZM54.96 89.9297L62 89.9297L62 87.9297L54.96 87.9297L54.96 89.9297ZM61 88.9297L61 151.08L63 151.08L63 88.9297L61 88.9297ZM62 150.08L54.96 150.08L54.96 152.08L62 152.08L62 150.08ZM25.26 198.808L26.2169 198.517L25.1597 195.035L24.289 198.568L25.26 198.808ZM18.44 210.688L17.785 209.932L17.7756 209.94L18.44 210.688ZM-5.21001 210.908L-4.57314 210.137L-5.21001 210.908ZM-13.02 199.798L-13.9546 200.154L-13.9495 200.167L-13.02 199.798ZM-13.24 169.548L-14.1858 169.223L-14.1887 169.231L-14.1915 169.24L-13.24 169.548ZM-5.76001 156.238L-5.30609 155.347L-6.01727 154.984L-6.52823 155.597L-5.76001 156.238ZM0.0699868 159.208L0.832743 159.854L1.65007 158.89L0.523913 158.317L0.0699868 159.208ZM-6.53001 170.758L-7.47211 170.422L-7.47465 170.43L-7.47708 170.437L-6.53001 170.758ZM-6.75001 195.398L-7.68634 195.749L-6.75001 195.398ZM-1.14001 203.758L-0.491065 202.997L-0.493034 202.995L-1.14001 203.758ZM21.63 170.318L21.63 169.318L20.63 169.318L20.63 170.318L21.63 170.318ZM28.23 170.318L29.23 170.318L29.23 169.318L28.23 169.318L28.23 170.318ZM31.64 199.028L30.8423 199.631L30.8446 199.634L31.64 199.028ZM51.99 197.818L51.1627 197.256L51.1555 197.267L51.99 197.818ZM54.3 172.078L53.3357 172.342L53.3381 172.351L53.3406 172.36L54.3 172.078ZM49.57 161.408L49.1908 160.482L48.0891 160.934L48.7241 161.941L49.57 161.408ZM56.28 158.658L57.1389 158.146L56.6978 157.406L55.9008 157.732L56.28 158.658ZM60.57 197.708L61.5017 198.071L60.57 197.708ZM53.31 207.938L52.6898 207.153L52.6842 207.158L52.6787 207.162L53.31 207.938ZM31.53 208.378L30.9174 209.168L30.9269 209.175L31.53 208.378ZM24.289 198.568C23.082 203.467 20.9006 207.232 17.7851 209.932L19.0949 211.443C22.5794 208.424 24.9446 204.268 26.231 199.047L24.289 198.568ZM17.7756 209.94C14.6678 212.703 10.9475 214.088 6.55998 214.088L6.55998 216.088C11.4125 216.088 15.6122 214.539 19.1043 211.435L17.7756 209.94ZM6.55998 214.088C2.31345 214.088 -1.38334 212.772 -4.57314 210.137L-5.84689 211.679C-2.29002 214.617 1.85986 216.088 6.55998 216.088L6.55998 214.088ZM-4.57314 210.137C-7.79983 207.471 -10.3108 203.914 -12.0905 199.429L-13.9495 200.167C-12.0626 204.922 -9.36686 208.771 -5.84689 211.679L-4.57314 210.137ZM-12.0855 199.442C-13.7982 194.946 -14.66 190.045 -14.66 184.728L-16.66 184.728C-16.66 190.264 -15.7619 195.409 -13.9545 200.154L-12.0855 199.442ZM-14.66 184.728C-14.66 179.701 -13.8704 174.745 -12.2886 169.856L-14.1915 169.24C-15.8363 174.324 -16.66 179.488 -16.66 184.728L-14.66 184.728ZM-12.2942 169.872C-10.6467 165.073 -8.21327 160.744 -4.99179 156.878L-6.52823 155.597C-9.90675 159.652 -12.46 164.195 -14.1858 169.223L-12.2942 169.872ZM-6.21394 157.129L-0.383939 160.099L0.523913 158.317L-5.30609 155.347L-6.21394 157.129ZM-0.692769 158.561C-3.63385 162.03 -5.8932 165.986 -7.47211 170.422L-5.58791 171.093C-4.08682 166.876 -1.94617 163.132 0.832743 159.854L-0.692769 158.561ZM-7.47708 170.437C-8.97744 174.863 -9.73002 179.334 -9.73002 183.848L-7.73002 183.848C-7.73002 179.561 -7.01592 175.306 -5.58294 171.079L-7.47708 170.437ZM-9.73002 183.848C-9.73002 188.134 -9.05289 192.105 -7.68634 195.749L-5.81368 195.047C-7.08713 191.651 -7.73002 187.921 -7.73002 183.848L-9.73002 183.848ZM-7.68634 195.749C-6.31758 199.399 -4.35899 202.338 -1.78699 204.52L-0.493034 202.995C-2.76104 201.071 -4.54245 198.437 -5.81368 195.047L-7.68634 195.749ZM-1.78896 204.519C0.891083 206.804 4.05641 207.948 7.65999 207.948L7.65999 205.948C4.5169 205.948 1.81556 204.964 -0.491065 202.997L-1.78896 204.519ZM7.65999 207.948C12.4441 207.948 16.2072 206.04 18.824 202.234L17.1759 201.101C14.9527 204.335 11.8225 205.948 7.65999 205.948L7.65999 207.948ZM18.824 202.234C21.4024 198.484 22.63 193.306 22.63 186.818L20.63 186.818C20.63 193.09 19.4376 197.811 17.1759 201.101L18.824 202.234ZM22.63 186.818L22.63 170.318L20.63 170.318L20.63 186.818L22.63 186.818ZM21.63 171.318L28.23 171.318L28.23 169.318L21.63 169.318L21.63 171.318ZM27.23 170.318L27.23 186.378L29.23 186.378L29.23 170.318L27.23 170.318ZM27.23 186.378C27.23 191.93 28.3911 196.389 30.8423 199.631L32.4376 198.425C30.3422 195.653 29.23 191.679 29.23 186.378L27.23 186.378ZM30.8446 199.634C33.3933 202.979 36.9232 204.648 41.32 204.648L41.32 202.648C37.5034 202.648 34.58 201.236 32.4354 198.422L30.8446 199.634ZM41.32 204.648C46.2123 204.648 50.0781 202.527 52.8245 198.369L51.1555 197.267C48.7685 200.881 45.521 202.648 41.32 202.648L41.32 204.648ZM52.8172 198.38C55.595 194.29 56.95 189.205 56.95 183.188L54.95 183.188C54.95 188.904 53.665 193.572 51.1628 197.256L52.8172 198.38ZM56.95 183.188C56.95 179.42 56.3846 175.621 55.2594 171.796L53.3406 172.36C54.4154 176.014 54.95 179.622 54.95 183.188L56.95 183.188ZM55.2643 171.813C54.2109 167.975 52.5936 164.329 50.4159 160.874L48.7241 161.941C50.7998 165.233 52.3358 168.7 53.3357 172.342L55.2643 171.813ZM49.9492 162.333L56.6592 159.583L55.9008 157.732L49.1908 160.482L49.9492 162.333ZM55.421 159.17C59.8755 166.642 62.1 174.715 62.1 183.408L64.1 183.408C64.1 174.354 61.7779 165.927 57.1389 158.146L55.421 159.17ZM62.1 183.408C62.1 188.505 61.2747 193.147 59.6383 197.344L61.5017 198.071C63.2386 193.615 64.1 188.724 64.1 183.408L62.1 183.408ZM59.6383 197.344C58.006 201.532 55.6833 204.786 52.6898 207.153L53.9302 208.722C57.2434 206.102 59.7606 202.537 61.5017 198.071L59.6383 197.344ZM52.6787 207.162C49.7124 209.577 46.2348 210.788 42.2 210.788L42.2 212.788C46.6718 212.788 50.6009 211.432 53.9413 208.713L52.6787 207.162ZM42.2 210.788C38.2904 210.788 34.9503 209.71 32.1331 207.58L30.9269 209.175C34.123 211.592 37.8963 212.788 42.2 212.788L42.2 210.788ZM32.1426 207.587C29.3976 205.46 27.4131 202.458 26.2169 198.517L24.3031 199.098C25.6002 203.371 27.7957 206.749 30.9174 209.168L32.1426 207.587ZM28.34 288.319L27.5824 287.667L27.5775 287.672L28.34 288.319ZM-8.62002 287.879L-9.38551 288.523L-9.38465 288.524L-8.62002 287.879ZM-15 235.299L-15 234.299L-16 234.299L-16 235.299L-15 235.299ZM62 235.299L63 235.299L63 234.299L62 234.299L62 235.299ZM62 243.329L62 244.329L63 244.329L63 243.329L62 243.329ZM34.5 243.329L34.5 242.329L33.5 242.329L33.5 243.329L34.5 243.329ZM-3.78002 281.829L-3.01546 281.185L-3.02183 281.177L-3.78002 281.829ZM27.9 243.329L28.9 243.329L28.9 242.329L27.9 242.329L27.9 243.329ZM-8.51002 243.329L-8.51002 242.329L-9.51002 242.329L-9.51002 243.329L-8.51002 243.329ZM62 308.889L63 308.889L63 307.889L62 307.889L62 308.889ZM62 316.919L62 317.919L63 317.919L63 316.919L62 316.919ZM-15 316.919L-16 316.919L-16 317.919L-15 317.919L-15 316.919ZM-15 308.889L-15 307.889L-16 307.889L-16 308.889L-15 308.889ZM33.5 267.529C33.5 276.488 31.4757 283.148 27.5824 287.667L29.0976 288.972C33.4176 283.958 35.5 276.758 35.5 267.529L33.5 267.529ZM27.5775 287.672C23.7066 292.234 18.0053 294.579 10.3 294.579L10.3 296.579C18.4347 296.579 24.76 294.084 29.1025 288.966L27.5775 287.672ZM10.3 294.579C2.23277 294.579 -3.76247 292.091 -7.85539 287.235L-9.38465 288.524C-4.82424 293.934 1.79387 296.579 10.3 296.579L10.3 294.579ZM-7.85453 287.236C-11.9007 282.422 -14 275.355 -14 265.879L-16 265.879C-16 275.617 -13.846 283.216 -9.3855 288.523L-7.85453 287.236ZM-14 265.879L-14 235.299L-16 235.299L-16 265.879L-14 265.879ZM-15 236.299L62 236.299L62 234.299L-15 234.299L-15 236.299ZM61 235.299L61 243.329L63 243.329L63 235.299L61 235.299ZM62 242.329L34.5 242.329L34.5 244.329L62 244.329L62 242.329ZM33.5 243.329L33.5 267.529L35.5 267.529L35.5 243.329L33.5 243.329ZM-9.51002 265.659C-9.51002 272.902 -7.9067 278.565 -4.5382 282.481L-3.02183 281.177C-5.96 277.761 -7.51002 272.643 -7.51002 265.659L-9.51002 265.659ZM-4.54454 282.474C-1.15361 286.496 3.81802 288.439 10.19 288.439L10.19 286.439C4.24195 286.439 -0.0997574 284.643 -3.0155 281.185L-4.54454 282.474ZM10.19 288.439C16.3084 288.439 21.0585 286.548 24.2484 282.625C27.406 278.742 28.9 273.029 28.9 265.659L26.9 265.659C26.9 272.81 25.4423 277.987 22.6966 281.363C19.9831 284.701 15.8782 286.439 10.19 286.439L10.19 288.439ZM28.9 265.659L28.9 243.329L26.9 243.329L26.9 265.659L28.9 265.659ZM27.9 242.329L-8.51002 242.329L-8.51002 244.329L27.9 244.329L27.9 242.329ZM-9.51002 243.329L-9.51002 265.659L-7.51002 265.659L-7.51002 243.329L-9.51002 243.329ZM61 308.889L61 316.919L63 316.919L63 308.889L61 308.889ZM62 315.919L-15 315.919L-15 317.919L62 317.919L62 315.919ZM-14 316.919L-14 308.889L-16 308.889L-16 316.919L-14 316.919ZM-15 309.889L62 309.889L62 307.889L-15 307.889L-15 309.889ZM24.71 388.479L25.6477 388.131L24.4339 384.854L23.7304 388.277L24.71 388.479ZM18.22 400.689L17.5663 399.932L17.5578 399.939L18.22 400.689ZM-9.61002 397.719L-8.81148 397.117L-8.81602 397.111L-9.61002 397.719ZM-15 342.829L-15 341.829L-16 341.829L-16 342.829L-15 342.829ZM62 342.829L63 342.829L63 341.829L62 341.829L62 342.829ZM56.94 394.089L57.7476 394.678L56.94 394.089ZM31.31 397.719L30.7099 398.519L30.7195 398.526L31.31 397.719ZM27.13 350.859L27.13 349.859L26.13 349.859L26.13 350.859L27.13 350.859ZM30.76 388.039L31.56 387.439L31.5533 387.43L30.76 388.039ZM51.88 388.039L51.0866 387.43L51.08 387.439L51.88 388.039ZM55.51 350.859L56.51 350.859L56.51 349.859L55.51 349.859L55.51 350.859ZM20.86 350.859L21.86 350.859L21.86 349.859L20.86 349.859L20.86 350.859ZM-8.51002 350.859L-8.51002 349.859L-9.51002 349.859L-9.51002 350.859L-8.51002 350.859ZM23.7304 388.277C22.6622 393.476 20.5841 397.326 17.5664 399.932L18.8736 401.445C22.3092 398.478 24.5578 394.188 25.6895 388.68L23.7304 388.277ZM17.5578 399.939C14.6253 402.531 10.7354 403.869 5.78998 403.869L5.78998 405.869C11.1112 405.869 15.508 404.42 18.8822 401.438L17.5578 399.939ZM5.78998 403.869C-0.611947 403.869 -5.43131 401.601 -8.8115 397.117L-10.4085 398.321C-6.60207 403.37 -1.15476 405.869 5.78998 405.869L5.78998 403.869ZM-8.81602 397.111C-12.22 392.665 -14 385.989 -14 376.929L-16 376.929C-16 386.201 -14.1867 393.386 -10.404 398.327L-8.81602 397.111ZM-14 376.929L-14 342.829L-16 342.829L-16 376.929L-14 376.929ZM-15 343.829L62 343.829L62 341.829L-15 341.829L-15 343.829ZM61 342.829L61 374.839L63 374.839L63 342.829L61 342.829ZM61 374.839C61 382.929 59.3368 389.11 56.1324 393.499L57.7476 394.678C61.2898 389.827 63 383.175 63 374.839L61 374.839ZM56.1324 393.499C52.971 397.829 48.4132 400.019 42.31 400.019L42.31 402.019C48.9667 402.019 54.1623 399.589 57.7476 394.678L56.1324 393.499ZM42.31 400.019C38.1602 400.019 34.7092 398.967 31.9005 396.912L30.7195 398.526C33.9241 400.87 37.8065 402.019 42.31 402.019L42.31 400.019ZM31.91 396.919C29.1526 394.851 27.058 391.939 25.6477 388.131L23.7722 388.826C25.2953 392.938 27.6006 396.187 30.71 398.519L31.91 396.919ZM26.13 350.859L26.13 374.399L28.13 374.399L28.13 350.859L26.13 350.859ZM26.13 374.399C26.13 380.455 27.3608 385.252 29.9667 388.647L31.5533 387.43C29.3192 384.519 28.13 380.222 28.13 374.399L26.13 374.399ZM29.96 388.639C32.5981 392.156 36.4374 393.879 41.32 393.879L41.32 391.879C36.9625 391.879 33.7618 390.374 31.56 387.439L29.96 388.639ZM41.32 393.879C46.2025 393.879 50.0419 392.156 52.68 388.639L51.08 387.439C48.8781 390.374 45.6774 391.879 41.32 391.879L41.32 393.879ZM52.6733 388.647C55.2792 385.252 56.51 380.455 56.51 374.399L54.51 374.399C54.51 380.222 53.3208 384.519 51.0867 387.43L52.6733 388.647ZM56.51 374.399L56.51 350.859L54.51 350.859L54.51 374.399L56.51 374.399ZM55.51 349.859L27.13 349.859L27.13 351.859L55.51 351.859L55.51 349.859ZM-9.51002 376.929C-9.51002 383.661 -8.25988 388.892 -5.59911 392.459C-2.8973 396.081 1.1439 397.839 6.33998 397.839L6.33998 395.839C1.63605 395.839 -1.74774 394.278 -3.99593 391.263C-6.28516 388.194 -7.51002 383.47 -7.51002 376.929L-9.51002 376.929ZM6.33998 397.839C11.4347 397.839 15.3945 396.075 18.0379 392.45C20.6385 388.884 21.86 383.657 21.86 376.929L19.86 376.929C19.86 383.473 18.6614 388.201 16.422 391.272C14.2254 394.284 10.9253 395.839 6.33998 395.839L6.33998 397.839ZM21.86 376.929L21.86 350.859L19.86 350.859L19.86 376.929L21.86 376.929ZM20.86 349.859L-8.51002 349.859L-8.51002 351.859L20.86 351.859L20.86 349.859ZM-9.51002 350.859L-9.51002 376.929L-7.51002 376.929L-7.51002 350.859L-9.51002 350.859ZM28.34 478.241L27.5823 477.588L27.5775 477.594L28.34 478.241ZM-8.62003 477.801L-9.38552 478.445L-9.38466 478.446L-8.62003 477.801ZM-15 425.221L-15 424.221L-16 424.221L-16 425.221L-15 425.221ZM62 425.221L63 425.221L63 424.221L62 424.221L62 425.221ZM62 433.251L62 434.251L63 434.251L63 433.251L62 433.251ZM34.5 433.251L34.5 432.251L33.5 432.251L33.5 433.251L34.5 433.251ZM-3.78003 471.751L-3.01547 471.107L-3.02184 471.099L-3.78003 471.751ZM27.9 433.251L28.9 433.251L28.9 432.251L27.9 432.251L27.9 433.251ZM-8.51003 433.251L-8.51003 432.251L-9.51003 432.251L-9.51003 433.251L-8.51003 433.251ZM62 498.811L63 498.811L63 497.811L62 497.811L62 498.811ZM62 506.841L62 507.841L63 507.841L63 506.841L62 506.841ZM-15 506.841L-16 506.841L-16 507.841L-15 507.841L-15 506.841ZM-15 498.811L-15 497.811L-16 497.811L-16 498.811L-15 498.811ZM33.5 457.451C33.5 466.41 31.4757 473.069 27.5824 477.588L29.0976 478.894C33.4176 473.88 35.5 466.679 35.5 457.451L33.5 457.451ZM27.5775 477.594C23.7066 482.156 18.0053 484.501 10.3 484.501L10.3 486.501C18.4346 486.501 24.76 484.006 29.1025 478.888L27.5775 477.594ZM10.3 484.501C2.23276 484.501 -3.76248 482.013 -7.8554 477.157L-9.38466 478.446C-4.82425 483.856 1.79386 486.501 10.3 486.501L10.3 484.501ZM-7.85454 477.158C-11.9007 472.344 -14 465.277 -14 455.801L-16 455.801C-16 465.539 -13.846 473.138 -9.38551 478.445L-7.85454 477.158ZM-14 455.801L-14 425.221L-16 425.221L-16 455.801L-14 455.801ZM-15 426.221L62 426.221L62 424.221L-15 424.221L-15 426.221ZM61 425.221L61 433.251L63 433.251L63 425.221L61 425.221ZM62 432.251L34.5 432.251L34.5 434.251L62 434.251L62 432.251ZM33.5 433.251L33.5 457.451L35.5 457.451L35.5 433.251L33.5 433.251ZM-9.51003 455.581C-9.51003 462.824 -7.90671 468.486 -4.53821 472.403L-3.02184 471.099C-5.96001 467.683 -7.51003 462.565 -7.51003 455.581L-9.51003 455.581ZM-4.54455 472.396C-1.15362 476.418 3.81801 478.361 10.19 478.361L10.19 476.361C4.24194 476.361 -0.0997657 474.565 -3.01551 471.107L-4.54455 472.396ZM10.19 478.361C16.3084 478.361 21.0585 476.47 24.2483 472.547C27.406 468.664 28.9 462.951 28.9 455.581L26.9 455.581C26.9 462.732 25.4423 467.909 22.6966 471.285C19.9831 474.622 15.8782 476.361 10.19 476.361L10.19 478.361ZM28.9 455.581L28.9 433.251L26.9 433.251L26.9 455.581L28.9 455.581ZM27.9 432.251L-8.51003 432.251L-8.51003 434.251L27.9 434.251L27.9 432.251ZM-9.51003 433.251L-9.51003 455.581L-7.51003 455.581L-7.51003 433.251L-9.51003 433.251ZM61 498.811L61 506.841L63 506.841L63 498.811L61 498.811ZM62 505.841L-15 505.841L-15 507.841L62 507.841L62 505.841ZM-14 506.841L-14 498.811L-16 498.811L-16 506.841L-14 506.841ZM-15 499.811L62 499.811L62 497.811L-15 497.811L-15 499.811Z" fill="white" fill-opacity="0.45"/>
</svg>
