<svg width="30" height="32" fill="none" xmlns="http://www.w3.org/2000/svg"><path d="M21.45.533H8.55C3.85.533 0 4.383 0 9.083v12.9c0 4.7 3.85 8.55 8.55 8.55h12.9c4.7 0 8.55-3.85 8.55-8.55v-12.9c0-4.7-3.85-8.55-8.55-8.55zM29 21.983c0 4.15-3.4 7.55-7.55 7.55H8.55c-4.15 0-7.55-3.4-7.55-7.55v-12.9c0-4.15 3.4-7.55 7.55-7.55h12.9c4.15 0 7.55 3.4 7.55 7.55v12.9z" fill="#788BA8"/><path d="M21.45 3.533H8.55C5.5 3.533 3 6.033 3 9.083v12.9c0 3.05 2.5 5.55 5.55 5.55h12.9c3.05 0 5.55-2.5 5.55-5.55v-12.9c0-3.05-2.5-5.55-5.55-5.55zM26 21.983c0 2.5-2.05 4.55-4.55 4.55H8.55c-2.5 0-4.55-2.05-4.55-4.55v-12.9c0-2.5 2.05-4.55 4.55-4.55h12.9c2.5 0 4.55 2.05 4.55 4.55v12.9z" fill="#788BA8"/><path d="M15 7.533c-4.4 0-8 3.6-8 8s3.6 8 8 8 8-3.6 8-8-3.6-8-8-8zm0 15c-3.85 0-7-3.15-7-7s3.15-7 7-7 7 3.15 7 7-3.15 7-7 7z" fill="#788BA8"/><path d="M15 10.033c-3.05 0-5.5 2.45-5.5 5.5s2.45 5.5 5.5 5.5 5.5-2.45 5.5-5.5-2.45-5.5-5.5-5.5zm0 10c-2.5 0-4.5-2-4.5-4.5s2-4.5 4.5-4.5 4.5 2 4.5 4.5-2 4.5-4.5 4.5zm8-14c-.85 0-1.5.65-1.5 1.5s.65 1.5 1.5 1.5 1.5-.65 1.5-1.5-.65-1.5-1.5-1.5z" fill="#788BA8"/></svg>