<svg width="20" height="20" fill="none" xmlns="http://www.w3.org/2000/svg"><path d="M10 0C5.864 0 2.5 3.364 2.5 7.5c0 5.199 6.77 12.029 7.057 12.317a.628.628 0 00.886 0C10.73 19.53 17.5 12.7 17.5 7.5 17.5 3.364 14.136 0 10 0zm0 18.471c-1.492-1.597-6.25-7-6.25-10.971A6.257 6.257 0 0110 1.25a6.257 6.257 0 016.25 6.25c0 3.967-4.758 9.374-6.25 10.971z" fill="#4C88E3"/><path d="M10 3.75A3.755 3.755 0 006.25 7.5 3.755 3.755 0 0010 11.25a3.755 3.755 0 003.75-3.75A3.755 3.755 0 0010 3.75zM10 10a2.503 2.503 0 01-2.5-2.5C7.5 6.121 8.621 5 10 5s2.5 1.121 2.5 2.5S11.379 10 10 10z" fill="#4C88E3"/></svg>