<svg width="20" height="20" fill="none" xmlns="http://www.w3.org/2000/svg"><path d="M10.898 14.219c0 .861.701 1.562 1.563 1.562h1.836c.861 0 1.562-.7 1.562-1.562v-1.836c0-.862-.7-1.563-1.562-1.563H12.46c-.862 0-1.563.701-1.563 1.563v1.836zm1.563-1.836h1.836v1.836H12.46v-1.836zm2.617-3.399a.781.781 0 100-1.562.781.781 0 000 1.562zm-3.398 0a.781.781 0 100-1.562.781.781 0 000 1.562z" fill="#788BA8"/><path d="M19.219 13.75c.431 0 .781-.35.781-.781V4.688a3.129 3.129 0 00-3.125-3.125h-1.016V.78a.781.781 0 00-1.562 0v.781h-3.555v-.78a.781.781 0 00-1.562 0v.78H5.664v-.78a.781.781 0 10-1.562 0v.78h-.977A3.129 3.129 0 000 4.688v12.188A3.129 3.129 0 003.125 20h13.75A3.129 3.129 0 0020 16.875a.781.781 0 10-1.563 0c0 .862-.7 1.563-1.562 1.563H3.125a1.565 1.565 0 01-1.563-1.563V4.687c0-.861.701-1.562 1.563-1.562h.977v.781a.781.781 0 101.562 0v-.781H9.18v.781a.781.781 0 101.562 0v-.781h3.555v.781a.781.781 0 101.562 0v-.781h1.016c.862 0 1.563.7 1.563 1.563v8.28c0 .432.35.782.78.782z" fill="#788BA8"/><path d="M4.883 15.781a.781.781 0 100-1.562.781.781 0 000 1.562zm0-6.797a.781.781 0 100-1.562.781.781 0 000 1.562zm0 3.399a.781.781 0 100-1.563.781.781 0 000 1.563zm3.398 0a.781.781 0 100-1.563.781.781 0 000 1.563zm0-3.399a.781.781 0 100-1.562.781.781 0 000 1.562zm0 6.797a.781.781 0 100-1.562.781.781 0 000 1.562z" fill="#788BA8"/></svg>