<svg width="150" height="62" fill="none" xmlns="http://www.w3.org/2000/svg"><g clip-path="url(#clip0)"><path d="M54.865 20.765h1.34l-1.34 4.88h-1.276l.925-3.412-4.115 3.413h-1.34l1.308-4.88h1.276l-.925 3.413 4.147-3.414zm10.111 4.881H63.7l.575-2.17h-3.286l-.574 2.17h-1.276l1.308-4.88h1.276l-.543 2.04h3.286l.542-2.04h1.276l-1.308 4.88zm10.558-4.211h-2.296l-1.148 4.21h-1.276l1.148-4.21h-2.297l.192-.67h5.869l-.192.67zm7.465 2.01h-3.03l-.415 1.499h3.54l-.191.67h-4.849l1.308-4.88h4.849l-.192.67h-3.508l-.351 1.339h3.03l-.191.702zm5.486.383l-.478 1.818H86.73l1.308-4.88h2.647c.797 0 1.404.127 1.882.414.447.287.638.638.606 1.117-.064.478-.35.86-.893 1.116-.542.287-1.244.415-2.137.415h-1.659zm.16-.67h1.467c.478 0 .861-.064 1.148-.224.287-.16.479-.35.542-.637.064-.256-.031-.447-.223-.607-.191-.16-.478-.223-.861-.255h-1.595l-.478 1.723zm13.46.892c-.127.511-.478.926-1.084 1.213-.574.287-1.308.446-2.137.446-.479 0-.893-.095-1.276-.223a2.113 2.113 0 01-.861-.606c-.224-.255-.32-.574-.351-.925-.032-.255.032-.606.16-1.053.127-.446.35-.83.67-1.18a3.34 3.34 0 011.243-.797c.479-.192 1.02-.256 1.627-.256.765 0 1.34.16 1.786.447.447.287.67.702.702 1.212h-1.276c-.032-.35-.128-.606-.351-.765-.223-.16-.51-.224-.925-.256-.574 0-1.052.128-1.435.383-.383.287-.638.67-.766 1.18l-.096.447-.031.35c-.032.224 0 .447.063.639a.81.81 0 00.415.446c.191.096.447.16.766.16.957.032 1.594-.287 1.882-.957l1.275.096zm9.793-2.615h-2.297l-1.148 4.21h-1.276l1.149-4.21h-2.297l.191-.67h5.869l-.191.67zm4.306 2.393l-.478 1.818h-1.276l1.308-4.88h2.647c.798 0 1.404.127 1.882.414.447.287.638.638.606 1.117-.063.478-.35.86-.893 1.116-.542.287-1.244.415-2.137.415h-1.659zm.192-.67h1.467c.479 0 .861-.064 1.148-.224.288-.16.479-.35.543-.637.064-.256-.032-.447-.224-.607-.191-.16-.478-.223-.861-.255h-1.595l-.478 1.723zm10.335 2.552c-.511 0-.925-.096-1.308-.224-.383-.16-.67-.35-.861-.638a1.652 1.652 0 01-.351-.925c-.032-.287 0-.606.127-.989.096-.382.287-.701.543-1.02.255-.32.574-.543.957-.766.606-.319 1.307-.478 2.105-.447.765 0 1.34.192 1.786.51.447.32.702.766.734 1.309.032.287-.032.606-.128.957-.096.35-.255.701-.51.988a4.177 4.177 0 01-.893.766c-.67.319-1.372.478-2.201.478zm2.36-2.648l.032-.35c.032-.256 0-.48-.096-.67a1.063 1.063 0 00-.446-.48 1.971 1.971 0 00-.798-.159c-.446 0-.829.064-1.18.224-.351.159-.606.414-.829.765-.224.351-.319.766-.383 1.276-.032.415.064.734.287.957.223.223.574.35 1.021.35.606 0 1.084-.127 1.499-.446.383-.287.638-.733.766-1.276l.127-.191zm10.399-2.297h1.34l-1.308 4.88h-1.276l.925-3.412-4.115 3.413h-1.34l1.308-4.88h1.276l-.925 3.412 4.115-3.413zm.383-1.244c-.032.287-.224.543-.543.702-.319.16-.733.255-1.18.255-.446 0-.829-.096-1.116-.255-.287-.16-.415-.415-.415-.67h.925c-.032.32.192.479.606.479.223 0 .415-.032.542-.128.128-.096.224-.191.256-.35l.925-.033z" fill="#F23F3F"/><path d="M67.783 17.608H56.459L60.287.096h11.324l-3.828 17.512zm42.297-.064H98.565S102.073 0 121.116 0c18.501 0 18.629 17.512 18.629 17.512l-11.388.032s-1.595-7.783-7.368-7.975c-9.027-.287-10.909 7.975-10.909 7.975zm16.969 11.291h11.228s-3.7 15.95-22.743 15.95c-18.5 0-17.576-15.95-17.576-15.95h11.579s1.021 6.54 7.975 6.54c7.942 0 9.537-6.54 9.537-6.54zM93.397 17.608H72.79L85.837.096h11.388l-3.828 17.512zM79.585 28.835H90.91l-3.828 15.917H75.757l3.828-15.917zm-24.944 0h19.937L60.86 44.752H50.814l3.827-15.917z" fill="#23529A"/></g><path d="M21.148 25.646l1.308-4.88h2.01c.83 0 1.435.127 1.85.35.415.224.606.543.542.957-.064.479-.51.83-1.34 1.085.32.063.543.191.734.383.16.19.255.414.223.67-.063.446-.319.797-.829 1.052s-1.18.383-2.01.383h-2.488zm1.563-2.201l-.414 1.53h1.34c.414 0 .765-.063 1.052-.222.287-.128.447-.32.51-.575a.486.486 0 00-.159-.542c-.16-.127-.415-.191-.766-.223l-1.563.032zm.16-.638h1.18c.415 0 .766-.064 1.053-.191.255-.128.415-.32.478-.51.096-.416-.255-.639-.989-.639h-1.34l-.382 1.34zm13.876-1.372H34.45l-1.148 4.21h-1.276l1.148-4.21h-2.297l.192-.67h5.87l-.192.67zm5.326 4.275a3.98 3.98 0 01-1.307-.224c-.383-.16-.67-.35-.862-.638a1.656 1.656 0 01-.35-.925c-.032-.287 0-.606.127-.989.096-.382.287-.701.542-1.02.255-.32.575-.543.957-.766.606-.319 1.308-.478 2.106-.447.765 0 1.34.192 1.786.51.446.32.702.766.733 1.309.032.287-.031.606-.127.957-.096.35-.255.701-.51.988a4.182 4.182 0 01-.894.766c-.638.319-1.371.478-2.2.478zm2.393-2.648l.032-.35a1.15 1.15 0 00-.096-.67 1.067 1.067 0 00-.447-.48 1.97 1.97 0 00-.797-.159c-.447 0-.83.064-1.18.224-.351.159-.606.414-.83.765-.223.351-.319.766-.382 1.276-.032.415.063.734.287.957.223.223.574.35 1.02.35.606 0 1.117-.127 1.5-.446.382-.287.638-.733.765-1.276l.128-.191zM15.98 24.53h-2.36l-.702 1.148h-1.052l3.062-4.88h1.148l1.468 4.88h-1.276l-.287-1.149zm-1.913-.702h1.754l-.51-2.01-1.244 2.01z" fill="#F23F3F"/><path d="M37.607.064h-8.9l-11.1 17.544h9.92l2.233-3.892.702 3.732 10.303.16L37.607.064zm5.136 28.771l-32.248.255L.638 44.72h11.165l5.645-9.25H32.6l1.371 9.25h11.643l-2.87-15.885zM3.392 60.048a3.08 3.08 0 01-1.504-.368A2.74 2.74 0 01.84 58.664 2.89 2.89 0 01.464 57.2c0-.539.125-1.024.376-1.456a2.707 2.707 0 011.056-1.024 3.08 3.08 0 011.504-.368c.416 0 .8.07 1.152.208.352.139.65.341.896.608l-.376.376c-.437-.443-.99-.664-1.656-.664a2.43 2.43 0 00-1.208.304 2.25 2.25 0 00-.856.832 2.33 2.33 0 00-.304 1.184c0 .437.101.832.304 1.184.208.352.493.63.856.832a2.43 2.43 0 001.208.304c.672 0 1.224-.224 1.656-.672l.376.376a2.456 2.456 0 01-.904.616 3.115 3.115 0 01-1.152.208zm7.992-5.136H9.416V60h-.584v-5.088H6.864V54.4h4.52v.512zm4.255-.512c.715 0 1.275.17 1.68.512.406.341.608.81.608 1.408 0 .597-.202 1.067-.608 1.408-.405.336-.965.504-1.68.504h-1.504V60h-.592v-5.6h2.096zm-.016 3.312c.555 0 .979-.12 1.272-.36.294-.245.44-.59.44-1.032 0-.453-.146-.8-.44-1.04-.293-.245-.717-.368-1.272-.368h-1.488v2.8h1.488zm7.176 2.336a3.125 3.125 0 01-1.512-.368c-.448-.25-.8-.592-1.056-1.024a2.847 2.847 0 01-.376-1.456c0-.539.125-1.024.376-1.456a2.73 2.73 0 011.056-1.016c.453-.25.957-.376 1.512-.376s1.053.123 1.496.368c.448.245.8.587 1.056 1.024a2.8 2.8 0 01.384 1.456c0 .539-.128 1.027-.384 1.464a2.73 2.73 0 01-1.056 1.016 3.034 3.034 0 01-1.496.368zm0-.528c.443 0 .843-.099 1.2-.296.357-.203.637-.48.84-.832a2.37 2.37 0 00.304-1.192 2.33 2.33 0 00-.304-1.184 2.136 2.136 0 00-.84-.832 2.39 2.39 0 00-1.2-.304 2.43 2.43 0 00-1.208.304 2.19 2.19 0 00-.848.832 2.33 2.33 0 00-.304 1.184c0 .437.101.835.304 1.192.208.352.49.63.848.832a2.49 2.49 0 001.208.296zm5.469-5.12h.584v4.64l3.584-4.64h.536V60h-.584v-4.632L28.804 60h-.536v-5.6zm13.53 0V60h-.569v-4.48l-2.2 3.768h-.28l-2.2-3.744V60h-.568v-5.6h.488l2.432 4.152L41.31 54.4h.489zm6.22 0h4.096v.504h-3.512v1.832h1.832c.662 0 1.163.136 1.504.408.347.272.52.667.52 1.184 0 .539-.186.952-.56 1.24-.368.288-.898.432-1.592.432h-2.288v-5.6zm2.28 5.128c.518 0 .907-.099 1.168-.296.267-.197.4-.49.4-.88 0-.384-.13-.67-.392-.856-.256-.192-.648-.288-1.176-.288h-1.696v2.32h1.696zm8.873-5.128l-2.544 4.712c-.181.336-.395.587-.64.752-.24.16-.504.24-.792.24a1.81 1.81 0 01-.688-.152l.168-.48c.192.075.368.112.528.112.368 0 .67-.2.904-.6l.16-.272-2.272-4.312h.632l1.952 3.792 2-3.792h.592zm7.122 5.088v1.768h-.552V60h-4.888l-.008 1.256h-.552l.008-1.768h.28c.368-.021.624-.312.768-.872.144-.565.232-1.365.264-2.4l.064-1.816h3.776v5.088h.84zm-4.152-3.216c-.027.853-.093 1.557-.2 2.112-.101.55-.275.917-.52 1.104h3.448v-4.576h-2.68l-.048 1.36zm10.88-1.872l-2.544 4.712c-.182.336-.395.587-.64.752-.24.16-.504.24-.792.24a1.81 1.81 0 01-.688-.152l.168-.48c.192.075.368.112.528.112.368 0 .669-.2.904-.6l.16-.272-2.272-4.312h.632l1.952 3.792 2-3.792h.592zm8.904 0V60H75.06v-5.6h.584v5.088h2.56V54.4h.584v5.088h2.552V54.4h.584zm.872 5.088v1.768h-.552V60h-.912v-.512h1.464zm6.281 0V60h-3.96v-5.6h3.84v.512H85.71v1.992h2.896v.504H85.71v2.08h3.368zm6.394 0V60h-3.96v-5.6h3.84v.512h-3.248v1.992H95v.504h-2.896v2.08h3.368zm8.967-2.376c.389.08.685.237.888.472.203.23.304.53.304.904 0 .485-.173.859-.52 1.12-.341.261-.845.392-1.512.392h-2.48v-5.6h2.328c.597 0 1.064.123 1.4.368.336.245.504.6.504 1.064 0 .315-.08.581-.24.8-.16.213-.384.373-.672.48zm-2.736-.176h1.712c.432 0 .763-.088.992-.264.235-.176.352-.432.352-.768s-.117-.592-.352-.768c-.229-.176-.56-.264-.992-.264h-1.712v2.064zm1.896 2.592c.965 0 1.448-.36 1.448-1.08 0-.704-.483-1.056-1.448-1.056h-1.896v2.136h1.896zm10.448-5.128V60h-.568v-4.48l-2.2 3.768h-.28l-2.2-3.744V60h-.568v-5.6h.488l2.432 4.152 2.408-4.152h.488zm6.967 5.088V60h-3.96v-5.6h3.84v.512h-3.248v1.992h2.896v.504h-2.896v2.08h3.368zm4.851.56a3.079 3.079 0 01-1.504-.368 2.737 2.737 0 01-1.048-1.016 2.888 2.888 0 01-.376-1.464c0-.539.125-1.024.376-1.456a2.707 2.707 0 011.056-1.024 3.079 3.079 0 011.504-.368c.416 0 .8.07 1.152.208.352.139.65.341.896.608l-.376.376c-.438-.443-.99-.664-1.656-.664a2.43 2.43 0 00-1.208.304 2.25 2.25 0 00-.856.832 2.327 2.327 0 00-.304 1.184c0 .437.101.832.304 1.184.208.352.493.63.856.832a2.43 2.43 0 001.208.304c.672 0 1.224-.224 1.656-.672l.376.376a2.464 2.464 0 01-.904.616 3.115 3.115 0 01-1.152.208zm7.992-5.136h-1.968V60h-.584v-5.088h-1.968V54.4h4.52v.512zm6.119 4.576V60h-3.96v-5.6h3.84v.512h-3.248v1.992h2.896v.504h-2.896v2.08h3.368z" fill="#23529A"/><defs><clipPath id="clip0"><path fill="#fff" d="M0 0h140.526v45H0z"/></clipPath></defs></svg>