<svg width="141" height="45" fill="none" xmlns="http://www.w3.org/2000/svg"><path d="M20.61 25.77l1.314-4.904h2.02c.833 0 1.442.129 1.858.353.417.224.61.545.545.962-.064.48-.513.833-1.346 1.09.32.063.545.192.737.384.16.192.257.417.224.673-.064.449-.32.801-.833 1.058-.513.256-1.186.384-2.02.384h-2.5zm1.57-2.211l-.416 1.538h1.346c.417 0 .77-.064 1.058-.224.288-.128.448-.32.512-.577a.488.488 0 00-.16-.545c-.16-.128-.416-.192-.77-.224l-1.57.032zm.16-.641h1.187c.416 0 .769-.064 1.057-.192.257-.129.417-.321.481-.513.096-.417-.256-.641-.994-.641h-1.346l-.384 1.346zm13.943-1.378h-2.307l-1.154 4.23H31.54l1.154-4.23h-2.308l.192-.674h5.898l-.193.674zm5.353 4.294c-.513 0-.93-.096-1.315-.225-.384-.16-.673-.352-.865-.64a1.665 1.665 0 01-.353-.93c-.032-.289 0-.61.129-.994.096-.384.288-.705.544-1.025.257-.32.577-.545.962-.77.609-.32 1.314-.48 2.115-.448.77 0 1.347.192 1.795.512.45.321.705.77.737 1.315.033.288-.032.609-.128.961a2.457 2.457 0 01-.512.994 4.207 4.207 0 01-.898.769c-.641.32-1.378.48-2.212.48zm2.403-2.66l.032-.353c.032-.257 0-.48-.096-.673a1.073 1.073 0 00-.449-.481 1.98 1.98 0 00-.8-.16c-.45 0-.834.064-1.187.224-.352.16-.609.417-.833.77-.224.352-.32.769-.385 1.281-.032.417.064.738.289.962.224.224.577.353 1.026.353.608 0 1.121-.129 1.506-.45.384-.288.64-.736.77-1.281l.127-.192zm10.45-2.308h1.346l-1.346 4.904h-1.282l.93-3.43L50 25.77h-1.346l1.314-4.904h1.282l-.929 3.43 4.167-3.43zM64.65 25.77h-1.283l.577-2.18h-3.301l-.577 2.18h-1.282l1.314-4.904h1.282l-.545 2.052h3.301l.545-2.052h1.282L64.65 25.77zm10.608-4.23h-2.307l-1.154 4.23h-1.282l1.154-4.23H69.36l.192-.674h5.898l-.193.674zm7.501 2.017h-3.045l-.417 1.506h3.558l-.193.674H77.79l1.315-4.904h4.872l-.193.673h-3.526l-.352 1.346h3.045l-.192.705zm5.512.386l-.48 1.827h-1.283l1.314-4.904h2.66c.802 0 1.411.129 1.892.417.449.289.64.641.609 1.122-.064.48-.353.865-.898 1.122-.545.288-1.25.416-2.147.416H88.27zm.16-.673h1.475c.48 0 .865-.064 1.154-.224.288-.16.48-.353.544-.641.065-.257-.031-.449-.224-.609-.192-.16-.48-.224-.865-.256h-1.603l-.48 1.73zm13.526.898c-.128.512-.48.929-1.089 1.218-.577.288-1.314.448-2.148.448-.48 0-.897-.096-1.282-.224a2.123 2.123 0 01-.865-.61c-.225-.256-.32-.576-.353-.929-.032-.256.032-.609.16-1.057a2.93 2.93 0 01.673-1.186 3.36 3.36 0 011.25-.802c.481-.192 1.026-.256 1.635-.256.769 0 1.346.16 1.795.449.449.288.673.705.705 1.218h-1.282c-.032-.353-.128-.61-.352-.77-.225-.16-.513-.224-.93-.256-.577 0-1.058.128-1.442.385-.385.288-.641.673-.77 1.186l-.096.448-.032.353c-.032.224 0 .449.064.64a.814.814 0 00.417.45c.192.096.449.16.77.16.96.032 1.602-.289 1.89-.962l1.282.096zm9.84-2.628h-2.308l-1.154 4.23h-1.282l1.154-4.23h-2.308l.193-.674h5.897l-.192.674zm4.327 2.403l-.481 1.827h-1.282l1.314-4.904h2.661c.801 0 1.41.129 1.891.417.449.289.641.641.609 1.122-.064.48-.353.865-.898 1.122-.545.288-1.25.416-2.147.416h-1.667zm.193-.673h1.474c.481 0 .865-.064 1.154-.224.288-.16.481-.353.545-.641.064-.257-.032-.449-.225-.609-.192-.16-.48-.224-.865-.256h-1.603l-.48 1.73zm10.384 2.564c-.513 0-.93-.096-1.314-.225-.385-.16-.673-.352-.866-.64a1.666 1.666 0 01-.352-.93c-.032-.289 0-.61.128-.994.096-.384.288-.705.545-1.025.256-.32.577-.545.961-.77.609-.32 1.315-.48 2.116-.448.769 0 1.346.192 1.795.512.449.321.705.77.737 1.315.032.288-.032.609-.128.961a2.462 2.462 0 01-.513.994 4.191 4.191 0 01-.898.769c-.673.32-1.378.48-2.211.48zm2.372-2.66l.032-.353c.032-.257 0-.48-.096-.673a1.08 1.08 0 00-.449-.481 1.98 1.98 0 00-.801-.16c-.449 0-.834.064-1.186.224-.353.16-.609.417-.834.77-.224.352-.32.769-.384 1.281-.032.417.064.738.288.962.225.224.577.353 1.026.353.609 0 1.09-.129 1.506-.45.385-.288.641-.736.77-1.281l.128-.192zm10.45-2.308h1.346l-1.314 4.904h-1.282l.929-3.43-4.135 3.43h-1.346l1.314-4.904h1.282l-.929 3.43 4.135-3.43zm.384-1.25c-.032.288-.224.545-.545.705-.32.16-.737.256-1.186.256-.448 0-.833-.096-1.121-.256a.758.758 0 01-.417-.673h.929c-.032.32.193.48.609.48.225 0 .417-.032.545-.128.128-.096.225-.192.257-.352l.929-.032zm-124.49 5.032h-2.372L12.34 25.8h-1.058l3.077-4.903h1.154l1.475 4.903h-1.283l-.288-1.153zm-1.923-.706h1.763l-.513-2.019-1.25 2.02zM37.148.065h-8.942L17.052 17.694h9.968l2.244-3.91.705 3.75 10.352.16L37.148.064zm5.161 28.909l-32.405.256L0 44.936h11.218l5.673-9.295h15.225l1.378 9.295h11.7l-2.886-15.962zM67.47 17.693H56.09L59.938.096h11.379L67.47 17.693zm42.5-.065H98.4S101.924 0 121.06 0c18.59 0 18.718 17.596 18.718 17.596l-11.442.032s-1.603-7.82-7.404-8.012c-9.071-.289-10.962 8.012-10.962 8.012zm17.052 11.346h11.282S134.586 45 115.451 45c-18.59 0-17.66-16.026-17.66-16.026h11.634s1.026 6.57 8.013 6.57c7.981 0 9.584-6.57 9.584-6.57zM93.207 17.693H72.5L85.611.096h11.442l-3.846 17.597zM79.328 28.974h11.379L86.86 44.968H75.482l3.846-15.994zm-25.064 0h20.033L60.514 44.968H50.418l3.846-15.994z" fill="#fff"/></svg>