<svg width="20" height="20" viewBox="0 0 20 20" fill="none" xmlns="http://www.w3.org/2000/svg">
<path d="M20.0002 5.36975L8.38477 13.2881V18.4034L20.0002 10.3195V5.36975Z" fill="#788BA8"/>
<path d="M7.46592 13.11L0.0191074 10.1221L0 15.7889L7.46592 18.5871V13.11Z" fill="#788BA8"/>
<path d="M7.97526 12.2651L19.6877 4.26584L12.0212 1.41309L0.26416 9.07425L7.97526 12.2651ZM11.4679 8.06731L8.40354 10.1647C7.9608 10.4676 7.29086 10.5551 6.9188 10.3611L6.26563 10.0202C5.91582 9.83789 5.98764 9.46305 6.41515 9.18277L9.38349 7.23692C9.77625 6.97925 10.3916 6.88555 10.768 7.02768L11.4691 7.29277C11.8677 7.44379 11.8723 7.79054 11.4679 8.06731ZM15.4287 3.93008L16.1692 4.12372C16.5897 4.23383 16.6514 4.51959 16.2965 4.76284L13.6152 6.5978C13.2291 6.86212 12.5805 6.95933 12.178 6.81488L11.4702 6.5611C11.0903 6.42485 11.0953 6.11485 11.4713 5.86849L14.0875 4.1534C14.4343 3.92579 15.0305 3.82588 15.4287 3.93008ZM8.55538 5.00956L11.0838 3.43267C11.4203 3.22302 11.9684 3.12699 12.3166 3.21796L12.9631 3.38703C13.3294 3.48305 13.3547 3.74112 13.01 3.96404L10.4157 5.64243C10.0431 5.88332 9.4513 5.97742 9.10304 5.85286L8.48932 5.63304C8.15992 5.5144 8.19307 5.23562 8.55538 5.00956ZM3.70214 8.03608L6.54632 6.26244C6.92386 6.02703 7.48765 5.93606 7.81399 6.05941L8.42109 6.28898C8.76548 6.41898 8.73735 6.72857 8.3485 6.9804L5.41176 8.88015C4.98895 9.15382 4.37988 9.24013 4.0613 9.0738L3.50066 8.78139C3.19931 8.62441 3.29337 8.29101 3.70214 8.03608Z" fill="#788BA8"/>
</svg>
