<svg width="150" height="63" fill="none" xmlns="http://www.w3.org/2000/svg"><path d="M22.61 25.77l1.313-4.904h2.02c.833 0 1.442.129 1.858.353.417.224.61.545.545.962-.064.48-.512.833-1.346 1.09.32.063.545.192.737.384.16.192.257.417.225.673-.064.449-.32.801-.834 1.058-.512.256-1.186.384-2.019.384h-2.5zm1.57-2.211l-.417 1.538h1.346c.417 0 .77-.064 1.058-.224.288-.128.449-.32.513-.577.064-.224 0-.417-.16-.545-.16-.128-.417-.192-.77-.224l-1.57.032zm.16-.641h1.186c.416 0 .769-.064 1.058-.192.256-.129.416-.321.48-.513.096-.417-.256-.641-.993-.641h-1.347l-.384 1.346zm13.942-1.378h-2.307l-1.154 4.23h-1.282l1.154-4.23h-2.308l.192-.674h5.898l-.193.674zm5.353 4.294c-.513 0-.93-.096-1.314-.225-.385-.16-.673-.352-.866-.64a1.664 1.664 0 01-.352-.93c-.032-.289 0-.61.128-.994.096-.384.288-.705.545-1.025.256-.32.577-.545.961-.77.61-.32 1.314-.48 2.116-.448.769 0 1.346.192 1.795.512.448.321.705.77.737 1.315.032.288-.032.609-.128.961a2.459 2.459 0 01-.513.994 4.21 4.21 0 01-.898.769c-.64.32-1.378.48-2.211.48zm2.404-2.66l.032-.353c.032-.257 0-.48-.096-.673a1.073 1.073 0 00-.45-.481 1.98 1.98 0 00-.8-.16c-.45 0-.834.064-1.186.224-.353.16-.61.417-.834.77-.224.352-.32.769-.384 1.281-.032.417.064.738.288.962.224.224.577.353 1.026.353.609 0 1.122-.129 1.506-.45.385-.288.641-.736.77-1.281l.128-.192zm10.449-2.308h1.346l-1.346 4.904h-1.282l.93-3.43L52 25.77h-1.346l1.314-4.904h1.282l-.929 3.43 4.167-3.43zm10.16 4.904h-1.282l.577-2.18h-3.301l-.577 2.18h-1.282l1.314-4.904h1.282l-.545 2.052h3.301l.545-2.052h1.282l-1.314 4.904zm10.609-4.23H74.95l-1.154 4.23h-1.282l1.154-4.23H71.36l.192-.674h5.898l-.193.674zm7.501 2.017h-3.045l-.417 1.506h3.558l-.192.674H79.79l1.314-4.904h4.872l-.192.673h-3.526l-.353 1.346h3.045l-.192.705zm5.512.386l-.48 1.827h-1.283l1.315-4.904h2.66c.801 0 1.41.129 1.891.417.449.289.641.641.609 1.122-.064.48-.353.865-.897 1.122-.545.288-1.25.416-2.148.416H90.27zm.16-.673h1.475c.48 0 .865-.064 1.154-.224.288-.16.48-.353.545-.641.064-.257-.032-.449-.225-.609-.192-.16-.48-.224-.865-.256h-1.603l-.48 1.73zm13.527.898c-.129.512-.481.929-1.09 1.218-.577.288-1.314.448-2.148.448-.48 0-.897-.096-1.282-.224a2.122 2.122 0 01-.865-.61c-.225-.256-.32-.576-.353-.929-.032-.256.032-.609.16-1.057a2.92 2.92 0 01.674-1.186 3.358 3.358 0 011.25-.802c.48-.192 1.025-.256 1.634-.256.77 0 1.346.16 1.795.449.449.288.673.705.705 1.218h-1.282c-.032-.353-.128-.61-.352-.77-.225-.16-.513-.224-.93-.256-.577 0-1.058.128-1.442.385-.385.288-.641.673-.77 1.186l-.096.448-.032.353c-.032.224 0 .449.064.64a.815.815 0 00.417.45c.193.096.449.16.769.16.962.032 1.603-.289 1.892-.962l1.282.096zm9.839-2.628h-2.308l-1.153 4.23h-1.282l1.153-4.23h-2.307l.192-.674h5.898l-.193.674zm4.328 2.403l-.481 1.827h-1.282l1.314-4.904h2.66c.801 0 1.41.129 1.891.417.449.289.641.641.609 1.122-.064.48-.352.865-.897 1.122-.545.288-1.25.416-2.148.416h-1.666zm.192-.673h1.474c.481 0 .866-.064 1.154-.224.289-.16.481-.353.545-.641.064-.257-.032-.449-.224-.609-.193-.16-.481-.224-.866-.256h-1.602l-.481 1.73zm10.384 2.564c-.513 0-.929-.096-1.314-.225-.384-.16-.673-.352-.865-.64a1.66 1.66 0 01-.353-.93c-.032-.289 0-.61.128-.994.097-.384.289-.705.545-1.025.257-.32.577-.545.962-.77.609-.32 1.314-.48 2.115-.448.77 0 1.346.192 1.795.512.449.321.705.77.737 1.315.032.288-.032.609-.128.961a2.45 2.45 0 01-.513.994 4.21 4.21 0 01-.897.769c-.673.32-1.378.48-2.212.48zm2.372-2.66l.032-.353c.032-.257 0-.48-.096-.673a1.069 1.069 0 00-.449-.481 1.976 1.976 0 00-.801-.16c-.449 0-.833.064-1.186.224-.352.16-.609.417-.833.77-.225.352-.321.769-.385 1.281-.032.417.064.738.289.962.224.224.577.353 1.025.353.609 0 1.09-.129 1.507-.45.384-.288.641-.736.769-1.281l.128-.192zm10.45-2.308h1.346l-1.314 4.904h-1.282l.929-3.43-4.134 3.43h-1.347l1.314-4.904h1.283l-.93 3.43 4.135-3.43zm.384-1.25c-.032.288-.224.545-.545.705-.32.16-.737.256-1.185.256-.449 0-.834-.096-1.122-.256a.758.758 0 01-.417-.673h.93c-.032.32.192.48.609.48.224 0 .416-.032.544-.128.129-.096.225-.192.257-.352l.929-.032zm-124.49 5.032h-2.372L14.34 25.8h-1.057l3.077-4.903h1.153l1.475 4.903h-1.282l-.289-1.153zm-1.923-.706h1.763l-.513-2.019-1.25 2.02zM39.147.065h-8.942L19.05 17.694h9.968l2.244-3.91.705 3.75 10.353.16L39.147.064zm5.161 28.909l-32.404.256-9.905 15.706h11.219l5.673-9.295h15.224l1.379 9.295h11.699l-2.885-15.962zm25.16-11.281H58.09L61.936.096h11.379l-3.847 17.597zm42.501-.065h-11.57S103.924 0 123.059 0c18.59 0 18.719 17.596 18.719 17.596l-11.443.032s-1.602-7.82-7.404-8.012c-9.071-.289-10.962 8.012-10.962 8.012zm17.052 11.346h11.282S136.585 45 117.45 45c-18.59 0-17.66-16.026-17.66-16.026h11.634s1.026 6.57 8.013 6.57c7.981 0 9.584-6.57 9.584-6.57zM95.206 17.693H74.5L87.61.096h11.442l-3.846 17.597zM81.327 28.974h11.379L88.86 44.968H77.48l3.846-15.994zm-25.064 0h20.033L62.513 44.968H52.417l3.846-15.994z" fill="#fff"/><path d="M3.208 61.048c-.544 0-1.013-.096-1.408-.288a2.138 2.138 0 01-.904-.816 2.41 2.41 0 01-.304-1.224c0-.619.139-1.184.416-1.696a3.13 3.13 0 011.2-1.216c.518-.304 1.115-.456 1.792-.456.448 0 .846.072 1.192.216.347.139.614.339.8.6l-.416.368c-.357-.437-.898-.656-1.624-.656-.549 0-1.034.128-1.456.384a2.59 2.59 0 00-.976 1.016 2.931 2.931 0 00-.344 1.408c0 .56.179 1.005.536 1.336.363.33.878.496 1.544.496.731 0 1.323-.221 1.776-.664l.344.392a2.429 2.429 0 01-.936.592 3.544 3.544 0 01-1.232.208zm8.925-5.136h-1.984L9.141 61h-.576l1.008-5.088h-1.96l.104-.512h4.52l-.104.512zm4.255-.512c.63 0 1.12.139 1.472.416.352.277.528.667.528 1.168 0 .715-.232 1.27-.696 1.664-.459.39-1.093.584-1.904.584h-1.584L13.844 61h-.584l1.12-5.6h2.008zm-.592 3.312c.64 0 1.134-.141 1.48-.424.347-.283.52-.699.52-1.248 0-.368-.125-.648-.376-.84-.25-.192-.61-.288-1.08-.288h-1.472l-.568 2.8h1.496zm6.975 2.336c-.544 0-1.01-.096-1.4-.288a2.094 2.094 0 01-.888-.816c-.203-.352-.304-.76-.304-1.224 0-.613.139-1.176.416-1.688a3.075 3.075 0 011.184-1.224c.512-.304 1.104-.456 1.776-.456.544 0 1.01.099 1.4.296.39.192.685.464.888.816.208.347.312.752.312 1.216a3.48 3.48 0 01-.424 1.696c-.278.512-.672.92-1.184 1.224-.512.299-1.104.448-1.776.448zm.056-.528a2.72 2.72 0 001.432-.376c.416-.256.736-.597.96-1.024.23-.432.344-.904.344-1.416 0-.555-.179-.997-.536-1.328-.358-.33-.867-.496-1.528-.496-.539 0-1.016.128-1.432.384-.416.25-.739.592-.968 1.024a2.966 2.966 0 00-.336 1.4c0 .56.178 1.005.536 1.336.357.33.867.496 1.528.496zm6.41-5.12h.577l-.928 4.64 4.512-4.64h.536l-1.12 5.6h-.576l.936-4.632L28.654 61h-.536l1.12-5.6zm13.53 0l-1.12 5.6h-.568l.888-4.44-2.896 3.728h-.28l-1.496-3.8L36.4 61h-.568l1.12-5.6h.48l1.616 4.16 3.2-4.16h.52zm6.221 0h4.096l-.104.504h-3.52l-.36 1.832h1.832c.576 0 1.011.117 1.304.352.294.235.44.584.44 1.048 0 .587-.224 1.045-.672 1.376-.442.325-1.058.488-1.848.488h-2.288l1.12-5.6zm1.248 5.128c.576 0 1.024-.117 1.344-.352.326-.24.488-.573.488-1 0-.336-.109-.581-.328-.736-.218-.155-.565-.232-1.04-.232h-1.696l-.464 2.32h1.696zm9.92-5.128l-3.48 4.728c-.474.65-1.005.976-1.591.976-.235 0-.464-.053-.688-.16l.216-.464c.176.07.336.104.48.104.39 0 .744-.208 1.064-.624l.24-.288L54.98 55.4h.616l1.2 3.776 2.752-3.776h.608zm5.266 5.088h.848l-.36 1.768h-.552L65.614 61h-4.888l-.264 1.256h-.544l.36-1.768h.248c.374-.021.694-.32.96-.896.272-.581.526-1.379.76-2.392l.416-1.8h3.776l-1.016 5.088zm-2.672-3.192c-.197.848-.4 1.547-.608 2.096-.208.544-.45.91-.728 1.096h3.424l.912-4.576h-2.68l-.32 1.384zM74.006 55.4l-3.48 4.728c-.475.65-1.005.976-1.592.976-.235 0-.464-.053-.688-.16l.216-.464c.176.07.336.104.48.104.39 0 .744-.208 1.064-.624l.24-.288L68.83 55.4h.616l1.2 3.776 2.752-3.776h.608zm8.904 0L81.79 61h-6.856l1.12-5.6h.576l-1.008 5.088h2.56l1.016-5.088h.576l-1.008 5.088h2.56l1.008-5.088h.576zm-.144 5.088l-.352 1.768h-.552L82.11 61h-.904l.112-.512h1.448zm3.802-4.576l-.4 1.992h2.904l-.096.504h-2.904l-.416 2.08h3.368L88.92 61h-3.952l1.12-5.6h3.84l-.104.512h-3.256zm6.394 0l-.4 1.992h2.904l-.096.504h-2.904l-.416 2.08h3.368l-.104.512h-3.952l1.12-5.6h3.84l-.104.512h-3.256zm12.071 2.2c.288.08.509.216.664.408.155.192.232.44.232.744 0 .56-.213.99-.64 1.288-.421.299-1.005.448-1.752.448h-2.6l1.12-5.6h2.392c.544 0 .965.101 1.264.304.304.203.456.499.456.888 0 .379-.104.701-.312.968a1.657 1.657 0 01-.824.552zm-2.488-2.224l-.408 2.032h1.784c.496 0 .893-.104 1.192-.312.299-.213.448-.517.448-.912 0-.272-.107-.475-.32-.608-.208-.133-.509-.2-.904-.2h-1.792zm1.04 4.624c.565 0 1-.107 1.304-.32.304-.213.456-.52.456-.92 0-.31-.109-.53-.328-.664-.213-.133-.539-.2-.976-.2h-2l-.416 2.104h1.96zm11.471-5.112l-1.12 5.6h-.568l.888-4.44-2.896 3.728h-.28l-1.496-3.8-.896 4.512h-.568l1.12-5.6h.48l1.616 4.16 3.2-4.16h.52zm3.487.512l-.4 1.992h2.904l-.096.504h-2.904l-.416 2.08h3.368l-.104.512h-3.952l1.12-5.6h3.84l-.104.512h-3.256zm7.442 5.136c-.544 0-1.013-.096-1.408-.288a2.142 2.142 0 01-.904-.816 2.416 2.416 0 01-.304-1.224c0-.619.139-1.184.416-1.696a3.134 3.134 0 011.2-1.216c.518-.304 1.115-.456 1.792-.456.448 0 .846.072 1.192.216.347.139.614.339.8.6l-.416.368c-.357-.437-.898-.656-1.624-.656-.549 0-1.034.128-1.456.384-.421.25-.746.59-.976 1.016a2.93 2.93 0 00-.344 1.408c0 .56.179 1.005.536 1.336.363.33.878.496 1.544.496.731 0 1.323-.221 1.776-.664l.344.392a2.424 2.424 0 01-.936.592 3.551 3.551 0 01-1.232.208zm8.925-5.136h-1.984L131.918 61h-.576l1.008-5.088h-1.96l.104-.512h4.52l-.104.512zm2.743 0l-.4 1.992h2.904l-.096.504h-2.904l-.416 2.08h3.368l-.104.512h-3.952l1.12-5.6h3.84l-.104.512h-3.256z" fill="#ADADAD"/></svg>