<svg width="150" height="62" viewBox="0 0 150 62" fill="none" xmlns="http://www.w3.org/2000/svg">
<g clip-path="url(#clip0)">
<path d="M54.8646 20.7654H56.2043L54.8646 25.6458H53.5887L54.5137 22.2327L50.3989 25.6458H49.0592L50.367 20.7654H51.6429L50.7179 24.1785L54.8646 20.7654Z" fill="#F23F3F"/>
<path d="M64.9763 25.6458H63.7004L64.2745 23.4767H60.9891L60.4149 25.6458H59.139L60.4468 20.7654H61.7227L61.1804 22.8068H64.4659L65.0082 20.7654H66.2841L64.9763 25.6458Z" fill="#F23F3F"/>
<path d="M75.5345 21.4352H73.2379L72.0895 25.6458H70.8136L71.9619 21.4352H69.6653L69.8567 20.7654H75.7259L75.5345 21.4352Z" fill="#F23F3F"/>
<path d="M82.9987 23.4447H79.9683L79.5537 24.9439H83.0944L82.903 25.6138H78.0544L79.3623 20.7334H84.2108L84.0194 21.4033H80.5106L80.1597 22.743H83.19L82.9987 23.4447Z" fill="#F23F3F"/>
<path d="M88.4851 23.8276L88.0066 25.6458H86.7307L88.0385 20.7654H90.686C91.4835 20.7654 92.0896 20.893 92.568 21.1801C93.0146 21.4671 93.206 21.818 93.1741 22.2965C93.1103 22.7749 92.8232 23.1577 92.2809 23.4129C91.7387 23.7 91.0369 23.8276 90.1438 23.8276H88.4851ZM88.6446 23.1577H90.1119C90.5904 23.1577 90.9731 23.0939 91.2602 22.9344C91.5473 22.7749 91.7387 22.5836 91.8025 22.2965C91.8663 22.0413 91.7706 21.8499 91.5792 21.6904C91.3878 21.5309 91.1007 21.4671 90.7179 21.4352H89.1231L88.6446 23.1577Z" fill="#F23F3F"/>
<path d="M102.105 24.0506C101.978 24.561 101.627 24.9756 101.021 25.2627C100.447 25.5498 99.7131 25.7093 98.8838 25.7093C98.4053 25.7093 97.9907 25.6136 97.6079 25.486C97.257 25.3584 96.9699 25.1351 96.7466 24.88C96.5233 24.6248 96.4277 24.3058 96.3958 23.9549C96.3639 23.6997 96.4277 23.3489 96.5553 22.9023C96.6828 22.4557 96.9061 22.0729 97.2251 21.7221C97.576 21.3712 97.9588 21.116 98.4691 20.9246C98.9476 20.7332 99.4899 20.6694 100.096 20.6694C100.861 20.6694 101.436 20.8289 101.882 21.116C102.329 21.4031 102.552 21.8178 102.584 22.3281H101.308C101.276 21.9772 101.18 21.7221 100.957 21.5626C100.734 21.4031 100.447 21.3393 100.032 21.3074C99.458 21.3074 98.9795 21.435 98.5967 21.6902C98.2139 21.9772 97.9588 22.36 97.8312 22.8704L97.7355 23.317L97.7036 23.6678C97.6717 23.8911 97.7036 24.1144 97.7674 24.3058C97.8312 24.4972 97.9907 24.6567 98.182 24.7524C98.3734 24.8481 98.6286 24.9119 98.9476 24.9119C99.9045 24.9438 100.542 24.6248 100.83 23.9549L102.105 24.0506Z" fill="#F23F3F"/>
<path d="M111.898 21.4352H109.601L108.453 25.6458H107.177L108.326 21.4352H106.029L106.22 20.7654H112.089L111.898 21.4352Z" fill="#F23F3F"/>
<path d="M116.204 23.8276L115.726 25.6458H114.45L115.758 20.7654H118.405C119.203 20.7654 119.809 20.893 120.287 21.1801C120.734 21.4671 120.925 21.818 120.893 22.2965C120.83 22.7749 120.543 23.1577 120 23.4129C119.458 23.7 118.756 23.8276 117.863 23.8276H116.204ZM116.396 23.1577H117.863C118.342 23.1577 118.724 23.0939 119.011 22.9344C119.299 22.7749 119.49 22.5836 119.554 22.2965C119.618 22.0413 119.522 21.8499 119.33 21.6904C119.139 21.5309 118.852 21.4671 118.469 21.4352H116.874L116.396 23.1577Z" fill="#F23F3F"/>
<path d="M126.731 25.7095C126.22 25.7095 125.806 25.6138 125.423 25.4862C125.04 25.3267 124.753 25.1353 124.562 24.8483C124.338 24.5612 124.243 24.2741 124.211 23.9232C124.179 23.6361 124.211 23.3171 124.338 22.9344C124.434 22.5516 124.625 22.2326 124.881 21.9136C125.136 21.5947 125.455 21.3714 125.838 21.1481C126.444 20.8291 127.145 20.6696 127.943 20.7015C128.708 20.7015 129.283 20.8929 129.729 21.2119C130.176 21.5309 130.431 21.9774 130.463 22.5197C130.495 22.8068 130.431 23.1258 130.335 23.4766C130.239 23.8275 130.08 24.1784 129.825 24.4655C129.57 24.7526 129.283 25.0077 128.932 25.231C128.262 25.55 127.56 25.7095 126.731 25.7095ZM129.091 23.062L129.123 22.7111C129.155 22.4559 129.123 22.2326 129.027 22.0412C128.932 21.8498 128.804 21.6904 128.581 21.5628C128.358 21.4671 128.102 21.4033 127.783 21.4033C127.337 21.4033 126.954 21.4671 126.603 21.6266C126.252 21.786 125.997 22.0412 125.774 22.3921C125.55 22.743 125.455 23.1577 125.391 23.668C125.359 24.0827 125.455 24.4017 125.678 24.625C125.901 24.8482 126.252 24.9758 126.699 24.9758C127.305 24.9758 127.783 24.8483 128.198 24.5293C128.581 24.2422 128.836 23.7956 128.964 23.2534L129.091 23.062Z" fill="#F23F3F"/>
<path d="M139.49 20.7653H140.83L139.522 25.6457H138.246L139.171 22.2326L135.056 25.6457H133.716L135.024 20.7653H136.3L135.375 24.1783L139.49 20.7653ZM139.873 19.5212C139.841 19.8083 139.649 20.0635 139.33 20.223C139.011 20.3825 138.597 20.4782 138.15 20.4782C137.704 20.4782 137.321 20.3825 137.034 20.223C136.747 20.0635 136.619 19.8083 136.619 19.5531H137.544C137.512 19.8721 137.736 20.0316 138.15 20.0316C138.373 20.0316 138.565 19.9997 138.692 19.904C138.82 19.8083 138.916 19.7126 138.948 19.5531L139.873 19.5212Z" fill="#F23F3F"/>
<path d="M67.783 17.6079H56.4592L60.287 0.0959473H71.6107L67.783 17.6079Z" fill="#23529A"/>
<path d="M110.08 17.5439H98.5646C98.5646 17.5439 102.073 0 121.116 0C139.617 0 139.745 17.512 139.745 17.512L128.357 17.5439C128.357 17.5439 126.762 9.76076 120.989 9.56938C111.962 9.2823 110.08 17.5439 110.08 17.5439Z" fill="#23529A"/>
<path d="M127.049 28.8352H138.277C138.277 28.8352 134.577 44.7842 115.534 44.7842C97.0332 44.7842 97.9583 28.8352 97.9583 28.8352H109.537C109.537 28.8352 110.558 35.3743 117.512 35.3743C125.454 35.3743 127.049 28.8352 127.049 28.8352Z" fill="#23529A"/>
<path d="M93.3968 17.6079H72.7908L85.837 0.0959473H97.2246L93.3968 17.6079Z" fill="#23529A"/>
<path d="M79.5853 28.8352H90.909L87.0813 44.7523H75.7575L79.5853 28.8352Z" fill="#23529A"/>
<path d="M54.6413 28.8352H74.5775L60.8614 44.7523H50.8136L54.6413 28.8352Z" fill="#23529A"/>
</g>
<path d="M21.1484 25.6458L22.4563 20.7654H24.4658C25.2952 20.7654 25.9012 20.893 26.3159 21.1163C26.7306 21.3395 26.922 21.6585 26.8582 22.0732C26.7944 22.5517 26.3478 22.9025 25.5185 23.1577C25.8374 23.2215 26.0607 23.3491 26.2521 23.5405C26.4116 23.7319 26.5073 23.9552 26.4754 24.2104C26.4116 24.6569 26.1564 25.0078 25.646 25.263C25.1357 25.5182 24.4658 25.6458 23.6365 25.6458H21.1484ZM22.7114 23.4448L22.2968 24.9759H23.6365C24.0511 24.9759 24.402 24.9121 24.6891 24.7526C24.9762 24.625 25.1357 24.4336 25.1995 24.1785C25.2633 23.9552 25.1995 23.7638 25.04 23.6362C24.8805 23.5086 24.6253 23.4448 24.2744 23.4129L22.7114 23.4448ZM22.8709 22.8068H24.0511C24.4658 22.8068 24.8167 22.7431 25.1038 22.6155C25.359 22.4879 25.5185 22.2965 25.5822 22.1051C25.6779 21.6904 25.3271 21.4671 24.5934 21.4671H23.2537L22.8709 22.8068Z" fill="#F23F3F"/>
<path d="M36.7467 21.4352H34.45L33.3017 25.6458H32.0258L33.1741 21.4352H30.8774L31.0688 20.7654H36.9381L36.7467 21.4352Z" fill="#F23F3F"/>
<path d="M42.0734 25.7095C41.5631 25.7095 41.1484 25.6138 40.7656 25.4862C40.3828 25.3267 40.0958 25.1353 39.9044 24.8483C39.6811 24.5612 39.5854 24.2741 39.5535 23.9232C39.5216 23.6361 39.5535 23.3171 39.6811 22.9344C39.7768 22.5516 39.9682 22.2326 40.2234 21.9136C40.4785 21.5947 40.7975 21.3714 41.1803 21.1481C41.7864 20.8291 42.4881 20.6696 43.2856 20.7015C44.0511 20.7015 44.6253 20.8929 45.0718 21.2119C45.5184 21.5309 45.7736 21.9774 45.8055 22.5197C45.8374 22.8068 45.7736 23.1258 45.6779 23.4766C45.5822 23.8275 45.4227 24.1784 45.1675 24.4655C44.9124 24.7526 44.6253 25.0077 44.2744 25.231C43.6364 25.55 42.9028 25.7095 42.0734 25.7095ZM44.4658 23.062L44.4977 22.7111C44.5296 22.4559 44.4977 22.2326 44.402 22.0412C44.3063 21.8498 44.1787 21.6904 43.9554 21.5628C43.7321 21.4671 43.4769 21.4033 43.158 21.4033C42.7114 21.4033 42.3286 21.4671 41.9777 21.6266C41.6269 21.786 41.3717 22.0412 41.1484 22.3921C40.9251 22.743 40.8294 23.1577 40.7656 23.668C40.7337 24.0827 40.8294 24.4017 41.0527 24.625C41.276 24.8482 41.6269 24.9758 42.0734 24.9758C42.6795 24.9758 43.1899 24.8483 43.5726 24.5293C43.9554 24.2422 44.2106 23.7956 44.3382 23.2534L44.4658 23.062Z" fill="#F23F3F"/>
<path d="M15.9806 24.5294H13.6201L12.9184 25.6777H11.8657L14.9279 20.7974H16.0763L17.5436 25.6777H16.2676L15.9806 24.5294ZM14.0667 23.8277H15.8211L15.3107 21.8181L14.0667 23.8277Z" fill="#F23F3F"/>
<path d="M37.6074 0.0639648H28.7079L17.6074 17.6078H27.5277L29.7605 13.7163L30.4623 17.4483L40.7653 17.6078L37.6074 0.0639648Z" fill="#23529A"/>
<path d="M42.7434 28.8352L10.4946 29.0904L0.638184 44.7204H11.8025L17.4484 35.47H32.5999L33.9715 44.7204H45.6143L42.7434 28.8352Z" fill="#23529A"/>
<path d="M3.392 60.048C2.83733 60.048 2.336 59.9253 1.888 59.68C1.44533 59.4347 1.096 59.096 0.84 58.664C0.589333 58.2267 0.464 57.7387 0.464 57.2C0.464 56.6613 0.589333 56.176 0.84 55.744C1.096 55.3067 1.448 54.9653 1.896 54.72C2.344 54.4747 2.84533 54.352 3.4 54.352C3.816 54.352 4.2 54.4213 4.552 54.56C4.904 54.6987 5.20267 54.9013 5.448 55.168L5.072 55.544C4.63467 55.1013 4.08267 54.88 3.416 54.88C2.97333 54.88 2.57067 54.9813 2.208 55.184C1.84533 55.3867 1.56 55.664 1.352 56.016C1.14933 56.368 1.048 56.7627 1.048 57.2C1.048 57.6373 1.14933 58.032 1.352 58.384C1.56 58.736 1.84533 59.0133 2.208 59.216C2.57067 59.4187 2.97333 59.52 3.416 59.52C4.088 59.52 4.64 59.296 5.072 58.848L5.448 59.224C5.20267 59.4907 4.90133 59.696 4.544 59.84C4.192 59.9787 3.808 60.048 3.392 60.048ZM11.3843 54.912H9.41625V60H8.83225V54.912H6.86425V54.4H11.3843V54.912ZM15.6394 54.4C16.354 54.4 16.914 54.5707 17.3194 54.912C17.7247 55.2533 17.9274 55.7227 17.9274 56.32C17.9274 56.9173 17.7247 57.3867 17.3194 57.728C16.914 58.064 16.354 58.232 15.6394 58.232H14.1354V60H13.5434V54.4H15.6394ZM15.6234 57.712C16.178 57.712 16.602 57.592 16.8954 57.352C17.1887 57.1067 17.3354 56.7627 17.3354 56.32C17.3354 55.8667 17.1887 55.52 16.8954 55.28C16.602 55.0347 16.178 54.912 15.6234 54.912H14.1354V57.712H15.6234ZM22.7991 60.048C22.2444 60.048 21.7404 59.9253 21.2871 59.68C20.8391 59.4293 20.4871 59.088 20.2311 58.656C19.9804 58.224 19.8551 57.7387 19.8551 57.2C19.8551 56.6613 19.9804 56.176 20.2311 55.744C20.4871 55.312 20.8391 54.9733 21.2871 54.728C21.7404 54.4773 22.2444 54.352 22.7991 54.352C23.3537 54.352 23.8524 54.4747 24.2951 54.72C24.7431 54.9653 25.0951 55.3067 25.3511 55.744C25.6071 56.176 25.7351 56.6613 25.7351 57.2C25.7351 57.7387 25.6071 58.2267 25.3511 58.664C25.0951 59.096 24.7431 59.4347 24.2951 59.68C23.8524 59.9253 23.3537 60.048 22.7991 60.048ZM22.7991 59.52C23.2417 59.52 23.6417 59.4213 23.9991 59.224C24.3564 59.0213 24.6364 58.744 24.8391 58.392C25.0417 58.0347 25.1431 57.6373 25.1431 57.2C25.1431 56.7627 25.0417 56.368 24.8391 56.016C24.6364 55.6587 24.3564 55.3813 23.9991 55.184C23.6417 54.9813 23.2417 54.88 22.7991 54.88C22.3564 54.88 21.9537 54.9813 21.5911 55.184C21.2337 55.3813 20.9511 55.6587 20.7431 56.016C20.5404 56.368 20.4391 56.7627 20.4391 57.2C20.4391 57.6373 20.5404 58.0347 20.7431 58.392C20.9511 58.744 21.2337 59.0213 21.5911 59.224C21.9537 59.4213 22.3564 59.52 22.7991 59.52ZM28.2677 54.4H28.8517V59.04L32.4358 54.4H32.9717V60H32.3877V55.368L28.8037 60H28.2677V54.4ZM41.7975 54.4V60H41.2295V55.52L39.0295 59.288H38.7495L36.5495 55.544V60H35.9815V54.4H36.4695L38.9015 58.552L41.3095 54.4H41.7975ZM48.0184 54.4H52.1144V54.904H48.6024V56.736H50.4344C51.0957 56.736 51.597 56.872 51.9384 57.144C52.285 57.416 52.4584 57.8107 52.4584 58.328C52.4584 58.8667 52.2717 59.28 51.8984 59.568C51.5304 59.856 50.9997 60 50.3064 60H48.0184V54.4ZM50.2984 59.528C50.8157 59.528 51.205 59.4293 51.4664 59.232C51.733 59.0347 51.8664 58.7413 51.8664 58.352C51.8664 57.968 51.7357 57.6827 51.4744 57.496C51.2184 57.304 50.8264 57.208 50.2984 57.208H48.6024V59.528H50.2984ZM59.1712 54.4L56.6272 59.112C56.4459 59.448 56.2325 59.6987 55.9872 59.864C55.7472 60.024 55.4832 60.104 55.1952 60.104C54.9819 60.104 54.7525 60.0533 54.5072 59.952L54.6752 59.472C54.8672 59.5467 55.0432 59.584 55.2032 59.584C55.5712 59.584 55.8725 59.384 56.1072 58.984L56.2672 58.712L53.9952 54.4H54.6272L56.5792 58.192L58.5792 54.4H59.1712ZM66.293 59.488V61.256H65.741V60H60.853L60.845 61.256H60.293L60.301 59.488H60.581C60.949 59.4667 61.205 59.176 61.349 58.616C61.493 58.0507 61.581 57.2507 61.613 56.216L61.677 54.4H65.453V59.488H66.293ZM62.141 56.272C62.1143 57.1253 62.0477 57.8293 61.941 58.384C61.8397 58.9333 61.6663 59.3013 61.421 59.488H64.869V54.912H62.189L62.141 56.272ZM73.0206 54.4L70.4766 59.112C70.2952 59.448 70.0819 59.6987 69.8366 59.864C69.5966 60.024 69.3326 60.104 69.0446 60.104C68.8312 60.104 68.6019 60.0533 68.3566 59.952L68.5246 59.472C68.7166 59.5467 68.8926 59.584 69.0526 59.584C69.4206 59.584 69.7219 59.384 69.9566 58.984L70.1166 58.712L67.8446 54.4H68.4766L70.4286 58.192L72.4286 54.4H73.0206ZM81.9249 54.4V60H75.0609V54.4H75.6449V59.488H78.2049V54.4H78.7889V59.488H81.3409V54.4H81.9249ZM82.7969 59.488V61.256H82.2449V60H81.3329V59.488H82.7969ZM89.0784 59.488V60H85.1184V54.4H88.9584V54.912H85.7104V56.904H88.6064V57.408H85.7104V59.488H89.0784ZM95.4718 59.488V60H91.5118V54.4H95.3518V54.912H92.1038V56.904H94.9998V57.408H92.1038V59.488H95.4718ZM104.439 57.112C104.828 57.192 105.124 57.3493 105.327 57.584C105.53 57.8133 105.631 58.1147 105.631 58.488C105.631 58.9733 105.458 59.3467 105.111 59.608C104.77 59.8693 104.266 60 103.599 60H101.119V54.4H103.447C104.044 54.4 104.511 54.5227 104.847 54.768C105.183 55.0133 105.351 55.368 105.351 55.832C105.351 56.1467 105.271 56.4133 105.111 56.632C104.951 56.8453 104.727 57.0053 104.439 57.112ZM101.703 56.936H103.415C103.847 56.936 104.178 56.848 104.407 56.672C104.642 56.496 104.759 56.24 104.759 55.904C104.759 55.568 104.642 55.312 104.407 55.136C104.178 54.96 103.847 54.872 103.415 54.872H101.703V56.936ZM103.599 59.528C104.564 59.528 105.047 59.168 105.047 58.448C105.047 57.744 104.564 57.392 103.599 57.392H101.703V59.528H103.599ZM114.047 54.4V60H113.479V55.52L111.279 59.288H110.999L108.799 55.544V60H108.231V54.4H108.719L111.151 58.552L113.559 54.4H114.047ZM121.014 59.488V60H117.054V54.4H120.894V54.912H117.646V56.904H120.542V57.408H117.646V59.488H121.014ZM125.865 60.048C125.31 60.048 124.809 59.9253 124.361 59.68C123.918 59.4347 123.569 59.096 123.313 58.664C123.062 58.2267 122.937 57.7387 122.937 57.2C122.937 56.6613 123.062 56.176 123.313 55.744C123.569 55.3067 123.921 54.9653 124.369 54.72C124.817 54.4747 125.318 54.352 125.873 54.352C126.289 54.352 126.673 54.4213 127.025 54.56C127.377 54.6987 127.675 54.9013 127.921 55.168L127.545 55.544C127.107 55.1013 126.555 54.88 125.889 54.88C125.446 54.88 125.043 54.9813 124.681 55.184C124.318 55.3867 124.033 55.664 123.825 56.016C123.622 56.368 123.521 56.7627 123.521 57.2C123.521 57.6373 123.622 58.032 123.825 58.384C124.033 58.736 124.318 59.0133 124.681 59.216C125.043 59.4187 125.446 59.52 125.889 59.52C126.561 59.52 127.113 59.296 127.545 58.848L127.921 59.224C127.675 59.4907 127.374 59.696 127.017 59.84C126.665 59.9787 126.281 60.048 125.865 60.048ZM133.857 54.912H131.889V60H131.305V54.912H129.337V54.4H133.857V54.912ZM139.976 59.488V60H136.016V54.4H139.856V54.912H136.608V56.904H139.504V57.408H136.608V59.488H139.976Z" fill="#23529A"/>
<defs>
<clipPath id="clip0">
<rect width="140.526" height="45" fill="white"/>
</clipPath>
</defs>
</svg>
