<svg width="141" height="45" viewBox="0 0 141 45" fill="none" xmlns="http://www.w3.org/2000/svg">
<path d="M20.6099 25.7704L21.924 20.8665H23.9433C24.7766 20.8665 25.3856 20.9947 25.8023 21.219C26.2189 21.4434 26.4113 21.7639 26.3472 22.1806C26.283 22.6614 25.8343 23.0139 25.001 23.2703C25.3215 23.3345 25.5459 23.4627 25.7382 23.655C25.8984 23.8473 25.9946 24.0716 25.9625 24.3281C25.8984 24.7768 25.642 25.1294 25.1292 25.3858C24.6164 25.6422 23.9433 25.7704 23.1099 25.7704H20.6099ZM22.1804 23.5588L21.7637 25.0973H23.1099C23.5266 25.0973 23.8792 25.0332 24.1676 24.8729C24.4561 24.7447 24.6164 24.5524 24.6805 24.296C24.7446 24.0716 24.6805 23.8793 24.5202 23.7511C24.3599 23.6229 24.1035 23.5588 23.7509 23.5268L22.1804 23.5588ZM22.3407 22.9178H23.5266C23.9433 22.9178 24.2958 22.8537 24.5843 22.7255C24.8407 22.5973 25.001 22.4049 25.0651 22.2126C25.1612 21.796 24.8087 21.5716 24.0715 21.5716H22.7253L22.3407 22.9178Z" fill="white"/>
<path d="M36.2833 21.5395H33.9756L32.8217 25.7704H31.5396L32.6935 21.5395H30.3857L30.5781 20.8665H36.4756L36.2833 21.5395Z" fill="white"/>
<path d="M41.6355 25.8338C41.1226 25.8338 40.706 25.7376 40.3213 25.6094C39.9367 25.4492 39.6482 25.2569 39.4559 24.9684C39.2316 24.6799 39.1354 24.3914 39.1034 24.0389C39.0713 23.7504 39.1034 23.4299 39.2316 23.0453C39.3277 22.6606 39.52 22.3401 39.7764 22.0196C40.0329 21.6991 40.3534 21.4747 40.738 21.2504C41.347 20.9298 42.0521 20.7696 42.8534 20.8016C43.6227 20.8016 44.1996 20.9939 44.6483 21.3145C45.0971 21.635 45.3535 22.0837 45.3855 22.6286C45.4176 22.9171 45.3535 23.2376 45.2573 23.5901C45.1612 23.9427 45.0009 24.2953 44.7445 24.5838C44.4881 24.8722 44.1996 25.1286 43.847 25.353C43.206 25.6735 42.4688 25.8338 41.6355 25.8338ZM44.0394 23.1735L44.0714 22.8209C44.1035 22.5645 44.0714 22.3401 43.9753 22.1478C43.8791 21.9555 43.7509 21.7952 43.5265 21.667C43.3022 21.5709 43.0457 21.5068 42.7252 21.5068C42.2765 21.5068 41.8919 21.5709 41.5393 21.7311C41.1867 21.8914 40.9303 22.1478 40.706 22.5004C40.4816 22.853 40.3854 23.2696 40.3213 23.7825C40.2893 24.1991 40.3854 24.5197 40.6098 24.744C40.8342 24.9684 41.1867 25.0966 41.6355 25.0966C42.2444 25.0966 42.7573 24.9684 43.1419 24.6479C43.5265 24.3594 43.7829 23.9107 43.9112 23.3658L44.0394 23.1735Z" fill="white"/>
<path d="M54.4887 20.8665H55.8349L54.4887 25.7704H53.2066L54.1361 22.3408L50.0015 25.7704H48.6553L49.9694 20.8665H51.2515L50.322 24.296L54.4887 20.8665Z" fill="white"/>
<path d="M64.6492 25.7704H63.3671L63.9441 23.5909H60.6427L60.0658 25.7704H58.7837L60.0978 20.8665H61.3799L60.835 22.9178H64.1364L64.6813 20.8665H65.9633L64.6492 25.7704Z" fill="white"/>
<path d="M75.2584 21.5395H72.9507L71.7968 25.7704H70.5147L71.6686 21.5395H69.3608L69.5532 20.8665H75.4507L75.2584 21.5395Z" fill="white"/>
<path d="M82.7586 23.5569H79.7137L79.297 25.0634H82.8548L82.6624 25.7365H77.7905L79.1047 20.8325H83.9766L83.7843 21.5056H80.2585L79.906 22.8518H82.9509L82.7586 23.5569Z" fill="white"/>
<path d="M88.2712 23.9434L87.7904 25.7704H86.5083L87.8224 20.8665H90.4827C91.284 20.8665 91.893 20.9947 92.3738 21.2831C92.8225 21.5716 93.0148 21.9242 92.9828 22.4049C92.9187 22.8857 92.6302 23.2703 92.0853 23.5268C91.5404 23.8152 90.8353 23.9434 89.9379 23.9434H88.2712ZM88.4314 23.2703H89.9058C90.3866 23.2703 90.7712 23.2062 91.0597 23.046C91.3481 22.8857 91.5404 22.6934 91.6045 22.4049C91.6687 22.1485 91.5725 21.9562 91.3802 21.796C91.1879 21.6357 90.8994 21.5716 90.5148 21.5395H88.9122L88.4314 23.2703Z" fill="white"/>
<path d="M101.957 24.1675C101.829 24.6804 101.477 25.097 100.868 25.3855C100.291 25.674 99.5535 25.8342 98.7201 25.8342C98.2394 25.8342 97.8227 25.7381 97.4381 25.6099C97.0855 25.4816 96.797 25.2573 96.5726 25.0009C96.3483 24.7445 96.2521 24.4239 96.2201 24.0714C96.188 23.8149 96.2521 23.4624 96.3803 23.0137C96.5085 22.5649 96.7329 22.1803 97.0534 21.8277C97.406 21.4752 97.7906 21.2187 98.3035 21.0264C98.7842 20.8341 99.3291 20.77 99.9381 20.77C100.707 20.77 101.284 20.9303 101.733 21.2187C102.182 21.5072 102.406 21.9239 102.438 22.4367H101.156C101.124 22.0841 101.028 21.8277 100.804 21.6675C100.579 21.5072 100.291 21.4431 99.874 21.4111C99.2971 21.4111 98.8163 21.5393 98.4317 21.7957C98.047 22.0841 97.7906 22.4688 97.6624 22.9816L97.5663 23.4303L97.5342 23.7829C97.5022 24.0073 97.5342 24.2316 97.5983 24.4239C97.6624 24.6162 97.8227 24.7765 98.015 24.8727C98.2073 24.9688 98.4637 25.0329 98.7842 25.0329C99.7458 25.065 100.387 24.7445 100.675 24.0714L101.957 24.1675Z" fill="white"/>
<path d="M111.797 21.5395H109.489L108.335 25.7704H107.053L108.207 21.5395H105.899L106.092 20.8665H111.989L111.797 21.5395Z" fill="white"/>
<path d="M116.124 23.9434L115.643 25.7704H114.361L115.675 20.8665H118.336C119.137 20.8665 119.746 20.9947 120.227 21.2831C120.676 21.5716 120.868 21.9242 120.836 22.4049C120.772 22.8857 120.483 23.2703 119.938 23.5268C119.393 23.8152 118.688 23.9434 117.791 23.9434H116.124ZM116.317 23.2703H117.791C118.272 23.2703 118.656 23.2062 118.945 23.046C119.233 22.8857 119.426 22.6934 119.49 22.4049C119.554 22.1485 119.458 21.9562 119.265 21.796C119.073 21.6357 118.785 21.5716 118.4 21.5395H116.797L116.317 23.2703Z" fill="white"/>
<path d="M126.701 25.8338C126.188 25.8338 125.771 25.7376 125.387 25.6094C125.002 25.4492 124.714 25.2569 124.521 24.9684C124.297 24.6799 124.201 24.3914 124.169 24.0389C124.137 23.7504 124.169 23.4299 124.297 23.0453C124.393 22.6606 124.585 22.3401 124.842 22.0196C125.098 21.6991 125.419 21.4747 125.803 21.2504C126.412 20.9298 127.118 20.7696 127.919 20.8016C128.688 20.8016 129.265 20.9939 129.714 21.3145C130.163 21.635 130.419 22.0837 130.451 22.6286C130.483 22.9171 130.419 23.2376 130.323 23.5901C130.227 23.9427 130.066 24.2953 129.81 24.5838C129.554 24.8722 129.265 25.1286 128.912 25.353C128.239 25.6735 127.534 25.8338 126.701 25.8338ZM129.073 23.1735L129.105 22.8209C129.137 22.5645 129.105 22.3401 129.009 22.1478C128.912 21.9555 128.784 21.7952 128.56 21.667C128.336 21.5709 128.079 21.5068 127.759 21.5068C127.31 21.5068 126.925 21.5709 126.573 21.7311C126.22 21.8914 125.964 22.1478 125.739 22.5004C125.515 22.853 125.419 23.2696 125.355 23.7825C125.323 24.1991 125.419 24.5197 125.643 24.744C125.868 24.9684 126.22 25.0966 126.669 25.0966C127.278 25.0966 127.759 24.9684 128.175 24.6479C128.56 24.3594 128.816 23.9107 128.945 23.3658L129.073 23.1735Z" fill="white"/>
<path d="M139.523 20.8657H140.869L139.555 25.7697H138.273L139.202 22.3401L135.067 25.7697H133.721L135.035 20.8657H136.317L135.388 24.2953L139.523 20.8657ZM139.907 19.6157C139.875 19.9042 139.683 20.1606 139.362 20.3209C139.042 20.4811 138.625 20.5773 138.176 20.5773C137.728 20.5773 137.343 20.4811 137.055 20.3209C136.766 20.1606 136.638 19.9042 136.638 19.6478H137.567C137.535 19.9683 137.76 20.1286 138.176 20.1286C138.401 20.1286 138.593 20.0965 138.721 20.0003C138.849 19.9042 138.946 19.808 138.978 19.6478L139.907 19.6157Z" fill="white"/>
<path d="M15.4169 24.6475H13.0451L12.3399 25.8014H11.2822L14.3592 20.8975H15.5131L16.9875 25.8014H15.7054L15.4169 24.6475ZM13.4938 23.9424H15.2567L14.7438 21.9231L13.4938 23.9424Z" fill="white"/>
<path d="M37.1483 0.0649414H28.2058L17.0518 17.6935H27.0199L29.2635 13.7832L29.9687 17.5332L40.3215 17.6935L37.1483 0.0649414Z" fill="white"/>
<path d="M42.3085 28.9741L9.90404 29.2305L0 44.936H11.2182L16.8914 35.6409H32.116L33.4942 44.936H45.1932L42.3085 28.9741Z" fill="white"/>
<path d="M67.4692 17.6927H56.0908L59.937 0.0961914H71.3155L67.4692 17.6927Z" fill="white"/>
<path d="M109.97 17.6285H98.3994C98.3994 17.6285 101.925 0 121.06 0C139.65 0 139.778 17.5965 139.778 17.5965L128.336 17.6285C128.336 17.6285 126.733 9.80788 120.932 9.61557C111.861 9.32711 109.97 17.6285 109.97 17.6285Z" fill="white"/>
<path d="M127.022 28.9741H138.304C138.304 28.9741 134.586 45.0001 115.451 45.0001C96.8609 45.0001 97.7904 28.9741 97.7904 28.9741H109.425C109.425 28.9741 110.451 35.5448 117.438 35.5448C125.419 35.5448 127.022 28.9741 127.022 28.9741Z" fill="white"/>
<path d="M93.2065 17.6927H72.501L85.6102 0.0961914H97.0527L93.2065 17.6927Z" fill="white"/>
<path d="M79.3282 28.9741H90.7066L86.8604 44.968H75.4819L79.3282 28.9741Z" fill="white"/>
<path d="M54.2642 28.9741H74.2966L60.5143 44.968H50.418L54.2642 28.9741Z" fill="white"/>
</svg>
