<svg width="172" height="55" viewBox="0 0 172 55" fill="none" xmlns="http://www.w3.org/2000/svg">
<g clip-path="url(#clip0)">
<path d="M25.8481 31.3448L27.4466 25.3799H29.9027C30.9164 25.3799 31.6571 25.5358 32.1639 25.8087C32.6708 26.0816 32.9047 26.4715 32.8267 26.9783C32.7487 27.5631 32.2029 27.992 31.1893 28.3039C31.5791 28.3818 31.852 28.5378 32.086 28.7717C32.2809 29.0056 32.3978 29.2785 32.3589 29.5904C32.2809 30.1362 31.969 30.5651 31.3452 30.877C30.7214 31.1888 29.9027 31.3448 28.8891 31.3448H25.8481ZM27.7585 28.6547L27.2517 30.5261H28.8891C29.3959 30.5261 29.8248 30.4481 30.1756 30.2532C30.5265 30.0972 30.7214 29.8633 30.7994 29.5514C30.8774 29.2785 30.7994 29.0446 30.6045 28.8887C30.4095 28.7327 30.0977 28.6547 29.6688 28.6157L27.7585 28.6547ZM27.9534 27.875H29.3959C29.9027 27.875 30.3316 27.797 30.6824 27.6411C30.9943 27.4851 31.1893 27.2512 31.2672 27.0173C31.3842 26.5105 30.9554 26.2376 30.0587 26.2376H28.4212L27.9534 27.875Z" fill="#F23F3F"/>
<path d="M44.9123 26.1986H42.1052L40.7017 31.3448H39.1423L40.5458 26.1986H37.7388L37.9727 25.3799H45.1462L44.9123 26.1986Z" fill="#F23F3F"/>
<path d="M51.4231 31.4226C50.7993 31.4226 50.2925 31.3057 49.8246 31.1497C49.3568 30.9548 49.0059 30.7209 48.772 30.37C48.4991 30.0191 48.3821 29.6682 48.3432 29.2394C48.3042 28.8885 48.3432 28.4987 48.4991 28.0308C48.6161 27.563 48.85 27.1731 49.1619 26.7833C49.4738 26.3934 49.8636 26.1205 50.3315 25.8476C51.0722 25.4577 51.9299 25.2628 52.9046 25.3018C53.8402 25.3018 54.542 25.5357 55.0878 25.9256C55.6336 26.3154 55.9455 26.8612 55.9845 27.524C56.0235 27.8749 55.9455 28.2647 55.8286 28.6936C55.7116 29.1224 55.5167 29.5513 55.2048 29.9022C54.8929 30.253 54.542 30.5649 54.1132 30.8378C53.3334 31.2277 52.4367 31.4226 51.4231 31.4226ZM54.3471 28.1868L54.3861 27.7579C54.425 27.446 54.3861 27.1731 54.2691 26.9392C54.1521 26.7053 53.9962 26.5103 53.7233 26.3544C53.4504 26.2374 53.1385 26.1595 52.7486 26.1595C52.2028 26.1595 51.735 26.2374 51.3061 26.4324C50.8773 26.6273 50.5654 26.9392 50.2925 27.368C50.0196 27.7969 49.9026 28.3037 49.8246 28.9275C49.7857 29.4343 49.9026 29.8242 50.1755 30.0971C50.4484 30.37 50.8773 30.5259 51.4231 30.5259C52.1638 30.5259 52.7876 30.37 53.2555 29.9801C53.7233 29.6293 54.0352 29.0835 54.1911 28.4207L54.3471 28.1868Z" fill="#F23F3F"/>
<path d="M67.0569 25.3799H68.6944L67.0569 31.3448H65.4975L66.6281 27.1733L61.5989 31.3448H59.9614L61.5599 25.3799H63.1193L61.9887 29.5514L67.0569 25.3799Z" fill="#F23F3F"/>
<path d="M79.4153 31.3448H77.8558L78.5576 28.6937H74.542L73.8402 31.3448H72.2808L73.8792 25.3799H75.4387L74.7759 27.875H78.7915L79.4543 25.3799H81.0137L79.4153 31.3448Z" fill="#F23F3F"/>
<path d="M92.32 26.1986H89.513L88.1095 31.3448H86.55L87.9535 26.1986H85.1465L85.3804 25.3799H92.5539L92.32 26.1986Z" fill="#F23F3F"/>
<path d="M101.443 28.6548H97.7391L97.2323 30.4871H101.56L101.326 31.3058H95.3999L96.9984 25.3409H102.924L102.69 26.1597H98.4019L97.973 27.7971H101.677L101.443 28.6548Z" fill="#F23F3F"/>
<path d="M108.148 29.1226L107.563 31.3448H106.004L107.602 25.3799H110.838C111.813 25.3799 112.554 25.5358 113.138 25.8867C113.684 26.2376 113.918 26.6664 113.879 27.2512C113.801 27.836 113.45 28.3039 112.788 28.6157C112.125 28.9666 111.267 29.1226 110.175 29.1226H108.148ZM108.343 28.3039H110.136C110.721 28.3039 111.189 28.2259 111.54 28.031C111.891 27.836 112.125 27.6021 112.203 27.2512C112.281 26.9393 112.164 26.7054 111.93 26.5105C111.696 26.3156 111.345 26.2376 110.877 26.1986H108.928L108.343 28.3039Z" fill="#F23F3F"/>
<path d="M124.796 29.3954C124.64 30.0191 124.211 30.526 123.47 30.8768C122.768 31.2277 121.872 31.4227 120.858 31.4227C120.273 31.4227 119.766 31.3057 119.299 31.1498C118.87 30.9938 118.519 30.7209 118.246 30.409C117.973 30.0971 117.856 29.7073 117.817 29.2784C117.778 28.9665 117.856 28.5377 118.012 27.9919C118.168 27.4461 118.441 26.9782 118.831 26.5494C119.26 26.1205 119.727 25.8086 120.351 25.5747C120.936 25.3408 121.599 25.2628 122.339 25.2628C123.275 25.2628 123.977 25.4577 124.523 25.8086C125.069 26.1595 125.341 26.6663 125.38 27.2901H123.821C123.782 26.8613 123.665 26.5494 123.392 26.3544C123.119 26.1595 122.768 26.0815 122.262 26.0425C121.56 26.0425 120.975 26.1985 120.507 26.5104C120.039 26.8613 119.727 27.3291 119.571 27.9529L119.454 28.4987L119.415 28.9275C119.377 29.2004 119.416 29.4733 119.493 29.7073C119.571 29.9412 119.766 30.1361 120 30.2531C120.234 30.37 120.546 30.448 120.936 30.448C122.106 30.487 122.885 30.0971 123.236 29.2784L124.796 29.3954Z" fill="#F23F3F"/>
<path d="M136.764 26.1986H133.957L132.554 31.3448H130.994L132.398 26.1986H129.591L129.825 25.3799H136.998L136.764 26.1986Z" fill="#F23F3F"/>
<path d="M142.028 29.1226L141.443 31.3448H139.883L141.482 25.3799H144.718C145.692 25.3799 146.433 25.5358 147.018 25.8867C147.564 26.2376 147.798 26.6664 147.759 27.2512C147.681 27.836 147.33 28.3039 146.667 28.6157C146.004 28.9666 145.146 29.1226 144.055 29.1226H142.028ZM142.261 28.3039H144.055C144.64 28.3039 145.107 28.2259 145.458 28.031C145.809 27.836 146.043 27.6021 146.121 27.2512C146.199 26.9393 146.082 26.7054 145.848 26.5105C145.614 26.3156 145.263 26.2376 144.796 26.1986H142.846L142.261 28.3039Z" fill="#F23F3F"/>
<path d="M154.893 31.4226C154.269 31.4226 153.762 31.3057 153.294 31.1497C152.827 30.9548 152.476 30.7209 152.242 30.37C151.969 30.0191 151.852 29.6682 151.813 29.2394C151.774 28.8885 151.813 28.4987 151.969 28.0308C152.086 27.563 152.32 27.1731 152.632 26.7833C152.943 26.3934 153.333 26.1205 153.801 25.8476C154.542 25.4577 155.4 25.2628 156.374 25.3018C157.31 25.3018 158.012 25.5357 158.558 25.9256C159.103 26.3154 159.415 26.8612 159.454 27.524C159.493 27.8749 159.415 28.2647 159.298 28.6936C159.181 29.1224 158.986 29.5513 158.675 29.9022C158.363 30.253 158.012 30.5649 157.583 30.8378C156.764 31.2277 155.906 31.4226 154.893 31.4226ZM157.778 28.1868L157.817 27.7579C157.856 27.446 157.817 27.1731 157.7 26.9392C157.583 26.7053 157.427 26.5103 157.154 26.3544C156.881 26.2374 156.569 26.1595 156.179 26.1595C155.634 26.1595 155.166 26.2374 154.737 26.4324C154.308 26.6273 153.996 26.9392 153.723 27.368C153.45 27.7969 153.333 28.3037 153.255 28.9275C153.216 29.4343 153.333 29.8242 153.606 30.0971C153.879 30.37 154.308 30.5259 154.854 30.5259C155.595 30.5259 156.179 30.37 156.686 29.9801C157.154 29.6293 157.466 29.0835 157.622 28.4207L157.778 28.1868Z" fill="#F23F3F"/>
<path d="M170.488 25.3798H172.125L170.527 31.3448H168.967L170.098 27.1732L165.069 31.3448H163.431L165.03 25.3798H166.589L165.458 29.5514L170.488 25.3798ZM170.956 23.8594C170.917 24.2103 170.683 24.5221 170.293 24.7171C169.903 24.912 169.396 25.029 168.85 25.029C168.304 25.029 167.837 24.912 167.486 24.7171C167.135 24.5221 166.979 24.2103 166.979 23.8984H168.11C168.071 24.2882 168.343 24.4832 168.85 24.4832C169.123 24.4832 169.357 24.4442 169.513 24.3272C169.669 24.2103 169.786 24.0933 169.825 23.8984L170.956 23.8594Z" fill="#F23F3F"/>
<path d="M19.5322 29.9804H16.6472L15.7895 31.3839H14.5029L18.2456 25.4189H19.6491L21.4425 31.3839H19.883L19.5322 29.9804ZM17.193 29.1226H19.3372L18.7135 26.6665L17.193 29.1226Z" fill="#F23F3F"/>
<path d="M45.965 0.0778809H35.0878L21.5205 21.5204H33.6453L36.3743 16.764L37.232 21.3254L49.8246 21.5204L45.965 0.0778809Z" fill="#23529A"/>
<path d="M52.2418 35.2435L12.8266 35.5554L0.779785 54.6587H14.425L21.3256 43.3527H39.8441L41.5205 54.6587H55.7505L52.2418 35.2435Z" fill="#23529A"/>
<path d="M82.846 21.5205H69.0059L73.6842 0.116943H87.5244L82.846 21.5205Z" fill="#23529A"/>
<path d="M134.542 21.4425H120.468C120.468 21.4425 124.756 0 148.031 0C170.643 0 170.799 21.4035 170.799 21.4035L156.881 21.4425C156.881 21.4425 154.932 11.9298 147.875 11.6959C136.842 11.345 134.542 21.4425 134.542 21.4425Z" fill="#23529A"/>
<path d="M155.283 35.2435H169.006C169.006 35.2435 164.483 54.7367 141.209 54.7367C118.597 54.7367 119.727 35.2435 119.727 35.2435H133.879C133.879 35.2435 135.127 43.2357 143.626 43.2357C153.333 43.2357 155.283 35.2435 155.283 35.2435Z" fill="#23529A"/>
<path d="M114.152 21.5205H88.9668L104.912 0.116943H118.83L114.152 21.5205Z" fill="#23529A"/>
<path d="M97.2706 35.2435H111.111L106.432 54.6977H92.5923L97.2706 35.2435Z" fill="#23529A"/>
<path d="M66.7838 35.2435H91.1503L74.3862 54.6977H62.1055L66.7838 35.2435Z" fill="#23529A"/>
</g>
<defs>
<clipPath id="clip0">
<rect width="171.754" height="55" fill="white"/>
</clipPath>
</defs>
</svg>
