<svg width="60" height="60" viewBox="0 0 60 60" fill="none" xmlns="http://www.w3.org/2000/svg">
<path d="M30.6628 39.6498C30.4622 39.4491 30.1875 39.3507 29.8978 39.3807C29.6156 39.4116 29.3625 39.5691 29.2097 39.8091L23.2744 49.1363L10.8647 36.7257L20.1909 30.7904C20.4309 30.6376 20.5884 30.3844 20.6194 30.1013C20.6503 29.8191 20.5519 29.5369 20.3503 29.3363L10.9753 19.9613C10.6087 19.5948 10.0163 19.5948 9.64969 19.9613L5.18906 24.4219C2.44687 27.1651 0.9375 30.8101 0.9375 34.6876C0.9375 38.5651 2.44687 42.2101 5.18906 44.9532L15.0478 54.811C17.7891 57.5523 21.4341 59.0626 25.3125 59.0626C29.1909 59.0626 32.8359 57.5523 35.5772 54.8101L40.0378 50.3504C40.2141 50.1751 40.3125 49.936 40.3125 49.6876C40.3125 49.4391 40.2141 49.2001 40.0378 49.0248L30.6628 39.6498ZM10.3125 21.9507L18.1978 29.8369L15.2353 31.7223L7.88812 24.3751L10.3125 21.9507ZM25.3125 57.1876C21.9347 57.1876 18.7603 55.8723 16.3734 53.4844L6.51469 43.6276C4.12687 41.2388 2.8125 38.0644 2.8125 34.6876C2.8125 31.3107 4.12687 28.1363 6.51469 25.7476L6.5625 25.7007L13.6153 32.7535L8.87156 35.7723C8.63156 35.9251 8.47406 36.1782 8.44312 36.4613C8.41219 36.7435 8.51063 37.0257 8.71219 37.2263L22.7747 51.2888C22.9762 51.4894 23.2519 51.5898 23.5397 51.5579C23.8219 51.5269 24.075 51.3694 24.2278 51.1294L27.2466 46.3857L34.2994 53.4376L34.2516 53.4854C31.8647 55.8723 28.6903 57.1876 25.3125 57.1876ZM35.625 52.1119L28.2787 44.7657L30.1641 41.8023L38.0494 49.6876L35.625 52.1119Z" fill="#23529A"/>
<path d="M58.8096 1.23477C58.565 0.975083 58.1984 0.874771 57.8553 0.976958L50.044 3.32071C49.0081 2.98321 47.944 2.81258 46.8753 2.81258C41.99 2.81258 37.7403 6.28227 36.769 11.0635L38.6075 11.4366C39.4006 7.52633 42.8778 4.68758 46.8753 4.68758C47.8306 4.68758 48.784 4.8554 49.7103 5.18727C49.8968 5.25383 50.1031 5.25852 50.2953 5.20321L56.5831 3.31696L54.5009 8.86883C54.4128 9.10321 54.4231 9.36383 54.5281 9.59164C55.0493 10.7157 55.3128 11.9054 55.3128 13.1251C55.3128 17.777 51.5281 21.5626 46.8753 21.5626C43.52 21.5626 40.4834 19.5751 39.139 16.5001L37.4215 17.2501C39.0631 21.0095 42.7747 23.4376 46.8753 23.4376C52.5612 23.4376 57.1878 18.811 57.1878 13.1251C57.1878 11.7629 56.9206 10.4345 56.3909 9.16977L59.0028 2.20415C59.1275 1.8704 59.0534 1.4954 58.8096 1.23477Z" fill="#23529A"/>
<path d="M36.5626 31.875C35.6073 31.875 34.6538 31.7072 33.7276 31.3753C33.5401 31.3069 33.3338 31.3022 33.1426 31.3594L26.8548 33.2456L28.937 27.6938C29.0251 27.4594 29.0148 27.1987 28.9098 26.9709C28.3885 25.8469 28.1251 24.6572 28.1251 23.4375C28.1251 18.7856 31.9098 15 36.5626 15C39.9179 15 42.9544 16.9875 44.2988 20.0625L46.0163 19.3116C44.3748 15.5531 40.6632 13.125 36.5626 13.125C30.8766 13.125 26.2501 17.7516 26.2501 23.4375C26.2501 24.7997 26.5173 26.1281 27.047 27.3928L24.4351 34.3584C24.3104 34.6922 24.3845 35.0672 24.6282 35.3278C24.8082 35.52 25.0576 35.625 25.3126 35.625C25.4026 35.625 25.4926 35.6119 25.5816 35.5856L33.3929 33.2419C34.4298 33.5794 35.4938 33.75 36.5626 33.75C41.4479 33.75 45.6976 30.2803 46.6688 25.4991L44.8304 25.1259C44.0373 29.0363 40.5601 31.875 36.5626 31.875Z" fill="#23529A"/>
<path d="M31.875 22.5H33.75V24.375H31.875V22.5Z" fill="#23529A"/>
<path d="M35.625 22.5H37.5V24.375H35.625V22.5Z" fill="#23529A"/>
<path d="M39.375 22.5H41.25V24.375H39.375V22.5Z" fill="#23529A"/>
<path d="M42.1875 12.1875H44.0625V14.0625H42.1875V12.1875Z" fill="#23529A"/>
<path d="M45.9375 12.1875H47.8125V14.0625H45.9375V12.1875Z" fill="#23529A"/>
<path d="M49.6875 12.1875H51.5625V14.0625H49.6875V12.1875Z" fill="#23529A"/>
</svg>
