<svg width="60" height="60" viewBox="0 0 60 60" fill="none" xmlns="http://www.w3.org/2000/svg">
<path d="M9.37793 31.8675H26.2529C26.7714 31.8675 27.1904 31.4484 27.1904 30.93V27.18C27.1904 26.6616 26.7714 26.2425 26.2529 26.2425H9.37793C8.85949 26.2425 8.44043 26.6616 8.44043 27.18V30.93C8.44043 31.4484 8.85949 31.8675 9.37793 31.8675ZM10.3154 28.1175H25.3154V29.9925H10.3154V28.1175Z" fill="#2C5491"/>
<path d="M24.3779 33.7425C22.8273 33.7425 21.5654 35.0044 21.5654 36.555C21.5654 38.1056 22.8273 39.3675 24.3779 39.3675C25.9286 39.3675 27.1904 38.1056 27.1904 36.555C27.1904 35.0044 25.9286 33.7425 24.3779 33.7425ZM24.3779 37.4925C23.8604 37.4925 23.4404 37.0725 23.4404 36.555C23.4404 36.0375 23.8604 35.6175 24.3779 35.6175C24.8954 35.6175 25.3154 36.0375 25.3154 36.555C25.3154 37.0725 24.8954 37.4925 24.3779 37.4925Z" fill="#2C5491"/>
<path d="M17.8154 33.7425C16.2648 33.7425 15.0029 35.0044 15.0029 36.555C15.0029 38.1056 16.2648 39.3675 17.8154 39.3675C19.3661 39.3675 20.6279 38.1056 20.6279 36.555C20.6279 35.0044 19.3661 33.7425 17.8154 33.7425ZM17.8154 37.4925C17.2979 37.4925 16.8779 37.0725 16.8779 36.555C16.8779 36.0375 17.2979 35.6175 17.8154 35.6175C18.3329 35.6175 18.7529 36.0375 18.7529 36.555C18.7529 37.0725 18.3329 37.4925 17.8154 37.4925Z" fill="#2C5491"/>
<path d="M11.2529 39.3675C12.8036 39.3675 14.0654 38.1056 14.0654 36.555C14.0654 35.0044 12.8036 33.7425 11.2529 33.7425C9.7023 33.7425 8.44043 35.0044 8.44043 36.555C8.44043 38.1056 9.7023 39.3675 11.2529 39.3675ZM11.2529 35.6175C11.7704 35.6175 12.1904 36.0375 12.1904 36.555C12.1904 37.0725 11.7704 37.4925 11.2529 37.4925C10.7354 37.4925 10.3154 37.0725 10.3154 36.555C10.3154 36.0375 10.7354 35.6175 11.2529 35.6175Z" fill="#2C5491"/>
<path d="M24.3779 40.305C22.8273 40.305 21.5654 41.5669 21.5654 43.1175C21.5654 44.6681 22.8273 45.93 24.3779 45.93C25.9286 45.93 27.1904 44.6681 27.1904 43.1175C27.1904 41.5669 25.9286 40.305 24.3779 40.305ZM24.3779 44.055C23.8604 44.055 23.4404 43.635 23.4404 43.1175C23.4404 42.6 23.8604 42.18 24.3779 42.18C24.8954 42.18 25.3154 42.6 25.3154 43.1175C25.3154 43.635 24.8954 44.055 24.3779 44.055Z" fill="#2C5491"/>
<path d="M17.8154 40.305C16.2648 40.305 15.0029 41.5669 15.0029 43.1175C15.0029 44.6681 16.2648 45.93 17.8154 45.93C19.3661 45.93 20.6279 44.6681 20.6279 43.1175C20.6279 41.5669 19.3661 40.305 17.8154 40.305ZM17.8154 44.055C17.2979 44.055 16.8779 43.635 16.8779 43.1175C16.8779 42.6 17.2979 42.18 17.8154 42.18C18.3329 42.18 18.7529 42.6 18.7529 43.1175C18.7529 43.635 18.3329 44.055 17.8154 44.055Z" fill="#2C5491"/>
<path d="M11.2529 45.93C12.8036 45.93 14.0654 44.6681 14.0654 43.1175C14.0654 41.5669 12.8036 40.305 11.2529 40.305C9.7023 40.305 8.44043 41.5669 8.44043 43.1175C8.44043 44.6681 9.7023 45.93 11.2529 45.93ZM11.2529 42.18C11.7704 42.18 12.1904 42.6 12.1904 43.1175C12.1904 43.635 11.7704 44.055 11.2529 44.055C10.7354 44.055 10.3154 43.635 10.3154 43.1175C10.3154 42.6 10.7354 42.18 11.2529 42.18Z" fill="#2C5491"/>
<path d="M24.3779 46.8675C22.8273 46.8675 21.5654 48.1294 21.5654 49.68C21.5654 51.2306 22.8273 52.4925 24.3779 52.4925C25.9286 52.4925 27.1904 51.2306 27.1904 49.68C27.1904 48.1294 25.9286 46.8675 24.3779 46.8675ZM24.3779 50.6175C23.8604 50.6175 23.4404 50.1975 23.4404 49.68C23.4404 49.1625 23.8604 48.7425 24.3779 48.7425C24.8954 48.7425 25.3154 49.1625 25.3154 49.68C25.3154 50.1975 24.8954 50.6175 24.3779 50.6175Z" fill="#2C5491"/>
<path d="M17.8154 46.8675C16.2648 46.8675 15.0029 48.1294 15.0029 49.68C15.0029 51.2306 16.2648 52.4925 17.8154 52.4925C19.3661 52.4925 20.6279 51.2306 20.6279 49.68C20.6279 48.1294 19.3661 46.8675 17.8154 46.8675ZM17.8154 50.6175C17.2979 50.6175 16.8779 50.1975 16.8779 49.68C16.8779 49.1625 17.2979 48.7425 17.8154 48.7425C18.3329 48.7425 18.7529 49.1625 18.7529 49.68C18.7529 50.1975 18.3329 50.6175 17.8154 50.6175Z" fill="#2C5491"/>
<path d="M11.2529 52.4925C12.8036 52.4925 14.0654 51.2306 14.0654 49.68C14.0654 48.1294 12.8036 46.8675 11.2529 46.8675C9.7023 46.8675 8.44043 48.1294 8.44043 49.68C8.44043 51.2306 9.7023 52.4925 11.2529 52.4925ZM11.2529 48.7425C11.7704 48.7425 12.1904 49.1625 12.1904 49.68C12.1904 50.1975 11.7704 50.6175 11.2529 50.6175C10.7354 50.6175 10.3154 50.1975 10.3154 49.68C10.3154 49.1625 10.7354 48.7425 11.2529 48.7425Z" fill="#2C5491"/>
<path d="M39.3638 14.0737H39.2934C38.9991 11.7684 37.6313 9.7125 35.6138 8.53781V8.14312C35.6138 8.09531 35.5941 8.05312 35.5866 8.00718C35.5763 7.93875 35.5706 7.87031 35.5463 7.80562C35.5238 7.74656 35.4863 7.69875 35.4516 7.64531C35.4206 7.59656 35.3953 7.54687 35.355 7.50468C35.3034 7.44937 35.2406 7.41187 35.1778 7.37062C35.1431 7.34812 35.1178 7.31437 35.0794 7.29656C35.07 7.29187 35.0597 7.28906 35.0513 7.28437C35.0438 7.28156 35.0372 7.27875 35.0297 7.27593C33.0422 6.345 30.6966 6.34406 28.6969 7.27312C28.6922 7.275 28.6875 7.27593 28.6828 7.27875C28.6725 7.28343 28.6631 7.28625 28.6528 7.29093C28.6097 7.31062 28.5816 7.34812 28.5431 7.37343C28.4841 7.41281 28.4241 7.4475 28.3753 7.49812C28.335 7.54218 28.3097 7.59375 28.2778 7.6425C28.2441 7.695 28.2066 7.74187 28.1831 7.80093C28.1588 7.86468 28.1541 7.93312 28.1428 8.00156C28.1353 8.04843 28.1156 8.09062 28.1156 8.13843V8.53406C26.0944 9.70875 24.7238 11.7656 24.4285 14.0728H24.3638C23.8453 14.0728 23.4263 14.4919 23.4263 15.0103V17.8228C23.4263 18.3412 23.8453 18.7603 24.3638 18.7603H39.3638C39.8822 18.7603 40.3013 18.3412 40.3013 17.8228V15.0103C40.3013 14.4928 39.8822 14.0737 39.3638 14.0737ZM28.1156 10.8187V11.2594C28.1156 11.7778 28.5347 12.1969 29.0531 12.1969C29.5716 12.1969 29.9906 11.7778 29.9906 11.2594V8.76937C31.2009 8.34375 32.5341 8.34562 33.7388 8.77125V11.2594C33.7388 11.7778 34.1578 12.1969 34.6763 12.1969C35.1947 12.1969 35.6138 11.7778 35.6138 11.2594V10.8244C36.5522 11.6709 37.1831 12.8194 37.3978 14.0737H26.3241C26.5406 12.8166 27.1735 11.6653 28.1156 10.8187ZM38.4263 16.8862H25.3013V15.9487H38.4263V16.8862Z" fill="#2C5491"/>
<path d="M44.998 26.2557H47.8105C48.329 26.2557 48.748 25.8366 48.748 25.3182C48.748 24.7997 48.329 24.3807 47.8105 24.3807H44.998C44.4796 24.3807 44.0605 24.7997 44.0605 25.3182C44.0605 25.8366 44.4796 26.2557 44.998 26.2557Z" fill="#2C5491"/>
<path d="M47.8105 29.0682H44.0596C43.5411 29.0682 43.1221 29.4872 43.1221 30.0057C43.1221 30.5241 43.5411 30.9432 44.0596 30.9432H47.8105C48.3289 30.9432 48.748 30.5241 48.748 30.0057C48.748 29.4872 48.3289 29.0682 47.8105 29.0682Z" fill="#2C5491"/>
<path d="M47.8105 33.7557H44.998C44.4796 33.7557 44.0605 34.1747 44.0605 34.6932C44.0605 35.2116 44.4796 35.6307 44.998 35.6307H47.8105C48.329 35.6307 48.748 35.2116 48.748 34.6932C48.748 34.1747 48.329 33.7557 47.8105 33.7557Z" fill="#2C5491"/>
<path d="M47.8106 38.4432H45.9365C45.4181 38.4432 44.999 38.8622 44.999 39.3807C44.999 39.8991 45.4181 40.3182 45.9365 40.3182H47.8106C48.329 40.3182 48.7481 39.8991 48.7481 39.3807C48.7481 38.8622 48.329 38.4432 47.8106 38.4432Z" fill="#2C5491"/>
<path d="M47.8105 43.1307H44.998C44.4796 43.1307 44.0605 43.5497 44.0605 44.0682C44.0605 44.5866 44.4796 45.0057 44.998 45.0057H47.8105C48.329 45.0057 48.748 44.5866 48.748 44.0682C48.748 43.5497 48.329 43.1307 47.8105 43.1307Z" fill="#2C5491"/>
<path d="M47.8105 47.8182H44.0596C43.5411 47.8182 43.1221 48.2372 43.1221 48.7557C43.1221 49.2741 43.5411 49.6932 44.0596 49.6932H47.8105C48.3289 49.6932 48.748 49.2741 48.748 48.7557C48.748 48.2372 48.3289 47.8182 47.8105 47.8182Z" fill="#2C5491"/>
<path d="M55.3079 7.50188C55.307 7.38282 55.2836 7.2647 55.2376 7.15313C55.1898 7.03782 55.1214 6.93376 55.0342 6.84751L48.4745 0.283132C48.3882 0.195945 48.2842 0.127507 48.1689 0.0796948C48.0545 0.0318823 47.9326 0.00750732 47.8107 0.00750732H17.8154C17.297 0.00750732 16.8779 0.42657 16.8779 0.945007V22.4925H7.50293C5.95231 22.4925 4.69043 23.7544 4.69043 25.305V29.055V53.43V57.18C4.69043 58.7306 5.95231 59.9925 7.50293 59.9925H28.1279C29.6786 59.9925 30.9404 58.7306 30.9404 57.18V56.2388H54.3723C54.8907 56.2388 55.3098 55.8197 55.3098 55.3013V7.51313C55.3098 7.51313 55.3098 7.51313 55.3098 7.5122V7.51126C55.3098 7.50751 55.3079 7.5047 55.3079 7.50188ZM48.7482 3.20907L52.1101 6.57376H48.7482V3.20907ZM6.56543 25.305C6.56543 24.7875 6.98543 24.3675 7.50293 24.3675H28.1279C28.6454 24.3675 29.0654 24.7875 29.0654 25.305V29.055V53.43C29.0654 53.9475 28.6454 54.3675 28.1279 54.3675H7.50293C6.98543 54.3675 6.56543 53.9475 6.56543 53.43V29.055V25.305ZM28.1279 58.1175H7.50293C6.98543 58.1175 6.56543 57.6975 6.56543 57.18V56.0691C6.8598 56.1741 7.17199 56.2425 7.50293 56.2425H28.1279C28.4589 56.2425 28.7711 56.175 29.0654 56.0691V57.18C29.0654 57.6975 28.6454 58.1175 28.1279 58.1175ZM30.9404 53.43V49.6931H39.3704C39.8889 49.6931 40.3079 49.2741 40.3079 48.7556C40.3079 48.2372 39.8889 47.8181 39.3704 47.8181H30.9404V45.0056H39.3704C39.8889 45.0056 40.3079 44.5866 40.3079 44.0681C40.3079 43.5497 39.8889 43.1306 39.3704 43.1306H30.9404V40.3181H39.3704C39.8889 40.3181 40.3079 39.8991 40.3079 39.3806C40.3079 38.8622 39.8889 38.4431 39.3704 38.4431H30.9404V35.6306H39.3704C39.8889 35.6306 40.3079 35.2116 40.3079 34.6931C40.3079 34.1747 39.8889 33.7556 39.3704 33.7556H30.9404V30.9431H39.3704C39.8889 30.9431 40.3079 30.5241 40.3079 30.0056C40.3079 29.4872 39.8889 29.0681 39.3704 29.0681H30.9404V29.055V26.2556H39.3704C39.8889 26.2556 40.3079 25.8366 40.3079 25.3181C40.3079 24.7997 39.8889 24.3806 39.3704 24.3806H30.7717C30.3864 23.2847 29.3523 22.4925 28.1279 22.4925H18.7529V1.88251H46.8732V7.51126C46.8732 8.0297 47.2923 8.44876 47.8107 8.44876H53.4348V54.3647H30.9404V53.43Z" fill="#2C5491"/>
</svg>
