<svg width="60" height="60" viewBox="0 0 60 60" fill="none" xmlns="http://www.w3.org/2000/svg">
<g clip-path="url(#clip0)">
<path d="M59.8898 14.2278C59.6833 13.4599 59.1795 12.8052 58.4901 12.4083C57.8003 12.0095 56.9801 11.9016 56.2107 12.1081C55.4423 12.3151 54.7876 12.8184 54.3907 13.5077L53.8908 14.3777C53.4158 14.1048 52.809 14.2654 52.5312 14.738L49.9916 19.0668L49.1216 18.5669C48.8912 18.4337 48.6168 18.3975 48.36 18.4668C48.1028 18.5367 47.884 18.7056 47.7517 18.937C47.4808 19.4149 47.6458 20.0222 48.1218 20.2966L48.9918 20.7965L40.4932 35.524L38.3935 41.1334L37.3936 43.0027C36.8083 44.0211 36.8708 45.287 37.5538 46.2424L35.3042 49.0017L34.6744 47.4224C34.3902 46.7184 33.7326 46.236 32.9764 46.177C32.2197 46.1174 31.4947 46.4914 31.1047 47.1421L30.7449 47.7519L30.4051 43.7526C30.327 42.8065 29.5942 42.0458 28.652 41.9316C27.7093 41.8179 26.8168 42.3827 26.5156 43.2829L24.0561 50.6616C23.8842 51.1834 24.1654 51.7458 24.6858 51.9216C24.7835 51.967 24.8884 51.9943 24.9959 52.0012C25.4255 52.0026 25.8082 51.7288 25.9459 51.3216L28.3952 43.943L28.7452 48.0019C28.8175 48.8679 29.4399 49.588 30.2865 49.7843C31.133 49.9805 32.0088 49.6075 32.4545 48.8621L32.8246 48.2518L33.4446 49.8219C33.7077 50.4834 34.3029 50.9555 35.0073 51.0604C35.7118 51.1654 36.4187 50.8876 36.8639 50.3315L39.1936 47.3823C39.4514 47.4497 39.717 47.4834 39.9835 47.4824C41.0551 47.4907 42.0501 46.9264 42.5929 46.0022L43.5928 44.3326L47.4022 39.7035L55.9906 24.7959L56.8605 25.2958C57.0924 25.4286 57.2613 25.6478 57.3302 25.906C57.3995 26.1623 57.3634 26.4357 57.2306 26.6656L53.2313 33.5946C53.0804 33.8221 53.0292 34.1014 53.0897 34.368C53.1502 34.634 53.3167 34.864 53.551 35.0041C53.7815 35.1378 54.0558 35.174 54.3126 35.1046C54.5699 35.0348 54.7886 34.8659 54.9209 34.6345L58.9202 27.7055C59.3191 27.0157 59.427 26.1955 59.22 25.4261C59.013 24.6577 58.5097 24.003 57.8203 23.6061L56.9504 23.1062L59.4499 18.7769C59.7228 18.3018 59.5622 17.6955 59.0901 17.4172L59.59 16.5473C59.9996 15.8467 60.108 15.0099 59.8898 14.2278ZM56.1204 14.5076C56.2527 14.2762 56.4724 14.1068 56.7307 14.0379C56.9875 13.9745 57.2589 14.0101 57.4903 14.138C57.7222 14.2703 57.8911 14.49 57.9604 14.7478C58.0239 15.0045 57.9883 15.276 57.8604 15.5074L57.3605 16.3774L55.6205 15.3775L56.1204 14.5076ZM42.4929 42.4232L41.993 42.1332L40.5132 41.273L41.9329 37.4739L45.0823 39.2934L42.4929 42.4232ZM39.4934 45.3124C39.0711 45.018 38.9412 44.4517 39.1936 44.0025L39.6935 43.1331L41.433 44.1329L40.9331 44.9926C40.793 45.2357 40.5577 45.4086 40.2838 45.4696C40.0099 45.5301 39.7233 45.4735 39.4934 45.3124ZM46.2222 37.654L42.7628 35.6544L50.7615 21.7964L54.2208 23.796L46.2222 37.654ZM55.2207 22.0663L51.7613 20.0667L53.761 16.6073L57.2203 18.607L55.2207 22.0663Z" fill="#2C5491"/>
<path d="M15.7768 44.8124L12.2379 48.3421L10.1181 46.2223C9.72805 45.8347 9.09827 45.8347 8.7082 46.2223C8.51878 46.4103 8.41235 46.6656 8.41235 46.9321C8.41235 47.1987 8.51878 47.4545 8.7082 47.642L10.828 49.7617C11.2029 50.1337 11.7096 50.3422 12.2379 50.3417C12.769 50.3446 13.2802 50.1362 13.6575 49.7617L17.1867 46.2223C17.5265 45.8254 17.5036 45.2342 17.1345 44.8651C16.7649 44.4956 16.1737 44.4726 15.7768 44.8124Z" fill="#2C5491"/>
<path d="M3.99927 47.5019C3.99927 52.196 7.80428 56.0005 12.4978 56.0005C17.1914 56.0005 20.9964 52.196 20.9964 47.5019C20.9964 46.9498 20.5487 46.5021 19.9965 46.5021C19.4444 46.5021 18.9967 46.9498 18.9967 47.5019C18.9967 51.0912 16.0871 54.0008 12.4978 54.0008C8.90859 54.0008 5.99893 51.0912 5.99893 47.5019C5.99893 43.9127 8.90859 41.0031 12.4978 41.0031C13.9048 40.9991 15.2742 41.4556 16.3971 42.3031C16.8389 42.6346 17.4657 42.5448 17.7967 42.103C18.1282 41.6611 18.0389 41.0348 17.597 40.7033C15.0218 38.772 11.5761 38.4615 8.6972 39.9007C5.81781 41.3404 3.99927 44.2833 3.99927 47.5019Z" fill="#2C5491"/>
<path d="M35.9939 8.00863C36.5461 8.00863 36.9938 7.56144 36.9938 7.0088C36.9938 6.45665 36.5461 6.00897 35.9939 6.00897H9.99837C9.44621 6.00897 8.99854 6.45665 8.99854 7.0088V11.0081C8.99854 11.5608 9.44621 12.0079 9.99837 12.0079H35.9939C36.5461 12.0079 36.9938 11.5608 36.9938 11.0081C36.9938 10.456 36.5461 10.0083 35.9939 10.0083H10.9982V8.00863H35.9939Z" fill="#2C5491"/>
<path d="M12.9976 14.0076C12.4455 14.0076 11.9978 14.4552 11.9978 15.0074C11.9978 15.56 12.4455 16.0072 12.9976 16.0072H32.9942C33.5464 16.0072 33.994 15.56 33.994 15.0074C33.994 14.4552 33.5464 14.0076 32.9942 14.0076H12.9976Z" fill="#2C5491"/>
<path d="M38.9934 21.0065H16.9971C16.445 21.0065 15.9973 21.4541 15.9973 22.0063C15.9973 22.5589 16.445 23.0061 16.9971 23.0061H38.9934C39.5456 23.0061 39.9932 22.5589 39.9932 22.0063C39.9932 21.4541 39.5456 21.0065 38.9934 21.0065Z" fill="#2C5491"/>
<path d="M28.9953 28.0052C28.9953 27.453 28.5476 27.0054 27.9954 27.0054H7.99885C7.4467 27.0054 6.99902 27.453 6.99902 28.0052C6.99902 28.5578 7.4467 29.005 7.99885 29.005H27.9954C28.5476 29.005 28.9953 28.5578 28.9953 28.0052Z" fill="#2C5491"/>
<path d="M38.993 27.0054H31.9942C31.4421 27.0054 30.9944 27.453 30.9944 28.0052C30.9944 28.5578 31.4421 29.005 31.9942 29.005H38.993C39.5452 29.005 39.9929 28.5578 39.9929 28.0052C39.9929 27.453 39.5452 27.0054 38.993 27.0054Z" fill="#2C5491"/>
<path d="M17.9971 34.0042C18.5493 34.0042 18.997 33.557 18.997 33.0044C18.997 32.4522 18.5493 32.0045 17.9971 32.0045H7.99885C7.4467 32.0045 6.99902 32.4522 6.99902 33.0044C6.99902 33.557 7.4467 34.0042 7.99885 34.0042H17.9971Z" fill="#2C5491"/>
<path d="M21.9964 34.0042H28.9952C29.5474 34.0042 29.995 33.557 29.995 33.0044C29.995 32.4522 29.5474 32.0045 28.9952 32.0045H21.9964C21.4443 32.0045 20.9966 32.4522 20.9966 33.0044C20.9966 33.557 21.4443 34.0042 21.9964 34.0042Z" fill="#2C5491"/>
<path d="M44.9923 46.0021C44.4402 46.0021 43.9925 46.4498 43.9925 47.0019V57.0002C43.9925 57.5529 43.5448 58.0001 42.9927 58.0001H2.99949C2.44734 58.0001 1.99966 57.5529 1.99966 57.0002V3.00944C1.99966 2.45729 2.44734 2.00961 2.99949 2.00961H42.9927C43.5448 2.00961 43.9925 2.45729 43.9925 3.00944V21.7865C43.9925 22.3387 44.4402 22.7863 44.9923 22.7863C45.5445 22.7863 45.9922 22.3387 45.9922 21.7865V3.00944C45.9922 1.35298 44.6491 0.00994873 42.9927 0.00994873H2.99949C1.34303 0.00994873 0 1.35298 0 3.00944V57.0002C0 58.6572 1.34303 59.9997 2.99949 59.9997H42.9927C44.6491 59.9997 45.9922 58.6572 45.9922 57.0002V47.0019C45.9922 46.4498 45.5445 46.0021 44.9923 46.0021Z" fill="#2C5491"/>
</g>
<defs>
<clipPath id="clip0">
<rect width="60" height="60" fill="white"/>
</clipPath>
</defs>
</svg>
