<svg width="72" height="86" viewBox="0 0 72 86" fill="none" xmlns="http://www.w3.org/2000/svg">
<path d="M51.64 33.24C58.12 34.84 63.08 37.76 66.52 42C70.04 46.16 71.8 51.2 71.8 57.12C71.8 62.16 70.4 66.88 67.6 71.28C64.88 75.6 60.64 79.12 54.88 81.84C49.12 84.56 41.96 85.92 33.4 85.92C27.48 85.92 21.56 85.28 15.64 84C9.8 82.72 4.68 80.84 0.28 78.36L9.88 57.48C13.32 59.48 17 61 20.92 62.04C24.92 63.08 28.76 63.6 32.44 63.6C35.72 63.6 38.36 63.04 40.36 61.92C42.36 60.8 43.36 59.2 43.36 57.12C43.36 53.28 40.04 51.36 33.4 51.36H22.24V33.96L34.6 21.36H4.6V-5.72205e-06H67.24V17.4L51.64 33.24Z" fill="#F1F5FD"/>
</svg>
