<svg width="30" height="32" fill="none" xmlns="http://www.w3.org/2000/svg"><path d="M27.5 1.533h-25c-1.4 0-2.5 1.1-2.5 2.5v25c0 1.4 1.1 2.5 2.5 2.5h25c1.4 0 2.5-1.1 2.5-2.5v-25c0-1.4-1.1-2.5-2.5-2.5zm-12.5 29v-10h-4v-4h4v-3.5c0-2.85 2.2-5.25 5-5.5h4.5v4h-4c-.85 0-1.5.65-1.5 1.5v3.5h5v4h-5v10h-4zm14-1.5c0 .85-.65 1.5-1.5 1.5H20v-9h5v-6h-5v-2.5c0-.3.2-.5.5-.5h5v-6h-5.55c-3.35.3-5.95 3.15-5.95 6.5v2.5h-4v6h4v9H2.5c-.85 0-1.5-.65-1.5-1.5v-25c0-.85.65-1.5 1.5-1.5h25c.85 0 1.5.65 1.5 1.5v25z" fill="#788BA8"/></svg>