<svg width="20" height="20" viewBox="0 0 20 20" fill="none" xmlns="http://www.w3.org/2000/svg">
<path d="M9.37617 5.43188L13.4399 1.05938L17.6943 6.41564L18.5499 6.49876L13.7249 0.0725098L6.8568 1.76563L2.60742 6.26001L9.37617 5.43188Z" fill="#788BA8"/>
<path d="M17.1531 11.7088V6.41501L13.4163 1.66626L9.5675 5.80751L2.96062 6.61563V11.7063L0 14.1694L1.75812 14.1925L1.7575 19.0925L9.45 19.9275L14.1512 19.4488V14.6175L16.9225 14.565V19.1669L18.3056 19.0256V14.3006H20L17.1531 11.7088ZM3.75125 7.79001L5.64687 7.60188V9.76563L3.75125 9.88439V7.79001ZM5.70875 16.9663L3.80937 16.8563V14.76L5.70875 14.8006V16.9663ZM5.70875 13.4519L3.80937 13.4531V11.3569L5.70875 11.2863V13.4519ZM6.54938 7.48876L8.6375 7.28126V9.55313L6.54938 9.68563V7.48876ZM8.70562 17.1163L6.61313 16.9969V14.7981L8.70562 14.8419V17.1163ZM8.70562 13.4244L6.61313 13.4275V11.2281L8.70562 11.15V13.4244ZM10.4169 7.25751L12.6806 7.48438V9.69938L10.4169 9.55626V7.25751ZM10.4931 11.0581L12.7513 11.1475V13.36L10.4931 13.3544V11.0581ZM12.8612 16.9506L10.61 17.08V14.7888L12.8612 14.7431V16.9506ZM13.285 5.64751C12.8563 5.59064 12.5056 5.01876 12.5056 4.37063C12.5056 3.72251 12.8575 3.25751 13.285 3.33063C13.7063 3.40251 14.0444 3.97251 14.0444 4.60438C14.0444 5.23626 13.7063 5.70314 13.285 5.64751ZM13.9819 7.63251L15.9987 7.83376V9.92689L13.9819 9.79939V7.63251ZM16.0613 13.3844L14.05 13.3794V11.215L16.0613 11.2938V13.3844Z" fill="#788BA8"/>
</svg>
