<svg width="60" height="60" fill="none" xmlns="http://www.w3.org/2000/svg"><path d="M9.378 31.867h16.875a.936.936 0 00.937-.937v-3.75a.937.937 0 00-.937-.938H9.378a.937.937 0 00-.938.938v3.75c0 .518.42.938.938.938zm.937-3.75h15v1.875h-15v-1.875zm14.063 5.625a2.816 2.816 0 00-2.813 2.813 2.816 2.816 0 002.813 2.813 2.816 2.816 0 002.812-2.813 2.816 2.816 0 00-2.812-2.813zm0 3.75a.938.938 0 110-1.875.938.938 0 010 1.876zm-6.563-3.75a2.816 2.816 0 00-2.812 2.813 2.816 2.816 0 002.812 2.813 2.816 2.816 0 002.813-2.813 2.816 2.816 0 00-2.813-2.813zm0 3.75a.938.938 0 11.001-1.875.938.938 0 010 1.876zm-6.562 1.875a2.816 2.816 0 002.812-2.812 2.816 2.816 0 00-2.812-2.813 2.816 2.816 0 00-2.813 2.813 2.816 2.816 0 002.813 2.813zm0-3.75a.938.938 0 110 1.876.938.938 0 010-1.876zm13.125 4.688a2.816 2.816 0 00-2.813 2.813 2.816 2.816 0 002.813 2.812 2.816 2.816 0 002.812-2.813 2.816 2.816 0 00-2.812-2.812zm0 3.75a.938.938 0 110-1.876.938.938 0 010 1.876zm-6.563-3.75a2.816 2.816 0 00-2.812 2.813 2.816 2.816 0 002.812 2.812 2.816 2.816 0 002.813-2.813 2.816 2.816 0 00-2.813-2.812zm0 3.75a.938.938 0 11.001-1.876.938.938 0 010 1.876zm-6.562 1.875a2.816 2.816 0 002.812-2.813 2.816 2.816 0 00-2.812-2.812 2.816 2.816 0 00-2.813 2.813 2.816 2.816 0 002.813 2.812zm0-3.75a.938.938 0 110 1.876.938.938 0 010-1.876zm13.125 4.687a2.816 2.816 0 00-2.813 2.813 2.816 2.816 0 002.813 2.813 2.816 2.816 0 002.812-2.813 2.816 2.816 0 00-2.812-2.813zm0 3.75a.938.938 0 110-1.875.938.938 0 010 1.876zm-6.563-3.75a2.816 2.816 0 00-2.812 2.813 2.816 2.816 0 002.812 2.813 2.816 2.816 0 002.813-2.813 2.816 2.816 0 00-2.813-2.813zm0 3.75a.938.938 0 11.001-1.875.938.938 0 010 1.876zm-6.562 1.875a2.816 2.816 0 002.812-2.812 2.816 2.816 0 00-2.812-2.813A2.816 2.816 0 008.44 49.68a2.816 2.816 0 002.813 2.813zm0-3.75a.938.938 0 110 1.876.938.938 0 010-1.876zm28.111-34.668h-.07a7.533 7.533 0 00-3.68-5.536v-.395c0-.048-.02-.09-.027-.136-.01-.068-.016-.137-.04-.201-.023-.06-.06-.107-.095-.16-.031-.05-.057-.1-.097-.141-.052-.056-.114-.093-.177-.134-.035-.023-.06-.057-.099-.074-.009-.005-.02-.008-.028-.013l-.021-.008a7.536 7.536 0 00-6.333-.003c-.005.002-.01.003-.014.006l-.03.012c-.043.02-.071.057-.11.082-.059.04-.119.074-.168.125-.04.044-.065.096-.097.144-.034.053-.071.1-.095.159-.024.064-.029.132-.04.2-.008.047-.027.09-.027.137v.396a7.536 7.536 0 00-3.688 5.539h-.064a.937.937 0 00-.938.937v2.813c0 .518.42.937.938.937h15a.936.936 0 00.937-.937V15.01a.936.936 0 00-.937-.936zm-11.248-3.255v.44a.937.937 0 101.875 0V8.77a5.66 5.66 0 013.748.002v2.488a.937.937 0 101.875 0v-.435a5.67 5.67 0 011.784 3.25H26.324a5.676 5.676 0 011.792-3.255zm10.31 6.067H25.301v-.937h13.125v.937zm6.572 9.37h2.813a.937.937 0 100-1.875h-2.813a.937.937 0 100 1.875zm2.812 2.812h-3.75a.937.937 0 100 1.875h3.75a.937.937 0 100-1.875zm0 4.688h-2.812a.937.937 0 100 1.875h2.813a.937.937 0 100-1.875zm0 4.687h-1.873a.937.937 0 100 1.875h1.874a.937.937 0 100-1.875zm0 4.687h-2.812a.937.937 0 100 1.876h2.813a.937.937 0 100-1.875zm0 4.688h-3.75a.937.937 0 100 1.875h3.75a.937.937 0 100-1.875z" fill="#2C5491"/><path d="M55.308 7.502a.932.932 0 00-.274-.654L48.474.283A.929.929 0 0048.17.08a.93.93 0 00-.358-.072H17.815a.937.937 0 00-.937.937v21.547H7.503a2.816 2.816 0 00-2.813 2.813V57.18a2.816 2.816 0 002.813 2.813h20.625a2.816 2.816 0 002.812-2.813v-.941h23.432c.519 0 .938-.42.938-.938V7.511l-.002-.01zm-6.56-4.293l3.362 3.365h-3.362V3.209zM6.565 25.305c0-.517.42-.938.938-.938h20.625c.517 0 .937.42.937.938V53.43c0 .517-.42.938-.937.938H7.503a.938.938 0 01-.938-.938V25.305zm21.563 32.813H7.503a.938.938 0 01-.938-.938v-1.11c.295.104.607.172.938.172h20.625c.33 0 .643-.067.937-.173v1.111c0 .517-.42.938-.937.938zm2.812-4.688v-3.737h8.43a.937.937 0 100-1.875h-8.43v-2.812h8.43a.937.937 0 100-1.875h-8.43v-2.813h8.43a.937.937 0 100-1.875h-8.43v-2.812h8.43a.937.937 0 100-1.875h-8.43v-2.813h8.43a.937.937 0 100-1.875h-8.43v-2.813h8.43a.937.937 0 100-1.874h-8.598a2.809 2.809 0 00-2.644-1.889h-9.375V1.883h28.12v5.63c0 .518.42.937.938.937h5.624v45.916H30.94v-.935z" fill="#2C5491"/></svg>