<svg width="60" height="60" fill="none" xmlns="http://www.w3.org/2000/svg"><path d="M39.252 16.149H10.52a.883.883 0 000 1.765h28.734a.883.883 0 100-1.765zM10.52 11.791h14.366a.883.883 0 000-1.765H10.519a.883.883 0 100 1.765zm28.732 9.783H10.52a.883.883 0 100 1.765h28.734a.883.883 0 100-1.765z" fill="#2C5491"/><path d="M17.064 53.867H7.87a2.74 2.74 0 01-2.737-2.737V4.502A2.74 2.74 0 017.87 1.765h26.49c.086 0 .17.008.253.02v5.504a4.508 4.508 0 004.503 4.502h5.504c.012.084.02.168.02.254v15.03a.883.883 0 001.765 0v-15.03c0-.968-.377-1.879-1.062-2.563l-8.42-8.42A3.6 3.6 0 0034.36 0H7.87a4.508 4.508 0 00-4.503 4.502V51.13a4.507 4.507 0 004.502 4.502h9.195a.883.883 0 100-1.765zm26.327-43.84h-4.275a2.74 2.74 0 01-2.737-2.738V3.014l7.012 7.012z" fill="#2C5491"/><path d="M56.362 43.21l-7.479-12.623a1.935 1.935 0 00-2.652-.68l-1.819 1.079a3.456 3.456 0 00-1.524 4.03 2.706 2.706 0 01-1.903-.022c-1.437-.452-2.529-1.36-4.332-.904-3.062.78-2.97.74-3.246.835-1.793-1.02-2.87-1.324-4.774-.588l-1.697.656a2.715 2.715 0 01-2.377-.199l-.463-.273a3.448 3.448 0 00-1.645-3.535l-1.82-1.078a1.938 1.938 0 00-2.651.679L10.5 43.211a1.935 1.935 0 00.68 2.651l1.818 1.078a3.43 3.43 0 001.753.481c.667 0 1.324-.193 1.886-.556l.379.223-.8 1.115a2.958 2.958 0 002.863 4.647 2.95 2.95 0 001.189 1.906 2.933 2.933 0 002.185.518 2.956 2.956 0 004.083 2.22c.2.52.548.99 1.033 1.337a2.962 2.962 0 003.995-.505l2.127 1.26a2.958 2.958 0 004.056-1.038c.213-.36.345-.753.394-1.156l.005.003a2.964 2.964 0 004.46-2.328 2.966 2.966 0 003.667-2.56A2.965 2.965 0 0049.9 51.26a2.94 2.94 0 00.321-2.243 2.946 2.946 0 00-.601-1.172l1.172-.685a3.443 3.443 0 003.072-.22l1.819-1.078a1.934 1.934 0 00.679-2.652zm-42.464 2.212l-1.819-1.078a.17.17 0 01-.06-.234l7.48-12.624a.17.17 0 01.233-.06l1.819 1.078a1.685 1.685 0 01.59 2.31L16.208 44.83a1.687 1.687 0 01-2.309.592zm4.025 5.477a1.194 1.194 0 01-.273-1.666l1.176-1.64a1.198 1.198 0 011.667-.273c.535.384.657 1.132.273 1.667l-1.176 1.638a1.196 1.196 0 01-1.667.274zm3.374 2.423a1.196 1.196 0 01-.273-1.667l1.176-1.639 1.299-1.808a1.186 1.186 0 01.972-.498c.248 0 .489.077.694.224.26.186.43.462.482.777.052.314-.022.63-.208.89l-2.475 3.447a1.193 1.193 0 01-1.667.274zm3.375 2.422a1.196 1.196 0 01-.274-1.666l2.475-3.448a1.196 1.196 0 011.667-.274c.535.384.657 1.132.273 1.667l-1.1 1.532-1.375 1.916a1.195 1.195 0 01-1.666.273zm3.926 1.653a1.196 1.196 0 01-.274-1.665l.824-1.148a1.196 1.196 0 011.666-.273c.535.384.658 1.132.274 1.666l-.823 1.147a1.195 1.195 0 01-1.667.273zm19.784-7.037a1.196 1.196 0 01-1.637.42l-7.813-4.63a.883.883 0 10-.9 1.52l5.907 3.498a1.194 1.194 0 11-1.218 2.057l-5.91-3.502a.883.883 0 10-.9 1.52l4.352 2.578h.001a1.194 1.194 0 11-1.219 2.056l-2.335-1.384h-.002l-1.704-1.01a.882.882 0 10-.9 1.518l1.705 1.01a1.194 1.194 0 11-1.218 2.056l-1.989-1.178a2.963 2.963 0 00-.758-4.012 2.942 2.942 0 00-1.23-.512 2.964 2.964 0 00-1.045-3.442 2.95 2.95 0 00-2.184-.518 2.938 2.938 0 00-1.19-1.904 2.965 2.965 0 00-3.83.322 2.941 2.941 0 00-.843-.936 2.964 2.964 0 00-3.272-.12l-.404-.238 5.55-9.37.265.155a4.469 4.469 0 003.912.325l1.696-.656c.971-.375 1.507-.4 2.467.054a3.951 3.951 0 00-1.002 2.632v3.913c0 1.04.846 1.886 1.884 1.886h.003a3.877 3.877 0 002.758-1.142c.43-.429.747-.94.937-1.5 1.14.675 10.555 6.25 11.647 6.898.274.162.47.422.548.731.08.309.033.63-.13.905zm6.401-6.016l-1.819 1.078c-.8.473-1.835.208-2.308-.591l-2.782-4.696a.883.883 0 00-1.519.9l2.782 4.695c.052.089.109.173.168.255l-.774.451a4.474 4.474 0 00-.45.306L36.09 39.64a.883.883 0 00-1.332.76c-.01.052.09.959-.627 1.676a2.12 2.12 0 01-1.51.626h-.002a.12.12 0 01-.12-.121v-3.914c0-1.022.704-1.885 1.655-2.126l2.932-.741c1.064-.27 1.665.299 3.257.838a4.462 4.462 0 003.375-.055l.533.9a.882.882 0 101.519-.9l-1.05-1.771a1.685 1.685 0 01.592-2.309l1.819-1.077a.17.17 0 01.233.06l7.48 12.623a.17.17 0 01-.06.234z" fill="#2C5491"/></svg>