<svg width="72" height="86" fill="none" xmlns="http://www.w3.org/2000/svg"><path d="M51.64 33.24c6.48 1.6 11.44 4.52 14.88 8.76 3.52 4.16 5.28 9.2 5.28 15.12 0 5.04-1.4 9.76-4.2 14.16-2.72 4.32-6.96 7.84-12.72 10.56-5.76 2.72-12.92 4.08-21.48 4.08-5.92 0-11.84-.64-17.76-1.92C9.8 82.72 4.68 80.84.28 78.36l9.6-20.88c3.44 2 7.12 3.52 11.04 4.56 4 1.04 7.84 1.56 11.52 1.56 3.28 0 5.92-.56 7.92-1.68 2-1.12 3-2.72 3-4.8 0-3.84-3.32-5.76-9.96-5.76H22.24v-17.4l12.36-12.6h-30V0h62.64v17.4l-15.6 15.84z" fill="#F1F5FD"/></svg>