<svg width="60" height="60" fill="none" xmlns="http://www.w3.org/2000/svg"><path d="M30.663 39.65a.937.937 0 00-1.453.16l-5.936 9.326-12.41-12.41 9.327-5.936a.937.937 0 00.16-1.454l-9.376-9.375a.937.937 0 00-1.325 0l-4.46 4.46A14.424 14.424 0 00.936 34.689c0 3.877 1.51 7.522 4.252 10.265l9.859 9.858a14.42 14.42 0 0010.264 4.252c3.879 0 7.524-1.51 10.265-4.253l4.46-4.46a.935.935 0 000-1.325l-9.374-9.375zm-20.35-17.7l7.885 7.887-2.963 1.885-7.347-7.347 2.425-2.424zm15 35.238a12.556 12.556 0 01-8.94-3.704l-9.858-9.856a12.562 12.562 0 01-3.702-8.94 12.56 12.56 0 013.702-8.94l.048-.047 7.052 7.053-4.743 3.018a.937.937 0 00-.16 1.454L22.775 51.29a.937.937 0 001.453-.16l3.019-4.743 7.052 7.052-.047.047a12.559 12.559 0 01-8.94 3.703zm10.312-5.076l-7.346-7.346 1.885-2.964 7.885 7.886-2.424 2.424zM58.81 1.235a.939.939 0 00-.955-.258l-7.811 2.344a10.207 10.207 0 00-3.169-.508c-4.885 0-9.135 3.47-10.106 8.25l1.839.374c.793-3.91 4.27-6.75 8.267-6.75.956 0 1.909.168 2.835.5a.959.959 0 00.585.016l6.288-1.886-2.082 5.552a.939.939 0 00.027.723 8.346 8.346 0 01.785 3.533c0 4.652-3.785 8.438-8.438 8.438A8.444 8.444 0 0139.14 16.5l-1.718.75a10.315 10.315 0 009.454 6.188c5.686 0 10.313-4.627 10.313-10.313 0-1.362-.267-2.69-.797-3.955l2.612-6.966a.937.937 0 00-.193-.97z" fill="#23529A"/><path d="M36.563 31.875a8.384 8.384 0 01-2.835-.5.932.932 0 00-.585-.016l-6.288 1.887 2.082-5.552a.94.94 0 00-.027-.723 8.344 8.344 0 01-.785-3.534c0-4.651 3.785-8.437 8.438-8.437a8.444 8.444 0 017.736 5.063l1.717-.751a10.315 10.315 0 00-9.453-6.187c-5.686 0-10.313 4.627-10.313 10.313 0 1.362.267 2.69.797 3.955l-2.612 6.965a.937.937 0 001.147 1.228l7.81-2.344c1.038.337 2.102.508 3.17.508 4.886 0 9.136-3.47 10.107-8.25l-1.839-.374c-.793 3.91-4.27 6.749-8.267 6.749z" fill="#23529A"/><path d="M31.875 22.5h1.875v1.875h-1.875V22.5zm3.75 0H37.5v1.875h-1.875V22.5zm3.75 0h1.875v1.875h-1.875V22.5zm2.813-10.312h1.874v1.874h-1.874v-1.874zm3.75 0h1.874v1.874h-1.874v-1.874zm3.75 0h1.874v1.874h-1.874v-1.874z" fill="#23529A"/></svg>