<svg width="60" height="60" fill="none" xmlns="http://www.w3.org/2000/svg"><g clip-path="url(#clip0)" fill="#2C5491"><path d="M1 60.116h48a1 1 0 001-1v-9h7a1 1 0 001-1v-10a1 1 0 00-1-1h-7v-9a1 1 0 00-1-1h-1.835a2.312 2.312 0 00-.409-1.872l-4.519-6.024 2.087-1.565a3.457 3.457 0 001.38-2.962l-.101-1.801a1.462 1.462 0 01.583-1.252l2.086-1.564.878 1.17a.999.999 0 001.4.2l8.25-6.19a3 3 0 00.6-4.2l-.556-.74a3.003 3.003 0 00-4.2-.6l-8.25 6.19a1 1 0 00-.2 1.4l.878 1.17-2.086 1.565a3.455 3.455 0 00-1.38 2.962l.1 1.8a1.46 1.46 0 01-.582 1.252l-2.086 1.566-4.519-6.024a2.319 2.319 0 00-2.035-.935 2.219 2.219 0 00-1.794 1.164l-8.217 15.29H1a1 1 0 00-1 1v10a1 1 0 001 1h7v8H1a1 1 0 00-1 1v10a1 1 0 001 1zm54.845-57.8a1 1 0 011.4.2l.555.74a1 1 0 01-.2 1.4l-7.45 5.59-1.756-2.34 7.45-5.59zM18 50.116h14v8H18v-8zm8-10h14v8H26v-8zm22 18H34v-8h14v8zm8-10H42v-8h14v8zm-8-10H34v-5.823l10.236-2.177H48v8zM34.452 13.774a.209.209 0 01.183-.117l.02-.001a.329.329 0 01.264.141l4.518 6.023-4.125 3.095a1 1 0 001.2 1.6l4.126-3.094 4.518 6.023a.323.323 0 01.055.313.21.21 0 01-.163.142l-19.84 4.22a.325.325 0 01-.317-.137.319.319 0 01-.041-.342l9.602-17.866zm-11.16 19.408a2.29 2.29 0 002.333.892L32 32.718v5.398H18v-8h5.398l-.31.577a2.299 2.299 0 00.203 2.49zM2 34.116h2a1 1 0 100-2H2v-2h14v8H2v-4zm8 6h14v8H10v-8zm-8 10h14v8H2v-8z"/><path d="M13 33.116a1 1 0 00-1-1H8a1 1 0 000 2h4a1 1 0 001-1z"/></g><defs><clipPath id="clip0"><path fill="#fff" d="M0 0h60v60H0z"/></clipPath></defs></svg>