<svg width="75" height="88" fill="none" xmlns="http://www.w3.org/2000/svg"><path d="M46.08 31.64c5.12 0 9.88 1.12 14.28 3.36 4.4 2.24 7.92 5.4 10.56 9.48 2.64 4.08 3.96 8.76 3.96 14.04 0 5.84-1.52 11-4.56 15.48-2.96 4.48-7.04 7.92-12.24 10.32-5.2 2.4-10.96 3.6-17.28 3.6-8.08 0-15.16-1.56-21.24-4.68-6-3.12-10.68-7.76-14.04-13.92C2.16 63.16.48 55.6.48 46.64c0-9.6 1.92-17.92 5.76-24.96 3.92-7.04 9.36-12.4 16.32-16.08C29.6 1.92 37.76.08 47.04.08c5.04 0 9.84.6 14.4 1.8C66 3 69.88 4.6 73.08 6.68l-10.2 19.8c-4.16-2.96-9.24-4.44-15.24-4.44-4.88 0-8.92 1.24-12.12 3.72-3.12 2.4-5.16 5.92-6.12 10.56 4.4-3.12 9.96-4.68 16.68-4.68zm-7.2 36.72c2.56 0 4.64-.76 6.24-2.28 1.6-1.52 2.4-3.6 2.4-6.24s-.8-4.72-2.4-6.24c-1.6-1.6-3.68-2.4-6.24-2.4s-4.64.8-6.24 2.4c-1.6 1.52-2.4 3.6-2.4 6.24s.8 4.72 2.4 6.24c1.6 1.52 3.68 2.28 6.24 2.28z" fill="#F1F5FD"/></svg>