<svg width="30" height="32" viewBox="0 0 30 32" fill="none" xmlns="http://www.w3.org/2000/svg">
<path d="M21.45 0.533203H8.55C3.85002 0.533203 0 4.38322 0 9.0832V21.9832C0 26.6832 3.85002 30.5332 8.55 30.5332H21.45C26.15 30.5332 30 26.6832 30 21.9832V9.0832C30 4.38322 26.15 0.533203 21.45 0.533203ZM29 21.9832C29 26.1332 25.6 29.5332 21.45 29.5332H8.55C4.39998 29.5332 1.00002 26.1332 1.00002 21.9832V9.0832C1.00002 4.93318 4.40004 1.53322 8.55 1.53322H21.45C25.6 1.53322 29 4.93324 29 9.0832V21.9832Z" fill="#788BA8"/>
<path d="M21.45 3.53296H8.55C5.50002 3.53296 3 6.03298 3 9.08296V21.983C3 25.0329 5.50002 27.533 8.55 27.533H21.45C24.5 27.533 27 25.0329 27 21.983V9.08296C27 6.03298 24.5 3.53296 21.45 3.53296ZM26 21.983C26 24.483 23.95 26.5329 21.45 26.5329H8.55C6.04998 26.5329 4.00002 24.4829 4.00002 21.983V9.08296C4.00002 6.58294 6.05004 4.53298 8.55 4.53298H21.45C23.95 4.53298 26 6.583 26 9.08296V21.983Z" fill="#788BA8"/>
<path d="M15 7.53333C10.6 7.53333 7 11.1333 7 15.5333C7 19.9333 10.6 23.5333 15 23.5333C19.4 23.5333 23 19.9333 23 15.5333C23 11.1333 19.4 7.53333 15 7.53333ZM15 22.5333C11.15 22.5333 7.99996 19.3833 7.99996 15.5333C7.99996 11.6833 11.15 8.53329 15 8.53329C18.85 8.53329 22 11.6833 22 15.5333C22 19.3833 18.85 22.5333 15 22.5333Z" fill="#788BA8"/>
<path d="M15 10.0333C11.95 10.0333 9.5 12.4833 9.5 15.5333C9.5 18.5833 11.95 21.0334 15 21.0334C18.0501 21.0334 20.5 18.5834 20.5 15.5333C20.5 12.4833 18.05 10.0333 15 10.0333ZM15 20.0333C12.5 20.0333 10.5 18.0334 10.5 15.5333C10.5 13.0333 12.5 11.0333 15 11.0333C17.5 11.0333 19.5 13.0333 19.5 15.5333C19.5 18.0334 17.5 20.0333 15 20.0333Z" fill="#788BA8"/>
<path d="M23 6.03308C22.15 6.03308 21.5 6.68306 21.5 7.53308C21.5 8.3831 22.15 9.03307 23 9.03307C23.85 9.03307 24.5 8.3831 24.5 7.53308C24.5 6.68306 23.85 6.03308 23 6.03308Z" fill="#788BA8"/>
</svg>
