<svg width="20" height="20" fill="none" xmlns="http://www.w3.org/2000/svg"><path d="M20 5.37L8.385 13.288v5.115L20 10.32V5.37zM7.466 13.11L.019 10.122 0 15.79l7.466 2.798V13.11zm.509-.845l11.713-8-7.667-2.852L.264 9.074l7.711 3.191zm3.493-4.198l-3.064 2.098c-.443.303-1.113.39-1.485.196l-.653-.34c-.35-.183-.278-.558.15-.838l2.967-1.946c.393-.258 1.009-.351 1.385-.21l.701.266c.399.15.403.498-.001.774zm3.96-4.137l.741.194c.42.11.482.396.128.639l-2.682 1.835c-.386.264-1.034.361-1.437.217l-.708-.254c-.38-.136-.375-.446.001-.693l2.617-1.715c.346-.227.943-.327 1.34-.223zM8.556 5.01l2.529-1.577c.336-.21.884-.306 1.233-.215l.646.169c.366.096.392.354.047.577l-2.594 1.678c-.373.241-.965.335-1.313.21l-.614-.219c-.33-.119-.296-.397.066-.623zM3.702 8.036l2.844-1.774c.378-.235.942-.326 1.268-.203l.607.23c.344.13.316.44-.072.691l-2.937 1.9c-.423.274-1.032.36-1.35.194L3.5 8.78c-.302-.157-.208-.49.201-.745z" fill="#788BA8"/></svg>