<svg width="20" height="20" fill="none" xmlns="http://www.w3.org/2000/svg"><path d="M9.376 5.432l4.064-4.373 4.254 5.357.856.083L13.725.073 6.857 1.766 2.607 6.26l6.77-.828z" fill="#788BA8"/><path d="M17.153 11.709V6.415l-3.737-4.749-3.848 4.142-6.607.808v5.09L0 14.17l1.758.024v4.9l7.692.834 4.701-.478v-4.832l2.771-.052v4.602l1.384-.141V14.3H20l-2.847-2.592zM3.751 7.79l1.896-.188v2.164l-1.896.118V7.79zm1.958 9.176l-1.9-.11V14.76l1.9.04v2.166zm0-3.514l-1.9.001v-2.096l1.9-.07v2.165zm.84-5.963l2.088-.208v2.272l-2.088.133V7.489zm2.157 9.627l-2.093-.12v-2.198l2.093.044v2.274zm0-3.692l-2.093.004v-2.2l2.093-.078v2.274zm1.71-6.166l2.265.226V9.7l-2.264-.143V7.258zm.077 3.8l2.258.09v2.212l-2.258-.006v-2.296zm2.368 5.893l-2.251.129v-2.291l2.251-.046v2.208zm.424-11.303c-.429-.057-.78-.63-.78-1.277 0-.648.352-1.113.78-1.04.421.072.76.642.76 1.273 0 .632-.339 1.1-.76 1.044zm.697 1.985l2.017.2v2.094l-2.017-.128V7.633zm2.08 5.751l-2.012-.005v-2.164l2.011.079v2.09z" fill="#788BA8"/></svg>