<svg width="30" height="30" viewBox="0 0 30 30" fill="none" xmlns="http://www.w3.org/2000/svg">
<path d="M21.45 0H8.55C3.85002 0 0 3.85002 0 8.55V21.45C0 26.15 3.85002 30 8.55 30H21.45C26.15 30 30 26.15 30 21.45V8.55C30 3.85002 26.15 0 21.45 0ZM29 21.45C29 25.6 25.6 29 21.45 29H8.55C4.39998 29 1.00002 25.6 1.00002 21.45V8.55C1.00002 4.39998 4.40004 1.00002 8.55 1.00002H21.45C25.6 1.00002 29 4.40004 29 8.55V21.45Z" fill="white"/>
<path d="M21.45 2.99976H8.55C5.50002 2.99976 3 5.49978 3 8.54976V21.4498C3 24.4997 5.50002 26.9998 8.55 26.9998H21.45C24.5 26.9998 27 24.4997 27 21.4498V8.54976C27 5.49978 24.5 2.99976 21.45 2.99976ZM26 21.4498C26 23.9498 23.95 25.9997 21.45 25.9997H8.55C6.04998 25.9997 4.00002 23.9497 4.00002 21.4498V8.54976C4.00002 6.04974 6.05004 3.99978 8.55 3.99978H21.45C23.95 3.99978 26 6.04979 26 8.54976V21.4498Z" fill="white"/>
<path d="M15 7.00012C10.6 7.00012 7 10.6001 7 15.0001C7 19.4001 10.6 23.0001 15 23.0001C19.4 23.0001 23 19.4001 23 15.0001C23 10.6001 19.4 7.00012 15 7.00012ZM15 22.0001C11.15 22.0001 7.99996 18.8501 7.99996 15.0001C7.99996 11.1501 11.15 8.00008 15 8.00008C18.85 8.00008 22 11.1501 22 15.0001C22 18.8501 18.85 22.0001 15 22.0001Z" fill="white"/>
<path d="M15 9.50012C11.95 9.50012 9.5 11.9501 9.5 15.0001C9.5 18.0501 11.95 20.5002 15 20.5002C18.0501 20.5002 20.5 18.0502 20.5 15.0001C20.5 11.9501 18.05 9.50012 15 9.50012ZM15 19.5001C12.5 19.5001 10.5 17.5002 10.5 15.0001C10.5 12.5001 12.5 10.5001 15 10.5001C17.5 10.5001 19.5 12.5001 19.5 15.0001C19.5 17.5002 17.5 19.5001 15 19.5001Z" fill="white"/>
<path d="M23 5.49988C22.15 5.49988 21.5 6.14986 21.5 6.99987C21.5 7.84989 22.15 8.49987 23 8.49987C23.85 8.49987 24.5 7.84989 24.5 6.99987C24.5 6.14986 23.85 5.49988 23 5.49988Z" fill="white"/>
</svg>
