<svg width="60" height="60" fill="none" xmlns="http://www.w3.org/2000/svg"><g clip-path="url(#clip0)" fill="#2C5491"><path d="M17 45a3 3 0 100 6 3 3 0 000-6zm0 4a1 1 0 110-2 1 1 0 010 2z"/><path d="M59 58h-4.244a1.95 1.95 0 00-.44-1.268C52.331 54.334 49 49.622 49 45v-8.352a1.98 1.98 0 001.526-1.332l.61-1.905a2 2 0 00-1.3-2.513l8.195-25.682a4 4 0 10-7.622-2.432l-8.193 25.682a2.007 2.007 0 00-2.513 1.3l-.607 1.9a1.98 1.98 0 00.028 1.275 42.573 42.573 0 00-5.93 4.159l.727-7.265A2.993 2.993 0 0036 27v-2a3 3 0 00-3-3h-1a4.943 4.943 0 00-6-4.886V10a6 6 0 00-12 0v3.592a7.93 7.93 0 00-3.158 2.31A4.953 4.953 0 008 15a4.991 4.991 0 00-4.578 7H3a3 3 0 00-3 3v2a2.993 2.993 0 002.079 2.84L4.645 55.5A4.977 4.977 0 009.62 60h16.76a4.966 4.966 0 003.314-1.269C31.779 59.739 34.582 60 38 60h21a1 1 0 100-2zM52.314 3.392A2 2 0 0156 3.083c.245.47.291 1.02.128 1.525L47.932 30.29l-3.81-1.216 8.192-25.682zM41.608 30.371l7.621 2.429-.608 1.905L41 32.276l.608-1.905zM33 24a1 1 0 011 1v2a1 1 0 01-1 1h-7v-4h7zm-13 0h4v4h-4v-4zm7-5a3 3 0 013 3h-4v-2.8a2.899 2.899 0 011-.2zm-11-9a4 4 0 018 0v7.172a7.912 7.912 0 00-8-4.105V10zM5 20a2.985 2.985 0 015.255-1.954 1 1 0 001.61-.138 5.994 5.994 0 0111.005 1.856 1 1 0 00.754.77.973.973 0 00.376.006V22h-4v-1a1 1 0 10-2 0v19c0 .27-.11.527-.306.712A.957.957 0 0117 41a1 1 0 01-1-1v-7a3.015 3.015 0 00-3-3 3 3 0 00-3 3v3c0 .27-.11.527-.306.712A.957.957 0 019 37a1 1 0 01-1-1V21a1 1 0 10-2 0v1h-.208A2.982 2.982 0 015 20zm-3 5a1 1 0 011-1h3v4H3a1 1 0 01-1-1v-2zm24.38 33H9.62a2.985 2.985 0 01-2.985-2.7L4.105 30H6v6a3 3 0 003 3 3.017 3.017 0 003-3v-3a1 1 0 011-1c.27 0 .528.11.713.306A.965.965 0 0114 33v7a3 3 0 003 3 3.017 3.017 0 003-3V30h4v2.184a3 3 0 102 0V30h5.9l-.925 9.245a18.762 18.762 0 00-4.962 10.631c-.407 3.257.1 5.643 1.56 7.293.118.134.258.24.386.362A2.971 2.971 0 0126.38 58zM26 35a1 1 0 11-2 0 1 1 0 012 0zm25 23h-4.672a9.327 9.327 0 00-.862-.529C43.688 56.487 41 55 41 50c0-6.435 2.685-9.27 2.707-9.293a1 1 0 00-1.414-1.414C42.158 39.427 39 42.67 39 50c0 4.372 1.859 6.675 3.578 8h-4.3a7.88 7.88 0 01-4.034-4.873c-.912-3.732 1.565-7.536 1.59-7.574a1 1 0 00-1.665-1.108c-.122.184-2.984 4.549-1.871 9.142a8.842 8.842 0 002.5 4.3c-2.423-.2-4.554-.713-5.726-2.04-1.055-1.2-1.407-3.067-1.075-5.722.983-7.846 6.675-12.262 12.768-15.825L47 36.29V45c0 5.249 3.618 10.4 5.771 13H51zM9 9a3 3 0 10-6 0 3 3 0 006 0zM5 9a1 1 0 112 0 1 1 0 01-2 0z"/><path d="M33 14a3 3 0 100-6 3 3 0 000 6zm0-4a1 1 0 110 2 1 1 0 010-2zm-4-5a1 1 0 100-2 1 1 0 000 2zM12 5a1 1 0 100-2 1 1 0 000 2z"/></g><defs><clipPath id="clip0"><path fill="#fff" d="M0 0h60v60H0z"/></clipPath></defs></svg>