<svg width="60" height="60" fill="none" xmlns="http://www.w3.org/2000/svg"><g clip-path="url(#clip0)" fill="#2C5491"><path d="M59.89 14.228a2.999 2.999 0 00-1.4-1.82 3 3 0 00-4.1 1.1l-.5.87a1 1 0 00-1.359.36l-2.54 4.329-.87-.5a1.001 1.001 0 00-1.37.37 1 1 0 00.37 1.36l.87.5-8.498 14.727-2.1 5.61-1 1.869a3 3 0 00.16 3.24l-2.249 2.759-.63-1.58a2 2 0 00-3.57-.28l-.36.61-.339-4a2 2 0 00-3.89-.47l-2.459 7.38a1 1 0 00.63 1.26.867.867 0 00.31.08 1 1 0 00.95-.68l2.45-7.379.35 4.059a2 2 0 003.709.86l.37-.61.62 1.57a1.999 1.999 0 003.419.51l2.33-2.95c.257.068.523.101.79.1a3 3 0 002.609-1.48l1-1.67 3.81-4.629 8.588-14.907.87.5a1 1 0 01.37 1.37l-4 6.929a.999.999 0 00.32 1.41.999.999 0 001.37-.37l4-6.93a2.998 2.998 0 00-1.1-4.099l-.87-.5 2.499-4.33a1 1 0 00-.36-1.359l.5-.87c.41-.7.518-1.537.3-2.32zm-3.77.28a1 1 0 01.61-.47 1.05 1.05 0 01.76.1 1 1 0 01.47.61 1.05 1.05 0 01-.1.76l-.5.87-1.74-1 .5-.87zM42.493 42.423l-.5-.29-1.48-.86 1.42-3.8 3.15 1.82-2.59 3.13zm-3 2.89a1 1 0 01-.3-1.31l.5-.87 1.74 1-.5.86a1 1 0 01-1.44.32zm6.73-7.659l-3.46-2 7.998-13.858 3.46 2-7.999 13.858zm8.998-15.588l-3.46-2 2-3.459 3.46 2-2 3.46zM15.777 44.812l-3.54 3.53-2.119-2.12a1 1 0 10-1.41 1.42l2.12 2.12c.375.372.882.58 1.41.58a2 2 0 001.42-.58l3.529-3.54a1 1 0 00-1.41-1.41z"/><path d="M4 47.502A8.498 8.498 0 0012.497 56a8.498 8.498 0 008.498-8.498 1 1 0 00-2 0 6.499 6.499 0 11-6.498-6.499 6.442 6.442 0 013.9 1.3 1 1 0 101.199-1.6 8.5 8.5 0 00-13.598 6.799zM35.994 8.009a1 1 0 100-2H9.998a1 1 0 00-1 1v4a1 1 0 001 .999h25.996a1 1 0 100-2H10.998v-2h24.996zm-22.996 5.999a1 1 0 000 2h19.996a1 1 0 100-2H12.998zm25.995 6.998H16.997a1 1 0 000 2h21.996a1 1 0 100-2zm-9.998 6.999a1 1 0 00-1-1H8a1 1 0 100 2h19.996a1 1 0 001-1zm9.998-1h-6.999a1 1 0 000 2h6.999a1 1 0 100-2zm-20.996 6.999a1 1 0 100-2H8a1 1 0 000 2h9.998zm3.999 0h7a1 1 0 100-2h-7a1 1 0 000 2z"/><path d="M44.992 46.002a1 1 0 00-1 1V57a1 1 0 01-1 1H3a1 1 0 01-1-1V3.01a1 1 0 011-1h39.994a1 1 0 011 1v18.776a1 1 0 002 0V3.01a3 3 0 00-3-3H2.999A3 3 0 000 3.01V57a3 3 0 003 3h39.993a3 3 0 003-3v-9.998a1 1 0 00-1-1z"/></g><defs><clipPath id="clip0"><path fill="#fff" d="M0 0h60v60H0z"/></clipPath></defs></svg>