<svg width="73" height="86" fill="none" xmlns="http://www.w3.org/2000/svg"><path d="M37.8 29.64c11.76 0 20.4 2.48 25.92 7.44 5.6 4.88 8.4 11.32 8.4 19.32 0 5.28-1.4 10.16-4.2 14.64-2.72 4.4-6.96 8-12.72 10.8-5.76 2.72-12.92 4.08-21.48 4.08-5.92 0-11.84-.64-17.76-1.92C10.12 82.72 5 80.84.6 78.36l9.6-20.88c3.52 2 7.2 3.52 11.04 4.56 3.92 1.04 7.72 1.56 11.4 1.56 3.28 0 5.92-.56 7.92-1.68 2.08-1.2 3.12-2.84 3.12-4.92 0-2-.92-3.48-2.76-4.44-1.84-1.04-5.16-1.56-9.96-1.56H6.6l4.2-51h55.8v21.36H34.08l-.6 8.28h4.32z" fill="#F1F5FD"/></svg>