<svg width="73" height="86" fill="none" xmlns="http://www.w3.org/2000/svg"><path d="M72.68 64.04V86H5.36V68.6l30.36-28.08c2.64-2.48 4.4-4.6 5.28-6.36.88-1.76 1.32-3.48 1.32-5.16 0-2.08-.72-3.68-2.16-4.8-1.36-1.2-3.36-1.8-6-1.8-2.56 0-4.96.68-7.2 2.04-2.24 1.36-3.96 3.28-5.16 5.76L.44 19.52c3.2-6 7.88-10.72 14.04-14.16C20.64 1.84 28.08.08 36.8.08c6.64 0 12.52 1.08 17.64 3.24 5.12 2.16 9.12 5.24 12 9.24 2.88 4 4.32 8.6 4.32 13.8 0 4.64-1 9-3 13.08-1.92 4-5.72 8.56-11.4 13.68l-12 10.92h28.32z" fill="#F1F5FD"/></svg>