<svg width="65" height="65" viewBox="0 0 65 65" fill="none" xmlns="http://www.w3.org/2000/svg">
<g clip-path="url(#clip0)">
<path d="M60.6669 12.4759L48.4864 0.295547C48.0921 -0.0985156 47.4531 -0.0985156 47.0589 0.295547L44.5847 2.76974C44.1905 3.16405 44.1905 3.80301 44.5847 4.1972L46.0937 5.70604L44.5392 12.5216L31.065 25.9958L28.6384 23.5692C26.6708 21.6018 23.4694 21.6017 21.5015 23.5692L12.7384 32.3323C12.0314 33.0394 11.7192 34.0486 11.9036 35.0314L13.7366 44.808C13.9687 46.0448 14.9177 46.9939 16.1547 47.2259L25.9311 49.0591C26.9056 49.2414 27.9294 48.9249 28.6303 48.224L37.3933 39.4608C39.3609 37.4932 39.3609 34.2917 37.3933 32.324L34.9668 29.8975L42.365 22.4993C42.7591 22.105 42.7591 21.466 42.365 21.0718C41.9706 20.6777 41.3317 20.6777 40.9375 21.0718L25.3078 36.7013C25.0191 36.9899 24.5497 36.9899 24.2612 36.7013C23.9726 36.4126 23.9725 35.9431 24.2612 35.6547L45.3938 14.5219L46.4405 15.5686L43.9496 18.0595C43.5554 18.4538 43.5554 19.0927 43.9496 19.4869C44.3439 19.881 44.9829 19.881 45.3771 19.4869L48.4408 16.4232L55.2564 14.8686L56.7653 16.3775C57.1542 16.7663 57.8037 16.7663 58.1927 16.3775L60.6669 13.9033C61.0611 13.5091 61.0611 12.8701 60.6669 12.4759ZM22.8335 34.2273C21.7579 35.303 21.7579 37.0533 22.8335 38.129C23.3714 38.6667 24.0777 38.9356 24.7842 38.9356C25.4907 38.9356 26.1971 38.6667 26.735 38.129L33.5389 31.325L35.9655 33.7516C37.146 34.932 37.146 36.8531 35.9655 38.0335L27.2024 46.7966C26.9668 47.0325 26.6305 47.1363 26.3027 47.075L16.5263 45.2419C16.114 45.1645 15.7976 44.8481 15.7202 44.4359L13.8872 34.6595C13.826 34.3319 13.93 33.9955 14.1657 33.7599L22.9287 24.9968C24.1096 23.8162 26.0307 23.8164 27.2107 24.9968L29.6373 27.4234L22.8335 34.2273ZM48.1467 14.4197L46.5427 12.8158L47.7798 7.39185L53.5706 13.1827L48.1467 14.4197ZM57.4792 14.2364L46.7262 3.48334L47.7729 2.43661L58.526 13.1897L57.4792 14.2364Z" fill="#23529A"/>
<path d="M58.9974 51.5083C58.6441 51.0773 58.0081 51.0146 57.577 51.3675C57.146 51.721 57.083 52.3569 57.4363 52.7881C59.8033 55.6758 61.2132 59.2617 61.4611 62.9814H25.6109C26.2274 53.6411 34.0641 46.2044 43.5362 46.2044C47.3115 46.2044 50.9239 47.3622 53.9825 49.5524C54.4354 49.8769 55.0662 49.7729 55.3907 49.3194C55.7153 48.8663 55.611 48.2356 55.1577 47.9112C51.7545 45.4741 47.7358 44.1858 43.5363 44.1858C38.2312 44.1858 33.2351 46.2427 29.468 49.9774C28.896 50.5446 28.3629 51.1408 27.869 51.7621C26.1482 50.9915 24.3127 50.6006 22.408 50.6006C17.9113 50.6006 13.9251 52.8288 11.4956 56.239C10.8427 56.0704 10.1696 55.9837 9.48863 55.9837C5.07333 55.9837 1.48145 59.5757 1.48145 63.9908C1.48145 64.5484 1.93327 65.0001 2.49072 65.0001H62.5091C63.0622 65.0001 63.5236 64.5346 63.5184 63.9816C63.4762 59.4431 61.8709 55.0134 58.9974 51.5083ZM9.05547 62.9813H3.58506C4.06621 60.1579 6.53037 58.0021 9.48863 58.0021C9.79535 58.0021 10.0997 58.0252 10.3995 58.071C9.65685 59.5715 9.18674 61.2297 9.05547 62.9813ZM11.0835 62.9813C11.5964 57.1822 16.478 52.619 22.4079 52.619C23.8878 52.619 25.3175 52.8967 26.6681 53.4438C24.8507 56.2906 23.788 59.5543 23.5879 62.9813H11.0835Z" fill="#23529A"/>
</g>
<defs>
<clipPath id="clip0">
<rect width="65" height="65" fill="white"/>
</clipPath>
</defs>
</svg>
