<svg width="68" height="70" viewBox="0 0 68 70" fill="none" xmlns="http://www.w3.org/2000/svg">
<path d="M66.6169 47.4808C65.3355 45.5973 62.7546 45.0987 60.8653 46.3684L58.1158 48.2085V5.19025H58.3151C59.0392 5.19025 59.6282 4.60127 59.6282 3.87721V1.31305C59.6282 0.588984 59.0392 0 58.3151 0H51.9293C51.3769 0 50.9293 0.447754 50.9293 0.999961C50.9293 1.55217 51.377 1.99992 51.9293 1.99992H57.6281V3.19006H29.5502V1.99992H45.6671C46.2195 1.99992 46.6671 1.55217 46.6671 0.999961C46.6671 0.447754 46.2193 0 45.667 0H28.8632C28.1391 0 27.5501 0.588984 27.5501 1.31305V3.87721C27.5501 4.60127 28.1391 5.19025 28.8632 5.19025H29.3709V18.0351H27.3176V15.5668C27.3176 14.7074 26.6184 14.0082 25.7591 14.0082H18.2084C17.349 14.0082 16.6498 14.7074 16.6498 15.5668V18.035H15.2129C14.3198 18.035 13.5933 18.7615 13.5933 19.6546V42.5884C13.17 42.5615 12.7455 42.547 12.3201 42.547H10.744V42.0272C10.744 40.087 9.16555 38.5086 7.22523 38.5086H4.18475C2.24457 38.5086 0.666016 40.087 0.666016 42.0272V56.3075C0.666016 56.8598 1.11377 57.3074 1.66598 57.3074C2.21818 57.3074 2.66594 56.8597 2.66594 56.3075V42.0272C2.66594 41.1899 3.34721 40.5087 4.18461 40.5087H7.2251C8.0625 40.5087 8.74377 41.1899 8.74377 42.0272V64.528C8.74377 65.3652 8.0625 66.0465 7.2251 66.0465H4.18475C3.34734 66.0465 2.66607 65.3652 2.66607 64.528V62.5659C2.66607 62.0136 2.21832 61.566 1.66611 61.566C1.11391 61.566 0.666152 62.0137 0.666152 62.5659V64.528C0.666152 66.4681 2.24457 68.0466 4.18488 68.0466H7.22537C9.16555 68.0466 10.7441 66.468 10.7441 64.528V64.471L24.5914 69.7147C24.6185 69.7249 24.6459 69.7339 24.6738 69.7419C25.2822 69.9137 25.8903 70 26.493 70C26.8206 70 27.1465 69.9744 27.47 69.9234C27.4703 69.9234 27.471 69.9233 27.4719 69.9232L47.9115 66.9769C47.9166 66.9762 47.9215 66.9754 47.9265 66.9745C49.6738 66.6955 51.3219 65.9571 52.6931 64.8389C52.7055 64.8288 52.7178 64.8182 52.7297 64.8074L65.9406 52.9256C67.4974 51.543 67.7882 49.2023 66.6169 47.4808ZM31.371 5.19025H56.1159V49.5471L47.7954 55.1156L45.0058 54.959L44.9347 54.2448C44.8826 53.7202 44.7651 53.2156 44.5901 52.7394C44.5317 52.5807 44.467 52.4251 44.3963 52.2729C44.2901 52.0447 44.1703 51.8243 44.0378 51.6127C43.7246 51.1127 43.3404 50.6622 42.8988 50.2745H45.7092C46.4075 50.2745 46.9755 49.7064 46.9755 49.0081V44.2906C46.9755 43.5924 46.4075 43.0243 45.7092 43.0243H41.7779C41.0797 43.0243 40.5116 43.5924 40.5116 44.2906V48.9856C40.2589 48.9159 39.9996 48.8614 39.7342 48.8238C39.7257 48.8225 39.7171 48.8214 39.7085 48.8205L39.1589 48.7572V44.2905C39.1589 43.5922 38.5908 43.024 37.8925 43.024H33.9611C33.2629 43.024 32.6948 43.5921 32.6948 44.2905V48.013L31.371 47.8607V5.19025ZM42.5114 48.2744V45.0245H44.9752V48.2744H42.5114ZM37.1587 45.0244V48.2744H34.9634L34.6948 48.2435V45.0244H37.1587ZM18.6499 16.0083H25.3175V18.035H18.6499V16.0083ZM15.5931 20.035H29.3709V23.1623H18.0771C17.4306 23.1623 16.9046 23.6883 16.9046 24.3348V27.3543C16.9046 28.0008 17.4306 28.5268 18.0771 28.5268H29.3709V31.3402H18.0771C17.4306 31.3402 16.9046 31.8661 16.9046 32.5127V35.532C16.9046 36.1785 17.4306 36.7045 18.0771 36.7045H29.3709V39.5179H18.0771C17.4306 39.5179 16.9046 40.0438 16.9046 40.6904V43.0779C16.7348 43.0384 16.5644 43.0015 16.3932 42.9662C16.3125 42.9495 16.2319 42.9337 16.1509 42.9179C16.0563 42.8996 15.9613 42.8824 15.8663 42.8654C15.7752 42.849 15.6844 42.8315 15.5931 42.8165V20.035ZM29.3709 25.1624V26.5267H18.9047V25.1624H29.3709ZM29.3709 33.3401V34.7044H18.9047V33.3401H29.3709ZM18.9047 42.8822V41.5179H29.3709V42.8822H18.9047ZM29.3709 44.8823V47.6305L29.0629 47.5949C28.4168 47.5031 27.7802 47.3763 27.1536 47.2176C25.9389 46.9098 24.7628 46.4784 23.6356 45.9242C23.4857 45.8505 23.3371 45.7743 23.1891 45.6962C22.9473 45.5689 22.7078 45.4367 22.4709 45.2981C22.2964 45.1959 22.1203 45.0978 21.9436 45.0013C21.9053 44.9803 21.867 44.9597 21.8286 44.9392C21.7934 44.9203 21.7584 44.9009 21.7233 44.8823H29.3709ZM64.6079 51.4343L51.4108 63.3035C50.318 64.1895 49.0074 64.7752 47.6182 64.9983L27.1785 67.9446C27.174 67.9453 27.1554 67.9481 27.151 67.9488C26.5395 68.0455 25.9025 68.0049 25.2572 67.8282L10.744 62.3323V44.5472H12.3199C13.0451 44.5472 13.7674 44.5933 14.4836 44.6797C14.6291 44.6972 14.774 44.7165 14.9187 44.7374C14.9397 44.7404 14.9606 44.7437 14.9816 44.7468C15.347 44.801 15.7092 44.8667 16.0683 44.9422C16.18 44.9658 16.2919 44.9896 16.4032 45.0153C16.4588 45.0282 16.5142 45.0417 16.5697 45.055C16.7147 45.09 16.8595 45.1263 17.0038 45.165C17.0297 45.172 17.0559 45.1787 17.0818 45.1858C18.2117 45.4939 19.3117 45.9115 20.365 46.4339C20.3964 46.4495 20.4277 46.4654 20.4591 46.4812C20.593 46.5486 20.7261 46.6181 20.8584 46.6888C20.8987 46.7104 20.9392 46.7316 20.9794 46.7534C21.1387 46.8403 21.2971 46.9288 21.454 47.0206C21.4563 47.022 21.4586 47.0232 21.4609 47.0245C21.886 47.2731 22.318 47.5054 22.7568 47.721C24.6577 48.6553 26.6828 49.2784 28.7952 49.5772C28.8038 49.5785 28.8123 49.5796 28.8209 49.5805L30.2566 49.7458L31.4258 49.8805L34.1223 50.191L34.7914 50.2681C34.7916 50.2681 34.7917 50.2681 34.7918 50.2681L39.4657 50.8062C41.3284 51.0753 42.758 52.569 42.9444 54.4429L42.9791 54.7914L24.2348 52.9646C23.6834 52.9108 23.196 53.3132 23.1424 53.8629C23.089 54.4127 23.4911 54.9017 24.0408 54.9553L43.9118 56.8921C43.9535 56.8999 43.9959 56.906 44.0392 56.9084L48.0173 57.1316C48.036 57.1327 48.0548 57.1331 48.0734 57.1331C48.0932 57.1331 48.1126 57.13 48.1324 57.1287C48.1551 57.1274 48.1777 57.1266 48.2001 57.1237C48.2288 57.12 48.257 57.1137 48.2853 57.1076C48.3074 57.1028 48.3297 57.0989 48.3513 57.0927C48.3814 57.0839 48.4105 57.0721 48.4396 57.0605C48.4581 57.0533 48.477 57.0475 48.4949 57.0392C48.5414 57.0176 48.5865 56.9927 48.6295 56.964L57.672 50.9124L57.6721 50.9123L61.9793 48.0297C62.96 47.3707 64.2987 47.6293 64.9633 48.6061C65.5709 49.4989 65.4201 50.7129 64.6079 51.4343Z" fill="#23529A"/>
<path d="M37.8925 7.87946H33.9611C33.2629 7.87946 32.6948 8.44752 32.6948 9.14588V13.8634C32.6947 14.5616 33.2628 15.1297 33.9611 15.1297H37.8925C38.5907 15.1297 39.1589 14.5616 39.1589 13.8632V9.14588C39.1589 8.44766 38.5908 7.87946 37.8925 7.87946ZM37.1587 13.1296H34.6947V9.87952H37.1587V13.1296Z" fill="#23529A"/>
<path d="M45.7094 7.87946H41.778C41.0798 7.87946 40.5117 8.44752 40.5117 9.14588V13.8634C40.5117 14.5616 41.0796 15.1297 41.778 15.1297H45.7094C46.4076 15.1297 46.9756 14.5616 46.9756 13.8632V9.14588C46.9756 8.44766 46.4076 7.87946 45.7094 7.87946ZM44.9754 13.1296H42.5116V9.87952H44.9754V13.1296Z" fill="#23529A"/>
<path d="M53.5258 7.87946H49.5944C48.8962 7.87946 48.3281 8.44752 48.3281 9.14588V13.8634C48.3281 14.5616 48.8962 15.1297 49.5944 15.1297H53.5258C54.224 15.1297 54.7922 14.5616 54.7922 13.8632V9.14588C54.7922 8.44766 54.2241 7.87946 53.5258 7.87946ZM52.7921 13.1296H50.3282V9.87952H52.7921V13.1296Z" fill="#23529A"/>
<path d="M37.8925 19.5944H33.9611C33.2629 19.5944 32.6948 20.1624 32.6948 20.8608V25.5783C32.6947 26.2766 33.2628 26.8447 33.9611 26.8447H37.8925C38.5907 26.8447 39.1589 26.2766 39.1589 25.5783V20.8608C39.1589 20.1626 38.5908 19.5944 37.8925 19.5944ZM37.1587 24.8448H34.6947V21.5947H37.1587V24.8448Z" fill="#23529A"/>
<path d="M45.7094 19.5944H41.778C41.0798 19.5944 40.5117 20.1624 40.5117 20.8608V25.5783C40.5117 26.2766 41.0796 26.8447 41.778 26.8447H45.7094C46.4076 26.8447 46.9756 26.2766 46.9756 25.5783V20.8608C46.9756 20.1626 46.4076 19.5944 45.7094 19.5944ZM44.9754 24.8448H42.5116V21.5947H44.9754V24.8448Z" fill="#23529A"/>
<path d="M53.5258 19.5944H49.5944C48.8962 19.5944 48.3281 20.1624 48.3281 20.8608V25.5783C48.3281 26.2766 48.8962 26.8447 49.5944 26.8447H53.5258C54.224 26.8447 54.7922 26.2766 54.7922 25.5783V20.8608C54.7922 20.1626 54.2241 19.5944 53.5258 19.5944ZM52.7921 24.8448H50.3282V21.5947H52.7921V24.8448Z" fill="#23529A"/>
<path d="M37.8925 31.3093H33.9611C33.2629 31.3093 32.6948 31.8773 32.6948 32.5757V37.2932C32.6947 37.9914 33.2628 38.5596 33.9611 38.5596H37.8925C38.5907 38.5596 39.1589 37.9915 39.1589 37.2932V32.5757C39.1589 31.8775 38.5908 31.3093 37.8925 31.3093ZM37.1587 36.5596H34.6947V33.3095H37.1587V36.5596Z" fill="#23529A"/>
<path d="M45.7094 31.3093H41.778C41.0798 31.3093 40.5117 31.8773 40.5117 32.5757V37.2932C40.5117 37.9914 41.0796 38.5596 41.778 38.5596H45.7094C46.4076 38.5596 46.9756 37.9915 46.9756 37.2932V32.5757C46.9756 31.8775 46.4076 31.3093 45.7094 31.3093ZM44.9754 36.5596H42.5116V33.3095H44.9754V36.5596Z" fill="#23529A"/>
<path d="M53.5258 31.3093H49.5944C48.8962 31.3093 48.3281 31.8773 48.3281 32.5757V37.2932C48.3281 37.9914 48.8962 38.5596 49.5944 38.5596H53.5258C54.224 38.5596 54.7922 37.9915 54.7922 37.2932V32.5757C54.7922 31.8775 54.2241 31.3093 53.5258 31.3093ZM52.7921 36.5596H50.3282V33.3095H52.7921V36.5596Z" fill="#23529A"/>
<path d="M53.5258 43.0243H49.5944C48.8962 43.0243 48.3281 43.5923 48.3281 44.2906V49.008C48.3281 49.7063 48.8962 50.2745 49.5944 50.2745H53.5258C54.224 50.2745 54.7922 49.7064 54.7922 49.008V44.2906C54.7922 43.5923 54.2241 43.0243 53.5258 43.0243ZM52.7921 48.2743H50.3282V45.0243H52.7921V48.2743Z" fill="#23529A"/>
</svg>
