<svg width="70" height="70" viewBox="0 0 70 70" fill="none" xmlns="http://www.w3.org/2000/svg">
<path d="M67.6667 61.3077V56.6411V27.4744C67.6667 26.8301 67.1443 26.3077 66.5 26.3077H65.3333V15.0389L56 11.0384L46.6667 15.0389V26.3077H45.5C44.8557 26.3077 44.3333 26.8301 44.3333 27.4744V37.9744H43.1667V26.7056L33.8333 22.7051L24.5 26.7056V37.9744C23.8557 37.9744 23.3333 38.4968 23.3333 39.1411V49.6411H22.1667V37.9744H3.5V49.6411C2.85571 49.6411 2.33333 50.1634 2.33333 50.8077V61.3077H0V63.6411H70V61.3077H67.6667ZM5.83333 40.3077H19.8333V49.6411H16.3333V43.8077H9.33333V49.6411H5.83333V40.3077ZM14 46.1411V49.6411H11.6667V46.1411H14ZM23.3333 61.3077H4.66667V57.8077H23.3333V61.3077ZM23.3333 55.4744H4.66667V51.9744H23.3333V55.4744ZM26.8333 28.2432L33.8333 25.2437L40.8333 28.2432V37.9744H37.3333V32.1411H30.3333V37.9744H26.8333V28.2432ZM35 34.4744V37.9744H32.6667V34.4744H35ZM44.3333 61.3077H25.6667V57.8077H44.3333V61.3077ZM44.3333 55.4744H25.6667V51.9744H44.3333V55.4744ZM44.3333 49.6411H25.6667V46.1411H44.3333V49.6411ZM44.3333 43.8077H25.6667V40.3077H44.3333V43.8077ZM49 16.5766L56 13.5771L63 16.5766V26.3077H59.5V20.4744H52.5V26.3077H49V16.5766ZM57.1667 22.8077V26.3077H54.8333V22.8077H57.1667ZM65.3333 61.3077H46.6667V57.8077H65.3333V61.3077ZM65.3333 55.4744H46.6667V51.9744H65.3333V55.4744ZM65.3333 49.6411H46.6667V46.1411H65.3333V49.6411ZM65.3333 43.8077H46.6667V40.3077H65.3333V43.8077ZM65.3333 37.9744H46.6667V34.4744H65.3333V37.9744ZM65.3333 32.1411H46.6667V28.6411H65.3333V32.1411Z" fill="#23529A"/>
<path d="M55.9999 6.35891L42.6836 12.4127L43.6496 14.5361L55.9999 8.92324L68.3503 14.5361L69.3163 12.4127L55.9999 6.35891Z" fill="#23529A"/>
</svg>
