<svg width="70" height="70" viewBox="0 0 70 70" fill="none" xmlns="http://www.w3.org/2000/svg">
<path d="M53.5938 62.3438C56.0066 62.3438 57.9688 60.3816 57.9688 57.9688C57.9688 55.5559 56.0066 53.5938 53.5938 53.5938C51.1809 53.5938 49.2188 55.5559 49.2188 57.9688C49.2188 60.3816 51.1809 62.3438 53.5938 62.3438ZM53.5938 55.7812C54.8002 55.7812 55.7812 56.7623 55.7812 57.9688C55.7812 59.1752 54.8002 60.1562 53.5938 60.1562C52.3873 60.1562 51.4062 59.1752 51.4062 57.9688C51.4062 56.7623 52.3873 55.7812 53.5938 55.7812Z" fill="#23529A"/>
<path d="M64.4755 59.0625H66.7188C67.9252 59.0625 68.9062 58.0814 68.9062 56.875C68.9062 54.1023 68.0969 51.5211 66.7188 49.3325V44.8438C66.7188 40.623 63.2844 37.1875 59.0625 37.1875V30.625H63.4375V24.0625H59.0625C55.4433 24.0625 52.5 27.0058 52.5 30.625V37.1875H52.2309L48.3514 23.6075C48.8753 23.2072 49.2188 22.5837 49.2188 21.875V19.6875C49.2188 18.4811 48.2377 17.5 47.0312 17.5H27.3438C26.1373 17.5 25.1562 18.4811 25.1562 19.6875V21.875C25.1562 22.5837 25.4997 23.2072 26.0236 23.6075L23.2236 33.4064L18.2066 29.8944C19.6809 29.4273 20.9606 28.4987 21.8236 27.2038C22.5728 26.0805 22.9688 24.7723 22.9688 23.4237V15.3125C22.9688 14.1061 21.9877 13.125 20.7812 13.125H7.23844L6.14469 10.9375H3.28125C2.07484 10.9375 1.09375 11.9186 1.09375 13.125V23.4237C1.09375 24.7723 1.48969 26.0805 2.23781 27.2038C3.17953 28.6169 4.60687 29.6231 6.25406 30.0344L7.65625 30.3844V32.4942C7.65625 32.9098 7.77438 33.3145 7.99859 33.6689L15.3125 45.1631V47.5366C10.8795 48.9333 7.65625 53.0808 7.65625 57.9688C7.65625 61.5486 9.39313 64.7227 12.0597 66.7188H1.09375V68.9062H33.9062V66.7188H25.1278C27.5188 64.9283 29.1627 62.1917 29.4755 59.0625H42.7109C43.0227 62.1917 44.6666 64.9283 47.0586 66.7188H42.6562V68.9062H68.9062V66.7188H60.1278C62.5198 64.9283 64.1637 62.1917 64.4755 59.0625ZM54.6875 30.625C54.6875 28.2122 56.6497 26.25 59.0625 26.25H61.25V28.4375H59.0625C57.8561 28.4375 56.875 29.4186 56.875 30.625V37.1875H54.6875V30.625ZM52.5 39.375H59.0625C62.078 39.375 64.5312 41.8283 64.5312 44.8438V46.6386C61.9741 44.1787 58.508 42.6562 54.6875 42.6562H52.5V39.375ZM38.9769 52.5H37.1875V50.3125H39.8989C39.5336 51.0103 39.223 51.7409 38.9769 52.5ZM34.2267 37.9608L35.7733 36.4142L32.492 33.133L30.9455 34.6795L31.8128 35.5469L30.1722 37.1875H28.7941L32.5445 24.0625H41.8327L46.2077 39.375H33.2653L32.1716 38.2812L33.3594 37.0934L34.2267 37.9608ZM30.2684 24.0625L26.518 37.1875H24.418L28.1684 24.0625H30.2684ZM46.2066 24.0625L50.3125 38.4333V39.375H48.4805L44.1055 24.0625H46.2066ZM41.3153 48.125H37.1875V45.9375H41.5625V47.8023C41.4761 47.9063 41.3995 48.0189 41.3153 48.125ZM41.5625 41.5625V43.75H37.1875V41.5625H41.5625ZM43.75 41.5625H50.3125V42.8422C47.8625 43.2228 45.6203 44.2247 43.75 45.6903V41.5625ZM27.3438 19.6875H47.0312L47.0323 21.875H27.3438V19.6875ZM4.79281 13.125L5.88656 15.3125H20.7812V17.5H5.88656L4.79281 19.6875H3.28125V13.125H4.79281ZM8.29719 26.25C7.88922 26.6569 7.65625 27.2212 7.65625 27.7966V28.1302L6.78562 27.9125C5.66672 27.6325 4.69766 26.95 4.05781 25.9897C3.55031 25.2273 3.28125 24.3403 3.28125 23.4237V21.875H6.14469L7.23844 19.6875H20.7812V23.4237C20.7812 24.3403 20.5122 25.2273 20.0047 25.9908C19.3648 26.9511 18.3969 27.6336 17.2769 27.9136L15.8769 28.2636L15.1419 27.7495L14.6016 26.1297C14.1892 24.8927 13.0375 24.0625 11.7359 24.0625C10.9287 24.0625 10.1697 24.3775 9.59984 24.9484L8.29719 26.25ZM9.84375 27.7966L11.1464 26.495C11.5577 26.0827 12.343 26.2697 12.5267 26.8209L13.2956 29.1266L22.5892 35.6322L22.0697 37.4511C21.3128 37.6928 20.6216 38.092 20.0419 38.6258L16.9072 34.253C16.2597 33.3506 15.2119 32.8125 14.1017 32.8125C13.1797 32.8125 12.3134 33.1712 11.6616 33.8242L11.0677 34.417L9.84375 32.4942V27.7966ZM16.4795 42.9209L15.248 40.9861L17.4584 38.7767L18.7141 40.5278C18.6998 40.5617 18.6802 40.5923 18.6659 40.6263L17.8533 42.6562H17.5C17.1292 42.6562 16.7858 42.758 16.4795 42.9209ZM14.0448 39.0961L12.2708 36.3081L13.2081 35.3719C13.7309 34.8491 14.6978 34.9289 15.1298 35.5294L16.1667 36.9764L14.0448 39.0961ZM25.4975 63.3259L24.0078 61.8352L22.4612 63.3817L23.9509 64.8714C22.7413 65.812 21.2822 66.442 19.6875 66.6422V64.5312H17.5V66.6433C15.9053 66.4431 14.4462 65.8131 13.2366 64.8725L14.7262 63.3828L13.1797 61.8363L11.69 63.327C10.7494 62.1173 10.1194 60.6583 9.91922 59.0636H12.0312V56.8761H9.91922C10.1194 55.2814 10.7494 53.8223 11.69 52.6127L13.1797 54.1034L14.7262 52.5569L13.2366 51.0672C14.4462 50.1266 15.9053 49.4966 17.5 49.2964V51.4062H19.6875V49.2942C21.2822 49.4944 22.7413 50.1244 23.9509 51.065L22.4612 52.5547L24.0078 54.1012L25.4975 52.6105C26.4381 53.8202 27.0681 55.2792 27.2683 56.8739H25.1562V59.0614H27.2683C27.0681 60.6572 26.4381 62.1162 25.4975 63.3259ZM29.4755 56.875C28.9253 51.3559 24.255 47.0312 18.5938 47.0312C18.2241 47.0312 17.8598 47.0509 17.5 47.087V44.8438H19.6875C26.3211 44.8438 31.7188 50.2414 31.7198 56.875H29.4755ZM20.1994 42.6825L20.697 41.4378C21.198 40.1844 22.3934 39.375 23.7431 39.375H30.1722L32.3597 41.5625H35V56.875H33.9062C33.9062 49.2078 27.802 42.9548 20.1994 42.6825ZM37.1875 56.875V54.6875H38.4672C38.3567 55.4028 38.2812 56.1291 38.2812 56.875H37.1875ZM52.5 44.8438H54.6875C61.3211 44.8438 66.7188 50.2414 66.7188 56.875H64.4755C63.9253 51.3559 59.255 47.0312 53.5938 47.0312C47.9325 47.0312 43.2622 51.3559 42.712 56.875H40.4688C40.4688 50.2414 45.8664 44.8438 52.5 44.8438ZM44.9192 56.875C45.1194 55.2803 45.7494 53.8213 46.69 52.6116L48.1797 54.1023L49.7262 52.5558L48.2366 51.0661C49.4463 50.1255 50.9053 49.4955 52.5 49.2953V51.4062H54.6875V49.2942C56.2822 49.4944 57.7412 50.1244 58.9509 51.065L57.4613 52.5547L59.0078 54.1012L60.4975 52.6105C61.4381 53.8202 62.0681 55.2792 62.2683 56.8739H60.1562V59.0614H62.2683C62.0681 60.6561 61.4381 62.1152 60.4975 63.3248L59.0078 61.8341L57.4613 63.3806L58.9509 64.8703C57.7412 65.8109 56.2822 66.4409 54.6875 66.6411V64.5312H52.5V66.6433C50.9053 66.4431 49.4463 65.8131 48.2366 64.8725L49.7262 63.3828L48.1797 61.8363L46.69 63.327C45.7494 62.1173 45.1194 60.6583 44.9192 59.0636H47.0312V56.8761H44.9192V56.875Z" fill="#23529A"/>
<path d="M18.5938 53.5938C16.1809 53.5938 14.2188 55.5559 14.2188 57.9688C14.2188 60.3816 16.1809 62.3438 18.5938 62.3438C21.0066 62.3438 22.9688 60.3816 22.9688 57.9688C22.9688 55.5559 21.0066 53.5938 18.5938 53.5938ZM18.5938 60.1562C17.3873 60.1562 16.4062 59.1752 16.4062 57.9688C16.4062 56.7623 17.3873 55.7812 18.5938 55.7812C19.8002 55.7812 20.7812 56.7623 20.7812 57.9688C20.7812 59.1752 19.8002 60.1562 18.5938 60.1562Z" fill="#23529A"/>
<path d="M36.0938 66.7188H40.4688V68.9062H36.0938V66.7188Z" fill="#23529A"/>
</svg>
