<svg width="30" height="32" viewBox="0 0 30 32" fill="none" xmlns="http://www.w3.org/2000/svg">
<path d="M27.5 1.5332H2.50002C1.09998 1.5332 0 2.63318 0 4.03322V29.0332C0 30.4332 1.09998 31.5332 2.50002 31.5332H14H20H27.5C28.9 31.5332 30 30.4332 30 29.0332V4.03322C30 2.63318 28.9 1.5332 27.5 1.5332ZM15 30.5332V20.5332H11V16.5332H15V13.0332C15 10.1832 17.2 7.78322 20 7.5332H24.5V11.5332H20.5C19.6499 11.5332 19 12.1832 19 13.0332V16.5332H24V20.5332H19V30.5332H15V30.5332ZM29 29.0332C29 29.8832 28.35 30.5332 27.5 30.5332H20V21.5332H25V15.5332H20V13.0332C20 12.7332 20.2 12.5332 20.5 12.5332H25.5V6.53318H19.95C16.6 6.83318 14 9.68318 14 13.0332V15.5332H9.99996V21.5332H14V30.5332H2.50002C1.65 30.5332 1.00002 29.8832 1.00002 29.0332V4.03322C1.00002 3.1832 1.65 2.53322 2.50002 2.53322H27.5C28.3501 2.53322 29 3.1832 29 4.03322V29.0332H29Z" fill="#788BA8"/>
</svg>
