<svg width="65" height="625" viewBox="0 0 65 625" fill="none" xmlns="http://www.w3.org/2000/svg">
<path opacity="0.5" d="M21.31 27.5L21.9198 28.2925L22.31 27.9923L22.31 27.5L21.31 27.5ZM21.31 9.9L22.31 9.9L22.31 8.9L21.31 8.9L21.31 9.9ZM-14 9.9L-15 9.9L-15 10.9L-14 10.9L-14 9.9ZM-14 1.98L-14 0.979996L-15 0.979996L-15 1.98L-14 1.98ZM63 1.98L64 1.98L64 0.979999L63 0.979999L63 1.98ZM63 9.9L63 10.9L64 10.9L64 9.9L63 9.9ZM28.46 9.9L28.46 8.9L27.46 8.9L27.46 9.9L28.46 9.9ZM28.46 27.5L27.46 27.5L27.46 27.9981L27.8576 28.2982L28.46 27.5ZM63 53.57L64 53.57L64 53.0719L63.6024 52.7718L63 53.57ZM63 62.37L62.3926 63.1644L64 64.3936L64 62.37L63 62.37ZM25.6 33.77L26.2074 32.9756L25.6003 32.5114L24.993 32.9753L25.6 33.77ZM-14 64.02L-15 64.02L-15 66.0423L-13.393 64.8147L-14 64.02ZM-14 54.67L-14.6098 53.8775L-15 54.1777L-15 54.67L-14 54.67ZM22.31 27.5L22.31 9.9L20.31 9.9L20.31 27.5L22.31 27.5ZM21.31 8.9L-14 8.9L-14 10.9L21.31 10.9L21.31 8.9ZM-13 9.9L-13 1.98L-15 1.98L-15 9.9L-13 9.9ZM-14 2.98L63 2.98L63 0.979999L-14 0.979996L-14 2.98ZM62 1.98L62 9.9L64 9.9L64 1.98L62 1.98ZM63 8.9L28.46 8.9L28.46 10.9L63 10.9L63 8.9ZM27.46 9.9L27.46 27.5L29.46 27.5L29.46 9.9L27.46 9.9ZM27.8576 28.2982L62.3976 54.3682L63.6024 52.7718L29.0624 26.7018L27.8576 28.2982ZM62 53.57L62 62.37L64 62.37L64 53.57L62 53.57ZM63.6075 61.5756L26.2074 32.9756L24.9926 34.5644L62.3926 63.1644L63.6075 61.5756ZM24.993 32.9753L-14.607 63.2253L-13.393 64.8147L26.207 34.5647L24.993 32.9753ZM-13 64.02L-13 54.67L-15 54.67L-15 64.02L-13 64.02ZM-13.3902 55.4625L21.9198 28.2925L20.7002 26.7075L-14.6098 53.8775L-13.3902 55.4625ZM-9.6 89.4034L-10.4728 88.915L-10.4795 88.9274L-9.6 89.4034ZM4.48 74.8834L3.9781 74.0184L3.9702 74.0231L4.48 74.8834ZM44.52 74.8834L45.0298 74.023L45.0219 74.0184L44.52 74.8834ZM58.49 89.4034L57.6129 89.8837L57.6149 89.8873L58.49 89.4034ZM58.6 130.763L57.7253 130.279L57.7229 130.283L58.6 130.763ZM44.52 145.283L44.0148 144.42L44.0102 144.423L44.52 145.283ZM4.37 145.283L3.86018 146.144L3.86482 146.146L4.37 145.283ZM-9.6 130.763L-8.7229 130.283L-8.72536 130.279L-9.6 130.763ZM-3.33001 126.693L-4.20545 127.177L-4.19984 127.187L-3.33001 126.693ZM8.10999 138.243L7.61102 139.11L7.61665 139.113L8.10999 138.243ZM40.78 138.243L40.2866 137.374L40.281 137.377L40.78 138.243ZM52.22 126.693L51.3501 126.2L51.3446 126.21L52.22 126.693ZM52.22 93.5834L51.3446 94.0668L51.3471 94.0712L52.22 93.5834ZM40.78 81.9234L41.2831 81.0591L41.279 81.0567L40.78 81.9234ZM8.11 81.9234L7.61666 81.0535L7.60892 81.0579L7.60127 81.0624L8.11 81.9234ZM-3.33001 93.5834L-4.19984 93.09L-4.20418 93.0977L-4.20839 93.1054L-3.33001 93.5834ZM-13.66 110.193C-13.66 102.72 -12.0088 95.9555 -8.72053 89.8793L-10.4795 88.9274C-13.9379 95.3179 -15.66 102.413 -15.66 110.193L-13.66 110.193ZM-8.72732 89.8916C-5.3647 83.8819 -0.795063 79.1717 4.9898 75.7436L3.9702 74.0231C-2.12494 77.635 -6.94197 82.6049 -10.4727 88.9151L-8.72732 89.8916ZM4.98188 75.7483C10.7575 72.397 17.2553 70.7134 24.5 70.7134L24.5 68.7134C16.9314 68.7134 10.0825 70.4764 3.97812 74.0184L4.98188 75.7483ZM24.5 70.7134C31.7447 70.7134 38.2425 72.397 44.0181 75.7483L45.0219 74.0184C38.9175 70.4764 32.0686 68.7134 24.5 68.7134L24.5 70.7134ZM44.0102 75.7437C49.7931 79.1706 54.3242 83.8781 57.6129 89.8837L59.3671 88.923C55.9092 82.6086 51.1269 77.6361 45.0298 74.0231L44.0102 75.7437ZM57.6149 89.8873C60.9739 95.962 62.66 102.724 62.66 110.193L64.66 110.193C64.66 102.41 62.8995 95.3114 59.3651 88.9195L57.6149 89.8873ZM62.66 110.193C62.66 117.667 61.0087 124.354 57.7253 130.279L59.4746 131.248C62.9379 124.999 64.66 117.973 64.66 110.193L62.66 110.193ZM57.7229 130.283C54.4359 136.285 49.8705 140.993 44.0148 144.42L45.0252 146.146C51.1962 142.534 56.0175 137.561 59.4771 131.244L57.7229 130.283ZM44.0102 144.423C38.2358 147.845 31.7408 149.563 24.5 149.563L24.5 151.563C32.0725 151.563 38.9242 149.762 45.0298 146.144L44.0102 144.423ZM24.5 149.563C17.2593 149.563 10.7255 147.845 4.87518 144.42L3.86482 146.146C10.0411 149.762 16.9274 151.563 24.5 151.563L24.5 149.563ZM4.8798 144.423C-0.903151 140.996 -5.43416 136.289 -8.72291 130.283L-10.4771 131.244C-7.01918 137.558 -2.23686 142.531 3.86019 146.144L4.8798 144.423ZM-8.72536 130.279C-12.0087 124.354 -13.66 117.667 -13.66 110.193L-15.66 110.193C-15.66 117.973 -13.9379 124.999 -10.4747 131.248L-8.72536 130.279ZM-8.40001 110.193C-8.40001 116.434 -7.00728 122.103 -4.20539 127.177L-2.45462 126.21C-5.0794 121.457 -6.40001 116.126 -6.40001 110.193L-8.40001 110.193ZM-4.19984 127.187C-1.32615 132.253 2.61445 136.233 7.61103 139.11L8.60896 137.377C3.92554 134.68 0.239473 130.96 -2.46017 126.2L-4.19984 127.187ZM7.61665 139.113C12.6902 141.991 18.3253 143.423 24.5 143.423L24.5 141.423C18.648 141.423 13.3565 140.069 8.60333 137.374L7.61665 139.113ZM24.5 143.423C30.6746 143.423 36.2756 141.991 41.279 139.11L40.281 137.377C35.6044 140.069 30.3521 141.423 24.5 141.423L24.5 143.423ZM41.2733 139.113C46.3462 136.236 50.2922 132.253 53.0954 127.177L51.3446 126.21C48.7211 130.961 45.0405 134.677 40.2867 137.374L41.2733 139.113ZM53.0898 127.187C55.9684 122.111 57.4 116.439 57.4 110.193L55.4 110.193C55.4 116.121 54.0449 121.449 51.3502 126.2L53.0898 127.187ZM57.4 110.193C57.4 103.947 55.9684 98.2411 53.0929 93.0955L51.3471 94.0712C54.0449 98.899 55.4 104.266 55.4 110.193L57.4 110.193ZM53.0954 93.0999C50.2935 88.0262 46.3505 84.0088 41.2831 81.0591L40.2769 82.7876C45.0361 85.5579 48.7199 89.3138 51.3446 94.0668L53.0954 93.0999ZM41.279 81.0567C36.2756 78.176 30.6746 76.7434 24.5 76.7434L24.5 78.7434C30.3521 78.7434 35.6044 80.0974 40.281 82.79L41.279 81.0567ZM24.5 76.7434C18.3253 76.7434 12.6902 78.176 7.61666 81.0535L8.60334 82.7932C13.3565 80.0974 18.648 78.7434 24.5 78.7434L24.5 76.7434ZM7.60127 81.0624C2.6101 84.0118 -1.32741 88.0255 -4.19984 93.09L-2.46017 94.0767C0.240741 89.3146 3.92989 85.555 8.61872 82.7843L7.60127 81.0624ZM-4.20839 93.1054C-7.00725 98.2493 -8.40001 103.952 -8.40001 110.193L-6.40001 110.193C-6.40001 104.261 -5.07942 98.8908 -2.45162 94.0613L-4.20839 93.1054ZM63 234.338L63 235.338L64 235.338L64 234.338L63 234.338ZM-14 234.338L-15 234.338L-15 235.338L-14 235.338L-14 234.338ZM-14 226.308L-14 225.308L-15 225.308L-15 226.308L-14 226.308ZM21.53 226.308L21.53 227.308L22.53 227.308L22.53 226.308L21.53 226.308ZM21.53 178.128L22.53 178.128L22.53 177.128L21.53 177.128L21.53 178.128ZM-14 178.128L-15 178.128L-15 179.128L-14 179.128L-14 178.128ZM-14 169.988L-14 168.988L-15 168.988L-15 169.988L-14 169.988ZM63 169.988L64 169.988L64 168.988L63 168.988L63 169.988ZM63 178.128L63 179.128L64 179.128L64 178.128L63 178.128ZM28.68 178.128L28.68 177.128L27.68 177.128L27.68 178.128L28.68 178.128ZM28.68 226.308L27.68 226.308L27.68 227.308L28.68 227.308L28.68 226.308ZM63 226.308L64 226.308L64 225.308L63 225.308L63 226.308ZM63 233.338L-14 233.338L-14 235.338L63 235.338L63 233.338ZM-13 234.338L-13 226.308L-15 226.308L-15 234.338L-13 234.338ZM-14 227.308L21.53 227.308L21.53 225.308L-14 225.308L-14 227.308ZM22.53 226.308L22.53 178.128L20.53 178.128L20.53 226.308L22.53 226.308ZM21.53 177.128L-14 177.128L-14 179.128L21.53 179.128L21.53 177.128ZM-13 178.128L-13 169.988L-15 169.988L-15 178.128L-13 178.128ZM-14 170.988L63 170.988L63 168.988L-14 168.988L-14 170.988ZM62 169.988L62 178.128L64 178.128L64 169.988L62 169.988ZM63 177.128L28.68 177.128L28.68 179.128L63 179.128L63 177.128ZM27.68 178.128L27.68 226.308L29.68 226.308L29.68 178.128L27.68 178.128ZM28.68 227.308L63 227.308L63 225.308L28.68 225.308L28.68 227.308ZM62 226.308L62 234.338L64 234.338L64 226.308L62 226.308ZM55.96 310.71L54.96 310.71L54.96 311.71L55.96 311.71L55.96 310.71ZM55.96 283.65L56.96 283.65L56.96 282.65L55.96 282.65L55.96 283.65ZM-14 283.65L-15 283.65L-15 284.65L-14 284.65L-14 283.65ZM-14 275.62L-14 274.62L-15 274.62L-15 275.62L-14 275.62ZM55.96 275.62L55.96 276.62L56.96 276.62L56.96 275.62L55.96 275.62ZM55.96 248.56L55.96 247.56L54.96 247.56L54.96 248.56L55.96 248.56ZM63 248.56L64 248.56L64 247.56L63 247.56L63 248.56ZM63 310.71L63 311.71L64 311.71L64 310.71L63 310.71ZM56.96 310.71L56.96 283.65L54.96 283.65L54.96 310.71L56.96 310.71ZM55.96 282.65L-14 282.65L-14 284.65L55.96 284.65L55.96 282.65ZM-13 283.65L-13 275.62L-15 275.62L-15 283.65L-13 283.65ZM-14 276.62L55.96 276.62L55.96 274.62L-14 274.62L-14 276.62ZM56.96 275.62L56.96 248.56L54.96 248.56L54.96 275.62L56.96 275.62ZM55.96 249.56L63 249.56L63 247.56L55.96 247.56L55.96 249.56ZM62 248.56L62 310.71L64 310.71L64 248.56L62 248.56ZM63 309.71L55.96 309.71L55.96 311.71L63 311.71L63 309.71ZM6.56998 370.41L6.97974 371.323L7.56998 371.057L7.56998 370.41L6.56998 370.41ZM6.56998 327.51L7.56998 327.51L7.56998 326.863L6.97974 326.598L6.56998 327.51ZM-14 318.27L-15 318.27L-15 318.917L-14.4098 319.183L-14 318.27ZM-14 309.8L-13.5843 308.891L-15 308.244L-15 309.8L-14 309.8ZM63 345L64 345L64 344.358L63.4158 344.091L63 345ZM63 353.03L63.4157 353.94L64 353.673L64 353.03L63 353.03ZM-14 388.23L-15 388.23L-15 389.787L-13.5843 389.14L-14 388.23ZM-14 379.65L-14.4098 378.738L-15 379.003L-15 379.65L-14 379.65ZM13.17 367.44L12.17 367.44L12.17 368.982L13.5779 368.353L13.17 367.44ZM54.53 348.96L54.9379 349.873L56.9813 348.96L54.9379 348.047L54.53 348.96ZM13.17 330.48L13.5779 329.567L12.17 328.938L12.17 330.48L13.17 330.48ZM7.56998 370.41L7.56998 327.51L5.56998 327.51L5.56998 370.41L7.56998 370.41ZM6.97974 326.598L-13.5903 317.358L-14.4098 319.183L6.16023 328.423L6.97974 326.598ZM-13 318.27L-13 309.8L-15 309.8L-15 318.27L-13 318.27ZM-14.4158 310.71L62.5842 345.91L63.4158 344.091L-13.5843 308.891L-14.4158 310.71ZM62 345L62 353.03L64 353.03L64 345L62 345ZM62.5842 352.121L-14.4158 387.321L-13.5843 389.14L63.4157 353.94L62.5842 352.121ZM-13 388.23L-13 379.65L-15 379.65L-15 388.23L-13 388.23ZM-13.5903 380.563L6.97974 371.323L6.16023 369.498L-14.4098 378.738L-13.5903 380.563ZM13.5779 368.353L54.9379 349.873L54.122 348.047L12.762 366.527L13.5779 368.353ZM54.9379 348.047L13.5779 329.567L12.762 331.393L54.122 349.873L54.9379 348.047ZM12.17 330.48L12.17 367.44L14.17 367.44L14.17 330.48L12.17 330.48ZM21.31 428.506L21.9198 429.298L22.31 428.998L22.31 428.506L21.31 428.506ZM21.31 410.906L22.31 410.906L22.31 409.906L21.31 409.906L21.31 410.906ZM-14 410.906L-15 410.906L-15 411.906L-14 411.906L-14 410.906ZM-14 402.986L-14 401.986L-15 401.986L-15 402.986L-14 402.986ZM63 402.986L64 402.986L64 401.986L63 401.986L63 402.986ZM63 410.906L63 411.906L64 411.906L64 410.906L63 410.906ZM28.46 410.906L28.46 409.906L27.46 409.906L27.46 410.906L28.46 410.906ZM28.46 428.506L27.46 428.506L27.46 429.004L27.8575 429.304L28.46 428.506ZM63 454.576L64 454.576L64 454.078L63.6024 453.778L63 454.576ZM63 463.376L62.3925 464.17L64 465.399L64 463.376L63 463.376ZM25.6 434.776L26.2074 433.982L25.6003 433.517L24.9929 433.981L25.6 434.776ZM-14 465.026L-15 465.026L-15 467.048L-13.393 465.821L-14 465.026ZM-14 455.676L-14.6099 454.883L-15 455.184L-15 455.676L-14 455.676ZM22.31 428.506L22.31 410.906L20.31 410.906L20.31 428.506L22.31 428.506ZM21.31 409.906L-14 409.906L-14 411.906L21.31 411.906L21.31 409.906ZM-13 410.906L-13 402.986L-15 402.986L-15 410.906L-13 410.906ZM-14 403.986L63 403.986L63 401.986L-14 401.986L-14 403.986ZM62 402.986L62 410.906L64 410.906L64 402.986L62 402.986ZM63 409.906L28.46 409.906L28.46 411.906L63 411.906L63 409.906ZM27.46 410.906L27.46 428.506L29.46 428.506L29.46 410.906L27.46 410.906ZM27.8575 429.304L62.3975 455.374L63.6024 453.778L29.0624 427.708L27.8575 429.304ZM62 454.576L62 463.376L64 463.376L64 454.576L62 454.576ZM63.6074 462.582L26.2074 433.982L24.9925 435.57L62.3925 464.17L63.6074 462.582ZM24.9929 433.981L-14.6071 464.231L-13.393 465.821L26.207 435.571L24.9929 433.981ZM-13 465.026L-13 455.676L-15 455.676L-15 465.026L-13 465.026ZM-13.3902 456.468L21.9198 429.298L20.7002 427.713L-14.6099 454.883L-13.3902 456.468ZM55.96 527.272L54.96 527.272L54.96 528.272L55.96 528.272L55.96 527.272ZM55.96 500.212L56.96 500.212L56.96 499.212L55.96 499.212L55.96 500.212ZM-14 500.212L-15 500.212L-15 501.212L-14 501.212L-14 500.212ZM-14 492.182L-14 491.182L-15 491.182L-15 492.182L-14 492.182ZM55.96 492.182L55.96 493.182L56.96 493.182L56.96 492.182L55.96 492.182ZM55.96 465.122L55.96 464.122L54.96 464.122L54.96 465.122L55.96 465.122ZM63 465.122L64 465.122L64 464.122L63 464.122L63 465.122ZM63 527.272L63 528.272L64 528.272L64 527.272L63 527.272ZM56.96 527.272L56.96 500.212L54.96 500.212L54.96 527.272L56.96 527.272ZM55.96 499.212L-14 499.212L-14 501.212L55.96 501.212L55.96 499.212ZM-13 500.212L-13 492.182L-15 492.182L-15 500.212L-13 500.212ZM-14 493.182L55.96 493.182L55.96 491.182L-14 491.182L-14 493.182ZM56.96 492.182L56.96 465.122L54.96 465.122L54.96 492.182L56.96 492.182ZM55.96 466.122L63 466.122L63 464.122L55.96 464.122L55.96 466.122ZM62 465.122L62 527.272L64 527.272L64 465.122L62 465.122ZM63 526.272L55.96 526.272L55.96 528.272L63 528.272L63 526.272ZM29.34 594.58L28.5823 593.927L28.5775 593.933L29.34 594.58ZM-7.62003 594.14L-8.38552 594.784L-8.38465 594.785L-7.62003 594.14ZM-14 541.56L-14 540.56L-15 540.56L-15 541.56L-14 541.56ZM63 541.56L64 541.56L64 540.56L63 540.56L63 541.56ZM63 549.59L63 550.59L64 550.59L64 549.59L63 549.59ZM35.5 549.59L35.5 548.59L34.5 548.59L34.5 549.59L35.5 549.59ZM-2.78002 588.09L-2.01547 587.445L-2.02184 587.438L-2.78002 588.09ZM28.9 549.59L29.9 549.59L29.9 548.59L28.9 548.59L28.9 549.59ZM-7.51003 549.59L-7.51003 548.59L-8.51003 548.59L-8.51003 549.59L-7.51003 549.59ZM63 615.15L64 615.15L64 614.15L63 614.15L63 615.15ZM63 623.18L63 624.18L64 624.18L64 623.18L63 623.18ZM-14 623.18L-15 623.18L-15 624.18L-14 624.18L-14 623.18ZM-14 615.15L-14 614.15L-15 614.15L-15 615.15L-14 615.15ZM34.5 573.79C34.5 582.749 32.4757 589.408 28.5824 593.927L30.0976 595.233C34.4176 590.219 36.5 583.018 36.5 573.79L34.5 573.79ZM28.5775 593.933C24.7066 598.495 19.0053 600.84 11.3 600.84L11.3 602.84C19.4347 602.84 25.76 600.345 30.1025 595.227L28.5775 593.933ZM11.3 600.84C3.23276 600.84 -2.76248 598.352 -6.8554 593.496L-8.38465 594.785C-3.82425 600.195 2.79386 602.84 11.3 602.84L11.3 600.84ZM-6.85454 593.497C-10.9007 588.683 -13 581.615 -13 572.14L-15 572.14C-15 581.878 -12.846 589.477 -8.38551 594.784L-6.85454 593.497ZM-13 572.14L-13 541.56L-15 541.56L-15 572.14L-13 572.14ZM-14 542.56L63 542.56L63 540.56L-14 540.56L-14 542.56ZM62 541.56L62 549.59L64 549.59L64 541.56L62 541.56ZM63 548.59L35.5 548.59L35.5 550.59L63 550.59L63 548.59ZM34.5 549.59L34.5 573.79L36.5 573.79L36.5 549.59L34.5 549.59ZM-8.51003 571.92C-8.51003 579.163 -6.90671 584.825 -3.53821 588.742L-2.02184 587.438C-4.96001 584.022 -6.51003 578.904 -6.51003 571.92L-8.51003 571.92ZM-3.54455 588.735C-0.153621 592.756 4.81801 594.7 11.19 594.7L11.19 592.7C5.24194 592.7 0.900235 590.904 -2.01551 587.445L-3.54455 588.735ZM11.19 594.7C17.3084 594.7 22.0585 592.809 25.2483 588.886C28.406 585.003 29.9 579.29 29.9 571.92L27.9 571.92C27.9 579.07 26.4423 584.247 23.6966 587.624C20.9831 590.961 16.8782 592.7 11.19 592.7L11.19 594.7ZM29.9 571.92L29.9 549.59L27.9 549.59L27.9 571.92L29.9 571.92ZM28.9 548.59L-7.51003 548.59L-7.51003 550.59L28.9 550.59L28.9 548.59ZM-8.51003 549.59L-8.51003 571.92L-6.51003 571.92L-6.51003 549.59L-8.51003 549.59ZM62 615.15L62 623.18L64 623.18L64 615.15L62 615.15ZM63 622.18L-14 622.18L-14 624.18L63 624.18L63 622.18ZM-13 623.18L-13 615.15L-15 615.15L-15 623.18L-13 623.18ZM-14 616.15L63 616.15L63 614.15L-14 614.15L-14 616.15Z" fill="white" fill-opacity="0.45"/>
</svg>
