<svg width="150" height="63" viewBox="0 0 150 63" fill="none" xmlns="http://www.w3.org/2000/svg">
<path d="M22.6091 25.7704L23.9232 20.8665H25.9425C26.7758 20.8665 27.3848 20.9947 27.8015 21.219C28.2182 21.4434 28.4105 21.7639 28.3464 22.1806C28.2823 22.6614 27.8335 23.0139 27.0002 23.2703C27.3207 23.3345 27.5451 23.4627 27.7374 23.655C27.8976 23.8473 27.9938 24.0716 27.9617 24.3281C27.8976 24.7768 27.6412 25.1294 27.1284 25.3858C26.6156 25.6422 25.9425 25.7704 25.1091 25.7704H22.6091ZM24.1796 23.5588L23.7629 25.0973H25.1091C25.5258 25.0973 25.8784 25.0332 26.1668 24.8729C26.4553 24.7447 26.6156 24.5524 26.6797 24.296C26.7438 24.0716 26.6797 23.8793 26.5194 23.7511C26.3591 23.6229 26.1027 23.5588 25.7502 23.5268L24.1796 23.5588ZM24.3399 22.9178H25.5258C25.9425 22.9178 26.295 22.8537 26.5835 22.7255C26.8399 22.5973 27.0002 22.4049 27.0643 22.2126C27.1604 21.796 26.8079 21.5716 26.0707 21.5716H24.7245L24.3399 22.9178Z" fill="white"/>
<path d="M38.2824 21.5395H35.9747L34.8208 25.7704H33.5388L34.6926 21.5395H32.3849L32.5772 20.8665H38.4748L38.2824 21.5395Z" fill="white"/>
<path d="M43.6348 25.8338C43.122 25.8338 42.7053 25.7376 42.3207 25.6094C41.936 25.4492 41.6476 25.2569 41.4553 24.9684C41.2309 24.6799 41.1347 24.3914 41.1027 24.0389C41.0706 23.7504 41.1027 23.4299 41.2309 23.0453C41.3271 22.6606 41.5194 22.3401 41.7758 22.0196C42.0322 21.6991 42.3527 21.4747 42.7373 21.2504C43.3463 20.9298 44.0515 20.7696 44.8528 20.8016C45.622 20.8016 46.1989 20.9939 46.6477 21.3145C47.0964 21.635 47.3528 22.0837 47.3849 22.6286C47.4169 22.9171 47.3528 23.2376 47.2567 23.5901C47.1605 23.9427 47.0002 24.2953 46.7438 24.5838C46.4874 24.8722 46.1989 25.1286 45.8464 25.353C45.2053 25.6735 44.4681 25.8338 43.6348 25.8338ZM46.0387 23.1735L46.0707 22.8209C46.1028 22.5645 46.0707 22.3401 45.9746 22.1478C45.8784 21.9555 45.7502 21.7952 45.5259 21.667C45.3015 21.5709 45.0451 21.5068 44.7246 21.5068C44.2758 21.5068 43.8912 21.5709 43.5386 21.7311C43.1861 21.8914 42.9296 22.1478 42.7053 22.5004C42.4809 22.853 42.3848 23.2696 42.3207 23.7825C42.2886 24.1991 42.3848 24.5197 42.6091 24.744C42.8335 24.9684 43.1861 25.0966 43.6348 25.0966C44.2438 25.0966 44.7566 24.9684 45.1412 24.6479C45.5259 24.3594 45.7823 23.9107 45.9105 23.3658L46.0387 23.1735Z" fill="white"/>
<path d="M56.4877 20.8665H57.8339L56.4877 25.7704H55.2057L56.1352 22.3408L52.0005 25.7704H50.6543L51.9684 20.8665H53.2505L52.321 24.296L56.4877 20.8665Z" fill="white"/>
<path d="M66.6482 25.7704H65.3661L65.943 23.5909H62.6417L62.0647 25.7704H60.7827L62.0968 20.8665H63.3789L62.834 22.9178H66.1353L66.6802 20.8665H67.9623L66.6482 25.7704Z" fill="white"/>
<path d="M77.2574 21.5395H74.9496L73.7958 25.7704H72.5137L73.6675 21.5395H71.3598L71.5521 20.8665H77.4497L77.2574 21.5395Z" fill="white"/>
<path d="M84.7579 23.5569H81.7129L81.2962 25.0634H84.854L84.6617 25.7365H79.7898L81.1039 20.8325H85.9758L85.7835 21.5056H82.2578L81.9052 22.8518H84.9502L84.7579 23.5569Z" fill="white"/>
<path d="M90.2704 23.9434L89.7896 25.7704H88.5075L89.8216 20.8665H92.4819C93.2832 20.8665 93.8922 20.9947 94.373 21.2831C94.8217 21.5716 95.014 21.9242 94.982 22.4049C94.9179 22.8857 94.6294 23.2703 94.0845 23.5268C93.5396 23.8152 92.8345 23.9434 91.9371 23.9434H90.2704ZM90.4306 23.2703H91.905C92.3858 23.2703 92.7704 23.2062 93.0589 23.046C93.3473 22.8857 93.5396 22.6934 93.6038 22.4049C93.6679 22.1485 93.5717 21.9562 93.3794 21.796C93.1871 21.6357 92.8986 21.5716 92.514 21.5395H90.9114L90.4306 23.2703Z" fill="white"/>
<path d="M103.957 24.1675C103.828 24.6804 103.476 25.097 102.867 25.3855C102.29 25.674 101.553 25.8342 100.719 25.8342C100.239 25.8342 99.8219 25.7381 99.4373 25.6099C99.0847 25.4816 98.7962 25.2573 98.5719 25.0009C98.3475 24.7445 98.2513 24.4239 98.2193 24.0714C98.1872 23.8149 98.2513 23.4624 98.3795 23.0137C98.5078 22.5649 98.7321 22.1803 99.0526 21.8277C99.4052 21.4752 99.7898 21.2187 100.303 21.0264C100.783 20.8341 101.328 20.77 101.937 20.77C102.707 20.77 103.283 20.9303 103.732 21.2187C104.181 21.5072 104.405 21.9239 104.437 22.4367H103.155C103.123 22.0841 103.027 21.8277 102.803 21.6675C102.578 21.5072 102.29 21.4431 101.873 21.4111C101.296 21.4111 100.815 21.5393 100.431 21.7957C100.046 22.0841 99.7898 22.4688 99.6616 22.9816L99.5655 23.4303L99.5334 23.7829C99.5014 24.0073 99.5334 24.2316 99.5975 24.4239C99.6616 24.6162 99.8219 24.7765 100.014 24.8727C100.207 24.9688 100.463 25.0329 100.783 25.0329C101.745 25.065 102.386 24.7445 102.675 24.0714L103.957 24.1675Z" fill="white"/>
<path d="M113.796 21.5395H111.488L110.335 25.7704H109.053L110.206 21.5395H107.899L108.091 20.8665H113.989L113.796 21.5395Z" fill="white"/>
<path d="M118.124 23.9434L117.643 25.7704H116.361L117.675 20.8665H120.335C121.136 20.8665 121.745 20.9947 122.226 21.2831C122.675 21.5716 122.867 21.9242 122.835 22.4049C122.771 22.8857 122.483 23.2703 121.938 23.5268C121.393 23.8152 120.688 23.9434 119.79 23.9434H118.124ZM118.316 23.2703H119.79C120.271 23.2703 120.656 23.2062 120.944 23.046C121.233 22.8857 121.425 22.6934 121.489 22.4049C121.553 22.1485 121.457 21.9562 121.265 21.796C121.072 21.6357 120.784 21.5716 120.399 21.5395H118.797L118.316 23.2703Z" fill="white"/>
<path d="M128.7 25.8338C128.187 25.8338 127.771 25.7376 127.386 25.6094C127.002 25.4492 126.713 25.2569 126.521 24.9684C126.296 24.6799 126.2 24.3914 126.168 24.0389C126.136 23.7504 126.168 23.4299 126.296 23.0453C126.393 22.6606 126.585 22.3401 126.841 22.0196C127.098 21.6991 127.418 21.4747 127.803 21.2504C128.412 20.9298 129.117 20.7696 129.918 20.8016C130.688 20.8016 131.264 20.9939 131.713 21.3145C132.162 21.635 132.418 22.0837 132.45 22.6286C132.482 22.9171 132.418 23.2376 132.322 23.5901C132.226 23.9427 132.066 24.2953 131.809 24.5838C131.553 24.8722 131.264 25.1286 130.912 25.353C130.239 25.6735 129.534 25.8338 128.7 25.8338ZM131.072 23.1735L131.104 22.8209C131.136 22.5645 131.104 22.3401 131.008 22.1478C130.912 21.9555 130.784 21.7952 130.559 21.667C130.335 21.5709 130.079 21.5068 129.758 21.5068C129.309 21.5068 128.925 21.5709 128.572 21.7311C128.22 21.8914 127.963 22.1478 127.739 22.5004C127.514 22.853 127.418 23.2696 127.354 23.7825C127.322 24.1991 127.418 24.5197 127.643 24.744C127.867 24.9684 128.22 25.0966 128.668 25.0966C129.277 25.0966 129.758 24.9684 130.175 24.6479C130.559 24.3594 130.816 23.9107 130.944 23.3658L131.072 23.1735Z" fill="white"/>
<path d="M141.522 20.8657H142.868L141.554 25.7697H140.272L141.201 22.3401L137.067 25.7697H135.72L137.034 20.8657H138.317L137.387 24.2953L141.522 20.8657ZM141.906 19.6157C141.874 19.9042 141.682 20.1606 141.361 20.3209C141.041 20.4811 140.624 20.5773 140.176 20.5773C139.727 20.5773 139.342 20.4811 139.054 20.3209C138.765 20.1606 138.637 19.9042 138.637 19.6478H139.567C139.535 19.9683 139.759 20.1286 140.176 20.1286C140.4 20.1286 140.592 20.0965 140.72 20.0003C140.849 19.9042 140.945 19.808 140.977 19.6478L141.906 19.6157Z" fill="white"/>
<path d="M17.4163 24.6475H15.0445L14.3393 25.8014H13.2816L16.3586 20.8975H17.5125L18.9869 25.8014H17.7048L17.4163 24.6475ZM15.4932 23.9424H17.2561L16.7432 21.9231L15.4932 23.9424Z" fill="white"/>
<path d="M39.1474 0.0649414H30.2049L19.0508 17.6935H29.019L31.2626 13.7832L31.9678 17.5332L42.3205 17.6935L39.1474 0.0649414Z" fill="white"/>
<path d="M44.308 28.9741L11.9035 29.2305L1.99945 44.936H13.2176L18.8908 35.6409H34.1155L35.4937 44.936H47.1926L44.308 28.9741Z" fill="white"/>
<path d="M69.4684 17.6927H58.09L61.9362 0.0961914H73.3146L69.4684 17.6927Z" fill="white"/>
<path d="M111.969 17.6285H100.399C100.399 17.6285 103.924 0 123.059 0C141.649 0 141.778 17.5965 141.778 17.5965L130.335 17.6285C130.335 17.6285 128.733 9.80788 122.931 9.61557C113.86 9.32711 111.969 17.6285 111.969 17.6285Z" fill="white"/>
<path d="M129.021 28.9741H140.303C140.303 28.9741 136.585 45.0001 117.45 45.0001C98.86 45.0001 99.7895 28.9741 99.7895 28.9741H111.424C111.424 28.9741 112.45 35.5448 119.437 35.5448C127.418 35.5448 129.021 28.9741 129.021 28.9741Z" fill="white"/>
<path d="M95.2061 17.6927H74.5005L87.6098 0.0961914H99.0523L95.2061 17.6927Z" fill="white"/>
<path d="M81.3274 28.9741H92.7058L88.8596 44.968H77.4811L81.3274 28.9741Z" fill="white"/>
<path d="M56.2633 28.9741H76.2957L62.5134 44.968H52.4171L56.2633 28.9741Z" fill="white"/>
<path d="M3.20831 61.048C2.66431 61.048 2.19497 60.952 1.80031 60.76C1.40564 60.5627 1.10431 60.2907 0.896305 59.944C0.693639 59.592 0.592305 59.184 0.592305 58.72C0.592305 58.1013 0.730972 57.536 1.00831 57.024C1.29097 56.512 1.69097 56.1067 2.20831 55.808C2.72564 55.504 3.32297 55.352 4.00031 55.352C4.44831 55.352 4.84564 55.424 5.19231 55.568C5.53897 55.7067 5.80564 55.9067 5.99231 56.168L5.57631 56.536C5.21897 56.0987 4.67764 55.88 3.95231 55.88C3.40297 55.88 2.91764 56.008 2.49631 56.264C2.07497 56.5147 1.74964 56.8533 1.52031 57.28C1.29097 57.7067 1.17631 58.176 1.17631 58.688C1.17631 59.248 1.35497 59.6933 1.71231 60.024C2.07497 60.3547 2.58964 60.52 3.25631 60.52C3.98697 60.52 4.57897 60.2987 5.03231 59.856L5.37631 60.248C5.13097 60.504 4.81897 60.7013 4.44031 60.84C4.06164 60.9787 3.65097 61.048 3.20831 61.048ZM12.133 55.912H10.149L9.14099 61H8.56499L9.57299 55.912H7.61299L7.71699 55.4H12.237L12.133 55.912ZM16.3881 55.4C17.0175 55.4 17.5081 55.5387 17.8601 55.816C18.2121 56.0933 18.3881 56.4827 18.3881 56.984C18.3881 57.6987 18.1561 58.2533 17.6921 58.648C17.2335 59.0373 16.5988 59.232 15.7881 59.232H14.2041L13.8441 61H13.2601L14.3801 55.4H16.3881ZM15.7961 58.712C16.4361 58.712 16.9295 58.5707 17.2761 58.288C17.6228 58.0053 17.7961 57.5893 17.7961 57.04C17.7961 56.672 17.6708 56.392 17.4201 56.2C17.1695 56.008 16.8095 55.912 16.3401 55.912H14.8681L14.3001 58.712H15.7961ZM22.7709 61.048C22.2269 61.048 21.7602 60.952 21.3709 60.76C20.9815 60.5627 20.6855 60.2907 20.4829 59.944C20.2802 59.592 20.1789 59.184 20.1789 58.72C20.1789 58.1067 20.3175 57.544 20.5949 57.032C20.8722 56.5147 21.2669 56.1067 21.7789 55.808C22.2909 55.504 22.8829 55.352 23.5549 55.352C24.0989 55.352 24.5655 55.4507 24.9549 55.648C25.3442 55.84 25.6402 56.112 25.8429 56.464C26.0509 56.8107 26.1549 57.216 26.1549 57.68C26.1549 58.2933 26.0135 58.8587 25.7309 59.376C25.4535 59.888 25.0589 60.296 24.5469 60.6C24.0349 60.8987 23.4429 61.048 22.7709 61.048ZM22.8269 60.52C23.3655 60.52 23.8429 60.3947 24.2589 60.144C24.6749 59.888 24.9949 59.5467 25.2189 59.12C25.4482 58.688 25.5629 58.216 25.5629 57.704C25.5629 57.1493 25.3842 56.7067 25.0269 56.376C24.6695 56.0453 24.1602 55.88 23.4989 55.88C22.9602 55.88 22.4829 56.008 22.0669 56.264C21.6509 56.5147 21.3282 56.856 21.0989 57.288C20.8749 57.7147 20.7629 58.1813 20.7629 58.688C20.7629 59.248 20.9415 59.6933 21.2989 60.024C21.6562 60.3547 22.1655 60.52 22.8269 60.52ZM29.2377 55.4H29.8137L28.8857 60.04L33.3977 55.4H33.9337L32.8137 61H32.2377L33.1737 56.368L28.6537 61H28.1177L29.2377 55.4ZM42.7674 55.4L41.6474 61H41.0794L41.9674 56.56L39.0714 60.288H38.7914L37.2954 56.488L36.3994 61H35.8314L36.9514 55.4H37.4314L39.0474 59.56L42.2474 55.4H42.7674ZM48.9883 55.4H53.0843L52.9803 55.904H49.4603L49.1003 57.736H50.9323C51.5083 57.736 51.943 57.8533 52.2363 58.088C52.5296 58.3227 52.6763 58.672 52.6763 59.136C52.6763 59.7227 52.4523 60.1813 52.0043 60.512C51.5616 60.8373 50.9456 61 50.1563 61H47.8683L48.9883 55.4ZM50.2363 60.528C50.8123 60.528 51.2603 60.4107 51.5803 60.176C51.9056 59.936 52.0683 59.6027 52.0683 59.176C52.0683 58.84 51.959 58.5947 51.7403 58.44C51.5216 58.2853 51.175 58.208 50.7003 58.208H49.0043L48.5403 60.528H50.2363ZM60.1567 55.4L56.6767 60.128C56.2021 60.7787 55.6714 61.104 55.0847 61.104C54.8501 61.104 54.6207 61.0507 54.3967 60.944L54.6127 60.48C54.7887 60.5493 54.9487 60.584 55.0927 60.584C55.4821 60.584 55.8367 60.376 56.1567 59.96L56.3967 59.672L54.9807 55.4H55.5967L56.7967 59.176L59.5487 55.4H60.1567ZM65.4224 60.488H66.2704L65.9104 62.256H65.3584L65.6144 61H60.7264L60.4624 62.256H59.9184L60.2784 60.488H60.5264C60.8997 60.4667 61.2197 60.168 61.4864 59.592C61.7584 59.0107 62.0117 58.2133 62.2464 57.2L62.6624 55.4H66.4384L65.4224 60.488ZM62.7504 57.296C62.553 58.144 62.3504 58.8427 62.1424 59.392C61.9344 59.936 61.6917 60.3013 61.4144 60.488H64.8384L65.7504 55.912H63.0704L62.7504 57.296ZM74.0061 55.4L70.5261 60.128C70.0514 60.7787 69.5208 61.104 68.9341 61.104C68.6994 61.104 68.4701 61.0507 68.2461 60.944L68.4621 60.48C68.6381 60.5493 68.7981 60.584 68.9421 60.584C69.3314 60.584 69.6861 60.376 70.0061 59.96L70.2461 59.672L68.8301 55.4H69.4461L70.6461 59.176L73.3981 55.4H74.0061ZM82.9102 55.4L81.7902 61H74.9342L76.0542 55.4H76.6302L75.6222 60.488H78.1822L79.1982 55.4H79.7742L78.7662 60.488H81.3262L82.3342 55.4H82.9102ZM82.7662 60.488L82.4142 62.256H81.8622L82.1102 61H81.2062L81.3182 60.488H82.7662ZM86.5683 55.912L86.1683 57.904H89.0723L88.9763 58.408H86.0723L85.6563 60.488H89.0243L88.9203 61H84.9683L86.0883 55.4H89.9283L89.8243 55.912H86.5683ZM92.9617 55.912L92.5617 57.904H95.4657L95.3697 58.408H92.4657L92.0497 60.488H95.4177L95.3137 61H91.3617L92.4817 55.4H96.3217L96.2177 55.912H92.9617ZM105.033 58.112C105.321 58.192 105.542 58.328 105.697 58.52C105.852 58.712 105.929 58.96 105.929 59.264C105.929 59.824 105.716 60.2533 105.289 60.552C104.868 60.8507 104.284 61 103.537 61H100.937L102.057 55.4H104.449C104.993 55.4 105.414 55.5013 105.713 55.704C106.017 55.9067 106.169 56.2027 106.169 56.592C106.169 56.9707 106.065 57.2933 105.857 57.56C105.649 57.8213 105.374 58.0053 105.033 58.112ZM102.545 55.888L102.137 57.92H103.921C104.417 57.92 104.814 57.816 105.113 57.608C105.412 57.3947 105.561 57.0907 105.561 56.696C105.561 56.424 105.454 56.2213 105.241 56.088C105.033 55.9547 104.732 55.888 104.337 55.888H102.545ZM103.585 60.512C104.15 60.512 104.585 60.4053 104.889 60.192C105.193 59.9787 105.345 59.672 105.345 59.272C105.345 58.9627 105.236 58.7413 105.017 58.608C104.804 58.4747 104.478 58.408 104.041 58.408H102.041L101.625 60.512H103.585ZM115.056 55.4L113.936 61H113.368L114.256 56.56L111.36 60.288H111.08L109.584 56.488L108.688 61H108.12L109.24 55.4H109.72L111.336 59.56L114.536 55.4H115.056ZM118.543 55.912L118.143 57.904H121.047L120.951 58.408H118.047L117.631 60.488H120.999L120.895 61H116.943L118.063 55.4H121.903L121.799 55.912H118.543ZM125.985 61.048C125.441 61.048 124.972 60.952 124.577 60.76C124.183 60.5627 123.881 60.2907 123.673 59.944C123.471 59.592 123.369 59.184 123.369 58.72C123.369 58.1013 123.508 57.536 123.785 57.024C124.068 56.512 124.468 56.1067 124.985 55.808C125.503 55.504 126.1 55.352 126.777 55.352C127.225 55.352 127.623 55.424 127.969 55.568C128.316 55.7067 128.583 55.9067 128.769 56.168L128.353 56.536C127.996 56.0987 127.455 55.88 126.729 55.88C126.18 55.88 125.695 56.008 125.273 56.264C124.852 56.5147 124.527 56.8533 124.297 57.28C124.068 57.7067 123.953 58.176 123.953 58.688C123.953 59.248 124.132 59.6933 124.489 60.024C124.852 60.3547 125.367 60.52 126.033 60.52C126.764 60.52 127.356 60.2987 127.809 59.856L128.153 60.248C127.908 60.504 127.596 60.7013 127.217 60.84C126.839 60.9787 126.428 61.048 125.985 61.048ZM134.91 55.912H132.926L131.918 61H131.342L132.35 55.912H130.39L130.494 55.4H135.014L134.91 55.912ZM137.653 55.912L137.253 57.904H140.157L140.061 58.408H137.157L136.741 60.488H140.109L140.005 61H136.053L137.173 55.4H141.013L140.909 55.912H137.653Z" fill="#ADADAD"/>
</svg>
